<svg width="1749" height="849" viewBox="0 0 1749 849" fill="none" xmlns="http://www.w3.org/2000/svg">
<path d="M73.8942 20.3024L108.082 0.671627L142.176 20.4634L142.083 59.8859L107.896 79.5167L73.8012 59.725L73.8942 20.3024Z" fill="#EAEAEA" stroke="white"/>
<path d="M108 79.3847L142.187 59.7539L176.281 79.5456L176.189 118.968L142.001 138.599L107.907 118.807L108 79.3847Z" fill="#EAEAEA" stroke="white"/>
<path d="M73.9996 138.385L108.187 118.754L142.281 138.546L142.189 177.968L108.001 197.599L73.9067 177.807L73.9996 138.385Z" fill="#EAEAEA" stroke="white"/>
<path d="M108 197.385L142.187 177.754L176.281 197.546L176.189 236.968L142.001 256.599L107.907 236.807L108 197.385Z" fill="#EAEAEA" stroke="white"/>
<path d="M73.9996 256.385L108.187 236.754L142.281 256.546L142.189 295.968L108.001 315.599L73.9067 295.807L73.9996 256.385Z" fill="#EAEAEA" stroke="white"/>
<path d="M108.105 315.467L142.292 295.836L176.387 315.628L176.294 355.05L142.107 374.681L108.012 354.89L108.105 315.467Z" fill="#EAEAEA" stroke="white"/>
<path d="M73.9996 374.385L108.187 354.754L142.281 374.546L142.189 413.968L108.001 433.599L73.9067 413.807L73.9996 374.385Z" fill="#EAEAEA" stroke="white"/>
<path d="M108.105 433.467L142.292 413.836L176.387 433.628L176.294 473.05L142.107 492.681L108.012 472.89L108.105 433.467Z" fill="#EAEAEA" stroke="white"/>
<path d="M74.1051 492.467L108.292 472.836L142.387 492.628L142.294 532.05L108.107 551.681L74.0122 531.89L74.1051 492.467Z" fill="#EAEAEA" stroke="white"/>
<path d="M108.105 551.467L142.292 531.836L176.387 551.628L176.294 591.05L142.107 610.681L108.012 590.89L108.105 551.467Z" fill="#FE5151" stroke="white"/>
<path d="M74.1051 610.467L108.292 590.836L142.387 610.628L142.294 650.05L108.107 669.681L74.0122 649.89L74.1051 610.467Z" fill="#EAEAEA" stroke="white"/>
<path d="M5.99962 20.3847L40.187 0.753902L74.2815 20.5456L74.1886 59.9682L40.0012 79.599L5.90671 59.8072L5.99962 20.3847Z" fill="#EAEAEA" stroke="white"/>
<path d="M40.1051 79.467L74.2925 59.8362L108.387 79.6279L108.294 119.05L74.1066 138.681L40.0122 118.89L40.1051 79.467Z" fill="#EAEAEA" stroke="white"/>
<path d="M6.10509 138.467L40.2925 118.836L74.3869 138.628L74.294 178.05L40.1066 197.681L6.01217 177.89L6.10509 138.467Z" fill="#EAEAEA" stroke="white"/>
<path d="M40.1051 197.467L74.2925 177.836L108.387 197.628L108.294 237.05L74.1066 256.681L40.0122 236.89L40.1051 197.467Z" fill="#FE5151" stroke="white"/>
<path d="M6.10509 256.467L40.2925 236.836L74.3869 256.628L74.294 296.05L40.1066 315.681L6.01217 295.89L6.10509 256.467Z" fill="#EAEAEA" stroke="white"/>
<path d="M40.2106 315.549L74.3979 295.918L108.492 315.71L108.399 355.133L74.2121 374.764L40.1176 354.972L40.2106 315.549Z" fill="#FE5151" stroke="white"/>
<path d="M6.10509 374.467L40.2925 354.836L74.3869 374.628L74.294 414.05L40.1066 433.681L6.01217 413.89L6.10509 374.467Z" fill="#EAEAEA" stroke="white"/>
<path d="M40.2106 433.549L74.3979 413.918L108.492 433.71L108.399 473.133L74.2121 492.764L40.1176 472.972L40.2106 433.549Z" fill="#EAEAEA" stroke="white"/>
<path d="M6.21056 492.549L40.3979 472.918L74.4924 492.71L74.3995 532.133L40.2121 551.764L6.11764 531.972L6.21056 492.549Z" fill="#EAEAEA" stroke="white"/>
<path d="M40.2106 551.549L74.3979 531.918L108.492 551.71L108.399 591.133L74.2121 610.764L40.1176 590.972L40.2106 551.549Z" fill="#EAEAEA" stroke="white"/>
<path d="M6.21056 610.549L40.3979 590.918L74.4924 610.71L74.3995 650.133L40.2121 669.764L6.11764 649.972L6.21056 610.549Z" fill="#FE5151" stroke="white"/>
<path d="M142 20.3847L176.187 0.753902L210.281 20.5456L210.189 59.9682L176.001 79.599L141.907 59.8072L142 20.3847Z" fill="#EAEAEA" stroke="white"/>
<path d="M176.105 79.467L210.292 59.8362L244.387 79.6279L244.294 119.05L210.107 138.681L176.012 118.89L176.105 79.467Z" fill="#EAEAEA" stroke="white"/>
<path d="M142.105 138.467L176.292 118.836L210.387 138.628L210.294 178.05L176.107 197.681L142.012 177.89L142.105 138.467Z" fill="#EAEAEA" stroke="white"/>
<path d="M176.105 197.467L210.292 177.836L244.387 197.628L244.294 237.05L210.107 256.681L176.012 236.89L176.105 197.467Z" fill="#EAEAEA" stroke="white"/>
<path d="M142.105 256.467L176.292 236.836L210.387 256.628L210.294 296.05L176.107 315.681L142.012 295.89L142.105 256.467Z" fill="#EAEAEA" stroke="white"/>
<path d="M176.211 315.549L210.398 295.918L244.492 315.71L244.399 355.133L210.212 374.764L176.118 354.972L176.211 315.549Z" fill="#EAEAEA" stroke="white"/>
<path d="M142.105 374.467L176.292 354.836L210.387 374.628L210.294 414.05L176.107 433.681L142.012 413.89L142.105 374.467Z" fill="#EAEAEA" stroke="white"/>
<path d="M176.211 433.549L210.398 413.918L244.492 433.71L244.399 473.133L210.212 492.764L176.118 472.972L176.211 433.549Z" fill="#EAEAEA" stroke="white"/>
<path d="M142.211 492.549L176.398 472.918L210.492 492.71L210.399 532.133L176.212 551.764L142.118 531.972L142.211 492.549Z" fill="#EAEAEA" stroke="white"/>
<path d="M176.211 551.549L210.398 531.918L244.492 551.71L244.399 591.133L210.212 610.764L176.118 590.972L176.211 551.549Z" fill="#EAEAEA" stroke="white"/>
<path d="M142.211 610.549L176.398 590.918L210.492 610.71L210.399 650.133L176.212 669.764L142.118 649.972L142.211 610.549Z" fill="#EAEAEA" stroke="white"/>
<path d="M210 20.3847L244.187 0.753902L278.281 20.5456L278.189 59.9682L244.001 79.599L209.907 59.8072L210 20.3847Z" fill="#EAEAEA" stroke="white"/>
<path d="M244.105 79.467L278.292 59.8362L312.387 79.6279L312.294 119.05L278.107 138.681L244.012 118.89L244.105 79.467Z" fill="#EAEAEA" stroke="white"/>
<path d="M210.105 138.467L244.292 118.836L278.387 138.628L278.294 178.05L244.107 197.681L210.012 177.89L210.105 138.467Z" fill="#EAEAEA" stroke="white"/>
<path d="M244.105 197.467L278.292 177.836L312.387 197.628L312.294 237.05L278.107 256.681L244.012 236.89L244.105 197.467Z" fill="#EAEAEA" stroke="white"/>
<path d="M210.105 256.467L244.292 236.836L278.387 256.628L278.294 296.05L244.107 315.681L210.012 295.89L210.105 256.467Z" fill="#EAEAEA" stroke="white"/>
<path d="M244.211 315.549L278.398 295.918L312.492 315.71L312.399 355.133L278.212 374.764L244.118 354.972L244.211 315.549Z" fill="#EAEAEA" stroke="white"/>
<path d="M210.105 374.467L244.292 354.836L278.387 374.628L278.294 414.05L244.107 433.681L210.012 413.89L210.105 374.467Z" fill="#EAEAEA" stroke="white"/>
<path d="M244.211 433.549L278.398 413.918L312.492 433.71L312.399 473.133L278.212 492.764L244.118 472.972L244.211 433.549Z" fill="#EAEAEA" stroke="white"/>
<path d="M210.211 492.549L244.398 472.918L278.492 492.71L278.399 532.133L244.212 551.764L210.118 531.972L210.211 492.549Z" fill="#EAEAEA" stroke="white"/>
<path d="M244.211 551.549L278.398 531.918L312.492 551.71L312.399 591.133L278.212 610.764L244.118 590.972L244.211 551.549Z" fill="#FE5151" stroke="white"/>
<path d="M210.211 610.549L244.398 590.918L278.492 610.71L278.399 650.133L244.212 669.764L210.118 649.972L210.211 610.549Z" fill="#EAEAEA" stroke="white"/>
<path d="M278.105 20.467L312.292 0.836178L346.387 20.6279L346.294 60.0505L312.107 79.6813L278.012 59.8895L278.105 20.467Z" fill="#EAEAEA" stroke="white"/>
<path d="M312.211 79.5493L346.398 59.9185L380.492 79.7102L380.399 119.133L346.212 138.764L312.118 118.972L312.211 79.5493Z" fill="#EAEAEA" stroke="white"/>
<path d="M278.211 138.549L312.398 118.918L346.492 138.71L346.399 178.133L312.212 197.764L278.118 177.972L278.211 138.549Z" fill="#FE5151" stroke="white"/>
<path d="M312.211 197.549L346.398 177.918L380.492 197.71L380.399 237.133L346.212 256.764L312.118 236.972L312.211 197.549Z" fill="#EAEAEA" stroke="white"/>
<path d="M278.211 256.549L312.398 236.918L346.492 256.71L346.399 296.133L312.212 315.764L278.118 295.972L278.211 256.549Z" fill="#FE5151" stroke="white"/>
<path d="M312.316 315.632L346.503 296.001L380.598 315.792L380.505 355.215L346.318 374.846L312.223 355.054L312.316 315.632Z" fill="#EAEAEA" stroke="white"/>
<path d="M278.211 374.549L312.398 354.918L346.492 374.71L346.399 414.133L312.212 433.764L278.118 413.972L278.211 374.549Z" fill="#EAEAEA" stroke="white"/>
<path d="M312.316 433.632L346.503 414.001L380.598 433.792L380.505 473.215L346.318 492.846L312.223 473.054L312.316 433.632Z" fill="#EAEAEA" stroke="white"/>
<path d="M278.316 492.632L312.503 473.001L346.598 492.792L346.505 532.215L312.318 551.846L278.223 532.054L278.316 492.632Z" fill="#EAEAEA" stroke="white"/>
<path d="M312.316 551.632L346.503 532.001L380.598 551.792L380.505 591.215L346.318 610.846L312.223 591.054L312.316 551.632Z" fill="#EAEAEA" stroke="white"/>
<path d="M278.316 610.632L312.503 591.001L346.598 610.792L346.505 650.215L312.318 669.846L278.223 650.054L278.316 610.632Z" fill="#EAEAEA" stroke="white"/>
<path d="M346 20.3847L380.187 0.753902L414.281 20.5456L414.189 59.9682L380.001 79.599L345.907 59.8072L346 20.3847Z" fill="#EAEAEA" stroke="white"/>
<path d="M380.105 79.467L414.292 59.8362L448.387 79.6279L448.294 119.05L414.107 138.681L380.012 118.89L380.105 79.467Z" fill="#EAEAEA" stroke="white"/>
<path d="M346.105 138.467L380.292 118.836L414.387 138.628L414.294 178.05L380.107 197.681L346.012 177.89L346.105 138.467Z" fill="#EAEAEA" stroke="white"/>
<path d="M380.105 197.467L414.292 177.836L448.387 197.628L448.294 237.05L414.107 256.681L380.012 236.89L380.105 197.467Z" fill="#EAEAEA" stroke="white"/>
<path d="M346.105 256.467L380.292 236.836L414.387 256.628L414.294 296.05L380.107 315.681L346.012 295.89L346.105 256.467Z" fill="#EAEAEA" stroke="white"/>
<path d="M380.211 315.549L414.398 295.918L448.492 315.71L448.399 355.133L414.212 374.764L380.118 354.972L380.211 315.549Z" fill="#EAEAEA" stroke="white"/>
<path d="M346.105 374.467L380.292 354.836L414.387 374.628L414.294 414.05L380.107 433.681L346.012 413.89L346.105 374.467Z" fill="#EAEAEA" stroke="white"/>
<path d="M380.211 433.549L414.398 413.918L448.492 433.71L448.399 473.133L414.212 492.764L380.118 472.972L380.211 433.549Z" fill="#FE5151" stroke="white"/>
<path d="M346.211 492.549L380.398 472.918L414.492 492.71L414.399 532.133L380.212 551.764L346.118 531.972L346.211 492.549Z" fill="#EAEAEA" stroke="white"/>
<path d="M380.211 551.549L414.398 531.918L448.492 551.71L448.399 591.133L414.212 610.764L380.118 590.972L380.211 551.549Z" fill="#EAEAEA" stroke="white"/>
<path d="M346.211 610.549L380.398 590.918L414.492 610.71L414.399 650.133L380.212 669.764L346.118 649.972L346.211 610.549Z" fill="#EAEAEA" stroke="white"/>
<path d="M414.105 20.467L448.292 0.836178L482.387 20.6279L482.294 60.0505L448.107 79.6813L414.012 59.8895L414.105 20.467Z" fill="#EAEAEA" stroke="white"/>
<path d="M448.211 79.5493L482.398 59.9185L516.492 79.7102L516.399 119.133L482.212 138.764L448.118 118.972L448.211 79.5493Z" fill="#EAEAEA" stroke="white"/>
<path d="M414.211 138.549L448.398 118.918L482.492 138.71L482.399 178.133L448.212 197.764L414.118 177.972L414.211 138.549Z" fill="#EAEAEA" stroke="white"/>
<path d="M448.211 197.549L482.398 177.918L516.492 197.71L516.399 237.133L482.212 256.764L448.118 236.972L448.211 197.549Z" fill="#EAEAEA" stroke="white"/>
<path d="M414.211 256.549L448.398 236.918L482.492 256.71L482.399 296.133L448.212 315.764L414.118 295.972L414.211 256.549Z" fill="#EAEAEA" stroke="white"/>
<path d="M448.316 315.632L482.503 296.001L516.598 315.792L516.505 355.215L482.318 374.846L448.223 355.054L448.316 315.632Z" fill="#EAEAEA" stroke="white"/>
<path d="M414.211 374.549L448.398 354.918L482.492 374.71L482.399 414.133L448.212 433.764L414.118 413.972L414.211 374.549Z" fill="#EAEAEA" stroke="white"/>
<path d="M448.316 433.632L482.503 414.001L516.598 433.792L516.505 473.215L482.318 492.846L448.223 473.054L448.316 433.632Z" fill="#EAEAEA" stroke="white"/>
<path d="M414.316 492.632L448.503 473.001L482.598 492.792L482.505 532.215L448.318 551.846L414.223 532.054L414.316 492.632Z" fill="#EAEAEA" stroke="white"/>
<path d="M448.316 551.632L482.503 532.001L516.598 551.792L516.505 591.215L482.318 610.846L448.223 591.054L448.316 551.632Z" fill="#EAEAEA" stroke="white"/>
<path d="M414.316 610.632L448.503 591.001L482.598 610.792L482.505 650.215L448.318 669.846L414.223 650.054L414.316 610.632Z" fill="#EAEAEA" stroke="white"/>
<path d="M482.105 20.467L516.292 0.836178L550.387 20.6279L550.294 60.0505L516.107 79.6813L482.012 59.8895L482.105 20.467Z" fill="#EAEAEA" stroke="white"/>
<path d="M516.211 79.5493L550.398 59.9185L584.492 79.7102L584.399 119.133L550.212 138.764L516.118 118.972L516.211 79.5493Z" fill="#EAEAEA" stroke="white"/>
<path d="M482.211 138.549L516.398 118.918L550.492 138.71L550.399 178.133L516.212 197.764L482.118 177.972L482.211 138.549Z" fill="#FE5151" stroke="white"/>
<path d="M516.211 197.549L550.398 177.918L584.492 197.71L584.399 237.133L550.212 256.764L516.118 236.972L516.211 197.549Z" fill="#EAEAEA" stroke="white"/>
<path d="M482.211 256.549L516.398 236.918L550.492 256.71L550.399 296.133L516.212 315.764L482.118 295.972L482.211 256.549Z" fill="#EAEAEA" stroke="white"/>
<path d="M516.316 315.632L550.503 296.001L584.598 315.792L584.505 355.215L550.318 374.846L516.223 355.054L516.316 315.632Z" fill="#EAEAEA" stroke="white"/>
<path d="M482.211 374.549L516.398 354.918L550.492 374.71L550.399 414.133L516.212 433.764L482.118 413.972L482.211 374.549Z" fill="#EAEAEA" stroke="white"/>
<path d="M516.316 433.632L550.503 414.001L584.598 433.792L584.505 473.215L550.318 492.846L516.223 473.054L516.316 433.632Z" fill="#EAEAEA" stroke="white"/>
<path d="M482.316 492.632L516.503 473.001L550.598 492.792L550.505 532.215L516.318 551.846L482.223 532.054L482.316 492.632Z" fill="#EAEAEA" stroke="white"/>
<path d="M516.316 551.632L550.503 532.001L584.598 551.792L584.505 591.215L550.318 610.846L516.223 591.054L516.316 551.632Z" fill="#EAEAEA" stroke="white"/>
<path d="M482.316 610.632L516.503 591.001L550.598 610.792L550.505 650.215L516.318 669.846L482.223 650.054L482.316 610.632Z" fill="#EAEAEA" stroke="white"/>
<path d="M550.211 20.5493L584.398 0.918453L618.492 20.7102L618.399 60.1327L584.212 79.7635L550.118 59.9718L550.211 20.5493Z" fill="#EAEAEA" stroke="white"/>
<path d="M584.316 79.6315L618.503 60.0007L652.598 79.7925L652.505 119.215L618.318 138.846L584.223 119.054L584.316 79.6315Z" fill="#EAEAEA" stroke="white"/>
<path d="M550.316 138.632L584.503 119.001L618.598 138.792L618.505 178.215L584.318 197.846L550.223 178.054L550.316 138.632Z" fill="#EAEAEA" stroke="white"/>
<path d="M584.316 197.632L618.503 178.001L652.598 197.792L652.505 237.215L618.318 256.846L584.223 237.054L584.316 197.632Z" fill="#EAEAEA" stroke="white"/>
<path d="M550.316 256.632L584.503 237.001L618.598 256.792L618.505 296.215L584.318 315.846L550.223 296.054L550.316 256.632Z" fill="#FE5151" stroke="white"/>
<path d="M584.421 315.714L618.609 296.083L652.703 315.875L652.61 355.297L618.423 374.928L584.329 355.136L584.421 315.714Z" fill="#EAEAEA" stroke="white"/>
<path d="M550.316 374.632L584.503 355.001L618.598 374.792L618.505 414.215L584.318 433.846L550.223 414.054L550.316 374.632Z" fill="#EAEAEA" stroke="white"/>
<path d="M584.421 433.714L618.609 414.083L652.703 433.875L652.61 473.297L618.423 492.928L584.329 473.136L584.421 433.714Z" fill="#EAEAEA" stroke="white"/>
<path d="M550.421 492.714L584.609 473.083L618.703 492.875L618.61 532.297L584.423 551.928L550.329 532.136L550.421 492.714Z" fill="#FE5151" stroke="white"/>
<path d="M584.421 551.714L618.609 532.083L652.703 551.875L652.61 591.297L618.423 610.928L584.329 591.136L584.421 551.714Z" fill="#EAEAEA" stroke="white"/>
<path d="M550.421 610.714L584.609 591.083L618.703 610.875L618.61 650.297L584.423 669.928L550.329 650.136L550.421 610.714Z" fill="#EAEAEA" stroke="white"/>
<path d="M618 20.3847L652.187 0.753902L686.281 20.5456L686.189 59.9682L652.001 79.599L617.907 59.8072L618 20.3847Z" fill="#EAEAEA" stroke="white"/>
<path d="M652.105 79.467L686.292 59.8362L720.387 79.6279L720.294 119.05L686.107 138.681L652.012 118.89L652.105 79.467Z" fill="#EAEAEA" stroke="white"/>
<path d="M618.105 138.467L652.292 118.836L686.387 138.628L686.294 178.05L652.107 197.681L618.012 177.89L618.105 138.467Z" fill="#EAEAEA" stroke="white"/>
<path d="M652.105 197.467L686.292 177.836L720.387 197.628L720.294 237.05L686.107 256.681L652.012 236.89L652.105 197.467Z" fill="#EAEAEA" stroke="white"/>
<path d="M618.105 256.467L652.292 236.836L686.387 256.628L686.294 296.05L652.107 315.681L618.012 295.89L618.105 256.467Z" fill="#EAEAEA" stroke="white"/>
<path d="M652.211 315.549L686.398 295.918L720.492 315.71L720.399 355.133L686.212 374.764L652.118 354.972L652.211 315.549Z" fill="#EAEAEA" stroke="white"/>
<path d="M618.105 374.467L652.292 354.836L686.387 374.628L686.294 414.05L652.107 433.681L618.012 413.89L618.105 374.467Z" fill="#EAEAEA" stroke="white"/>
<path d="M652.211 433.549L686.398 413.918L720.492 433.71L720.399 473.133L686.212 492.764L652.118 472.972L652.211 433.549Z" fill="#EAEAEA" stroke="white"/>
<path d="M618.211 492.549L652.398 472.918L686.492 492.71L686.399 532.133L652.212 551.764L618.118 531.972L618.211 492.549Z" fill="#EAEAEA" stroke="white"/>
<path d="M652.211 551.549L686.398 531.918L720.492 551.71L720.399 591.133L686.212 610.764L652.118 590.972L652.211 551.549Z" fill="#EAEAEA" stroke="white"/>
<path d="M618.211 610.549L652.398 590.918L686.492 610.71L686.399 650.133L652.212 669.764L618.118 649.972L618.211 610.549Z" fill="#EAEAEA" stroke="white"/>
<path d="M686.105 20.467L720.292 0.836178L754.387 20.6279L754.294 60.0505L720.107 79.6813L686.012 59.8895L686.105 20.467Z" fill="#EAEAEA" stroke="white"/>
<path d="M720.211 79.5493L754.398 59.9185L788.492 79.7102L788.399 119.133L754.212 138.764L720.118 118.972L720.211 79.5493Z" fill="#EAEAEA" stroke="white"/>
<path d="M686.211 138.549L720.398 118.918L754.492 138.71L754.399 178.133L720.212 197.764L686.118 177.972L686.211 138.549Z" fill="#FE5151" stroke="white"/>
<path d="M720.211 197.549L754.398 177.918L788.492 197.71L788.399 237.133L754.212 256.764L720.118 236.972L720.211 197.549Z" fill="#EAEAEA" stroke="white"/>
<path d="M686.211 256.549L720.398 236.918L754.492 256.71L754.399 296.133L720.212 315.764L686.118 295.972L686.211 256.549Z" fill="#EAEAEA" stroke="white"/>
<path d="M720.316 315.632L754.503 296.001L788.598 315.792L788.505 355.215L754.318 374.846L720.223 355.054L720.316 315.632Z" fill="#EAEAEA" stroke="white"/>
<path d="M686.211 374.549L720.398 354.918L754.492 374.71L754.399 414.133L720.212 433.764L686.118 413.972L686.211 374.549Z" fill="#EAEAEA" stroke="white"/>
<path d="M720.316 433.632L754.503 414.001L788.598 433.792L788.505 473.215L754.318 492.846L720.223 473.054L720.316 433.632Z" fill="#FE5151" stroke="white"/>
<path d="M686.316 492.632L720.503 473.001L754.598 492.792L754.505 532.215L720.318 551.846L686.223 532.054L686.316 492.632Z" fill="#EAEAEA" stroke="white"/>
<path d="M720.316 551.632L754.503 532.001L788.598 551.792L788.505 591.215L754.318 610.846L720.223 591.054L720.316 551.632Z" fill="#EAEAEA" stroke="white"/>
<path d="M686.316 610.632L720.503 591.001L754.598 610.792L754.505 650.215L720.318 669.846L686.223 650.054L686.316 610.632Z" fill="#FE5151" stroke="white"/>
<path d="M754.105 20.467L788.292 0.836178L822.387 20.6279L822.294 60.0505L788.107 79.6813L754.012 59.8895L754.105 20.467Z" fill="#EAEAEA" stroke="white"/>
<path d="M788.211 79.5493L822.398 59.9185L856.492 79.7102L856.399 119.133L822.212 138.764L788.118 118.972L788.211 79.5493Z" fill="#EAEAEA" stroke="white"/>
<path d="M754.211 138.549L788.398 118.918L822.492 138.71L822.399 178.133L788.212 197.764L754.118 177.972L754.211 138.549Z" fill="#EAEAEA" stroke="white"/>
<path d="M788.211 197.549L822.398 177.918L856.492 197.71L856.399 237.133L822.212 256.764L788.118 236.972L788.211 197.549Z" fill="#EAEAEA" stroke="white"/>
<path d="M754.211 256.549L788.398 236.918L822.492 256.71L822.399 296.133L788.212 315.764L754.118 295.972L754.211 256.549Z" fill="#EAEAEA" stroke="white"/>
<path d="M788.316 315.632L822.503 296.001L856.598 315.792L856.505 355.215L822.318 374.846L788.223 355.054L788.316 315.632Z" fill="#EAEAEA" stroke="white"/>
<path d="M754.211 374.549L788.398 354.918L822.492 374.71L822.399 414.133L788.212 433.764L754.118 413.972L754.211 374.549Z" fill="#FE5151" stroke="white"/>
<path d="M788.316 433.632L822.503 414.001L856.598 433.792L856.505 473.215L822.318 492.846L788.223 473.054L788.316 433.632Z" fill="#EAEAEA" stroke="white"/>
<path d="M754.316 492.632L788.503 473.001L822.598 492.792L822.505 532.215L788.318 551.846L754.223 532.054L754.316 492.632Z" fill="#EAEAEA" stroke="white"/>
<path d="M788.316 551.632L822.503 532.001L856.598 551.792L856.505 591.215L822.318 610.846L788.223 591.054L788.316 551.632Z" fill="#EAEAEA" stroke="white"/>
<path d="M754.316 610.632L788.503 591.001L822.598 610.792L822.505 650.215L788.318 669.846L754.223 650.054L754.316 610.632Z" fill="#EAEAEA" stroke="white"/>
<path d="M822.211 20.5493L856.398 0.918453L890.492 20.7102L890.399 60.1327L856.212 79.7635L822.118 59.9718L822.211 20.5493Z" fill="#EAEAEA" stroke="white"/>
<path d="M856.316 79.6315L890.503 60.0007L924.598 79.7925L924.505 119.215L890.318 138.846L856.223 119.054L856.316 79.6315Z" fill="#EAEAEA" stroke="white"/>
<path d="M822.316 138.632L856.503 119.001L890.598 138.792L890.505 178.215L856.318 197.846L822.223 178.054L822.316 138.632Z" fill="#EAEAEA" stroke="white"/>
<path d="M856.316 197.632L890.503 178.001L924.598 197.792L924.505 237.215L890.318 256.846L856.223 237.054L856.316 197.632Z" fill="#EAEAEA" stroke="white"/>
<path d="M822.316 256.632L856.503 237.001L890.598 256.792L890.505 296.215L856.318 315.846L822.223 296.054L822.316 256.632Z" fill="#EAEAEA" stroke="white"/>
<path d="M856.421 315.714L890.609 296.083L924.703 315.875L924.61 355.297L890.423 374.928L856.329 355.136L856.421 315.714Z" fill="#EAEAEA" stroke="white"/>
<path d="M822.316 374.632L856.503 355.001L890.598 374.792L890.505 414.215L856.318 433.846L822.223 414.054L822.316 374.632Z" fill="#EAEAEA" stroke="white"/>
<path d="M856.421 433.714L890.609 414.083L924.703 433.875L924.61 473.297L890.423 492.928L856.329 473.136L856.421 433.714Z" fill="#EAEAEA" stroke="white"/>
<path d="M822.421 492.714L856.609 473.083L890.703 492.875L890.61 532.297L856.423 551.928L822.329 532.136L822.421 492.714Z" fill="#EAEAEA" stroke="white"/>
<path d="M856.421 551.714L890.609 532.083L924.703 551.875L924.61 591.297L890.423 610.928L856.329 591.136L856.421 551.714Z" fill="#EAEAEA" stroke="white"/>
<path d="M822.421 610.714L856.609 591.083L890.703 610.875L890.61 650.297L856.423 669.928L822.329 650.136L822.421 610.714Z" fill="#FE5151" stroke="white"/>
<path d="M890.105 20.467L924.292 0.836178L958.387 20.6279L958.294 60.0505L924.107 79.6813L890.012 59.8895L890.105 20.467Z" fill="#EAEAEA" stroke="white"/>
<path d="M924.211 79.5493L958.398 59.9185L992.492 79.7102L992.399 119.133L958.212 138.764L924.118 118.972L924.211 79.5493Z" fill="#EAEAEA" stroke="white"/>
<path d="M890.211 138.549L924.398 118.918L958.492 138.71L958.399 178.133L924.212 197.764L890.118 177.972L890.211 138.549Z" fill="#EAEAEA" stroke="white"/>
<path d="M924.211 197.549L958.398 177.918L992.492 197.71L992.399 237.133L958.212 256.764L924.118 236.972L924.211 197.549Z" fill="#EAEAEA" stroke="white"/>
<path d="M890.211 256.549L924.398 236.918L958.492 256.71L958.399 296.133L924.212 315.764L890.118 295.972L890.211 256.549Z" fill="#FE5151" stroke="white"/>
<path d="M924.316 315.632L958.503 296.001L992.598 315.792L992.505 355.215L958.318 374.846L924.223 355.054L924.316 315.632Z" fill="#EAEAEA" stroke="white"/>
<path d="M890.211 374.549L924.398 354.918L958.492 374.71L958.399 414.133L924.212 433.764L890.118 413.972L890.211 374.549Z" fill="#EAEAEA" stroke="white"/>
<path d="M924.316 433.632L958.503 414.001L992.598 433.792L992.505 473.215L958.318 492.846L924.223 473.054L924.316 433.632Z" fill="#EAEAEA" stroke="white"/>
<path d="M890.316 492.632L924.503 473.001L958.598 492.792L958.505 532.215L924.318 551.846L890.223 532.054L890.316 492.632Z" fill="#EAEAEA" stroke="white"/>
<path d="M924.316 551.632L958.503 532.001L992.598 551.792L992.505 591.215L958.318 610.846L924.223 591.054L924.316 551.632Z" fill="#EAEAEA" stroke="white"/>
<path d="M890.316 610.632L924.503 591.001L958.598 610.792L958.505 650.215L924.318 669.846L890.223 650.054L890.316 610.632Z" fill="#EAEAEA" stroke="white"/>
<path d="M958.211 20.5493L992.398 0.918453L1026.49 20.7102L1026.4 60.1327L992.212 79.7635L958.118 59.9718L958.211 20.5493Z" fill="#EAEAEA" stroke="white"/>
<path d="M992.316 79.6315L1026.5 60.0007L1060.6 79.7925L1060.5 119.215L1026.32 138.846L992.223 119.054L992.316 79.6315Z" fill="#EAEAEA" stroke="white"/>
<path d="M958.316 138.632L992.503 119.001L1026.6 138.792L1026.5 178.215L992.318 197.846L958.223 178.054L958.316 138.632Z" fill="#EAEAEA" stroke="white"/>
<path d="M992.316 197.632L1026.5 178.001L1060.6 197.792L1060.5 237.215L1026.32 256.846L992.223 237.054L992.316 197.632Z" fill="#EAEAEA" stroke="white"/>
<path d="M958.316 256.632L992.503 237.001L1026.6 256.792L1026.5 296.215L992.318 315.846L958.223 296.054L958.316 256.632Z" fill="#EAEAEA" stroke="white"/>
<path d="M992.421 315.714L1026.61 296.083L1060.7 315.875L1060.61 355.297L1026.42 374.928L992.329 355.136L992.421 315.714Z" fill="#EAEAEA" stroke="white"/>
<path d="M958.316 374.632L992.503 355.001L1026.6 374.792L1026.5 414.215L992.318 433.846L958.223 414.054L958.316 374.632Z" fill="#EAEAEA" stroke="white"/>
<path d="M992.421 433.714L1026.61 414.083L1060.7 433.875L1060.61 473.297L1026.42 492.928L992.329 473.136L992.421 433.714Z" fill="#EAEAEA" stroke="white"/>
<path d="M958.421 492.714L992.609 473.083L1026.7 492.875L1026.61 532.297L992.423 551.928L958.329 532.136L958.421 492.714Z" fill="#EAEAEA" stroke="white"/>
<path d="M992.421 551.714L1026.61 532.083L1060.7 551.875L1060.61 591.297L1026.42 610.928L992.329 591.136L992.421 551.714Z" fill="#EAEAEA" stroke="white"/>
<path d="M958.421 610.714L992.609 591.083L1026.7 610.875L1026.61 650.297L992.423 669.928L958.329 650.136L958.421 610.714Z" fill="#EAEAEA" stroke="white"/>
<path d="M1026.21 20.5493L1060.4 0.918453L1094.49 20.7102L1094.4 60.1327L1060.21 79.7635L1026.12 59.9718L1026.21 20.5493Z" fill="#EAEAEA" stroke="white"/>
<path d="M1060.32 79.6315L1094.5 60.0007L1128.6 79.7925L1128.51 119.215L1094.32 138.846L1060.22 119.054L1060.32 79.6315Z" fill="#EAEAEA" stroke="white"/>
<path d="M1026.32 138.632L1060.5 119.001L1094.6 138.792L1094.51 178.215L1060.32 197.846L1026.22 178.054L1026.32 138.632Z" fill="#EAEAEA" stroke="white"/>
<path d="M1060.32 197.632L1094.5 178.001L1128.6 197.792L1128.51 237.215L1094.32 256.846L1060.22 237.054L1060.32 197.632Z" fill="#FE5151" stroke="white"/>
<path d="M1026.32 256.632L1060.5 237.001L1094.6 256.792L1094.51 296.215L1060.32 315.846L1026.22 296.054L1026.32 256.632Z" fill="#EAEAEA" stroke="white"/>
<path d="M1060.42 315.714L1094.61 296.083L1128.7 315.875L1128.61 355.297L1094.42 374.928L1060.33 355.136L1060.42 315.714Z" fill="#EAEAEA" stroke="white"/>
<path d="M1026.32 374.632L1060.5 355.001L1094.6 374.792L1094.51 414.215L1060.32 433.846L1026.22 414.054L1026.32 374.632Z" fill="#EAEAEA" stroke="white"/>
<path d="M1060.42 433.714L1094.61 414.083L1128.7 433.875L1128.61 473.297L1094.42 492.928L1060.33 473.136L1060.42 433.714Z" fill="#EAEAEA" stroke="white"/>
<path d="M1026.42 492.714L1060.61 473.083L1094.7 492.875L1094.61 532.297L1060.42 551.928L1026.33 532.136L1026.42 492.714Z" fill="#FE5151" stroke="white"/>
<path d="M1060.42 551.714L1094.61 532.083L1128.7 551.875L1128.61 591.297L1094.42 610.928L1060.33 591.136L1060.42 551.714Z" fill="#EAEAEA" stroke="white"/>
<path d="M1026.42 610.714L1060.61 591.083L1094.7 610.875L1094.61 650.297L1060.42 669.928L1026.33 650.136L1026.42 610.714Z" fill="#EAEAEA" stroke="white"/>
<path d="M1094.32 20.6315L1128.5 1.00073L1162.6 20.7925L1162.51 60.215L1128.32 79.8458L1094.22 60.0541L1094.32 20.6315Z" fill="#EAEAEA" stroke="white"/>
<path d="M1128.42 79.7138L1162.61 60.083L1196.7 79.8747L1196.61 119.297L1162.42 138.928L1128.33 119.136L1128.42 79.7138Z" fill="#EAEAEA" stroke="white"/>
<path d="M1094.42 138.714L1128.61 119.083L1162.7 138.875L1162.61 178.297L1128.42 197.928L1094.33 178.136L1094.42 138.714Z" fill="#EAEAEA" stroke="white"/>
<path d="M1128.42 197.714L1162.61 178.083L1196.7 197.875L1196.61 237.297L1162.42 256.928L1128.33 237.136L1128.42 197.714Z" fill="#EAEAEA" stroke="white"/>
<path d="M1094.42 256.714L1128.61 237.083L1162.7 256.875L1162.61 296.297L1128.42 315.928L1094.33 296.136L1094.42 256.714Z" fill="#EAEAEA" stroke="white"/>
<path d="M1128.53 315.796L1162.72 296.165L1196.81 315.957L1196.72 355.38L1162.53 375.01L1128.44 355.219L1128.53 315.796Z" fill="#EAEAEA" stroke="white"/>
<path d="M1094.42 374.714L1128.61 355.083L1162.7 374.875L1162.61 414.297L1128.42 433.928L1094.33 414.136L1094.42 374.714Z" fill="#EAEAEA" stroke="white"/>
<path d="M1128.53 433.796L1162.72 414.165L1196.81 433.957L1196.72 473.38L1162.53 493.01L1128.44 473.219L1128.53 433.796Z" fill="#EAEAEA" stroke="white"/>
<path d="M1094.53 492.796L1128.72 473.165L1162.81 492.957L1162.72 532.38L1128.53 552.01L1094.44 532.219L1094.53 492.796Z" fill="#EAEAEA" stroke="white"/>
<path d="M1128.53 551.796L1162.72 532.165L1196.81 551.957L1196.72 591.38L1162.53 611.01L1128.44 591.219L1128.53 551.796Z" fill="#EAEAEA" stroke="white"/>
<path d="M1094.53 610.796L1128.72 591.165L1162.81 610.957L1162.72 650.38L1128.53 670.01L1094.44 650.219L1094.53 610.796Z" fill="#EAEAEA" stroke="white"/>
<path d="M1163 20.467L1197.19 0.836178L1231.28 20.6279L1231.19 60.0505L1197 79.6813L1162.91 59.8895L1163 20.467Z" fill="#EAEAEA" stroke="white"/>
<path d="M1197.11 79.5493L1231.29 59.9185L1265.39 79.7102L1265.29 119.133L1231.11 138.764L1197.01 118.972L1197.11 79.5493Z" fill="#EAEAEA" stroke="white"/>
<path d="M1163.11 138.549L1197.29 118.918L1231.39 138.71L1231.29 178.133L1197.11 197.764L1163.01 177.972L1163.11 138.549Z" fill="#EAEAEA" stroke="white"/>
<path d="M1197.11 197.549L1231.29 177.918L1265.39 197.71L1265.29 237.133L1231.11 256.764L1197.01 236.972L1197.11 197.549Z" fill="#EAEAEA" stroke="white"/>
<path d="M1163.11 256.549L1197.29 236.918L1231.39 256.71L1231.29 296.133L1197.11 315.764L1163.01 295.972L1163.11 256.549Z" fill="#EAEAEA" stroke="white"/>
<path d="M1197.21 315.632L1231.4 296.001L1265.49 315.792L1265.4 355.215L1231.21 374.846L1197.12 355.054L1197.21 315.632Z" fill="#EAEAEA" stroke="white"/>
<path d="M1163.11 374.549L1197.29 354.918L1231.39 374.71L1231.29 414.133L1197.11 433.764L1163.01 413.972L1163.11 374.549Z" fill="#EAEAEA" stroke="white"/>
<path d="M1197.21 433.632L1231.4 414.001L1265.49 433.792L1265.4 473.215L1231.21 492.846L1197.12 473.054L1197.21 433.632Z" fill="#EAEAEA" stroke="white"/>
<path d="M1163.21 492.632L1197.4 473.001L1231.49 492.792L1231.4 532.215L1197.21 551.846L1163.12 532.054L1163.21 492.632Z" fill="#EAEAEA" stroke="white"/>
<path d="M1197.21 551.632L1231.4 532.001L1265.49 551.792L1265.4 591.215L1231.21 610.846L1197.12 591.054L1197.21 551.632Z" fill="#EAEAEA" stroke="white"/>
<path d="M1163.21 610.632L1197.4 591.001L1231.49 610.792L1231.4 650.215L1197.21 669.846L1163.12 650.054L1163.21 610.632Z" fill="#FE5151" stroke="white"/>
<path d="M1230.9 20.3847L1265.08 0.753902L1299.18 20.5456L1299.08 59.9682L1264.9 79.599L1230.8 59.8072L1230.9 20.3847Z" fill="#EAEAEA" stroke="white"/>
<path d="M1265 79.467L1299.19 59.8362L1333.28 79.6279L1333.19 119.05L1299 138.681L1264.91 118.89L1265 79.467Z" fill="#EAEAEA" stroke="white"/>
<path d="M1231 138.467L1265.19 118.836L1299.28 138.628L1299.19 178.05L1265 197.681L1230.91 177.89L1231 138.467Z" fill="#EAEAEA" stroke="white"/>
<path d="M1265 197.467L1299.19 177.836L1333.28 197.628L1333.19 237.05L1299 256.681L1264.91 236.89L1265 197.467Z" fill="#EAEAEA" stroke="white"/>
<path d="M1231 256.467L1265.19 236.836L1299.28 256.628L1299.19 296.05L1265 315.681L1230.91 295.89L1231 256.467Z" fill="#EAEAEA" stroke="white"/>
<path d="M1265.11 315.549L1299.29 295.918L1333.39 315.71L1333.29 355.133L1299.11 374.764L1265.01 354.972L1265.11 315.549Z" fill="#EAEAEA" stroke="white"/>
<path d="M1231 374.467L1265.19 354.836L1299.28 374.628L1299.19 414.05L1265 433.681L1230.91 413.89L1231 374.467Z" fill="#FE5151" stroke="white"/>
<path d="M1265.11 433.549L1299.29 413.918L1333.39 433.71L1333.29 473.133L1299.11 492.764L1265.01 472.972L1265.11 433.549Z" fill="#EAEAEA" stroke="white"/>
<path d="M1231.11 492.549L1265.29 472.918L1299.39 492.71L1299.29 532.133L1265.11 551.764L1231.01 531.972L1231.11 492.549Z" fill="#EAEAEA" stroke="white"/>
<path d="M1265.11 551.549L1299.29 531.918L1333.39 551.71L1333.29 591.133L1299.11 610.764L1265.01 590.972L1265.11 551.549Z" fill="#EAEAEA" stroke="white"/>
<path d="M1231.11 610.549L1265.29 590.918L1299.39 610.71L1299.29 650.133L1265.11 669.764L1231.01 649.972L1231.11 610.549Z" fill="#EAEAEA" stroke="white"/>
<path d="M1299 20.467L1333.19 0.836178L1367.28 20.6279L1367.19 60.0505L1333 79.6813L1298.91 59.8895L1299 20.467Z" fill="#EAEAEA" stroke="white"/>
<path d="M1333.11 79.5493L1367.29 59.9185L1401.39 79.7102L1401.29 119.133L1367.11 138.764L1333.01 118.972L1333.11 79.5493Z" fill="#FE5151" stroke="white"/>
<path d="M1299.11 138.549L1333.29 118.918L1367.39 138.71L1367.29 178.133L1333.11 197.764L1299.01 177.972L1299.11 138.549Z" fill="#EAEAEA" stroke="white"/>
<path d="M1333.11 197.549L1367.29 177.918L1401.39 197.71L1401.29 237.133L1367.11 256.764L1333.01 236.972L1333.11 197.549Z" fill="#FE5151" stroke="white"/>
<path d="M1299.11 256.549L1333.29 236.918L1367.39 256.71L1367.29 296.133L1333.11 315.764L1299.01 295.972L1299.11 256.549Z" fill="#EAEAEA" stroke="white"/>
<path d="M1333.21 315.632L1367.4 296.001L1401.49 315.792L1401.4 355.215L1367.21 374.846L1333.12 355.054L1333.21 315.632Z" fill="#EAEAEA" stroke="white"/>
<path d="M1299.11 374.549L1333.29 354.918L1367.39 374.71L1367.29 414.133L1333.11 433.764L1299.01 413.972L1299.11 374.549Z" fill="#EAEAEA" stroke="white"/>
<path d="M1333.21 433.632L1367.4 414.001L1401.49 433.792L1401.4 473.215L1367.21 492.846L1333.12 473.054L1333.21 433.632Z" fill="#EAEAEA" stroke="white"/>
<path d="M1299.21 492.632L1333.4 473.001L1367.49 492.792L1367.4 532.215L1333.21 551.846L1299.12 532.054L1299.21 492.632Z" fill="#EAEAEA" stroke="white"/>
<path d="M1333.21 551.632L1367.4 532.001L1401.49 551.792L1401.4 591.215L1367.21 610.846L1333.12 591.054L1333.21 551.632Z" fill="#FE5151" stroke="white"/>
<path d="M1299.21 610.632L1333.4 591.001L1367.49 610.792L1367.4 650.215L1333.21 669.846L1299.12 650.054L1299.21 610.632Z" fill="#EAEAEA" stroke="white"/>
<path d="M1367 20.467L1401.19 0.836178L1435.28 20.6279L1435.19 60.0505L1401 79.6813L1366.91 59.8895L1367 20.467Z" fill="#EAEAEA" stroke="white"/>
<path d="M1401.11 79.5493L1435.29 59.9185L1469.39 79.7102L1469.29 119.133L1435.11 138.764L1401.01 118.972L1401.11 79.5493Z" fill="#EAEAEA" stroke="white"/>
<path d="M1367.11 138.549L1401.29 118.918L1435.39 138.71L1435.29 178.133L1401.11 197.764L1367.01 177.972L1367.11 138.549Z" fill="#FE5151" stroke="white"/>
<path d="M1401.11 197.549L1435.29 177.918L1469.39 197.71L1469.29 237.133L1435.11 256.764L1401.01 236.972L1401.11 197.549Z" fill="#FE5151" stroke="white"/>
<path d="M1367.11 256.549L1401.29 236.918L1435.39 256.71L1435.29 296.133L1401.11 315.764L1367.01 295.972L1367.11 256.549Z" fill="#EAEAEA" stroke="white"/>
<path d="M1401.21 315.632L1435.4 296.001L1469.49 315.792L1469.4 355.215L1435.21 374.846L1401.12 355.054L1401.21 315.632Z" fill="#EAEAEA" stroke="white"/>
<path d="M1367.11 374.549L1401.29 354.918L1435.39 374.71L1435.29 414.133L1401.11 433.764L1367.01 413.972L1367.11 374.549Z" fill="#EAEAEA" stroke="white"/>
<path d="M1401.21 433.632L1435.4 414.001L1469.49 433.792L1469.4 473.215L1435.21 492.846L1401.12 473.054L1401.21 433.632Z" fill="#EAEAEA" stroke="white"/>
<path d="M1367.21 492.632L1401.4 473.001L1435.49 492.792L1435.4 532.215L1401.21 551.846L1367.12 532.054L1367.21 492.632Z" fill="#EAEAEA" stroke="white"/>
<path d="M1401.21 551.632L1435.4 532.001L1469.49 551.792L1469.4 591.215L1435.21 610.846L1401.12 591.054L1401.21 551.632Z" fill="#EAEAEA" stroke="white"/>
<path d="M1367.21 610.632L1401.4 591.001L1435.49 610.792L1435.4 650.215L1401.21 669.846L1367.12 650.054L1367.21 610.632Z" fill="#EAEAEA" stroke="white"/>
<path d="M1436 21.467L1470.19 1.83618L1504.28 21.6279L1504.19 61.0505L1470 80.6813L1435.91 60.8895L1436 21.467Z" fill="#EAEAEA" stroke="white"/>
<path d="M1470.11 80.5493L1504.29 60.9185L1538.39 80.7102L1538.29 120.133L1504.11 139.764L1470.01 119.972L1470.11 80.5493Z" fill="#EAEAEA" stroke="white"/>
<path d="M1436.11 139.549L1470.29 119.918L1504.39 139.71L1504.29 179.133L1470.11 198.764L1436.01 178.972L1436.11 139.549Z" fill="#EAEAEA" stroke="white"/>
<path d="M1470.11 198.549L1504.29 178.918L1538.39 198.71L1538.29 238.133L1504.11 257.764L1470.01 237.972L1470.11 198.549Z" fill="#EAEAEA" stroke="white"/>
<path d="M1436.11 257.549L1470.29 237.918L1504.39 257.71L1504.29 297.133L1470.11 316.764L1436.01 296.972L1436.11 257.549Z" fill="#EAEAEA" stroke="white"/>
<path d="M1470.21 316.632L1504.4 297.001L1538.49 316.792L1538.4 356.215L1504.21 375.846L1470.12 356.054L1470.21 316.632Z" fill="#EAEAEA" stroke="white"/>
<path d="M1436.11 375.549L1470.29 355.918L1504.39 375.71L1504.29 415.133L1470.11 434.764L1436.01 414.972L1436.11 375.549Z" fill="#EAEAEA" stroke="white"/>
<path d="M1470.21 434.632L1504.4 415.001L1538.49 434.792L1538.4 474.215L1504.21 493.846L1470.12 474.054L1470.21 434.632Z" fill="#EAEAEA" stroke="white"/>
<path d="M1436.21 493.632L1470.4 474.001L1504.49 493.792L1504.4 533.215L1470.21 552.846L1436.12 533.054L1436.21 493.632Z" fill="#EAEAEA" stroke="white"/>
<path d="M1470.21 552.632L1504.4 533.001L1538.49 552.792L1538.4 592.215L1504.21 611.846L1470.12 592.054L1470.21 552.632Z" fill="#EAEAEA" stroke="white"/>
<path d="M1436.21 611.632L1470.4 592.001L1504.49 611.792L1504.4 651.215L1470.21 670.846L1436.12 651.054L1436.21 611.632Z" fill="#EAEAEA" stroke="white"/>
<path d="M1503.89 21.3847L1538.08 1.7539L1572.18 21.5456L1572.08 60.9682L1537.9 80.599L1503.8 60.8072L1503.89 21.3847Z" fill="#EAEAEA" stroke="white"/>
<path d="M1538 80.467L1572.19 60.8362L1606.28 80.6279L1606.19 120.05L1572 139.681L1537.91 119.89L1538 80.467Z" fill="#EAEAEA" stroke="white"/>
<path d="M1504 139.467L1538.19 119.836L1572.28 139.628L1572.19 179.05L1538 198.681L1503.91 178.89L1504 139.467Z" fill="#EAEAEA" stroke="white"/>
<path d="M1538 198.467L1572.19 178.836L1606.28 198.628L1606.19 238.05L1572 257.681L1537.91 237.89L1538 198.467Z" fill="#EAEAEA" stroke="white"/>
<path d="M1504 257.467L1538.19 237.836L1572.28 257.628L1572.19 297.05L1538 316.681L1503.91 296.89L1504 257.467Z" fill="#FE5151" stroke="white"/>
<path d="M1538.11 316.549L1572.29 296.918L1606.39 316.71L1606.29 356.133L1572.11 375.764L1538.01 355.972L1538.11 316.549Z" fill="#EAEAEA" stroke="white"/>
<path d="M1504 375.467L1538.19 355.836L1572.28 375.628L1572.19 415.05L1538 434.681L1503.91 414.89L1504 375.467Z" fill="#EAEAEA" stroke="white"/>
<path d="M1538.11 434.549L1572.29 414.918L1606.39 434.71L1606.29 474.133L1572.11 493.764L1538.01 473.972L1538.11 434.549Z" fill="#EAEAEA" stroke="white"/>
<path d="M1504.11 493.549L1538.29 473.918L1572.39 493.71L1572.29 533.133L1538.11 552.764L1504.01 532.972L1504.11 493.549Z" fill="#FE5151" stroke="white"/>
<path d="M1538.11 552.549L1572.29 532.918L1606.39 552.71L1606.29 592.133L1572.11 611.764L1538.01 591.972L1538.11 552.549Z" fill="#EAEAEA" stroke="white"/>
<path d="M1504.11 611.549L1538.29 591.918L1572.39 611.71L1572.29 651.133L1538.11 670.764L1504.01 650.972L1504.11 611.549Z" fill="#EAEAEA" stroke="white"/>
<path d="M1572 21.467L1606.19 1.83618L1640.28 21.6279L1640.19 61.0505L1606 80.6813L1571.91 60.8895L1572 21.467Z" fill="#EAEAEA" stroke="white"/>
<path d="M1606.11 80.5493L1640.29 60.9185L1674.39 80.7102L1674.29 120.133L1640.11 139.764L1606.01 119.972L1606.11 80.5493Z" fill="#EAEAEA" stroke="white"/>
<path d="M1572.11 139.549L1606.29 119.918L1640.39 139.71L1640.29 179.133L1606.11 198.764L1572.01 178.972L1572.11 139.549Z" fill="#EAEAEA" stroke="white"/>
<path d="M1606.11 198.549L1640.29 178.918L1674.39 198.71L1674.29 238.133L1640.11 257.764L1606.01 237.972L1606.11 198.549Z" fill="#EAEAEA" stroke="white"/>
<path d="M1572.11 257.549L1606.29 237.918L1640.39 257.71L1640.29 297.133L1606.11 316.764L1572.01 296.972L1572.11 257.549Z" fill="#EAEAEA" stroke="white"/>
<path d="M1606.21 316.632L1640.4 297.001L1674.49 316.792L1674.4 356.215L1640.21 375.846L1606.12 356.054L1606.21 316.632Z" fill="#EAEAEA" stroke="white"/>
<path d="M1572.11 375.549L1606.29 355.918L1640.39 375.71L1640.29 415.133L1606.11 434.764L1572.01 414.972L1572.11 375.549Z" fill="#EAEAEA" stroke="white"/>
<path d="M1606.21 434.632L1640.4 415.001L1674.49 434.792L1674.4 474.215L1640.21 493.846L1606.12 474.054L1606.21 434.632Z" fill="#EAEAEA" stroke="white"/>
<path d="M1572.21 493.632L1606.4 474.001L1640.49 493.792L1640.4 533.215L1606.21 552.846L1572.12 533.054L1572.21 493.632Z" fill="#EAEAEA" stroke="white"/>
<path d="M1606.21 552.632L1640.4 533.001L1674.49 552.792L1674.4 592.215L1640.21 611.846L1606.12 592.054L1606.21 552.632Z" fill="#EAEAEA" stroke="white"/>
<path d="M1572.21 611.632L1606.4 592.001L1640.49 611.792L1640.4 651.215L1606.21 670.846L1572.12 651.054L1572.21 611.632Z" fill="#EAEAEA" stroke="white"/>
<path d="M1640 21.467L1674.19 1.83618L1708.28 21.6279L1708.19 61.0505L1674 80.6813L1639.91 60.8895L1640 21.467Z" fill="#EAEAEA" stroke="white"/>
<path d="M1674.11 80.5493L1708.29 60.9185L1742.39 80.7102L1742.29 120.133L1708.11 139.764L1674.01 119.972L1674.11 80.5493Z" fill="#EAEAEA" stroke="white"/>
<path d="M1640.11 139.549L1674.29 119.918L1708.39 139.71L1708.29 179.133L1674.11 198.764L1640.01 178.972L1640.11 139.549Z" fill="#FE5151" stroke="white"/>
<path d="M1674.11 198.549L1708.29 178.918L1742.39 198.71L1742.29 238.133L1708.11 257.764L1674.01 237.972L1674.11 198.549Z" fill="#EAEAEA" stroke="white"/>
<path d="M1640.11 257.549L1674.29 237.918L1708.39 257.71L1708.29 297.133L1674.11 316.764L1640.01 296.972L1640.11 257.549Z" fill="#EAEAEA" stroke="white"/>
<path d="M1674.21 316.632L1708.4 297.001L1742.49 316.792L1742.4 356.215L1708.21 375.846L1674.12 356.054L1674.21 316.632Z" fill="#EAEAEA" stroke="white"/>
<path d="M1640.11 375.549L1674.29 355.918L1708.39 375.71L1708.29 415.133L1674.11 434.764L1640.01 414.972L1640.11 375.549Z" fill="#EAEAEA" stroke="white"/>
<path d="M1674.21 434.632L1708.4 415.001L1742.49 434.792L1742.4 474.215L1708.21 493.846L1674.12 474.054L1674.21 434.632Z" fill="#EAEAEA" stroke="white"/>
<path d="M1640.21 493.632L1674.4 474.001L1708.49 493.792L1708.4 533.215L1674.21 552.846L1640.12 533.054L1640.21 493.632Z" fill="#EAEAEA" stroke="white"/>
<path d="M1674.21 552.632L1708.4 533.001L1742.49 552.792L1742.4 592.215L1708.21 611.846L1674.12 592.054L1674.21 552.632Z" fill="#EAEAEA" stroke="white"/>
<path d="M1640.21 611.632L1674.4 592.001L1708.49 611.792L1708.4 651.215L1674.21 670.846L1640.12 651.054L1640.21 611.632Z" fill="#EAEAEA" stroke="white"/>
<path d="M107.894 670.385L142.082 650.754L176.176 670.546L176.083 709.968L141.896 729.599L107.801 709.807L107.894 670.385Z" fill="#EAEAEA" stroke="white"/>
<path d="M73.8942 729.385L108.082 709.754L142.176 729.546L142.083 768.968L107.896 788.599L73.8012 768.807L73.8942 729.385Z" fill="#FE5151" stroke="white"/>
<path d="M107.894 788.385L142.082 768.754L176.176 788.546L176.083 827.968L141.896 847.599L107.801 827.807L107.894 788.385Z" fill="#EAEAEA" stroke="white"/>
<path d="M39.9996 670.467L74.187 650.836L108.281 670.628L108.189 710.05L74.0012 729.681L39.9067 709.89L39.9996 670.467Z" fill="#EAEAEA" stroke="white"/>
<path d="M5.99962 729.467L40.187 709.836L74.2815 729.628L74.1886 769.05L40.0012 788.681L5.90671 768.89L5.99962 729.467Z" fill="#EAEAEA" stroke="white"/>
<path d="M39.9996 788.467L74.187 768.836L108.281 788.628L108.189 828.05L74.0012 847.681L39.9067 827.89L39.9996 788.467Z" fill="#EAEAEA" stroke="white"/>
<path d="M176 670.467L210.187 650.836L244.281 670.628L244.189 710.05L210.001 729.681L175.907 709.89L176 670.467Z" fill="#EAEAEA" stroke="white"/>
<path d="M142 729.467L176.187 709.836L210.281 729.628L210.189 769.05L176.001 788.681L141.907 768.89L142 729.467Z" fill="#EAEAEA" stroke="white"/>
<path d="M176 788.467L210.187 768.836L244.281 788.628L244.189 828.05L210.001 847.681L175.907 827.89L176 788.467Z" fill="#EAEAEA" stroke="white"/>
<path d="M244 670.467L278.187 650.836L312.281 670.628L312.189 710.05L278.001 729.681L243.907 709.89L244 670.467Z" fill="#EAEAEA" stroke="white"/>
<path d="M210 729.467L244.187 709.836L278.281 729.628L278.189 769.05L244.001 788.681L209.907 768.89L210 729.467Z" fill="#EAEAEA" stroke="white"/>
<path d="M244 788.467L278.187 768.836L312.281 788.628L312.189 828.05L278.001 847.681L243.907 827.89L244 788.467Z" fill="#FE5151" stroke="white"/>
<path d="M312.105 670.549L346.292 650.918L380.387 670.71L380.294 710.133L346.107 729.764L312.012 709.972L312.105 670.549Z" fill="#EAEAEA" stroke="white"/>
<path d="M278.105 729.549L312.292 709.918L346.387 729.71L346.294 769.133L312.107 788.764L278.012 768.972L278.105 729.549Z" fill="#EAEAEA" stroke="white"/>
<path d="M312.105 788.549L346.292 768.918L380.387 788.71L380.294 828.133L346.107 847.764L312.012 827.972L312.105 788.549Z" fill="#EAEAEA" stroke="white"/>
<path d="M380 670.467L414.187 650.836L448.281 670.628L448.189 710.05L414.001 729.681L379.907 709.89L380 670.467Z" fill="#EAEAEA" stroke="white"/>
<path d="M346 729.467L380.187 709.836L414.281 729.628L414.189 769.05L380.001 788.681L345.907 768.89L346 729.467Z" fill="#EAEAEA" stroke="white"/>
<path d="M380 788.467L414.187 768.836L448.281 788.628L448.189 828.05L414.001 847.681L379.907 827.89L380 788.467Z" fill="#EAEAEA" stroke="white"/>
<path d="M448.105 670.549L482.292 650.918L516.387 670.71L516.294 710.133L482.107 729.764L448.012 709.972L448.105 670.549Z" fill="#EAEAEA" stroke="white"/>
<path d="M414.105 729.549L448.292 709.918L482.387 729.71L482.294 769.133L448.107 788.764L414.012 768.972L414.105 729.549Z" fill="#EAEAEA" stroke="white"/>
<path d="M448.105 788.549L482.292 768.918L516.387 788.71L516.294 828.133L482.107 847.764L448.012 827.972L448.105 788.549Z" fill="#EAEAEA" stroke="white"/>
<path d="M516.105 670.549L550.292 650.918L584.387 670.71L584.294 710.133L550.107 729.764L516.012 709.972L516.105 670.549Z" fill="#EAEAEA" stroke="white"/>
<path d="M482.105 729.549L516.292 709.918L550.387 729.71L550.294 769.133L516.107 788.764L482.012 768.972L482.105 729.549Z" fill="#EAEAEA" stroke="white"/>
<path d="M516.105 788.549L550.292 768.918L584.387 788.71L584.294 828.133L550.107 847.764L516.012 827.972L516.105 788.549Z" fill="#EAEAEA" stroke="white"/>
<path d="M584.211 670.632L618.398 651.001L652.492 670.792L652.399 710.215L618.212 729.846L584.118 710.054L584.211 670.632Z" fill="#EAEAEA" stroke="white"/>
<path d="M550.211 729.632L584.398 710.001L618.492 729.792L618.399 769.215L584.212 788.846L550.118 769.054L550.211 729.632Z" fill="#EAEAEA" stroke="white"/>
<path d="M584.211 788.632L618.398 769.001L652.492 788.792L652.399 828.215L618.212 847.846L584.118 828.054L584.211 788.632Z" fill="#EAEAEA" stroke="white"/>
<path d="M652 670.467L686.187 650.836L720.281 670.628L720.189 710.05L686.001 729.681L651.907 709.89L652 670.467Z" fill="#EAEAEA" stroke="white"/>
<path d="M618 729.467L652.187 709.836L686.281 729.628L686.189 769.05L652.001 788.681L617.907 768.89L618 729.467Z" fill="#FE5151" stroke="white"/>
<path d="M652 788.467L686.187 768.836L720.281 788.628L720.189 828.05L686.001 847.681L651.907 827.89L652 788.467Z" fill="#EAEAEA" stroke="white"/>
<path d="M720.105 670.549L754.292 650.918L788.387 670.71L788.294 710.133L754.107 729.764L720.012 709.972L720.105 670.549Z" fill="#EAEAEA" stroke="white"/>
<path d="M686.105 729.549L720.292 709.918L754.387 729.71L754.294 769.133L720.107 788.764L686.012 768.972L686.105 729.549Z" fill="#EAEAEA" stroke="white"/>
<path d="M720.105 788.549L754.292 768.918L788.387 788.71L788.294 828.133L754.107 847.764L720.012 827.972L720.105 788.549Z" fill="#EAEAEA" stroke="white"/>
<path d="M788.105 670.549L822.292 650.918L856.387 670.71L856.294 710.133L822.107 729.764L788.012 709.972L788.105 670.549Z" fill="#EAEAEA" stroke="white"/>
<path d="M754.105 729.549L788.292 709.918L822.387 729.71L822.294 769.133L788.107 788.764L754.012 768.972L754.105 729.549Z" fill="#EAEAEA" stroke="white"/>
<path d="M788.105 788.549L822.292 768.918L856.387 788.71L856.294 828.133L822.107 847.764L788.012 827.972L788.105 788.549Z" fill="#EAEAEA" stroke="white"/>
<path d="M856.211 670.632L890.398 651.001L924.492 670.792L924.399 710.215L890.212 729.846L856.118 710.054L856.211 670.632Z" fill="#EAEAEA" stroke="white"/>
<path d="M822.211 729.632L856.398 710.001L890.492 729.792L890.399 769.215L856.212 788.846L822.118 769.054L822.211 729.632Z" fill="#EAEAEA" stroke="white"/>
<path d="M856.211 788.632L890.398 769.001L924.492 788.792L924.399 828.215L890.212 847.846L856.118 828.054L856.211 788.632Z" fill="#EAEAEA" stroke="white"/>
<path d="M924.105 670.549L958.292 650.918L992.387 670.71L992.294 710.133L958.107 729.764L924.012 709.972L924.105 670.549Z" fill="#EAEAEA" stroke="white"/>
<path d="M890.105 729.549L924.292 709.918L958.387 729.71L958.294 769.133L924.107 788.764L890.012 768.972L890.105 729.549Z" fill="#EAEAEA" stroke="white"/>
<path d="M924.105 788.549L958.292 768.918L992.387 788.71L992.294 828.133L958.107 847.764L924.012 827.972L924.105 788.549Z" fill="#EAEAEA" stroke="white"/>
<path d="M992.211 670.632L1026.4 651.001L1060.49 670.792L1060.4 710.215L1026.21 729.846L992.118 710.054L992.211 670.632Z" fill="#EAEAEA" stroke="white"/>
<path d="M958.211 729.632L992.398 710.001L1026.49 729.792L1026.4 769.215L992.212 788.846L958.118 769.054L958.211 729.632Z" fill="#FE5151" stroke="white"/>
<path d="M992.211 788.632L1026.4 769.001L1060.49 788.792L1060.4 828.215L1026.21 847.846L992.118 828.054L992.211 788.632Z" fill="#EAEAEA" stroke="white"/>
<path d="M1060.21 670.632L1094.4 651.001L1128.49 670.792L1128.4 710.215L1094.21 729.846L1060.12 710.054L1060.21 670.632Z" fill="#EAEAEA" stroke="white"/>
<path d="M1026.21 729.632L1060.4 710.001L1094.49 729.792L1094.4 769.215L1060.21 788.846L1026.12 769.054L1026.21 729.632Z" fill="#EAEAEA" stroke="white"/>
<path d="M1060.21 788.632L1094.4 769.001L1128.49 788.792L1128.4 828.215L1094.21 847.846L1060.12 828.054L1060.21 788.632Z" fill="#EAEAEA" stroke="white"/>
<path d="M1128.32 670.714L1162.5 651.083L1196.6 670.875L1196.51 710.297L1162.32 729.928L1128.22 710.136L1128.32 670.714Z" fill="#EAEAEA" stroke="white"/>
<path d="M1094.32 729.714L1128.5 710.083L1162.6 729.875L1162.51 769.297L1128.32 788.928L1094.22 769.136L1094.32 729.714Z" fill="#EAEAEA" stroke="white"/>
<path d="M1128.32 788.714L1162.5 769.083L1196.6 788.875L1196.51 828.297L1162.32 847.928L1128.22 828.136L1128.32 788.714Z" fill="#FE5151" stroke="white"/>
<path d="M1197 670.549L1231.19 650.918L1265.28 670.71L1265.19 710.133L1231 729.764L1196.91 709.972L1197 670.549Z" fill="#EAEAEA" stroke="white"/>
<path d="M1163 729.549L1197.19 709.918L1231.28 729.71L1231.19 769.133L1197 788.764L1162.91 768.972L1163 729.549Z" fill="#EAEAEA" stroke="white"/>
<path d="M1197 788.549L1231.19 768.918L1265.28 788.71L1265.19 828.133L1231 847.764L1196.91 827.972L1197 788.549Z" fill="#EAEAEA" stroke="white"/>
<path d="M1264.9 670.467L1299.08 650.836L1333.18 670.628L1333.08 710.05L1298.9 729.681L1264.8 709.89L1264.9 670.467Z" fill="#FE5151" stroke="white"/>
<path d="M1230.9 729.467L1265.08 709.836L1299.18 729.628L1299.08 769.05L1264.9 788.681L1230.8 768.89L1230.9 729.467Z" fill="#EAEAEA" stroke="white"/>
<path d="M1264.9 788.467L1299.08 768.836L1333.18 788.628L1333.08 828.05L1298.9 847.681L1264.8 827.89L1264.9 788.467Z" fill="#EAEAEA" stroke="white"/>
<path d="M1333 670.549L1367.19 650.918L1401.28 670.71L1401.19 710.133L1367 729.764L1332.91 709.972L1333 670.549Z" fill="#EAEAEA" stroke="white"/>
<path d="M1299 729.549L1333.19 709.918L1367.28 729.71L1367.19 769.133L1333 788.764L1298.91 768.972L1299 729.549Z" fill="#EAEAEA" stroke="white"/>
<path d="M1333 788.549L1367.19 768.918L1401.28 788.71L1401.19 828.133L1367 847.764L1332.91 827.972L1333 788.549Z" fill="#EAEAEA" stroke="white"/>
<path d="M1401 670.549L1435.19 650.918L1469.28 670.71L1469.19 710.133L1435 729.764L1400.91 709.972L1401 670.549Z" fill="#EAEAEA" stroke="white"/>
<path d="M1367 729.549L1401.19 709.918L1435.28 729.71L1435.19 769.133L1401 788.764L1366.91 768.972L1367 729.549Z" fill="#EAEAEA" stroke="white"/>
<path d="M1401 788.549L1435.19 768.918L1469.28 788.71L1469.19 828.133L1435 847.764L1400.91 827.972L1401 788.549Z" fill="#EAEAEA" stroke="white"/>
<path d="M1470 670.467L1504.19 650.836L1538.28 670.628L1538.19 710.05L1504 729.681L1469.91 709.89L1470 670.467Z" fill="#EAEAEA" stroke="white"/>
<path d="M1470 788.467L1504.19 768.836L1538.28 788.628L1538.19 828.05L1504 847.681L1469.91 827.89L1470 788.467Z" fill="#EAEAEA" stroke="white"/>
<path d="M1537.89 670.385L1572.08 650.754L1606.18 670.546L1606.08 709.968L1571.9 729.599L1537.8 709.807L1537.89 670.385Z" fill="#FE5151" stroke="white"/>
<path d="M1503.89 729.385L1538.08 709.754L1572.18 729.546L1572.08 768.968L1537.9 788.599L1503.8 768.807L1503.89 729.385Z" fill="#EAEAEA" stroke="white"/>
<path d="M1537.89 788.385L1572.08 768.754L1606.18 788.546L1606.08 827.968L1571.9 847.599L1537.8 827.807L1537.89 788.385Z" fill="#EAEAEA" stroke="white"/>
<path d="M1606 670.467L1640.19 650.836L1674.28 670.628L1674.19 710.05L1640 729.681L1605.91 709.89L1606 670.467Z" fill="#EAEAEA" stroke="white"/>
<path d="M1572 729.467L1606.19 709.836L1640.28 729.628L1640.19 769.05L1606 788.681L1571.91 768.89L1572 729.467Z" fill="#EAEAEA" stroke="white"/>
<path d="M1606 788.467L1640.19 768.836L1674.28 788.628L1674.19 828.05L1640 847.681L1605.91 827.89L1606 788.467Z" fill="#EAEAEA" stroke="white"/>
<path d="M1674 670.467L1708.19 650.836L1742.28 670.628L1742.19 710.05L1708 729.681L1673.91 709.89L1674 670.467Z" fill="#EAEAEA" stroke="white"/>
<path d="M1640 729.467L1674.19 709.836L1708.28 729.628L1708.19 769.05L1674 788.681L1639.91 768.89L1640 729.467Z" fill="#EAEAEA" stroke="white"/>
<path d="M1674 788.467L1708.19 768.836L1742.28 788.628L1742.19 828.05L1708 847.681L1673.91 827.89L1674 788.467Z" fill="#EAEAEA" stroke="white"/>
<path d="M1435 729.384L1469.19 709.754L1503.28 729.545L1503.19 768.968L1469 788.599L1434.91 768.807L1435 729.384Z" fill="#EAEAEA" stroke="white"/>
</svg>
