<svg width="301" height="301" viewBox="0 0 301 301" fill="none" xmlns="http://www.w3.org/2000/svg">
<path d="M21.1257 75.337L150.705 0.930892L279.933 75.947L279.58 225.369L150.001 299.775L20.7735 224.759L21.1257 75.337Z" fill="#CBCBCB" stroke="#CECEFF"/>
<path d="M105.4 114.4V88C109.267 82.4 114.867 78.1333 122.2 75.2C129.667 72.1333 137.733 70.6 146.4 70.6C158.933 70.6 169.733 73.6 178.8 79.6C188 85.4667 192.6 93.8 192.6 104.6C192.6 111 190.733 117.267 187 123.4C183.267 129.533 177.733 134.933 170.4 139.6L164.2 143.6C156.333 148.667 151.067 154.067 148.4 159.8C145.867 165.4 144.6 173 144.6 182.6V186.6H135.6V178.8C135.6 170.133 136.8 163.2 139.2 158C141.6 152.667 146.467 146.067 153.8 138.2L160.6 131C167.533 123.4 171 114.333 171 103.8C171 95.8 168.4 89.4667 163.2 84.8C158.133 80.1333 151.733 77.8 144 77.8C136.267 77.8 130.067 81.0667 125.4 87.6L115.6 114.4H105.4ZM127.4 212.2C127.4 208.467 128.6 205.4 131 203C133.4 200.467 136.533 199.2 140.4 199.2C144.267 199.2 147.4 200.4 149.8 202.8C152.333 205.067 153.6 208.133 153.6 212C153.6 215.867 152.4 219.067 150 221.6C147.6 224 144.467 225.2 140.6 225.2C136.733 225.2 133.533 223.933 131 221.4C128.6 218.867 127.4 215.8 127.4 212.2Z" fill="white"/>
</svg>
