<svg width="406" height="600" viewBox="0 0 406 600" fill="none" xmlns="http://www.w3.org/2000/svg">
<rect x="0.0614014" width="405.877" height="600" rx="20" fill="black"/>
<rect opacity="0.5" x="15.4745" y="15" width="375.051" height="240" rx="20" fill="#D9D9D9"/>
<path d="M144.272 442.576C142 442.576 139.92 442.16 138.032 441.328C136.144 440.464 134.544 439.296 133.232 437.824C131.92 436.352 130.976 434.704 130.4 432.88L134.48 431.2C135.344 433.504 136.624 435.28 138.32 436.528C140.048 437.744 142.064 438.352 144.368 438.352C145.776 438.352 147.008 438.128 148.064 437.68C149.12 437.232 149.936 436.608 150.512 435.808C151.12 434.976 151.424 434.016 151.424 432.928C151.424 431.424 150.992 430.24 150.128 429.376C149.296 428.48 148.064 427.808 146.432 427.36L139.856 425.344C137.264 424.544 135.28 423.28 133.904 421.552C132.528 419.824 131.84 417.84 131.84 415.6C131.84 413.648 132.304 411.936 133.232 410.464C134.192 408.96 135.504 407.792 137.168 406.96C138.864 406.096 140.784 405.664 142.928 405.664C145.072 405.664 147.008 406.048 148.736 406.816C150.496 407.584 151.984 408.624 153.2 409.936C154.416 411.216 155.312 412.688 155.888 414.352L151.856 416.032C151.088 414.016 149.936 412.496 148.4 411.472C146.864 410.416 145.056 409.888 142.976 409.888C141.696 409.888 140.56 410.112 139.568 410.56C138.608 410.976 137.856 411.6 137.312 412.432C136.8 413.232 136.544 414.192 136.544 415.312C136.544 416.624 136.96 417.792 137.792 418.816C138.624 419.84 139.888 420.624 141.584 421.168L147.584 422.944C150.4 423.808 152.528 425.04 153.968 426.64C155.408 428.24 156.128 430.224 156.128 432.592C156.128 434.544 155.616 436.272 154.592 437.776C153.6 439.28 152.208 440.464 150.416 441.328C148.656 442.16 146.608 442.576 144.272 442.576ZM180.103 442.576C177.575 442.576 175.207 442.128 172.999 441.232C170.791 440.304 168.855 439.008 167.191 437.344C165.559 435.68 164.279 433.728 163.351 431.488C162.423 429.216 161.959 426.752 161.959 424.096C161.959 421.408 162.423 418.944 163.351 416.704C164.279 414.464 165.559 412.512 167.191 410.848C168.855 409.184 170.775 407.904 172.951 407.008C175.159 406.112 177.543 405.664 180.103 405.664C182.663 405.664 185.031 406.128 187.207 407.056C189.415 407.952 191.335 409.232 192.967 410.896C194.631 412.528 195.927 414.464 196.855 416.704C197.815 418.944 198.295 421.408 198.295 424.096C198.295 426.752 197.815 429.216 196.855 431.488C195.927 433.728 194.631 435.68 192.967 437.344C191.335 439.008 189.415 440.304 187.207 441.232C185.031 442.128 182.663 442.576 180.103 442.576ZM180.103 438.208C182.087 438.208 183.895 437.856 185.527 437.152C187.159 436.416 188.567 435.408 189.751 434.128C190.967 432.816 191.895 431.312 192.535 429.616C193.207 427.888 193.543 426.048 193.543 424.096C193.543 422.144 193.207 420.32 192.535 418.624C191.895 416.928 190.967 415.44 189.751 414.16C188.567 412.848 187.159 411.84 185.527 411.136C183.895 410.4 182.087 410.032 180.103 410.032C178.151 410.032 176.359 410.4 174.727 411.136C173.095 411.84 171.671 412.848 170.455 414.16C169.271 415.44 168.343 416.928 167.671 418.624C166.999 420.32 166.663 422.144 166.663 424.096C166.663 426.048 166.999 427.888 167.671 429.616C168.343 431.312 169.271 432.816 170.455 434.128C171.671 435.408 173.095 436.416 174.727 437.152C176.359 437.856 178.151 438.208 180.103 438.208ZM222.244 442.576C219.716 442.576 217.348 442.128 215.14 441.232C212.932 440.304 210.996 439.008 209.332 437.344C207.7 435.68 206.42 433.728 205.492 431.488C204.564 429.216 204.1 426.752 204.1 424.096C204.1 421.408 204.564 418.944 205.492 416.704C206.42 414.464 207.7 412.512 209.332 410.848C210.996 409.184 212.916 407.904 215.092 407.008C217.3 406.112 219.684 405.664 222.244 405.664C224.804 405.664 227.172 406.128 229.348 407.056C231.556 407.952 233.476 409.232 235.108 410.896C236.772 412.528 238.068 414.464 238.996 416.704C239.956 418.944 240.436 421.408 240.436 424.096C240.436 426.752 239.956 429.216 238.996 431.488C238.068 433.728 236.772 435.68 235.108 437.344C233.476 439.008 231.556 440.304 229.348 441.232C227.172 442.128 224.804 442.576 222.244 442.576ZM222.244 438.208C224.228 438.208 226.036 437.856 227.668 437.152C229.3 436.416 230.708 435.408 231.892 434.128C233.108 432.816 234.036 431.312 234.676 429.616C235.348 427.888 235.684 426.048 235.684 424.096C235.684 422.144 235.348 420.32 234.676 418.624C234.036 416.928 233.108 415.44 231.892 414.16C230.708 412.848 229.3 411.84 227.668 411.136C226.036 410.4 224.228 410.032 222.244 410.032C220.292 410.032 218.5 410.4 216.868 411.136C215.236 411.84 213.812 412.848 212.596 414.16C211.412 415.44 210.484 416.928 209.812 418.624C209.14 420.32 208.804 422.144 208.804 424.096C208.804 426.048 209.14 427.888 209.812 429.616C210.484 431.312 211.412 432.816 212.596 434.128C213.812 435.408 215.236 436.416 216.868 437.152C218.5 437.856 220.292 438.208 222.244 438.208ZM247.297 442V406.24H251.233L271.777 435.136L270.001 435.328V406.24H274.753V442H270.817L250.368 412.912L252.001 412.72V442H247.297Z" fill="white"/>
<path d="M144.272 165.576C142 165.576 139.92 165.16 138.032 164.328C136.144 163.464 134.544 162.296 133.232 160.824C131.92 159.352 130.976 157.704 130.4 155.88L134.48 154.2C135.344 156.504 136.624 158.28 138.32 159.528C140.048 160.744 142.064 161.352 144.368 161.352C145.776 161.352 147.008 161.128 148.064 160.68C149.12 160.232 149.936 159.608 150.512 158.808C151.12 157.976 151.424 157.016 151.424 155.928C151.424 154.424 150.992 153.24 150.128 152.376C149.296 151.48 148.064 150.808 146.432 150.36L139.856 148.344C137.264 147.544 135.28 146.28 133.904 144.552C132.528 142.824 131.84 140.84 131.84 138.6C131.84 136.648 132.304 134.936 133.232 133.464C134.192 131.96 135.504 130.792 137.168 129.96C138.864 129.096 140.784 128.664 142.928 128.664C145.072 128.664 147.008 129.048 148.736 129.816C150.496 130.584 151.984 131.624 153.2 132.936C154.416 134.216 155.312 135.688 155.888 137.352L151.856 139.032C151.088 137.016 149.936 135.496 148.4 134.472C146.864 133.416 145.056 132.888 142.976 132.888C141.696 132.888 140.56 133.112 139.568 133.56C138.608 133.976 137.856 134.6 137.312 135.432C136.8 136.232 136.544 137.192 136.544 138.312C136.544 139.624 136.96 140.792 137.792 141.816C138.624 142.84 139.888 143.624 141.584 144.168L147.584 145.944C150.4 146.808 152.528 148.04 153.968 149.64C155.408 151.24 156.128 153.224 156.128 155.592C156.128 157.544 155.616 159.272 154.592 160.776C153.6 162.28 152.208 163.464 150.416 164.328C148.656 165.16 146.608 165.576 144.272 165.576ZM180.103 165.576C177.575 165.576 175.207 165.128 172.999 164.232C170.791 163.304 168.855 162.008 167.191 160.344C165.559 158.68 164.279 156.728 163.351 154.488C162.423 152.216 161.959 149.752 161.959 147.096C161.959 144.408 162.423 141.944 163.351 139.704C164.279 137.464 165.559 135.512 167.191 133.848C168.855 132.184 170.775 130.904 172.951 130.008C175.159 129.112 177.543 128.664 180.103 128.664C182.663 128.664 185.031 129.128 187.207 130.056C189.415 130.952 191.335 132.232 192.967 133.896C194.631 135.528 195.927 137.464 196.855 139.704C197.815 141.944 198.295 144.408 198.295 147.096C198.295 149.752 197.815 152.216 196.855 154.488C195.927 156.728 194.631 158.68 192.967 160.344C191.335 162.008 189.415 163.304 187.207 164.232C185.031 165.128 182.663 165.576 180.103 165.576ZM180.103 161.208C182.087 161.208 183.895 160.856 185.527 160.152C187.159 159.416 188.567 158.408 189.751 157.128C190.967 155.816 191.895 154.312 192.535 152.616C193.207 150.888 193.543 149.048 193.543 147.096C193.543 145.144 193.207 143.32 192.535 141.624C191.895 139.928 190.967 138.44 189.751 137.16C188.567 135.848 187.159 134.84 185.527 134.136C183.895 133.4 182.087 133.032 180.103 133.032C178.151 133.032 176.359 133.4 174.727 134.136C173.095 134.84 171.671 135.848 170.455 137.16C169.271 138.44 168.343 139.928 167.671 141.624C166.999 143.32 166.663 145.144 166.663 147.096C166.663 149.048 166.999 150.888 167.671 152.616C168.343 154.312 169.271 155.816 170.455 157.128C171.671 158.408 173.095 159.416 174.727 160.152C176.359 160.856 178.151 161.208 180.103 161.208ZM222.244 165.576C219.716 165.576 217.348 165.128 215.14 164.232C212.932 163.304 210.996 162.008 209.332 160.344C207.7 158.68 206.42 156.728 205.492 154.488C204.564 152.216 204.1 149.752 204.1 147.096C204.1 144.408 204.564 141.944 205.492 139.704C206.42 137.464 207.7 135.512 209.332 133.848C210.996 132.184 212.916 130.904 215.092 130.008C217.3 129.112 219.684 128.664 222.244 128.664C224.804 128.664 227.172 129.128 229.348 130.056C231.556 130.952 233.476 132.232 235.108 133.896C236.772 135.528 238.068 137.464 238.996 139.704C239.956 141.944 240.436 144.408 240.436 147.096C240.436 149.752 239.956 152.216 238.996 154.488C238.068 156.728 236.772 158.68 235.108 160.344C233.476 162.008 231.556 163.304 229.348 164.232C227.172 165.128 224.804 165.576 222.244 165.576ZM222.244 161.208C224.228 161.208 226.036 160.856 227.668 160.152C229.3 159.416 230.708 158.408 231.892 157.128C233.108 155.816 234.036 154.312 234.676 152.616C235.348 150.888 235.684 149.048 235.684 147.096C235.684 145.144 235.348 143.32 234.676 141.624C234.036 139.928 233.108 138.44 231.892 137.16C230.708 135.848 229.3 134.84 227.668 134.136C226.036 133.4 224.228 133.032 222.244 133.032C220.292 133.032 218.5 133.4 216.868 134.136C215.236 134.84 213.812 135.848 212.596 137.16C211.412 138.44 210.484 139.928 209.812 141.624C209.14 143.32 208.804 145.144 208.804 147.096C208.804 149.048 209.14 150.888 209.812 152.616C210.484 154.312 211.412 155.816 212.596 157.128C213.812 158.408 215.236 159.416 216.868 160.152C218.5 160.856 220.292 161.208 222.244 161.208ZM247.297 165V129.24H251.233L271.777 158.136L270.001 158.328V129.24H274.753V165H270.817L250.368 135.912L252.001 135.72V165H247.297Z" fill="white"/>
</svg>
