<svg width="1517" height="362" viewBox="0 0 1517 362" fill="none" xmlns="http://www.w3.org/2000/svg">
<rect x="0.914062" y="81.8408" width="338.716" height="197.759" rx="15" fill="#D9D9D9"/>
<rect x="407.373" y="81.8408" width="338.716" height="197.759" rx="15" fill="#D9D9D9"/>
<rect x="771.785" y="81.8408" width="338.716" height="197.759" rx="15" fill="#D9D9D9"/>
<rect x="1178.24" y="81.8408" width="338.716" height="197.759" rx="15" fill="#D9D9D9"/>
<rect x="390.854" y="64.4155" width="736.168" height="232.608" stroke="black" stroke-width="2" stroke-dasharray="4 4"/>
<path d="M577.792 299.42C577.206 298.835 576.256 298.835 575.67 299.42L566.124 308.966C565.538 309.552 565.538 310.502 566.124 311.088C566.71 311.673 567.66 311.673 568.246 311.088L576.731 302.602L585.216 311.088C585.802 311.673 586.752 311.673 587.337 311.088C587.923 310.502 587.923 309.552 587.337 308.966L577.792 299.42ZM168.771 279.6V300.054H171.771V279.6H168.771ZM230.271 361.554H531.731V358.554H230.271V361.554ZM578.231 315.054V300.481H575.231V315.054H578.231ZM531.731 361.554C557.412 361.554 578.231 340.736 578.231 315.054H575.231C575.231 339.079 555.755 358.554 531.731 358.554V361.554ZM168.771 300.054C168.771 334.02 196.306 361.554 230.271 361.554V358.554C197.963 358.554 171.771 332.363 171.771 300.054H168.771Z" fill="black"/>
<path d="M1348.66 83.5153C1348.08 84.101 1347.13 84.101 1346.54 83.5153L1337 73.9693C1336.41 73.3835 1336.41 72.4338 1337 71.848C1337.58 71.2622 1338.53 71.2622 1339.12 71.848L1347.6 80.3333L1356.09 71.848C1356.67 71.2622 1357.62 71.2622 1358.21 71.848C1358.8 72.4338 1358.8 73.3835 1358.21 73.9693L1348.66 83.5153ZM939.644 65.8723V61.9999H942.644V65.8723H939.644ZM1001.14 0.499863H1287.6V3.49986H1001.14V0.499863ZM1349.1 61.9999V82.4546H1346.1V61.9999H1349.1ZM1287.6 0.499863C1321.57 0.499863 1349.1 28.0344 1349.1 61.9999H1346.1C1346.1 29.6912 1319.91 3.49986 1287.6 3.49986V0.499863ZM939.644 61.9999C939.644 28.0344 967.178 0.499863 1001.14 0.499863V3.49986C968.835 3.49986 942.644 29.6912 942.644 61.9999H939.644Z" fill="black"/>
</svg>
