<svg width="215" height="39" viewBox="0 0 215 39" fill="none" xmlns="http://www.w3.org/2000/svg">
<path d="M94.964 29V10.66H89.308V8.14H103.308V10.66H97.736V29H94.964ZM110.844 29.336C109.388 29.336 108.072 29 106.896 28.328C105.72 27.6373 104.787 26.6947 104.096 25.5C103.405 24.3053 103.06 22.952 103.06 21.44C103.06 19.928 103.396 18.584 104.068 17.408C104.759 16.232 105.692 15.2987 106.868 14.608C108.044 13.9173 109.369 13.572 110.844 13.572C112.3 13.572 113.616 13.9173 114.792 14.608C115.968 15.28 116.892 16.204 117.564 17.38C118.255 18.556 118.6 19.9093 118.6 21.44C118.6 22.9707 118.245 24.3333 117.536 25.528C116.827 26.704 115.884 27.6373 114.708 28.328C113.551 29 112.263 29.336 110.844 29.336ZM110.844 26.816C111.777 26.816 112.617 26.5827 113.364 26.116C114.129 25.6493 114.727 25.0053 115.156 24.184C115.604 23.3627 115.828 22.448 115.828 21.44C115.828 20.4133 115.604 19.508 115.156 18.724C114.727 17.9213 114.129 17.2867 113.364 16.82C112.617 16.3347 111.777 16.092 110.844 16.092C109.892 16.092 109.033 16.3347 108.268 16.82C107.521 17.2867 106.924 17.9213 106.476 18.724C106.028 19.508 105.804 20.4133 105.804 21.44C105.804 22.448 106.028 23.3627 106.476 24.184C106.924 25.0053 107.521 25.6493 108.268 26.116C109.033 26.5827 109.892 26.816 110.844 26.816ZM126.836 29V13.908H129.384V16.68L129.104 16.288C129.459 15.4293 130 14.7947 130.728 14.384C131.456 13.9547 132.343 13.74 133.388 13.74H134.312V16.204H132.996C131.932 16.204 131.074 16.54 130.42 17.212C129.767 17.8653 129.44 18.7987 129.44 20.012V29H126.836ZM143.569 29.336C142.113 29.336 140.816 28.9907 139.677 28.3C138.539 27.6093 137.643 26.6667 136.989 25.472C136.336 24.2587 136.009 22.9053 136.009 21.412C136.009 19.9 136.327 18.556 136.961 17.38C137.615 16.204 138.492 15.28 139.593 14.608C140.713 13.9173 141.964 13.572 143.345 13.572C144.465 13.572 145.455 13.7773 146.313 14.188C147.191 14.58 147.928 15.1213 148.525 15.812C149.141 16.484 149.608 17.2587 149.925 18.136C150.261 18.9947 150.429 19.8907 150.429 20.824C150.429 21.0293 150.411 21.2627 150.373 21.524C150.355 21.7667 150.327 22 150.289 22.224H137.913V19.984H148.777L147.545 20.992C147.713 20.0213 147.62 19.1533 147.265 18.388C146.911 17.6227 146.388 17.016 145.697 16.568C145.007 16.12 144.223 15.896 143.345 15.896C142.468 15.896 141.665 16.12 140.937 16.568C140.209 17.016 139.64 17.66 139.229 18.5C138.837 19.3213 138.679 20.3013 138.753 21.44C138.679 22.5413 138.847 23.512 139.257 24.352C139.687 25.1733 140.284 25.8173 141.049 26.284C141.833 26.732 142.683 26.956 143.597 26.956C144.605 26.956 145.455 26.7227 146.145 26.256C146.836 25.7893 147.396 25.192 147.825 24.464L150.009 25.584C149.711 26.2747 149.244 26.9093 148.609 27.488C147.993 28.048 147.256 28.496 146.397 28.832C145.557 29.168 144.615 29.336 143.569 29.336ZM159.957 29.168C158.482 29.168 157.343 28.748 156.541 27.908C155.757 27.068 155.365 25.8827 155.365 24.352V16.4H152.621V13.908H153.181C153.853 13.908 154.385 13.7027 154.777 13.292C155.169 12.8813 155.365 12.34 155.365 11.668V10.436H157.969V13.908H161.357V16.4H157.969V24.268C157.969 24.772 158.043 25.2107 158.193 25.584C158.361 25.9573 158.631 26.256 159.005 26.48C159.378 26.6853 159.873 26.788 160.489 26.788C160.619 26.788 160.778 26.7787 160.965 26.76C161.17 26.7413 161.357 26.7227 161.525 26.704V29C161.282 29.056 161.011 29.0933 160.713 29.112C160.414 29.1493 160.162 29.168 159.957 29.168ZM170.274 29.336C169.191 29.336 168.211 29.084 167.334 28.58C166.475 28.076 165.803 27.376 165.318 26.48C164.851 25.5653 164.618 24.52 164.618 23.344V13.908H167.222V23.064C167.222 23.8107 167.371 24.464 167.67 25.024C167.987 25.584 168.417 26.0227 168.958 26.34C169.518 26.6573 170.153 26.816 170.862 26.816C171.571 26.816 172.197 26.6573 172.738 26.34C173.298 26.0227 173.727 25.5653 174.026 24.968C174.343 24.3707 174.502 23.6613 174.502 22.84V13.908H177.134V29H174.586V26.06L175.006 26.312C174.651 27.264 174.045 28.0107 173.186 28.552C172.346 29.0747 171.375 29.336 170.274 29.336ZM181.168 29V13.908H183.716V16.68L183.436 16.288C183.791 15.4293 184.332 14.7947 185.06 14.384C185.788 13.9547 186.675 13.74 187.72 13.74H188.644V16.204H187.328C186.264 16.204 185.406 16.54 184.752 17.212C184.099 17.8653 183.772 18.7987 183.772 20.012V29H181.168ZM190.957 29V13.908H193.505V16.848L193.085 16.596C193.459 15.644 194.056 14.9067 194.877 14.384C195.717 13.8427 196.697 13.572 197.817 13.572C198.9 13.572 199.861 13.8147 200.701 14.3C201.56 14.7853 202.232 15.4573 202.717 16.316C203.221 17.1747 203.473 18.1453 203.473 19.228V29H200.841V20.068C200.841 19.228 200.692 18.5187 200.393 17.94C200.095 17.3613 199.665 16.9133 199.105 16.596C198.564 16.26 197.939 16.092 197.229 16.092C196.52 16.092 195.885 16.26 195.325 16.596C194.784 16.9133 194.355 17.3707 194.037 17.968C193.72 18.5467 193.561 19.2467 193.561 20.068V29H190.957Z" fill="#FF0000"/>
<path d="M89 33.9H205.181V35.02H89V33.9Z" fill="#FF0000"/>
<a href="Land.html">
<rect fill="black" fill-opacity="0" y="-0.139999" width="116.181" height="35.28"/>
</a>
<path d="M67.4871 19C67.4871 16.0545 65.0993 13.6667 62.1538 13.6667C59.2083 13.6667 56.8205 16.0545 56.8205 19C56.8205 21.9455 59.2083 24.3333 62.1538 24.3333C65.0993 24.3333 67.4871 21.9455 67.4871 19ZM-0.000301361 19L9.9997 24.7735L9.9997 13.2265L-0.000301361 19ZM62.1538 18L8.9997 18V20L62.1538 20V18Z" fill="#FF0000"/>
</svg>
