<svg width="406" height="600" viewBox="0 0 406 600" fill="none" xmlns="http://www.w3.org/2000/svg">
<rect width="405.877" height="600" rx="20" fill="#079247"/>
<rect opacity="0.5" x="15.4131" y="15" width="375.051" height="240" rx="20" fill="#D9D9D9"/>
<path d="M130 88.467L164.187 68.8362L198.282 88.6279L198.189 128.05L164.001 147.681L129.907 127.89L130 88.467Z" fill="#FE5151" stroke="white"/>
<path d="M164.105 147.549L198.293 127.919L232.387 147.71L232.294 187.133L198.107 206.764L164.012 186.972L164.105 147.549Z" fill="#D9D9D9" fill-opacity="0.5" stroke="white"/>
<path d="M197.789 88.3024L231.976 68.6716L266.071 88.4634L265.978 127.886L231.79 147.517L197.696 127.725L197.789 88.3024Z" fill="#D9D9D9" fill-opacity="0.5" stroke="white"/>
<path d="M231.894 147.384L266.082 127.754L300.176 147.545L300.083 186.968L265.896 206.599L231.801 186.807L231.894 147.384Z" fill="#A6F78A" stroke="white"/>
<path d="M65.3265 394L71.7345 376.12H74.5185L80.9265 394H78.4065L76.9425 389.8H69.3105L67.8465 394H65.3265ZM70.0545 387.64H76.1985L72.7905 377.824H73.4625L70.0545 387.64ZM82.9155 394V381.064H85.0995V383.44L84.8595 383.104C85.1635 382.368 85.6275 381.824 86.2515 381.472C86.8755 381.104 87.6355 380.92 88.5315 380.92H89.3235V383.032H88.1955C87.2835 383.032 86.5475 383.32 85.9875 383.896C85.4275 384.456 85.1475 385.256 85.1475 386.296V394H82.9155ZM97.2581 394.288C96.0101 394.288 94.8981 393.992 93.9221 393.4C92.9461 392.808 92.1781 392 91.6181 390.976C91.0581 389.936 90.7781 388.776 90.7781 387.496C90.7781 386.2 91.0501 385.048 91.5941 384.04C92.1541 383.032 92.9061 382.24 93.8501 381.664C94.8101 381.072 95.8821 380.776 97.0661 380.776C98.0261 380.776 98.8741 380.952 99.6101 381.304C100.362 381.64 100.994 382.104 101.506 382.696C102.034 383.272 102.434 383.936 102.706 384.688C102.994 385.424 103.138 386.192 103.138 386.992C103.138 387.168 103.122 387.368 103.09 387.592C103.074 387.8 103.05 388 103.018 388.192H92.4101V386.272H101.722L100.666 387.136C100.81 386.304 100.73 385.56 100.426 384.904C100.122 384.248 99.6741 383.728 99.0821 383.344C98.4901 382.96 97.8181 382.768 97.0661 382.768C96.3141 382.768 95.6261 382.96 95.0021 383.344C94.3781 383.728 93.8901 384.28 93.5381 385C93.2021 385.704 93.0661 386.544 93.1301 387.52C93.0661 388.464 93.2101 389.296 93.5621 390.016C93.9301 390.72 94.4421 391.272 95.0981 391.672C95.7701 392.056 96.4981 392.248 97.2821 392.248C98.1461 392.248 98.8741 392.048 99.4661 391.648C100.058 391.248 100.538 390.736 100.906 390.112L102.778 391.072C102.522 391.664 102.122 392.208 101.578 392.704C101.05 393.184 100.418 393.568 99.6821 393.856C98.9621 394.144 98.1541 394.288 97.2581 394.288ZM109.676 394.288C108.828 394.288 108.076 394.136 107.42 393.832C106.78 393.512 106.276 393.08 105.908 392.536C105.54 391.976 105.356 391.336 105.356 390.616C105.356 389.928 105.5 389.312 105.788 388.768C106.092 388.208 106.556 387.736 107.18 387.352C107.82 386.968 108.62 386.696 109.58 386.536L114.38 385.744V387.616L110.084 388.336C109.252 388.48 108.644 388.744 108.26 389.128C107.892 389.512 107.708 389.984 107.708 390.544C107.708 391.072 107.916 391.512 108.332 391.864C108.764 392.216 109.3 392.392 109.94 392.392C110.756 392.392 111.46 392.224 112.052 391.888C112.66 391.536 113.132 391.064 113.468 390.472C113.82 389.88 113.996 389.224 113.996 388.504V385.216C113.996 384.512 113.732 383.944 113.204 383.512C112.692 383.064 112.012 382.84 111.164 382.84C110.428 382.84 109.772 383.032 109.196 383.416C108.636 383.784 108.22 384.28 107.948 384.904L106.004 383.896C106.244 383.304 106.628 382.776 107.156 382.312C107.684 381.832 108.3 381.456 109.004 381.184C109.708 380.912 110.444 380.776 111.212 380.776C112.204 380.776 113.076 380.968 113.828 381.352C114.58 381.72 115.164 382.24 115.58 382.912C116.012 383.568 116.228 384.336 116.228 385.216V394H114.044V391.552L114.452 391.696C114.18 392.208 113.812 392.656 113.348 393.04C112.884 393.424 112.34 393.728 111.716 393.952C111.092 394.176 110.412 394.288 109.676 394.288ZM124.321 394.288C123.025 394.288 121.897 393.968 120.937 393.328C119.977 392.688 119.297 391.824 118.897 390.736L120.673 389.872C121.041 390.64 121.545 391.248 122.185 391.696C122.825 392.144 123.537 392.368 124.321 392.368C125.025 392.368 125.609 392.2 126.073 391.864C126.537 391.528 126.769 391.088 126.769 390.544C126.769 390.16 126.657 389.856 126.433 389.632C126.225 389.392 125.969 389.208 125.665 389.08C125.361 388.936 125.081 388.832 124.825 388.768L122.881 388.216C121.713 387.88 120.857 387.4 120.313 386.776C119.785 386.152 119.521 385.424 119.521 384.592C119.521 383.824 119.713 383.16 120.097 382.6C120.497 382.024 121.033 381.576 121.705 381.256C122.393 380.936 123.161 380.776 124.009 380.776C125.145 380.776 126.161 381.064 127.057 381.64C127.969 382.216 128.617 383.024 129.001 384.064L127.177 384.904C126.889 384.232 126.457 383.704 125.881 383.32C125.305 382.92 124.657 382.72 123.937 382.72C123.281 382.72 122.761 382.888 122.377 383.224C121.993 383.544 121.801 383.952 121.801 384.448C121.801 384.816 121.897 385.12 122.089 385.36C122.281 385.584 122.513 385.76 122.785 385.888C123.057 386 123.321 386.096 123.577 386.176L125.689 386.8C126.745 387.104 127.561 387.576 128.137 388.216C128.729 388.856 129.025 389.624 129.025 390.52C129.025 391.24 128.825 391.888 128.425 392.464C128.025 393.04 127.473 393.488 126.769 393.808C126.065 394.128 125.249 394.288 124.321 394.288ZM139.071 394L134.631 381.064H137.103L140.631 391.888L139.767 391.864L143.223 381.064H145.335L148.791 391.864L147.927 391.888L151.479 381.064H153.927L149.487 394H147.351L143.943 383.2H144.615L141.207 394H139.071ZM155.923 394V381.064H158.155V394H155.923ZM155.923 379V376.12H158.155V379H155.923ZM166.875 394.144C165.611 394.144 164.635 393.784 163.947 393.064C163.275 392.344 162.939 391.328 162.939 390.016V383.2H160.587V381.064H161.067C161.643 381.064 162.099 380.888 162.435 380.536C162.771 380.184 162.939 379.72 162.939 379.144V378.088H165.171V381.064H168.075V383.2H165.171V389.944C165.171 390.376 165.235 390.752 165.363 391.072C165.507 391.392 165.739 391.648 166.059 391.84C166.379 392.016 166.803 392.104 167.331 392.104C167.443 392.104 167.579 392.096 167.739 392.08C167.915 392.064 168.075 392.048 168.219 392.032V394C168.011 394.048 167.779 394.08 167.523 394.096C167.267 394.128 167.051 394.144 166.875 394.144ZM171.134 394V375.832H173.366V383.584L172.958 383.368C173.278 382.552 173.79 381.92 174.494 381.472C175.214 381.008 176.054 380.776 177.014 380.776C177.942 380.776 178.766 380.984 179.486 381.4C180.222 381.816 180.798 382.392 181.214 383.128C181.646 383.864 181.862 384.696 181.862 385.624V394H179.606V386.344C179.606 385.624 179.47 385.016 179.198 384.52C178.942 384.024 178.582 383.64 178.118 383.368C177.654 383.08 177.118 382.936 176.51 382.936C175.918 382.936 175.382 383.08 174.902 383.368C174.422 383.64 174.046 384.032 173.774 384.544C173.502 385.04 173.366 385.64 173.366 386.344V394H171.134ZM189.205 398.8V381.064H191.389V383.848L191.101 383.296C191.581 382.528 192.237 381.92 193.069 381.472C193.901 381.008 194.853 380.776 195.925 380.776C197.141 380.776 198.229 381.072 199.189 381.664C200.165 382.256 200.933 383.064 201.493 384.088C202.053 385.096 202.333 386.248 202.333 387.544C202.333 388.808 202.053 389.952 201.493 390.976C200.933 392 200.165 392.808 199.189 393.4C198.229 393.992 197.133 394.288 195.901 394.288C194.861 394.288 193.909 394.056 193.045 393.592C192.197 393.128 191.541 392.472 191.077 391.624L191.437 391.24V398.8H189.205ZM195.733 392.128C196.549 392.128 197.277 391.928 197.917 391.528C198.557 391.128 199.053 390.584 199.405 389.896C199.773 389.192 199.957 388.408 199.957 387.544C199.957 386.648 199.773 385.864 199.405 385.192C199.053 384.504 198.557 383.96 197.917 383.56C197.277 383.144 196.549 382.936 195.733 382.936C194.917 382.936 194.181 383.136 193.525 383.536C192.885 383.936 192.373 384.488 191.989 385.192C191.621 385.88 191.437 386.664 191.437 387.544C191.437 388.408 191.621 389.192 191.989 389.896C192.373 390.584 192.885 391.128 193.525 391.528C194.181 391.928 194.917 392.128 195.733 392.128ZM205.259 394V375.832H207.491V394H205.259ZM217.099 394.288C215.851 394.288 214.723 394 213.715 393.424C212.707 392.832 211.907 392.024 211.315 391C210.723 389.976 210.427 388.816 210.427 387.52C210.427 386.224 210.715 385.072 211.291 384.064C211.883 383.056 212.683 382.256 213.691 381.664C214.699 381.072 215.835 380.776 217.099 380.776C218.347 380.776 219.475 381.072 220.483 381.664C221.491 382.24 222.283 383.032 222.859 384.04C223.451 385.048 223.747 386.208 223.747 387.52C223.747 388.832 223.443 390 222.835 391.024C222.227 392.032 221.419 392.832 220.411 393.424C219.419 394 218.315 394.288 217.099 394.288ZM217.099 392.128C217.899 392.128 218.619 391.928 219.259 391.528C219.915 391.128 220.427 390.576 220.795 389.872C221.179 389.168 221.371 388.384 221.371 387.52C221.371 386.64 221.179 385.864 220.795 385.192C220.427 384.504 219.915 383.96 219.259 383.56C218.619 383.144 217.899 382.936 217.099 382.936C216.283 382.936 215.547 383.144 214.891 383.56C214.251 383.96 213.739 384.504 213.355 385.192C212.971 385.864 212.779 386.64 212.779 387.52C212.779 388.384 212.971 389.168 213.355 389.872C213.739 390.576 214.251 391.128 214.891 391.528C215.547 391.928 216.283 392.128 217.099 392.128ZM231.679 394.144C230.415 394.144 229.439 393.784 228.751 393.064C228.079 392.344 227.743 391.328 227.743 390.016V383.2H225.391V381.064H225.871C226.447 381.064 226.903 380.888 227.239 380.536C227.575 380.184 227.743 379.72 227.743 379.144V378.088H229.975V381.064H232.879V383.2H229.975V389.944C229.975 390.376 230.039 390.752 230.167 391.072C230.311 391.392 230.543 391.648 230.863 391.84C231.183 392.016 231.607 392.104 232.135 392.104C232.247 392.104 232.383 392.096 232.543 392.08C232.719 392.064 232.879 392.048 233.023 392.032V394C232.815 394.048 232.583 394.08 232.327 394.096C232.071 394.128 231.855 394.144 231.679 394.144ZM240.571 394.288C239.275 394.288 238.147 393.968 237.187 393.328C236.227 392.688 235.547 391.824 235.147 390.736L236.923 389.872C237.291 390.64 237.795 391.248 238.435 391.696C239.075 392.144 239.787 392.368 240.571 392.368C241.275 392.368 241.859 392.2 242.323 391.864C242.787 391.528 243.019 391.088 243.019 390.544C243.019 390.16 242.907 389.856 242.683 389.632C242.475 389.392 242.219 389.208 241.915 389.08C241.611 388.936 241.331 388.832 241.075 388.768L239.131 388.216C237.963 387.88 237.107 387.4 236.563 386.776C236.035 386.152 235.771 385.424 235.771 384.592C235.771 383.824 235.963 383.16 236.347 382.6C236.747 382.024 237.283 381.576 237.955 381.256C238.643 380.936 239.411 380.776 240.259 380.776C241.395 380.776 242.411 381.064 243.307 381.64C244.219 382.216 244.867 383.024 245.251 384.064L243.427 384.904C243.139 384.232 242.707 383.704 242.131 383.32C241.555 382.92 240.907 382.72 240.187 382.72C239.531 382.72 239.011 382.888 238.627 383.224C238.243 383.544 238.051 383.952 238.051 384.448C238.051 384.816 238.147 385.12 238.339 385.36C238.531 385.584 238.763 385.76 239.035 385.888C239.307 386 239.571 386.096 239.827 386.176L241.939 386.8C242.995 387.104 243.811 387.576 244.387 388.216C244.979 388.856 245.275 389.624 245.275 390.52C245.275 391.24 245.075 391.888 244.675 392.464C244.275 393.04 243.723 393.488 243.019 393.808C242.315 394.128 241.499 394.288 240.571 394.288ZM259.041 394.288C258.001 394.288 257.049 394.056 256.185 393.592C255.337 393.128 254.681 392.472 254.217 391.624L254.529 391.24V394H252.345V375.832H254.577V383.848L254.241 383.296C254.721 382.528 255.377 381.92 256.209 381.472C257.041 381.008 257.993 380.776 259.065 380.776C260.281 380.776 261.369 381.072 262.329 381.664C263.305 382.256 264.073 383.064 264.633 384.088C265.193 385.096 265.473 386.248 265.473 387.544C265.473 388.808 265.193 389.952 264.633 390.976C264.073 392 263.305 392.808 262.329 393.4C261.369 393.992 260.273 394.288 259.041 394.288ZM258.873 392.128C259.689 392.128 260.417 391.928 261.057 391.528C261.697 391.128 262.193 390.584 262.545 389.896C262.913 389.192 263.097 388.408 263.097 387.544C263.097 386.648 262.913 385.864 262.545 385.192C262.193 384.504 261.697 383.96 261.057 383.56C260.417 383.144 259.689 382.936 258.873 382.936C258.057 382.936 257.321 383.136 256.665 383.536C256.025 383.936 255.513 384.488 255.129 385.192C254.761 385.88 254.577 386.664 254.577 387.544C254.577 388.408 254.761 389.192 255.129 389.896C255.513 390.584 256.025 391.128 256.665 391.528C257.321 391.928 258.057 392.128 258.873 392.128ZM268.4 394V381.064H270.584V383.44L270.344 383.104C270.648 382.368 271.112 381.824 271.736 381.472C272.36 381.104 273.12 380.92 274.016 380.92H274.808V383.032H273.68C272.768 383.032 272.032 383.32 271.472 383.896C270.912 384.456 270.632 385.256 270.632 386.296V394H268.4ZM276.791 394V381.064H279.023V394H276.791ZM276.791 379V376.12H279.023V379H276.791ZM282.486 394V381.064H284.67V383.584L284.31 383.368C284.63 382.552 285.142 381.92 285.846 381.472C286.566 381.008 287.406 380.776 288.366 380.776C289.294 380.776 290.118 380.984 290.838 381.4C291.574 381.816 292.15 382.392 292.566 383.128C292.998 383.864 293.214 384.696 293.214 385.624V394H290.958V386.344C290.958 385.624 290.83 385.016 290.574 384.52C290.318 384.024 289.95 383.64 289.47 383.368C289.006 383.08 288.47 382.936 287.862 382.936C287.254 382.936 286.71 383.08 286.23 383.368C285.766 383.64 285.398 384.032 285.126 384.544C284.854 385.04 284.718 385.64 284.718 386.344V394H282.486ZM302.576 399.28C301.664 399.28 300.816 399.136 300.032 398.848C299.264 398.56 298.6 398.16 298.04 397.648C297.496 397.152 297.08 396.568 296.792 395.896L298.88 394.936C299.104 395.544 299.528 396.056 300.152 396.472C300.792 396.904 301.592 397.12 302.552 397.12C303.288 397.12 303.952 396.976 304.544 396.688C305.152 396.416 305.632 396 305.984 395.44C306.336 394.896 306.512 394.232 306.512 393.448V390.544L306.92 390.976C306.472 391.856 305.824 392.528 304.976 392.992C304.144 393.456 303.224 393.688 302.216 393.688C301 393.688 299.912 393.408 298.952 392.848C297.992 392.272 297.24 391.496 296.696 390.52C296.152 389.528 295.88 388.432 295.88 387.232C295.88 386.016 296.152 384.92 296.696 383.944C297.24 382.968 297.984 382.2 298.928 381.64C299.888 381.064 300.976 380.776 302.192 380.776C303.2 380.776 304.112 381.008 304.928 381.472C305.76 381.92 306.424 382.544 306.92 383.344L306.584 383.944V381.064H308.768V393.448C308.768 394.568 308.504 395.568 307.976 396.448C307.448 397.328 306.712 398.016 305.768 398.512C304.84 399.024 303.776 399.28 302.576 399.28ZM302.408 391.528C303.176 391.528 303.864 391.336 304.472 390.952C305.096 390.568 305.592 390.056 305.96 389.416C306.328 388.76 306.512 388.032 306.512 387.232C306.512 386.448 306.328 385.728 305.96 385.072C305.592 384.416 305.096 383.896 304.472 383.512C303.864 383.128 303.176 382.936 302.408 382.936C301.624 382.936 300.912 383.128 300.272 383.512C299.632 383.896 299.128 384.416 298.76 385.072C298.408 385.712 298.232 386.432 298.232 387.232C298.232 388.032 298.408 388.76 298.76 389.416C299.128 390.056 299.624 390.568 300.248 390.952C300.888 391.336 301.608 391.528 302.408 391.528ZM312.228 394V381.064H314.46V394H312.228ZM312.228 379V376.12H314.46V379H312.228ZM317.923 394V381.064H320.107V383.584L319.747 383.368C320.067 382.552 320.579 381.92 321.283 381.472C322.003 381.008 322.843 380.776 323.803 380.776C324.731 380.776 325.555 380.984 326.275 381.4C327.011 381.816 327.587 382.392 328.003 383.128C328.435 383.864 328.651 384.696 328.651 385.624V394H326.395V386.344C326.395 385.624 326.267 385.016 326.011 384.52C325.755 384.024 325.387 383.64 324.907 383.368C324.443 383.08 323.907 382.936 323.299 382.936C322.691 382.936 322.147 383.08 321.667 383.368C321.203 383.64 320.835 384.032 320.563 384.544C320.291 385.04 320.155 385.64 320.155 386.344V394H317.923ZM338.013 399.28C337.101 399.28 336.253 399.136 335.469 398.848C334.701 398.56 334.037 398.16 333.477 397.648C332.933 397.152 332.517 396.568 332.229 395.896L334.317 394.936C334.541 395.544 334.965 396.056 335.589 396.472C336.229 396.904 337.029 397.12 337.989 397.12C338.725 397.12 339.389 396.976 339.981 396.688C340.589 396.416 341.069 396 341.421 395.44C341.773 394.896 341.949 394.232 341.949 393.448V390.544L342.357 390.976C341.909 391.856 341.261 392.528 340.413 392.992C339.581 393.456 338.661 393.688 337.653 393.688C336.437 393.688 335.349 393.408 334.389 392.848C333.429 392.272 332.677 391.496 332.133 390.52C331.589 389.528 331.317 388.432 331.317 387.232C331.317 386.016 331.589 384.92 332.133 383.944C332.677 382.968 333.421 382.2 334.365 381.64C335.325 381.064 336.413 380.776 337.629 380.776C338.637 380.776 339.549 381.008 340.365 381.472C341.197 381.92 341.861 382.544 342.357 383.344L342.021 383.944V381.064H344.205V393.448C344.205 394.568 343.941 395.568 343.413 396.448C342.885 397.328 342.149 398.016 341.205 398.512C340.277 399.024 339.213 399.28 338.013 399.28ZM337.845 391.528C338.613 391.528 339.301 391.336 339.909 390.952C340.533 390.568 341.029 390.056 341.397 389.416C341.765 388.76 341.949 388.032 341.949 387.232C341.949 386.448 341.765 385.728 341.397 385.072C341.029 384.416 340.533 383.896 339.909 383.512C339.301 383.128 338.613 382.936 337.845 382.936C337.061 382.936 336.349 383.128 335.709 383.512C335.069 383.896 334.565 384.416 334.197 385.072C333.845 385.712 333.669 386.432 333.669 387.232C333.669 388.032 333.845 388.76 334.197 389.416C334.565 390.056 335.061 390.568 335.685 390.952C336.325 391.336 337.045 391.528 337.845 391.528ZM104.714 431L99.6976 413.12H102.17L106.37 428.864H105.794L110.162 413.12H112.634L116.978 428.864H116.378L120.602 413.12H123.074L118.058 431H115.442L111.074 415.328H111.698L107.33 431H104.714ZM127.899 431.288C127.051 431.288 126.299 431.136 125.643 430.832C125.003 430.512 124.499 430.08 124.131 429.536C123.763 428.976 123.579 428.336 123.579 427.616C123.579 426.928 123.723 426.312 124.011 425.768C124.315 425.208 124.779 424.736 125.403 424.352C126.043 423.968 126.843 423.696 127.803 423.536L132.603 422.744V424.616L128.307 425.336C127.475 425.48 126.867 425.744 126.483 426.128C126.115 426.512 125.931 426.984 125.931 427.544C125.931 428.072 126.139 428.512 126.555 428.864C126.987 429.216 127.523 429.392 128.163 429.392C128.979 429.392 129.683 429.224 130.275 428.888C130.883 428.536 131.355 428.064 131.691 427.472C132.043 426.88 132.219 426.224 132.219 425.504V422.216C132.219 421.512 131.955 420.944 131.427 420.512C130.915 420.064 130.235 419.84 129.387 419.84C128.651 419.84 127.995 420.032 127.419 420.416C126.859 420.784 126.443 421.28 126.171 421.904L124.227 420.896C124.467 420.304 124.851 419.776 125.379 419.312C125.907 418.832 126.523 418.456 127.227 418.184C127.931 417.912 128.667 417.776 129.435 417.776C130.427 417.776 131.299 417.968 132.051 418.352C132.803 418.72 133.387 419.24 133.803 419.912C134.235 420.568 134.451 421.336 134.451 422.216V431H132.267V428.552L132.675 428.696C132.403 429.208 132.035 429.656 131.571 430.04C131.107 430.424 130.563 430.728 129.939 430.952C129.315 431.176 128.635 431.288 127.899 431.288ZM136.448 431L140.984 424.52L136.472 418.064H139.16L143.024 423.68H141.656L145.472 418.064H148.184L143.672 424.52L148.16 431H145.472L141.656 425.384H143L139.184 431H136.448ZM153.769 431L148.705 418.064H151.201L155.257 429.008H154.393L158.473 418.064H160.969L155.881 431H153.769ZM162.966 431V418.064H165.198V431H162.966ZM162.966 416V413.12H165.198V416H162.966ZM168.662 431V418.064H170.846V420.584L170.486 420.368C170.806 419.552 171.318 418.92 172.022 418.472C172.742 418.008 173.582 417.776 174.542 417.776C175.47 417.776 176.294 417.984 177.014 418.4C177.75 418.816 178.326 419.392 178.742 420.128C179.174 420.864 179.39 421.696 179.39 422.624V431H177.134V423.344C177.134 422.624 177.006 422.016 176.75 421.52C176.494 421.024 176.126 420.64 175.646 420.368C175.182 420.08 174.646 419.936 174.038 419.936C173.43 419.936 172.886 420.08 172.406 420.368C171.942 420.64 171.574 421.032 171.302 421.544C171.03 422.04 170.894 422.64 170.894 423.344V431H168.662ZM188.751 436.28C187.839 436.28 186.991 436.136 186.207 435.848C185.439 435.56 184.775 435.16 184.215 434.648C183.671 434.152 183.255 433.568 182.967 432.896L185.055 431.936C185.279 432.544 185.703 433.056 186.327 433.472C186.967 433.904 187.767 434.12 188.727 434.12C189.463 434.12 190.127 433.976 190.719 433.688C191.327 433.416 191.807 433 192.159 432.44C192.511 431.896 192.687 431.232 192.687 430.448V427.544L193.095 427.976C192.647 428.856 191.999 429.528 191.151 429.992C190.319 430.456 189.399 430.688 188.391 430.688C187.175 430.688 186.087 430.408 185.127 429.848C184.167 429.272 183.415 428.496 182.871 427.52C182.327 426.528 182.055 425.432 182.055 424.232C182.055 423.016 182.327 421.92 182.871 420.944C183.415 419.968 184.159 419.2 185.103 418.64C186.063 418.064 187.151 417.776 188.367 417.776C189.375 417.776 190.287 418.008 191.103 418.472C191.935 418.92 192.599 419.544 193.095 420.344L192.759 420.944V418.064H194.943V430.448C194.943 431.568 194.679 432.568 194.151 433.448C193.623 434.328 192.887 435.016 191.943 435.512C191.015 436.024 189.951 436.28 188.751 436.28ZM188.583 428.528C189.351 428.528 190.039 428.336 190.647 427.952C191.271 427.568 191.767 427.056 192.135 426.416C192.503 425.76 192.687 425.032 192.687 424.232C192.687 423.448 192.503 422.728 192.135 422.072C191.767 421.416 191.271 420.896 190.647 420.512C190.039 420.128 189.351 419.936 188.583 419.936C187.799 419.936 187.087 420.128 186.447 420.512C185.807 420.896 185.303 421.416 184.935 422.072C184.583 422.712 184.407 423.432 184.407 424.232C184.407 425.032 184.583 425.76 184.935 426.416C185.303 427.056 185.799 427.568 186.423 427.952C187.063 428.336 187.783 428.528 188.583 428.528ZM208.504 431.288C207.256 431.288 206.144 430.992 205.168 430.4C204.192 429.808 203.424 429 202.864 427.976C202.304 426.936 202.024 425.776 202.024 424.496C202.024 423.2 202.296 422.048 202.84 421.04C203.4 420.032 204.152 419.24 205.096 418.664C206.056 418.072 207.128 417.776 208.312 417.776C209.272 417.776 210.12 417.952 210.856 418.304C211.608 418.64 212.24 419.104 212.752 419.696C213.28 420.272 213.68 420.936 213.952 421.688C214.24 422.424 214.384 423.192 214.384 423.992C214.384 424.168 214.368 424.368 214.336 424.592C214.32 424.8 214.296 425 214.264 425.192H203.656V423.272H212.968L211.912 424.136C212.056 423.304 211.976 422.56 211.672 421.904C211.368 421.248 210.92 420.728 210.328 420.344C209.736 419.96 209.064 419.768 208.312 419.768C207.56 419.768 206.872 419.96 206.248 420.344C205.624 420.728 205.136 421.28 204.784 422C204.448 422.704 204.312 423.544 204.376 424.52C204.312 425.464 204.456 426.296 204.808 427.016C205.176 427.72 205.688 428.272 206.344 428.672C207.016 429.056 207.744 429.248 208.528 429.248C209.392 429.248 210.12 429.048 210.712 428.648C211.304 428.248 211.784 427.736 212.152 427.112L214.024 428.072C213.768 428.664 213.368 429.208 212.824 429.704C212.296 430.184 211.664 430.568 210.928 430.856C210.208 431.144 209.4 431.288 208.504 431.288ZM220.66 431L215.596 418.064H218.092L222.148 429.008H221.284L225.364 418.064H227.86L222.772 431H220.66ZM235.575 431.288C234.327 431.288 233.215 430.992 232.239 430.4C231.263 429.808 230.495 429 229.935 427.976C229.375 426.936 229.095 425.776 229.095 424.496C229.095 423.2 229.367 422.048 229.911 421.04C230.471 420.032 231.223 419.24 232.167 418.664C233.127 418.072 234.199 417.776 235.383 417.776C236.343 417.776 237.191 417.952 237.927 418.304C238.679 418.64 239.311 419.104 239.823 419.696C240.351 420.272 240.751 420.936 241.023 421.688C241.311 422.424 241.455 423.192 241.455 423.992C241.455 424.168 241.439 424.368 241.407 424.592C241.391 424.8 241.367 425 241.335 425.192H230.727V423.272H240.039L238.983 424.136C239.127 423.304 239.047 422.56 238.743 421.904C238.439 421.248 237.991 420.728 237.399 420.344C236.807 419.96 236.135 419.768 235.383 419.768C234.631 419.768 233.943 419.96 233.319 420.344C232.695 420.728 232.207 421.28 231.855 422C231.519 422.704 231.383 423.544 231.447 424.52C231.383 425.464 231.527 426.296 231.879 427.016C232.247 427.72 232.759 428.272 233.415 428.672C234.087 429.056 234.815 429.248 235.599 429.248C236.463 429.248 237.191 429.048 237.783 428.648C238.375 428.248 238.855 427.736 239.223 427.112L241.095 428.072C240.839 428.664 240.439 429.208 239.895 429.704C239.367 430.184 238.735 430.568 237.999 430.856C237.279 431.144 236.471 431.288 235.575 431.288ZM244.365 431V418.064H246.549V420.44L246.309 420.104C246.613 419.368 247.077 418.824 247.701 418.472C248.325 418.104 249.085 417.92 249.981 417.92H250.773V420.032H249.645C248.733 420.032 247.997 420.32 247.437 420.896C246.877 421.456 246.597 422.256 246.597 423.296V431H244.365ZM253.451 436.28C253.163 436.28 252.875 436.256 252.587 436.208C252.299 436.176 252.027 436.104 251.771 435.992V434C251.947 434.016 252.163 434.048 252.419 434.096C252.691 434.144 252.955 434.168 253.211 434.168C253.963 434.168 254.531 434 254.915 433.664C255.315 433.328 255.691 432.76 256.043 431.96L256.859 430.016L256.811 431.96L251.291 418.064H253.715L258.011 429.104H257.291L261.563 418.064H264.035L258.203 432.536C257.931 433.224 257.579 433.856 257.147 434.432C256.731 435.008 256.219 435.456 255.611 435.776C255.003 436.112 254.283 436.28 253.451 436.28ZM276.049 431.288C274.833 431.288 273.737 430.992 272.761 430.4C271.801 429.808 271.041 429 270.481 427.976C269.921 426.952 269.641 425.808 269.641 424.544C269.641 423.248 269.921 422.096 270.481 421.088C271.041 420.064 271.801 419.256 272.761 418.664C273.737 418.072 274.833 417.776 276.049 417.776C277.121 417.776 278.073 418.008 278.905 418.472C279.737 418.92 280.393 419.528 280.873 420.296L280.513 420.848V412.832H282.769V431H280.585V428.24L280.873 428.624C280.425 429.472 279.769 430.128 278.905 430.592C278.057 431.056 277.105 431.288 276.049 431.288ZM276.241 429.128C277.057 429.128 277.785 428.928 278.425 428.528C279.065 428.128 279.569 427.584 279.937 426.896C280.321 426.192 280.513 425.408 280.513 424.544C280.513 423.664 280.321 422.88 279.937 422.192C279.569 421.488 279.065 420.936 278.425 420.536C277.785 420.136 277.057 419.936 276.241 419.936C275.441 419.936 274.713 420.144 274.057 420.56C273.417 420.96 272.913 421.504 272.545 422.192C272.177 422.864 271.993 423.648 271.993 424.544C271.993 425.408 272.177 426.192 272.545 426.896C272.913 427.584 273.417 428.128 274.057 428.528C274.697 428.928 275.425 429.128 276.241 429.128ZM290.016 431.288C289.168 431.288 288.416 431.136 287.76 430.832C287.12 430.512 286.616 430.08 286.248 429.536C285.88 428.976 285.696 428.336 285.696 427.616C285.696 426.928 285.84 426.312 286.128 425.768C286.432 425.208 286.896 424.736 287.52 424.352C288.16 423.968 288.96 423.696 289.92 423.536L294.72 422.744V424.616L290.424 425.336C289.592 425.48 288.984 425.744 288.6 426.128C288.232 426.512 288.048 426.984 288.048 427.544C288.048 428.072 288.256 428.512 288.672 428.864C289.104 429.216 289.64 429.392 290.28 429.392C291.096 429.392 291.8 429.224 292.392 428.888C293 428.536 293.472 428.064 293.808 427.472C294.16 426.88 294.336 426.224 294.336 425.504V422.216C294.336 421.512 294.072 420.944 293.544 420.512C293.032 420.064 292.352 419.84 291.504 419.84C290.768 419.84 290.112 420.032 289.536 420.416C288.976 420.784 288.56 421.28 288.288 421.904L286.344 420.896C286.584 420.304 286.968 419.776 287.496 419.312C288.024 418.832 288.64 418.456 289.344 418.184C290.048 417.912 290.784 417.776 291.552 417.776C292.544 417.776 293.416 417.968 294.168 418.352C294.92 418.72 295.504 419.24 295.92 419.912C296.352 420.568 296.568 421.336 296.568 422.216V431H294.384V428.552L294.792 428.696C294.52 429.208 294.152 429.656 293.688 430.04C293.224 430.424 292.68 430.728 292.056 430.952C291.432 431.176 290.752 431.288 290.016 431.288ZM300.725 436.28C300.437 436.28 300.149 436.256 299.861 436.208C299.573 436.176 299.301 436.104 299.045 435.992V434C299.221 434.016 299.437 434.048 299.693 434.096C299.965 434.144 300.229 434.168 300.485 434.168C301.237 434.168 301.805 434 302.189 433.664C302.589 433.328 302.965 432.76 303.317 431.96L304.133 430.016L304.085 431.96L298.565 418.064H300.989L305.285 429.104H304.565L308.837 418.064H311.309L305.477 432.536C305.205 433.224 304.853 433.856 304.421 434.432C304.005 435.008 303.493 435.456 302.885 435.776C302.277 436.112 301.557 436.28 300.725 436.28Z" fill="white"/>
<path d="M43.136 561.288C42 561.288 40.96 561.08 40.016 560.664C39.072 560.232 38.272 559.648 37.616 558.912C36.96 558.176 36.488 557.352 36.2 556.44L38.24 555.6C38.672 556.752 39.312 557.64 40.16 558.264C41.024 558.872 42.032 559.176 43.184 559.176C43.888 559.176 44.504 559.064 45.032 558.84C45.56 558.616 45.968 558.304 46.256 557.904C46.56 557.488 46.712 557.008 46.712 556.464C46.712 555.712 46.496 555.12 46.064 554.688C45.648 554.24 45.032 553.904 44.216 553.68L40.928 552.672C39.632 552.272 38.64 551.64 37.952 550.776C37.264 549.912 36.92 548.92 36.92 547.8C36.92 546.824 37.152 545.968 37.616 545.232C38.096 544.48 38.752 543.896 39.584 543.48C40.432 543.048 41.392 542.832 42.464 542.832C43.536 542.832 44.504 543.024 45.368 543.408C46.248 543.792 46.992 544.312 47.6 544.968C48.208 545.608 48.656 546.344 48.944 547.176L46.928 548.016C46.544 547.008 45.968 546.248 45.2 545.736C44.432 545.208 43.528 544.944 42.488 544.944C41.848 544.944 41.28 545.056 40.784 545.28C40.304 545.488 39.928 545.8 39.656 546.216C39.4 546.616 39.272 547.096 39.272 547.656C39.272 548.312 39.48 548.896 39.896 549.408C40.312 549.92 40.944 550.312 41.792 550.584L44.792 551.472C46.2 551.904 47.264 552.52 47.984 553.32C48.704 554.12 49.064 555.112 49.064 556.296C49.064 557.272 48.808 558.136 48.296 558.888C47.8 559.64 47.104 560.232 46.208 560.664C45.328 561.08 44.304 561.288 43.136 561.288ZM57.4996 561.144C56.2356 561.144 55.2596 560.784 54.5716 560.064C53.8996 559.344 53.5636 558.328 53.5636 557.016V550.2H51.2116V548.064H51.6916C52.2676 548.064 52.7236 547.888 53.0596 547.536C53.3956 547.184 53.5636 546.72 53.5636 546.144V545.088H55.7956V548.064H58.6996V550.2H55.7956V556.944C55.7956 557.376 55.8596 557.752 55.9876 558.072C56.1316 558.392 56.3636 558.648 56.6836 558.84C57.0036 559.016 57.4276 559.104 57.9556 559.104C58.0676 559.104 58.2036 559.096 58.3636 559.08C58.5396 559.064 58.6996 559.048 58.8436 559.032V561C58.6356 561.048 58.4036 561.08 58.1476 561.096C57.8916 561.128 57.6756 561.144 57.4996 561.144ZM65.3872 561.288C64.5392 561.288 63.7872 561.136 63.1312 560.832C62.4912 560.512 61.9872 560.08 61.6192 559.536C61.2512 558.976 61.0672 558.336 61.0672 557.616C61.0672 556.928 61.2112 556.312 61.4992 555.768C61.8032 555.208 62.2672 554.736 62.8912 554.352C63.5312 553.968 64.3312 553.696 65.2912 553.536L70.0912 552.744V554.616L65.7952 555.336C64.9632 555.48 64.3552 555.744 63.9712 556.128C63.6032 556.512 63.4192 556.984 63.4192 557.544C63.4192 558.072 63.6272 558.512 64.0432 558.864C64.4752 559.216 65.0112 559.392 65.6512 559.392C66.4672 559.392 67.1712 559.224 67.7632 558.888C68.3712 558.536 68.8432 558.064 69.1792 557.472C69.5312 556.88 69.7072 556.224 69.7072 555.504V552.216C69.7072 551.512 69.4432 550.944 68.9152 550.512C68.4032 550.064 67.7232 549.84 66.8752 549.84C66.1392 549.84 65.4832 550.032 64.9072 550.416C64.3472 550.784 63.9312 551.28 63.6592 551.904L61.7152 550.896C61.9552 550.304 62.3392 549.776 62.8672 549.312C63.3952 548.832 64.0112 548.456 64.7152 548.184C65.4192 547.912 66.1552 547.776 66.9232 547.776C67.9152 547.776 68.7872 547.968 69.5392 548.352C70.2912 548.72 70.8752 549.24 71.2912 549.912C71.7232 550.568 71.9392 551.336 71.9392 552.216V561H69.7552V558.552L70.1632 558.696C69.8912 559.208 69.5232 559.656 69.0592 560.04C68.5952 560.424 68.0512 560.728 67.4272 560.952C66.8032 561.176 66.1232 561.288 65.3872 561.288ZM80.4215 561.144C79.1575 561.144 78.1815 560.784 77.4935 560.064C76.8215 559.344 76.4855 558.328 76.4855 557.016V550.2H74.1335V548.064H74.6135C75.1895 548.064 75.6455 547.888 75.9815 547.536C76.3175 547.184 76.4855 546.72 76.4855 546.144V545.088H78.7175V548.064H81.6215V550.2H78.7175V556.944C78.7175 557.376 78.7815 557.752 78.9095 558.072C79.0535 558.392 79.2855 558.648 79.6055 558.84C79.9255 559.016 80.3495 559.104 80.8775 559.104C80.9895 559.104 81.1255 559.096 81.2855 559.08C81.4615 559.064 81.6215 559.048 81.7655 559.032V561C81.5575 561.048 81.3255 561.08 81.0695 561.096C80.8135 561.128 80.5975 561.144 80.4215 561.144ZM89.2651 561.288C88.3371 561.288 87.4971 561.072 86.7451 560.64C86.0091 560.208 85.4331 559.608 85.0171 558.84C84.6171 558.056 84.4171 557.16 84.4171 556.152V548.064H86.6491V555.912C86.6491 556.552 86.7771 557.112 87.0331 557.592C87.3051 558.072 87.6731 558.448 88.1371 558.72C88.6171 558.992 89.1611 559.128 89.7691 559.128C90.3771 559.128 90.9131 558.992 91.3771 558.72C91.8571 558.448 92.2251 558.056 92.4811 557.544C92.7531 557.032 92.8891 556.424 92.8891 555.72V548.064H95.1451V561H92.9611V558.48L93.3211 558.696C93.0171 559.512 92.4971 560.152 91.7611 560.616C91.0411 561.064 90.2091 561.288 89.2651 561.288ZM103.235 561.288C101.939 561.288 100.811 560.968 99.851 560.328C98.891 559.688 98.211 558.824 97.811 557.736L99.587 556.872C99.955 557.64 100.459 558.248 101.099 558.696C101.739 559.144 102.451 559.368 103.235 559.368C103.939 559.368 104.523 559.2 104.987 558.864C105.451 558.528 105.683 558.088 105.683 557.544C105.683 557.16 105.571 556.856 105.347 556.632C105.139 556.392 104.883 556.208 104.579 556.08C104.275 555.936 103.995 555.832 103.739 555.768L101.795 555.216C100.627 554.88 99.771 554.4 99.227 553.776C98.699 553.152 98.435 552.424 98.435 551.592C98.435 550.824 98.627 550.16 99.011 549.6C99.411 549.024 99.947 548.576 100.619 548.256C101.307 547.936 102.075 547.776 102.923 547.776C104.059 547.776 105.075 548.064 105.971 548.64C106.883 549.216 107.531 550.024 107.915 551.064L106.091 551.904C105.803 551.232 105.371 550.704 104.795 550.32C104.219 549.92 103.571 549.72 102.851 549.72C102.195 549.72 101.675 549.888 101.291 550.224C100.907 550.544 100.715 550.952 100.715 551.448C100.715 551.816 100.811 552.12 101.003 552.36C101.195 552.584 101.427 552.76 101.699 552.888C101.971 553 102.235 553.096 102.491 553.176L104.603 553.8C105.659 554.104 106.475 554.576 107.051 555.216C107.643 555.856 107.939 556.624 107.939 557.52C107.939 558.24 107.739 558.888 107.339 559.464C106.939 560.04 106.387 560.488 105.683 560.808C104.979 561.128 104.163 561.288 103.235 561.288Z" fill="white"/>
<path d="M209.992 561V543.12H221.32V545.28H212.344V551.064H220.48V553.224H212.344V561H209.992ZM230.464 561.288C229.168 561.288 228.016 561.016 227.008 560.472C226.016 559.928 225.24 559.184 224.68 558.24C224.136 557.28 223.864 556.192 223.864 554.976V543.12H226.24V554.928C226.24 555.744 226.416 556.472 226.768 557.112C227.136 557.736 227.632 558.224 228.256 558.576C228.896 558.928 229.632 559.104 230.464 559.104C231.296 559.104 232.024 558.928 232.648 558.576C233.288 558.224 233.784 557.736 234.136 557.112C234.504 556.472 234.688 555.744 234.688 554.928V543.12H237.064V554.976C237.064 556.192 236.784 557.28 236.224 558.24C235.68 559.184 234.912 559.928 233.92 560.472C232.928 561.016 231.776 561.288 230.464 561.288ZM240.93 561V543.12H242.898L253.17 557.568L252.282 557.664V543.12H254.658V561H252.69L242.465 546.456L243.282 546.36V561H240.93ZM266.88 561.288C265.616 561.288 264.448 561.064 263.376 560.616C262.32 560.152 261.392 559.504 260.592 558.672C259.808 557.84 259.2 556.864 258.768 555.744C258.336 554.624 258.12 553.4 258.12 552.072C258.12 550.728 258.336 549.496 258.768 548.376C259.2 547.256 259.808 546.28 260.592 545.448C261.376 544.616 262.304 543.976 263.376 543.528C264.448 543.064 265.616 542.832 266.88 542.832C268.112 542.832 269.216 543.048 270.192 543.48C271.184 543.912 272.016 544.472 272.688 545.16C273.376 545.848 273.864 546.584 274.152 547.368L271.992 548.352C271.576 547.36 270.928 546.56 270.048 545.952C269.168 545.328 268.112 545.016 266.88 545.016C265.632 545.016 264.52 545.312 263.544 545.904C262.584 546.496 261.832 547.32 261.288 548.376C260.744 549.432 260.472 550.664 260.472 552.072C260.472 553.464 260.744 554.688 261.288 555.744C261.832 556.8 262.584 557.624 263.544 558.216C264.52 558.808 265.632 559.104 266.88 559.104C268.112 559.104 269.168 558.8 270.048 558.192C270.928 557.568 271.576 556.76 271.992 555.768L274.152 556.752C273.864 557.536 273.376 558.272 272.688 558.96C272.016 559.648 271.184 560.208 270.192 560.64C269.216 561.072 268.112 561.288 266.88 561.288ZM280.471 561V545.28H275.623V543.12H287.623V545.28H282.847V561H280.471ZM289.89 561V543.12H292.242V561H289.89ZM304.763 561.288C303.499 561.288 302.315 561.064 301.211 560.616C300.107 560.152 299.139 559.504 298.307 558.672C297.491 557.84 296.851 556.864 296.387 555.744C295.923 554.608 295.691 553.376 295.691 552.048C295.691 550.704 295.923 549.472 296.387 548.352C296.851 547.232 297.491 546.256 298.307 545.424C299.139 544.592 300.099 543.952 301.187 543.504C302.291 543.056 303.483 542.832 304.763 542.832C306.043 542.832 307.227 543.064 308.315 543.528C309.419 543.976 310.379 544.616 311.195 545.448C312.027 546.264 312.675 547.232 313.139 548.352C313.619 549.472 313.859 550.704 313.859 552.048C313.859 553.376 313.619 554.608 313.139 555.744C312.675 556.864 312.027 557.84 311.195 558.672C310.379 559.504 309.419 560.152 308.315 560.616C307.227 561.064 306.043 561.288 304.763 561.288ZM304.763 559.104C305.755 559.104 306.659 558.928 307.475 558.576C308.291 558.208 308.995 557.704 309.587 557.064C310.195 556.408 310.659 555.656 310.979 554.808C311.315 553.944 311.483 553.024 311.483 552.048C311.483 551.072 311.315 550.16 310.979 549.312C310.659 548.464 310.195 547.72 309.587 547.08C308.995 546.424 308.291 545.92 307.475 545.568C306.659 545.2 305.755 545.016 304.763 545.016C303.787 545.016 302.891 545.2 302.075 545.568C301.259 545.92 300.547 546.424 299.939 547.08C299.347 547.72 298.883 548.464 298.547 549.312C298.211 550.16 298.043 551.072 298.043 552.048C298.043 553.024 298.211 553.944 298.547 554.808C298.883 555.656 299.347 556.408 299.939 557.064C300.547 557.704 301.259 558.208 302.075 558.576C302.891 558.928 303.787 559.104 304.763 559.104ZM317.289 561V543.12H319.257L329.529 557.568L328.641 557.664V543.12H331.017V561H329.049L318.825 546.456L319.641 546.36V561H317.289ZM335.008 561V543.12H337.36V561H335.008ZM341.336 561V543.12H343.304L353.576 557.568L352.688 557.664V543.12H355.064V561H353.096L342.872 546.456L343.688 546.36V561H341.336ZM367.311 561.288C366.047 561.288 364.879 561.064 363.807 560.616C362.735 560.152 361.807 559.504 361.023 558.672C360.239 557.84 359.623 556.864 359.175 555.744C358.743 554.624 358.527 553.4 358.527 552.072C358.527 550.728 358.743 549.496 359.175 548.376C359.607 547.256 360.215 546.28 360.999 545.448C361.783 544.616 362.711 543.976 363.783 543.528C364.855 543.064 366.023 542.832 367.287 542.832C368.519 542.832 369.623 543.048 370.599 543.48C371.591 543.912 372.423 544.472 373.095 545.16C373.783 545.848 374.271 546.584 374.559 547.368L372.447 548.4C372.031 547.36 371.383 546.536 370.503 545.928C369.622 545.32 368.551 545.016 367.287 545.016C366.039 545.016 364.927 545.312 363.951 545.904C362.991 546.496 362.239 547.32 361.695 548.376C361.151 549.432 360.879 550.664 360.879 552.072C360.879 553.464 361.151 554.688 361.695 555.744C362.255 556.8 363.015 557.624 363.975 558.216C364.951 558.808 366.063 559.104 367.311 559.104C368.399 559.104 369.383 558.872 370.263 558.408C371.143 557.944 371.839 557.304 372.351 556.488C372.863 555.672 373.119 554.728 373.119 553.656V552.552L374.199 553.56H367.287V551.52H375.495V553.104C375.495 554.352 375.279 555.48 374.847 556.488C374.415 557.496 373.823 558.36 373.071 559.08C372.319 559.784 371.447 560.328 370.455 560.712C369.463 561.096 368.415 561.288 367.311 561.288Z" fill="#00FF85"/>
<path d="M208 565.2H376.671V566.16H208V565.2Z" fill="#00FF85"/>
<path d="M162.304 327V303.16H166.656V323.16H176.864V327H162.304ZM180.727 327L188.951 303.16H194.583L202.807 327H198.071L196.375 321.88H187.159L185.431 327H180.727ZM188.407 318.04H195.127L191.159 306.168H192.375L188.407 318.04ZM208.46 327V303.16H211.852L224.972 320.824L223.212 321.176V303.16H227.564V327H224.14L211.212 309.208L212.812 308.856V327H208.46ZM235.179 327V303.16H242.955C245.472 303.16 247.659 303.672 249.515 304.696C251.392 305.699 252.843 307.096 253.867 308.888C254.891 310.659 255.403 312.717 255.403 315.064C255.403 317.389 254.891 319.459 253.867 321.272C252.843 323.064 251.392 324.472 249.515 325.496C247.659 326.499 245.472 327 242.955 327H235.179ZM239.531 323.16H243.051C244.672 323.16 246.07 322.829 247.243 322.168C248.438 321.485 249.366 320.547 250.027 319.352C250.688 318.136 251.019 316.707 251.019 315.064C251.019 313.4 250.688 311.971 250.027 310.776C249.366 309.581 248.438 308.653 247.243 307.992C246.07 307.331 244.672 307 243.051 307H239.531V323.16Z" fill="#D9D9D9"/>
</svg>
