<svg width="59" height="79" viewBox="0 0 59 79" fill="none" xmlns="http://www.w3.org/2000/svg">
<g clip-path="url(#clip0_52_132)">
<path d="M19.3938 47.904V73.4673C13.5701 76.8325 6.98773 78.6407 0.273438 78.7197V59.6737H2.69353C2.67203 59.6091 2.65558 59.5429 2.64436 59.4757C2.62283 59.4073 2.6064 59.3375 2.5952 59.2667C6.57414 58.6735 10.2774 56.8684 13.2072 54.0938C16.137 51.3192 18.1529 47.7082 18.9841 43.7461C19.0442 45.1486 19.2026 46.5345 19.3938 47.904Z" fill="#0D0C14" stroke="#1D1D1B" stroke-miterlimit="10"/>
<path d="M33.4388 59.6735C29.9842 65.3877 25.1534 70.132 19.3936 73.4671V47.9038C19.9226 51.8394 20.8526 55.7096 22.1687 59.4535C22.1687 59.5195 22.2124 59.5855 22.2398 59.6515L33.4388 59.6735Z" fill="#521C0E" stroke="#1D1D1B" stroke-miterlimit="10"/>
<path d="M51.7174 10.7027C48.8199 13.3702 46.339 16.463 44.3588 19.8764H39.0598V39.5989C39.0625 39.6245 39.0625 39.6503 39.0598 39.6759H19.3931V31.8441C19.9302 27.8314 20.8841 23.8866 22.2393 20.0744C22.2393 20.0084 22.283 19.9424 22.3103 19.8764C23.4517 16.6862 24.8703 13.6035 26.5496 10.6641C21.9423 6.34459 16.3696 3.2055 10.3027 1.51237L11.0075 0.274902H44.2824C47.1305 3.4679 49.6236 6.96456 51.7174 10.7027Z" fill="#C1B0AF" stroke="#1D1D1B" stroke-miterlimit="10"/>
<path d="M58.7269 31.6464V47.706C58.1898 51.7187 57.2359 55.6636 55.8807 59.4757H22.1687C20.8526 55.7318 19.9226 51.8616 19.3936 47.926V39.8962H39.0602C39.0575 39.8633 39.0575 39.8301 39.0602 39.7972V20.0747H55.9517C57.2693 23.8257 58.1993 27.7034 58.7269 31.6464Z" fill="#90908E" stroke="#1D1D1B" stroke-miterlimit="10"/>
<path d="M58.727 5.53271V19.8763H44.3594C47.8296 13.9198 52.7815 8.97625 58.727 5.53271Z" fill="#0D0C14" stroke="#1D1D1B" stroke-miterlimit="10"/>
<path d="M58.7273 0.274917V5.5328C56.2086 6.99048 53.858 8.72432 51.7183 10.7027C49.6258 6.95691 47.1326 3.45282 44.2832 0.25293L58.7273 0.274917Z" fill="#A24933" stroke="#1D1D1B" stroke-miterlimit="10"/>
<path d="M44.4852 8.73926C40.9725 8.73926 40.967 14.2391 44.4852 14.2391C48.0033 14.2391 47.9979 8.73926 44.4852 8.73926Z" fill="#1D1D1B"/>
<path d="M44.878 9.44873C43.1189 9.44873 43.1135 12.1987 44.878 12.1987C46.6425 12.1987 46.6371 9.44873 44.878 9.44873Z" fill="white"/>
<path d="M42.9114 12.7324C42.5837 12.7324 42.0264 12.8369 41.868 13.1779C41.7096 13.5189 41.9991 13.6784 42.3051 13.6784C42.611 13.6784 43.1901 13.5739 43.3485 13.2384C43.5069 12.9029 43.2228 12.7324 42.9114 12.7324Z" fill="white"/>
<path d="M40.8955 11.4343V11.2143C40.9009 11.1521 40.9009 11.0896 40.8955 11.0274C40.7894 11 40.6853 10.9651 40.5841 10.9229C40.5813 10.9631 40.5813 11.0036 40.5841 11.0438C40.5841 11.1373 40.5841 11.2308 40.5841 11.3298C40.5841 11.6543 40.5841 11.9788 40.5841 12.2978C40.5841 12.6168 40.5841 12.9468 40.5841 13.2713V13.4858C40.5841 13.5518 40.5841 13.6123 40.5841 13.6728C40.6853 13.715 40.7894 13.7499 40.8955 13.7773C40.8983 13.737 40.8983 13.6966 40.8955 13.6563C40.8955 13.5628 40.8955 13.4693 40.8955 13.3758C40.8955 13.0513 40.8955 12.7268 40.8955 12.4023C40.8955 12.0778 40.8955 11.7643 40.8955 11.4343Z" fill="white"/>
<path d="M42.8403 13.7442C42.8403 13.6727 42.8403 13.6892 42.8075 13.6287C42.7993 13.5986 42.7821 13.5717 42.7583 13.5517L42.6928 13.4802C42.66 13.4263 42.6235 13.3749 42.5835 13.3262C42.4979 13.2457 42.4045 13.1738 42.3049 13.1117C42.2972 13.0705 42.2863 13.0301 42.2721 12.9907C42.2591 12.9461 42.2368 12.9049 42.2066 12.8697L42.1465 12.8257L42.0864 12.7817L42.0045 12.7487C41.9243 12.7178 41.839 12.7028 41.7532 12.7047H41.6002C41.6057 12.6738 41.6057 12.6421 41.6002 12.6112C41.562 12.4407 41.5183 12.2702 41.4636 12.0997C41.457 12.0714 41.4443 12.0449 41.4263 12.0221C41.4084 11.9993 41.3857 11.9807 41.3598 11.9677C41.3598 11.9677 41.3325 11.9677 41.3161 11.9677C41.3404 11.4602 41.287 10.9519 41.1577 10.4608C41.0976 10.2188 40.7917 10.1583 40.5841 10.1583C40.5456 10.1316 40.5032 10.1112 40.4584 10.0978C40.266 10.0565 40.0665 10.0618 39.8765 10.1135C39.6865 10.1651 39.5115 10.2615 39.3659 10.3948C39.2784 10.4938 39.1582 10.6588 39.2183 10.7963C39.4712 11.341 39.6547 11.9157 39.7646 12.5067C39.7803 12.5591 39.8076 12.6071 39.8445 12.6471C39.8814 12.6872 39.927 12.7182 39.9777 12.7377C40.005 12.8477 40.0378 12.9522 40.0596 13.0567C39.9955 13.1148 39.9419 13.1836 39.9012 13.2602L39.8575 13.4087C39.8461 13.512 39.8734 13.616 39.934 13.7002C40.0615 13.8542 40.1816 14.0137 40.2945 14.1787C40.341 14.2474 40.4079 14.2994 40.4858 14.3272C40.5639 14.3742 40.6517 14.4025 40.7425 14.4097H40.9501C41.0591 14.405 41.1664 14.3808 41.267 14.3382L41.338 14.2997L41.3926 14.3382C41.4493 14.37 41.5099 14.394 41.5729 14.4097C41.6237 14.4151 41.675 14.4151 41.7258 14.4097C41.7258 14.6682 41.7258 14.9212 41.7258 15.1742V15.3886C41.7258 15.4491 41.7258 15.5151 41.7258 15.5756C41.7258 15.6361 41.857 15.6306 41.928 15.6581H42.0045H42.0427H42.1083V15.5976L42.1356 15.6306C42.1683 15.6746 42.1902 15.7241 42.223 15.7681C42.2256 15.7517 42.2256 15.735 42.223 15.7186C42.2557 15.7626 42.2831 15.8066 42.3213 15.8506C42.3269 15.8614 42.3347 15.8708 42.3441 15.8784C42.3535 15.8859 42.3643 15.8915 42.3759 15.8946C42.4025 15.9034 42.4313 15.9034 42.4579 15.8946C42.4607 15.8544 42.4607 15.8139 42.4579 15.7736C42.4579 15.6801 42.4579 15.5866 42.4579 15.4931C42.4579 15.1686 42.4579 14.8442 42.4579 14.5197V14.1402C42.5247 14.1051 42.5887 14.0646 42.6491 14.0192L42.7474 13.9037C42.7712 13.8642 42.7895 13.8216 42.802 13.7772C42.8047 13.759 42.8047 13.7404 42.802 13.7222L42.8403 13.7442Z" fill="#C1B0AF"/>
</g>
<defs>
<clipPath id="clip0_52_132">
<rect width="59" height="79" fill="white"/>
</clipPath>
</defs>
</svg>
