<svg width="406" height="600" viewBox="0 0 406 600" fill="none" xmlns="http://www.w3.org/2000/svg">
<rect width="405.877" height="600" rx="20" fill="#CD0022"/>
<rect opacity="0.5" x="15.4131" y="15" width="375.051" height="240" rx="20" fill="#D9D9D9"/>
<path d="M29.0222 387V371.28H24.1742V369.12H36.1742V371.28H31.3982V387H29.0222ZM38.1772 387V368.832H40.4092V376.584L40.0012 376.368C40.3212 375.552 40.8332 374.92 41.5372 374.472C42.2572 374.008 43.0972 373.776 44.0572 373.776C44.9852 373.776 45.8092 373.984 46.5292 374.4C47.2652 374.816 47.8412 375.392 48.2572 376.128C48.6892 376.864 48.9052 377.696 48.9052 378.624V387H46.6492V379.344C46.6492 378.624 46.5132 378.016 46.2412 377.52C45.9852 377.024 45.6252 376.64 45.1612 376.368C44.6972 376.08 44.1612 375.936 43.5532 375.936C42.9612 375.936 42.4252 376.08 41.9452 376.368C41.4652 376.64 41.0892 377.032 40.8172 377.544C40.5452 378.04 40.4092 378.64 40.4092 379.344V387H38.1772ZM58.0511 387.288C56.8031 387.288 55.6911 386.992 54.7151 386.4C53.7391 385.808 52.9711 385 52.4111 383.976C51.8511 382.936 51.5711 381.776 51.5711 380.496C51.5711 379.2 51.8431 378.048 52.3871 377.04C52.9471 376.032 53.6991 375.24 54.6431 374.664C55.6031 374.072 56.6751 373.776 57.8591 373.776C58.8191 373.776 59.6671 373.952 60.4031 374.304C61.1551 374.64 61.7871 375.104 62.2991 375.696C62.8271 376.272 63.2271 376.936 63.4991 377.688C63.7871 378.424 63.9311 379.192 63.9311 379.992C63.9311 380.168 63.9151 380.368 63.8831 380.592C63.8671 380.8 63.8431 381 63.8111 381.192H53.2031V379.272H62.5151L61.4591 380.136C61.6031 379.304 61.5231 378.56 61.2191 377.904C60.9151 377.248 60.4671 376.728 59.8751 376.344C59.2831 375.96 58.6111 375.768 57.8591 375.768C57.1071 375.768 56.4191 375.96 55.7951 376.344C55.1711 376.728 54.6831 377.28 54.3311 378C53.9951 378.704 53.8591 379.544 53.9231 380.52C53.8591 381.464 54.0031 382.296 54.3551 383.016C54.7231 383.72 55.2351 384.272 55.8911 384.672C56.5631 385.056 57.2911 385.248 58.0751 385.248C58.9391 385.248 59.6671 385.048 60.2591 384.648C60.8511 384.248 61.3311 383.736 61.6991 383.112L63.5711 384.072C63.3151 384.664 62.9151 385.208 62.3711 385.704C61.8431 386.184 61.2111 386.568 60.4751 386.856C59.7551 387.144 58.9471 387.288 58.0511 387.288ZM77.6857 387.288C76.6457 387.288 75.6937 387.056 74.8297 386.592C73.9817 386.128 73.3257 385.472 72.8617 384.624L73.1737 384.24V387H70.9897V368.832H73.2217V376.848L72.8857 376.296C73.3657 375.528 74.0217 374.92 74.8537 374.472C75.6857 374.008 76.6377 373.776 77.7097 373.776C78.9257 373.776 80.0137 374.072 80.9737 374.664C81.9497 375.256 82.7177 376.064 83.2777 377.088C83.8377 378.096 84.1177 379.248 84.1177 380.544C84.1177 381.808 83.8377 382.952 83.2777 383.976C82.7177 385 81.9497 385.808 80.9737 386.4C80.0137 386.992 78.9177 387.288 77.6857 387.288ZM77.5177 385.128C78.3337 385.128 79.0617 384.928 79.7017 384.528C80.3417 384.128 80.8377 383.584 81.1897 382.896C81.5577 382.192 81.7417 381.408 81.7417 380.544C81.7417 379.648 81.5577 378.864 81.1897 378.192C80.8377 377.504 80.3417 376.96 79.7017 376.56C79.0617 376.144 78.3337 375.936 77.5177 375.936C76.7017 375.936 75.9657 376.136 75.3097 376.536C74.6697 376.936 74.1577 377.488 73.7737 378.192C73.4057 378.88 73.2217 379.664 73.2217 380.544C73.2217 381.408 73.4057 382.192 73.7737 382.896C74.1577 383.584 74.6697 384.128 75.3097 384.528C75.9657 384.928 76.7017 385.128 77.5177 385.128ZM92.9964 387.288C91.7484 387.288 90.6364 386.992 89.6604 386.4C88.6844 385.808 87.9164 385 87.3564 383.976C86.7964 382.936 86.5164 381.776 86.5164 380.496C86.5164 379.2 86.7884 378.048 87.3324 377.04C87.8924 376.032 88.6444 375.24 89.5884 374.664C90.5484 374.072 91.6204 373.776 92.8044 373.776C93.7644 373.776 94.6124 373.952 95.3484 374.304C96.1004 374.64 96.7324 375.104 97.2444 375.696C97.7724 376.272 98.1724 376.936 98.4444 377.688C98.7324 378.424 98.8764 379.192 98.8764 379.992C98.8764 380.168 98.8604 380.368 98.8284 380.592C98.8124 380.8 98.7884 381 98.7564 381.192H88.1484V379.272H97.4604L96.4044 380.136C96.5484 379.304 96.4684 378.56 96.1644 377.904C95.8604 377.248 95.4124 376.728 94.8204 376.344C94.2284 375.96 93.5564 375.768 92.8044 375.768C92.0524 375.768 91.3644 375.96 90.7404 376.344C90.1164 376.728 89.6284 377.28 89.2764 378C88.9404 378.704 88.8044 379.544 88.8684 380.52C88.8044 381.464 88.9484 382.296 89.3004 383.016C89.6684 383.72 90.1804 384.272 90.8364 384.672C91.5084 385.056 92.2364 385.248 93.0204 385.248C93.8844 385.248 94.6124 385.048 95.2044 384.648C95.7964 384.248 96.2764 383.736 96.6444 383.112L98.5164 384.072C98.2604 384.664 97.8604 385.208 97.3164 385.704C96.7884 386.184 96.1564 386.568 95.4204 386.856C94.7004 387.144 93.8924 387.288 92.9964 387.288ZM107.955 392.28C107.043 392.28 106.195 392.136 105.411 391.848C104.643 391.56 103.979 391.16 103.419 390.648C102.875 390.152 102.459 389.568 102.171 388.896L104.259 387.936C104.483 388.544 104.907 389.056 105.531 389.472C106.171 389.904 106.971 390.12 107.931 390.12C108.667 390.12 109.331 389.976 109.923 389.688C110.531 389.416 111.011 389 111.363 388.44C111.715 387.896 111.891 387.232 111.891 386.448V383.544L112.299 383.976C111.851 384.856 111.203 385.528 110.355 385.992C109.523 386.456 108.603 386.688 107.595 386.688C106.379 386.688 105.291 386.408 104.331 385.848C103.371 385.272 102.619 384.496 102.075 383.52C101.531 382.528 101.259 381.432 101.259 380.232C101.259 379.016 101.531 377.92 102.075 376.944C102.619 375.968 103.363 375.2 104.307 374.64C105.267 374.064 106.355 373.776 107.571 373.776C108.579 373.776 109.491 374.008 110.307 374.472C111.139 374.92 111.803 375.544 112.299 376.344L111.963 376.944V374.064H114.147V386.448C114.147 387.568 113.883 388.568 113.355 389.448C112.827 390.328 112.091 391.016 111.147 391.512C110.219 392.024 109.155 392.28 107.955 392.28ZM107.787 384.528C108.555 384.528 109.243 384.336 109.851 383.952C110.475 383.568 110.971 383.056 111.339 382.416C111.707 381.76 111.891 381.032 111.891 380.232C111.891 379.448 111.707 378.728 111.339 378.072C110.971 377.416 110.475 376.896 109.851 376.512C109.243 376.128 108.555 375.936 107.787 375.936C107.003 375.936 106.291 376.128 105.651 376.512C105.011 376.896 104.507 377.416 104.139 378.072C103.787 378.712 103.611 379.432 103.611 380.232C103.611 381.032 103.787 381.76 104.139 382.416C104.507 383.056 105.003 383.568 105.627 383.952C106.267 384.336 106.987 384.528 107.787 384.528ZM117.607 387V374.064H119.839V387H117.607ZM117.607 372V369.12H119.839V372H117.607ZM123.302 387V374.064H125.486V376.584L125.126 376.368C125.446 375.552 125.958 374.92 126.662 374.472C127.382 374.008 128.222 373.776 129.182 373.776C130.11 373.776 130.934 373.984 131.654 374.4C132.39 374.816 132.966 375.392 133.382 376.128C133.814 376.864 134.03 377.696 134.03 378.624V387H131.774V379.344C131.774 378.624 131.646 378.016 131.39 377.52C131.134 377.024 130.766 376.64 130.286 376.368C129.822 376.08 129.286 375.936 128.678 375.936C128.07 375.936 127.526 376.08 127.046 376.368C126.582 376.64 126.214 377.032 125.942 377.544C125.67 378.04 125.534 378.64 125.534 379.344V387H123.302ZM137.224 387V374.064H139.408V376.584L139.048 376.368C139.368 375.552 139.88 374.92 140.584 374.472C141.304 374.008 142.144 373.776 143.104 373.776C144.032 373.776 144.856 373.984 145.576 374.4C146.312 374.816 146.888 375.392 147.304 376.128C147.736 376.864 147.952 377.696 147.952 378.624V387H145.696V379.344C145.696 378.624 145.568 378.016 145.312 377.52C145.056 377.024 144.688 376.64 144.208 376.368C143.744 376.08 143.208 375.936 142.6 375.936C141.992 375.936 141.448 376.08 140.968 376.368C140.504 376.64 140.136 377.032 139.864 377.544C139.592 378.04 139.456 378.64 139.456 379.344V387H137.224ZM151.146 387V374.064H153.378V387H151.146ZM151.146 372V369.12H153.378V372H151.146ZM156.841 387V374.064H159.025V376.584L158.665 376.368C158.985 375.552 159.497 374.92 160.201 374.472C160.921 374.008 161.761 373.776 162.721 373.776C163.649 373.776 164.473 373.984 165.193 374.4C165.929 374.816 166.505 375.392 166.921 376.128C167.353 376.864 167.569 377.696 167.569 378.624V387H165.313V379.344C165.313 378.624 165.185 378.016 164.929 377.52C164.673 377.024 164.305 376.64 163.825 376.368C163.361 376.08 162.825 375.936 162.217 375.936C161.609 375.936 161.065 376.08 160.585 376.368C160.121 376.64 159.753 377.032 159.481 377.544C159.209 378.04 159.073 378.64 159.073 379.344V387H156.841ZM176.931 392.28C176.019 392.28 175.171 392.136 174.387 391.848C173.619 391.56 172.955 391.16 172.395 390.648C171.851 390.152 171.435 389.568 171.147 388.896L173.235 387.936C173.459 388.544 173.883 389.056 174.507 389.472C175.147 389.904 175.947 390.12 176.907 390.12C177.643 390.12 178.307 389.976 178.899 389.688C179.507 389.416 179.987 389 180.339 388.44C180.691 387.896 180.867 387.232 180.867 386.448V383.544L181.275 383.976C180.827 384.856 180.179 385.528 179.331 385.992C178.499 386.456 177.579 386.688 176.571 386.688C175.355 386.688 174.267 386.408 173.307 385.848C172.347 385.272 171.595 384.496 171.051 383.52C170.507 382.528 170.235 381.432 170.235 380.232C170.235 379.016 170.507 377.92 171.051 376.944C171.595 375.968 172.339 375.2 173.283 374.64C174.243 374.064 175.331 373.776 176.547 373.776C177.555 373.776 178.467 374.008 179.283 374.472C180.115 374.92 180.779 375.544 181.275 376.344L180.939 376.944V374.064H183.123V386.448C183.123 387.568 182.859 388.568 182.331 389.448C181.803 390.328 181.067 391.016 180.123 391.512C179.195 392.024 178.131 392.28 176.931 392.28ZM176.763 384.528C177.531 384.528 178.219 384.336 178.827 383.952C179.451 383.568 179.947 383.056 180.315 382.416C180.683 381.76 180.867 381.032 180.867 380.232C180.867 379.448 180.683 378.728 180.315 378.072C179.947 377.416 179.451 376.896 178.827 376.512C178.219 376.128 177.531 375.936 176.763 375.936C175.979 375.936 175.267 376.128 174.627 376.512C173.987 376.896 173.483 377.416 173.115 378.072C172.763 378.712 172.587 379.432 172.587 380.232C172.587 381.032 172.763 381.76 173.115 382.416C173.483 383.056 173.979 383.568 174.603 383.952C175.243 384.336 175.963 384.528 176.763 384.528ZM196.876 387.288C195.628 387.288 194.5 387 193.492 386.424C192.484 385.832 191.684 385.024 191.092 384C190.5 382.976 190.204 381.816 190.204 380.52C190.204 379.224 190.492 378.072 191.068 377.064C191.66 376.056 192.46 375.256 193.468 374.664C194.476 374.072 195.612 373.776 196.876 373.776C198.124 373.776 199.252 374.072 200.26 374.664C201.268 375.24 202.06 376.032 202.636 377.04C203.228 378.048 203.524 379.208 203.524 380.52C203.524 381.832 203.22 383 202.612 384.024C202.004 385.032 201.196 385.832 200.188 386.424C199.196 387 198.092 387.288 196.876 387.288ZM196.876 385.128C197.676 385.128 198.396 384.928 199.036 384.528C199.692 384.128 200.204 383.576 200.572 382.872C200.956 382.168 201.148 381.384 201.148 380.52C201.148 379.64 200.956 378.864 200.572 378.192C200.204 377.504 199.692 376.96 199.036 376.56C198.396 376.144 197.676 375.936 196.876 375.936C196.06 375.936 195.324 376.144 194.668 376.56C194.028 376.96 193.516 377.504 193.132 378.192C192.748 378.864 192.556 379.64 192.556 380.52C192.556 381.384 192.748 382.168 193.132 382.872C193.516 383.576 194.028 384.128 194.668 384.528C195.324 384.928 196.06 385.128 196.876 385.128ZM207.405 387V376.2H204.933V374.064H207.405V373.152C207.405 372.224 207.605 371.44 208.005 370.8C208.421 370.16 208.965 369.672 209.637 369.336C210.325 369 211.085 368.832 211.917 368.832C212.093 368.832 212.285 368.848 212.493 368.88C212.717 368.896 212.901 368.92 213.045 368.952V370.944C212.917 370.912 212.765 370.896 212.589 370.896C212.413 370.88 212.277 370.872 212.181 370.872C211.445 370.872 210.837 371.048 210.357 371.4C209.893 371.752 209.661 372.336 209.661 373.152V374.064H212.733V376.2H209.661V387H207.405ZM224.98 387.144C223.716 387.144 222.74 386.784 222.052 386.064C221.38 385.344 221.044 384.328 221.044 383.016V376.2H218.692V374.064H219.172C219.748 374.064 220.204 373.888 220.54 373.536C220.876 373.184 221.044 372.72 221.044 372.144V371.088H223.276V374.064H226.18V376.2H223.276V382.944C223.276 383.376 223.34 383.752 223.468 384.072C223.612 384.392 223.844 384.648 224.164 384.84C224.484 385.016 224.908 385.104 225.436 385.104C225.548 385.104 225.684 385.096 225.844 385.08C226.02 385.064 226.18 385.048 226.324 385.032V387C226.116 387.048 225.884 387.08 225.628 387.096C225.372 387.128 225.156 387.144 224.98 387.144ZM229.24 387V368.832H231.472V376.584L231.064 376.368C231.384 375.552 231.896 374.92 232.6 374.472C233.32 374.008 234.16 373.776 235.12 373.776C236.048 373.776 236.872 373.984 237.592 374.4C238.328 374.816 238.904 375.392 239.32 376.128C239.752 376.864 239.968 377.696 239.968 378.624V387H237.712V379.344C237.712 378.624 237.576 378.016 237.304 377.52C237.048 377.024 236.688 376.64 236.224 376.368C235.76 376.08 235.224 375.936 234.616 375.936C234.024 375.936 233.488 376.08 233.008 376.368C232.528 376.64 232.152 377.032 231.88 377.544C231.608 378.04 231.472 378.64 231.472 379.344V387H229.24ZM249.114 387.288C247.866 387.288 246.754 386.992 245.778 386.4C244.802 385.808 244.034 385 243.474 383.976C242.914 382.936 242.634 381.776 242.634 380.496C242.634 379.2 242.906 378.048 243.45 377.04C244.01 376.032 244.762 375.24 245.706 374.664C246.666 374.072 247.738 373.776 248.922 373.776C249.882 373.776 250.73 373.952 251.466 374.304C252.218 374.64 252.85 375.104 253.362 375.696C253.89 376.272 254.29 376.936 254.562 377.688C254.85 378.424 254.994 379.192 254.994 379.992C254.994 380.168 254.978 380.368 254.946 380.592C254.93 380.8 254.906 381 254.874 381.192H244.266V379.272H253.578L252.522 380.136C252.666 379.304 252.586 378.56 252.282 377.904C251.978 377.248 251.53 376.728 250.938 376.344C250.346 375.96 249.674 375.768 248.922 375.768C248.17 375.768 247.482 375.96 246.858 376.344C246.234 376.728 245.746 377.28 245.394 378C245.058 378.704 244.922 379.544 244.986 380.52C244.922 381.464 245.066 382.296 245.418 383.016C245.786 383.72 246.298 384.272 246.954 384.672C247.626 385.056 248.354 385.248 249.138 385.248C250.002 385.248 250.73 385.048 251.322 384.648C251.914 384.248 252.394 383.736 252.762 383.112L254.634 384.072C254.378 384.664 253.978 385.208 253.434 385.704C252.906 386.184 252.274 386.568 251.538 386.856C250.818 387.144 250.01 387.288 249.114 387.288ZM268.748 387.288C267.708 387.288 266.756 387.056 265.892 386.592C265.044 386.128 264.388 385.472 263.924 384.624L264.236 384.24V387H262.052V368.832H264.284V376.848L263.948 376.296C264.428 375.528 265.084 374.92 265.916 374.472C266.748 374.008 267.7 373.776 268.772 373.776C269.988 373.776 271.076 374.072 272.036 374.664C273.012 375.256 273.78 376.064 274.34 377.088C274.9 378.096 275.18 379.248 275.18 380.544C275.18 381.808 274.9 382.952 274.34 383.976C273.78 385 273.012 385.808 272.036 386.4C271.076 386.992 269.98 387.288 268.748 387.288ZM268.58 385.128C269.396 385.128 270.124 384.928 270.764 384.528C271.404 384.128 271.9 383.584 272.252 382.896C272.62 382.192 272.804 381.408 272.804 380.544C272.804 379.648 272.62 378.864 272.252 378.192C271.9 377.504 271.404 376.96 270.764 376.56C270.124 376.144 269.396 375.936 268.58 375.936C267.764 375.936 267.028 376.136 266.372 376.536C265.732 376.936 265.22 377.488 264.836 378.192C264.468 378.88 264.284 379.664 264.284 380.544C264.284 381.408 264.468 382.192 264.836 382.896C265.22 383.584 265.732 384.128 266.372 384.528C267.028 384.928 267.764 385.128 268.58 385.128ZM284.059 387.288C282.811 387.288 281.699 386.992 280.723 386.4C279.747 385.808 278.979 385 278.419 383.976C277.859 382.936 277.579 381.776 277.579 380.496C277.579 379.2 277.851 378.048 278.395 377.04C278.955 376.032 279.707 375.24 280.651 374.664C281.611 374.072 282.683 373.776 283.867 373.776C284.827 373.776 285.675 373.952 286.411 374.304C287.163 374.64 287.795 375.104 288.307 375.696C288.835 376.272 289.235 376.936 289.507 377.688C289.795 378.424 289.939 379.192 289.939 379.992C289.939 380.168 289.923 380.368 289.891 380.592C289.875 380.8 289.851 381 289.819 381.192H279.211V379.272H288.523L287.467 380.136C287.611 379.304 287.531 378.56 287.227 377.904C286.923 377.248 286.475 376.728 285.883 376.344C285.291 375.96 284.619 375.768 283.867 375.768C283.115 375.768 282.427 375.96 281.803 376.344C281.179 376.728 280.691 377.28 280.339 378C280.003 378.704 279.867 379.544 279.931 380.52C279.867 381.464 280.011 382.296 280.363 383.016C280.731 383.72 281.243 384.272 281.899 384.672C282.571 385.056 283.299 385.248 284.083 385.248C284.947 385.248 285.675 385.048 286.267 384.648C286.859 384.248 287.339 383.736 287.707 383.112L289.579 384.072C289.323 384.664 288.923 385.208 288.379 385.704C287.851 386.184 287.219 386.568 286.483 386.856C285.763 387.144 284.955 387.288 284.059 387.288ZM299.017 392.28C298.105 392.28 297.257 392.136 296.473 391.848C295.705 391.56 295.041 391.16 294.481 390.648C293.937 390.152 293.521 389.568 293.233 388.896L295.321 387.936C295.545 388.544 295.969 389.056 296.593 389.472C297.233 389.904 298.033 390.12 298.993 390.12C299.729 390.12 300.393 389.976 300.985 389.688C301.593 389.416 302.073 389 302.425 388.44C302.777 387.896 302.953 387.232 302.953 386.448V383.544L303.361 383.976C302.913 384.856 302.265 385.528 301.417 385.992C300.585 386.456 299.665 386.688 298.657 386.688C297.441 386.688 296.353 386.408 295.393 385.848C294.433 385.272 293.681 384.496 293.137 383.52C292.593 382.528 292.321 381.432 292.321 380.232C292.321 379.016 292.593 377.92 293.137 376.944C293.681 375.968 294.425 375.2 295.369 374.64C296.329 374.064 297.417 373.776 298.633 373.776C299.641 373.776 300.553 374.008 301.369 374.472C302.201 374.92 302.865 375.544 303.361 376.344L303.025 376.944V374.064H305.209V386.448C305.209 387.568 304.945 388.568 304.417 389.448C303.889 390.328 303.153 391.016 302.209 391.512C301.281 392.024 300.217 392.28 299.017 392.28ZM298.849 384.528C299.617 384.528 300.305 384.336 300.913 383.952C301.537 383.568 302.033 383.056 302.401 382.416C302.769 381.76 302.953 381.032 302.953 380.232C302.953 379.448 302.769 378.728 302.401 378.072C302.033 377.416 301.537 376.896 300.913 376.512C300.305 376.128 299.617 375.936 298.849 375.936C298.065 375.936 297.353 376.128 296.713 376.512C296.073 376.896 295.569 377.416 295.201 378.072C294.849 378.712 294.673 379.432 294.673 380.232C294.673 381.032 294.849 381.76 295.201 382.416C295.569 383.056 296.065 383.568 296.689 383.952C297.329 384.336 298.049 384.528 298.849 384.528ZM308.669 387V374.064H310.901V387H308.669ZM308.669 372V369.12H310.901V372H308.669ZM314.365 387V374.064H316.549V376.584L316.189 376.368C316.509 375.552 317.021 374.92 317.725 374.472C318.445 374.008 319.285 373.776 320.245 373.776C321.173 373.776 321.997 373.984 322.717 374.4C323.453 374.816 324.029 375.392 324.445 376.128C324.877 376.864 325.093 377.696 325.093 378.624V387H322.837V379.344C322.837 378.624 322.709 378.016 322.453 377.52C322.197 377.024 321.829 376.64 321.349 376.368C320.885 376.08 320.349 375.936 319.741 375.936C319.133 375.936 318.589 376.08 318.109 376.368C317.645 376.64 317.277 377.032 317.005 377.544C316.733 378.04 316.597 378.64 316.597 379.344V387H314.365ZM328.287 387V374.064H330.471V376.584L330.111 376.368C330.431 375.552 330.943 374.92 331.647 374.472C332.367 374.008 333.207 373.776 334.167 373.776C335.095 373.776 335.919 373.984 336.639 374.4C337.375 374.816 337.951 375.392 338.367 376.128C338.799 376.864 339.015 377.696 339.015 378.624V387H336.759V379.344C336.759 378.624 336.631 378.016 336.375 377.52C336.119 377.024 335.751 376.64 335.271 376.368C334.807 376.08 334.271 375.936 333.663 375.936C333.055 375.936 332.511 376.08 332.031 376.368C331.567 376.64 331.199 377.032 330.927 377.544C330.655 378.04 330.519 378.64 330.519 379.344V387H328.287ZM342.208 387V374.064H344.44V387H342.208ZM342.208 372V369.12H344.44V372H342.208ZM347.904 387V374.064H350.088V376.584L349.728 376.368C350.048 375.552 350.56 374.92 351.264 374.472C351.984 374.008 352.824 373.776 353.784 373.776C354.712 373.776 355.536 373.984 356.256 374.4C356.992 374.816 357.568 375.392 357.984 376.128C358.416 376.864 358.632 377.696 358.632 378.624V387H356.376V379.344C356.376 378.624 356.248 378.016 355.992 377.52C355.736 377.024 355.368 376.64 354.888 376.368C354.424 376.08 353.888 375.936 353.28 375.936C352.672 375.936 352.128 376.08 351.648 376.368C351.184 376.64 350.816 377.032 350.544 377.544C350.272 378.04 350.136 378.64 350.136 379.344V387H347.904ZM367.994 392.28C367.082 392.28 366.234 392.136 365.45 391.848C364.682 391.56 364.018 391.16 363.458 390.648C362.914 390.152 362.498 389.568 362.21 388.896L364.298 387.936C364.522 388.544 364.946 389.056 365.57 389.472C366.21 389.904 367.01 390.12 367.97 390.12C368.706 390.12 369.37 389.976 369.962 389.688C370.57 389.416 371.05 389 371.402 388.44C371.754 387.896 371.93 387.232 371.93 386.448V383.544L372.338 383.976C371.89 384.856 371.242 385.528 370.394 385.992C369.562 386.456 368.642 386.688 367.634 386.688C366.418 386.688 365.33 386.408 364.37 385.848C363.41 385.272 362.658 384.496 362.114 383.52C361.57 382.528 361.298 381.432 361.298 380.232C361.298 379.016 361.57 377.92 362.114 376.944C362.658 375.968 363.402 375.2 364.346 374.64C365.306 374.064 366.394 373.776 367.61 373.776C368.618 373.776 369.53 374.008 370.346 374.472C371.178 374.92 371.842 375.544 372.338 376.344L372.002 376.944V374.064H374.186V386.448C374.186 387.568 373.922 388.568 373.394 389.448C372.866 390.328 372.13 391.016 371.186 391.512C370.258 392.024 369.194 392.28 367.994 392.28ZM367.826 384.528C368.594 384.528 369.282 384.336 369.89 383.952C370.514 383.568 371.01 383.056 371.378 382.416C371.746 381.76 371.93 381.032 371.93 380.232C371.93 379.448 371.746 378.728 371.378 378.072C371.01 377.416 370.514 376.896 369.89 376.512C369.282 376.128 368.594 375.936 367.826 375.936C367.042 375.936 366.33 376.128 365.69 376.512C365.05 376.896 364.546 377.416 364.178 378.072C363.826 378.712 363.65 379.432 363.65 380.232C363.65 381.032 363.826 381.76 364.178 382.416C364.546 383.056 365.042 383.568 365.666 383.952C366.306 384.336 367.026 384.528 367.826 384.528ZM378.03 390.336V389.256C378.526 389.128 378.902 388.88 379.158 388.512C379.414 388.144 379.558 387.64 379.59 387H378.51V384.12H380.838V386.16C380.838 387.312 380.598 388.24 380.118 388.944C379.654 389.648 378.958 390.112 378.03 390.336ZM51.6063 424L47.1663 411.064H49.6383L53.1663 421.888L52.3023 421.864L55.7583 411.064H57.8703L61.3263 421.864L60.4623 421.888L64.0143 411.064H66.4623L62.0223 424H59.8863L56.4783 413.2H57.1503L53.7423 424H51.6063ZM68.4585 424V405.832H70.6905V413.584L70.2825 413.368C70.6025 412.552 71.1145 411.92 71.8185 411.472C72.5385 411.008 73.3785 410.776 74.3385 410.776C75.2665 410.776 76.0905 410.984 76.8105 411.4C77.5465 411.816 78.1225 412.392 78.5385 413.128C78.9705 413.864 79.1865 414.696 79.1865 415.624V424H76.9305V416.344C76.9305 415.624 76.7945 415.016 76.5225 414.52C76.2665 414.024 75.9065 413.64 75.4425 413.368C74.9785 413.08 74.4425 412.936 73.8345 412.936C73.2425 412.936 72.7065 413.08 72.2265 413.368C71.7465 413.64 71.3705 414.032 71.0985 414.544C70.8265 415.04 70.6905 415.64 70.6905 416.344V424H68.4585ZM86.1723 424.288C85.3243 424.288 84.5723 424.136 83.9163 423.832C83.2763 423.512 82.7723 423.08 82.4043 422.536C82.0363 421.976 81.8523 421.336 81.8523 420.616C81.8523 419.928 81.9963 419.312 82.2843 418.768C82.5883 418.208 83.0523 417.736 83.6763 417.352C84.3163 416.968 85.1163 416.696 86.0763 416.536L90.8763 415.744V417.616L86.5803 418.336C85.7483 418.48 85.1403 418.744 84.7563 419.128C84.3883 419.512 84.2043 419.984 84.2043 420.544C84.2043 421.072 84.4123 421.512 84.8283 421.864C85.2603 422.216 85.7963 422.392 86.4363 422.392C87.2523 422.392 87.9563 422.224 88.5483 421.888C89.1563 421.536 89.6283 421.064 89.9643 420.472C90.3163 419.88 90.4923 419.224 90.4923 418.504V415.216C90.4923 414.512 90.2283 413.944 89.7003 413.512C89.1883 413.064 88.5083 412.84 87.6603 412.84C86.9243 412.84 86.2683 413.032 85.6923 413.416C85.1323 413.784 84.7163 414.28 84.4443 414.904L82.5003 413.896C82.7403 413.304 83.1243 412.776 83.6523 412.312C84.1803 411.832 84.7963 411.456 85.5003 411.184C86.2043 410.912 86.9403 410.776 87.7083 410.776C88.7003 410.776 89.5723 410.968 90.3243 411.352C91.0763 411.72 91.6603 412.24 92.0763 412.912C92.5083 413.568 92.7243 414.336 92.7243 415.216V424H90.5403V421.552L90.9483 421.696C90.6763 422.208 90.3083 422.656 89.8443 423.04C89.3803 423.424 88.8363 423.728 88.2123 423.952C87.5883 424.176 86.9083 424.288 86.1723 424.288ZM101.207 424.144C99.9427 424.144 98.9667 423.784 98.2787 423.064C97.6067 422.344 97.2707 421.328 97.2707 420.016V413.2H94.9187V411.064H95.3987C95.9747 411.064 96.4307 410.888 96.7667 410.536C97.1027 410.184 97.2707 409.72 97.2707 409.144V408.088H99.5027V411.064H102.407V413.2H99.5027V419.944C99.5027 420.376 99.5667 420.752 99.6947 421.072C99.8387 421.392 100.071 421.648 100.391 421.84C100.711 422.016 101.135 422.104 101.663 422.104C101.775 422.104 101.911 422.096 102.071 422.08C102.247 422.064 102.407 422.048 102.551 422.032V424C102.343 424.048 102.111 424.08 101.855 424.096C101.599 424.128 101.383 424.144 101.207 424.144ZM110.311 429.28C110.023 429.28 109.735 429.256 109.447 429.208C109.159 429.176 108.887 429.104 108.631 428.992V427C108.807 427.016 109.023 427.048 109.279 427.096C109.551 427.144 109.815 427.168 110.071 427.168C110.823 427.168 111.391 427 111.775 426.664C112.175 426.328 112.551 425.76 112.903 424.96L113.719 423.016L113.671 424.96L108.151 411.064H110.575L114.871 422.104H114.151L118.423 411.064H120.895L115.063 425.536C114.791 426.224 114.439 426.856 114.007 427.432C113.591 428.008 113.079 428.456 112.471 428.776C111.863 429.112 111.143 429.28 110.311 429.28ZM128.79 424.288C127.542 424.288 126.414 424 125.406 423.424C124.398 422.832 123.598 422.024 123.006 421C122.414 419.976 122.118 418.816 122.118 417.52C122.118 416.224 122.406 415.072 122.982 414.064C123.574 413.056 124.374 412.256 125.382 411.664C126.39 411.072 127.526 410.776 128.79 410.776C130.038 410.776 131.166 411.072 132.174 411.664C133.182 412.24 133.974 413.032 134.55 414.04C135.142 415.048 135.438 416.208 135.438 417.52C135.438 418.832 135.134 420 134.526 421.024C133.918 422.032 133.11 422.832 132.102 423.424C131.11 424 130.006 424.288 128.79 424.288ZM128.79 422.128C129.59 422.128 130.31 421.928 130.95 421.528C131.606 421.128 132.118 420.576 132.486 419.872C132.87 419.168 133.062 418.384 133.062 417.52C133.062 416.64 132.87 415.864 132.486 415.192C132.118 414.504 131.606 413.96 130.95 413.56C130.31 413.144 129.59 412.936 128.79 412.936C127.974 412.936 127.238 413.144 126.582 413.56C125.942 413.96 125.43 414.504 125.046 415.192C124.662 415.864 124.47 416.64 124.47 417.52C124.47 418.384 124.662 419.168 125.046 419.872C125.43 420.576 125.942 421.128 126.582 421.528C127.238 421.928 127.974 422.128 128.79 422.128ZM142.933 424.288C142.005 424.288 141.165 424.072 140.413 423.64C139.677 423.208 139.101 422.608 138.685 421.84C138.285 421.056 138.085 420.16 138.085 419.152V411.064H140.317V418.912C140.317 419.552 140.445 420.112 140.701 420.592C140.973 421.072 141.341 421.448 141.805 421.72C142.285 421.992 142.829 422.128 143.437 422.128C144.045 422.128 144.581 421.992 145.045 421.72C145.525 421.448 145.893 421.056 146.149 420.544C146.421 420.032 146.557 419.424 146.557 418.72V411.064H148.813V424H146.629V421.48L146.989 421.696C146.685 422.512 146.165 423.152 145.429 423.616C144.709 424.064 143.877 424.288 142.933 424.288ZM162.587 429.28C161.675 429.28 160.827 429.136 160.043 428.848C159.275 428.56 158.611 428.16 158.051 427.648C157.507 427.152 157.091 426.568 156.803 425.896L158.891 424.936C159.115 425.544 159.539 426.056 160.163 426.472C160.803 426.904 161.603 427.12 162.563 427.12C163.299 427.12 163.963 426.976 164.555 426.688C165.163 426.416 165.643 426 165.995 425.44C166.347 424.896 166.523 424.232 166.523 423.448V420.544L166.931 420.976C166.483 421.856 165.835 422.528 164.987 422.992C164.155 423.456 163.235 423.688 162.227 423.688C161.011 423.688 159.923 423.408 158.963 422.848C158.003 422.272 157.251 421.496 156.707 420.52C156.163 419.528 155.891 418.432 155.891 417.232C155.891 416.016 156.163 414.92 156.707 413.944C157.251 412.968 157.995 412.2 158.939 411.64C159.899 411.064 160.987 410.776 162.203 410.776C163.211 410.776 164.123 411.008 164.939 411.472C165.771 411.92 166.435 412.544 166.931 413.344L166.595 413.944V411.064H168.779V423.448C168.779 424.568 168.515 425.568 167.987 426.448C167.459 427.328 166.723 428.016 165.779 428.512C164.851 429.024 163.787 429.28 162.587 429.28ZM162.419 421.528C163.187 421.528 163.875 421.336 164.483 420.952C165.107 420.568 165.603 420.056 165.971 419.416C166.339 418.76 166.523 418.032 166.523 417.232C166.523 416.448 166.339 415.728 165.971 415.072C165.603 414.416 165.107 413.896 164.483 413.512C163.875 413.128 163.187 412.936 162.419 412.936C161.635 412.936 160.923 413.128 160.283 413.512C159.643 413.896 159.139 414.416 158.771 415.072C158.419 415.712 158.243 416.432 158.243 417.232C158.243 418.032 158.419 418.76 158.771 419.416C159.139 420.056 159.635 420.568 160.259 420.952C160.899 421.336 161.619 421.528 162.419 421.528ZM178.192 424.288C176.944 424.288 175.832 423.992 174.856 423.4C173.88 422.808 173.112 422 172.552 420.976C171.992 419.936 171.712 418.776 171.712 417.496C171.712 416.2 171.984 415.048 172.528 414.04C173.088 413.032 173.84 412.24 174.784 411.664C175.744 411.072 176.816 410.776 178 410.776C178.96 410.776 179.808 410.952 180.544 411.304C181.296 411.64 181.928 412.104 182.44 412.696C182.968 413.272 183.368 413.936 183.64 414.688C183.928 415.424 184.072 416.192 184.072 416.992C184.072 417.168 184.056 417.368 184.024 417.592C184.008 417.8 183.984 418 183.952 418.192H173.344V416.272H182.656L181.6 417.136C181.744 416.304 181.664 415.56 181.36 414.904C181.056 414.248 180.608 413.728 180.016 413.344C179.424 412.96 178.752 412.768 178 412.768C177.248 412.768 176.56 412.96 175.936 413.344C175.312 413.728 174.824 414.28 174.472 415C174.136 415.704 174 416.544 174.064 417.52C174 418.464 174.144 419.296 174.496 420.016C174.864 420.72 175.376 421.272 176.032 421.672C176.704 422.056 177.432 422.248 178.216 422.248C179.08 422.248 179.808 422.048 180.4 421.648C180.992 421.248 181.472 420.736 181.84 420.112L183.712 421.072C183.456 421.664 183.056 422.208 182.512 422.704C181.984 423.184 181.352 423.568 180.616 423.856C179.896 424.144 179.088 424.288 178.192 424.288ZM192.238 424.144C190.974 424.144 189.998 423.784 189.31 423.064C188.638 422.344 188.302 421.328 188.302 420.016V413.2H185.95V411.064H186.43C187.006 411.064 187.462 410.888 187.798 410.536C188.134 410.184 188.302 409.72 188.302 409.144V408.088H190.534V411.064H193.438V413.2H190.534V419.944C190.534 420.376 190.598 420.752 190.726 421.072C190.87 421.392 191.102 421.648 191.422 421.84C191.742 422.016 192.166 422.104 192.694 422.104C192.806 422.104 192.942 422.096 193.102 422.08C193.278 422.064 193.438 422.048 193.582 422.032V424C193.374 424.048 193.142 424.08 192.886 424.096C192.63 424.128 192.414 424.144 192.238 424.144ZM205.902 424.144C204.638 424.144 203.662 423.784 202.974 423.064C202.302 422.344 201.966 421.328 201.966 420.016V413.2H199.614V411.064H200.094C200.67 411.064 201.126 410.888 201.462 410.536C201.798 410.184 201.966 409.72 201.966 409.144V408.088H204.198V411.064H207.102V413.2H204.198V419.944C204.198 420.376 204.262 420.752 204.39 421.072C204.534 421.392 204.766 421.648 205.086 421.84C205.406 422.016 205.83 422.104 206.358 422.104C206.47 422.104 206.606 422.096 206.766 422.08C206.942 422.064 207.102 422.048 207.246 422.032V424C207.038 424.048 206.806 424.08 206.55 424.096C206.294 424.128 206.078 424.144 205.902 424.144ZM215.954 424.288C214.706 424.288 213.578 424 212.57 423.424C211.562 422.832 210.762 422.024 210.17 421C209.578 419.976 209.282 418.816 209.282 417.52C209.282 416.224 209.57 415.072 210.146 414.064C210.738 413.056 211.538 412.256 212.546 411.664C213.554 411.072 214.69 410.776 215.954 410.776C217.202 410.776 218.33 411.072 219.338 411.664C220.346 412.24 221.138 413.032 221.714 414.04C222.306 415.048 222.602 416.208 222.602 417.52C222.602 418.832 222.298 420 221.69 421.024C221.082 422.032 220.274 422.832 219.266 423.424C218.274 424 217.17 424.288 215.954 424.288ZM215.954 422.128C216.754 422.128 217.474 421.928 218.114 421.528C218.77 421.128 219.282 420.576 219.65 419.872C220.034 419.168 220.226 418.384 220.226 417.52C220.226 416.64 220.034 415.864 219.65 415.192C219.282 414.504 218.77 413.96 218.114 413.56C217.474 413.144 216.754 412.936 215.954 412.936C215.138 412.936 214.402 413.144 213.746 413.56C213.106 413.96 212.594 414.504 212.21 415.192C211.826 415.864 211.634 416.64 211.634 417.52C211.634 418.384 211.826 419.168 212.21 419.872C212.594 420.576 213.106 421.128 213.746 421.528C214.402 421.928 215.138 422.128 215.954 422.128ZM229.662 424V405.832H231.894V418.288L230.982 418.072L237.846 411.064H240.702L235.734 416.272L241.038 424H238.398L233.55 416.992L234.942 416.92L231.174 420.856L231.894 419.224V424H229.662ZM243.044 424V411.064H245.228V413.584L244.868 413.368C245.188 412.552 245.7 411.92 246.404 411.472C247.124 411.008 247.964 410.776 248.924 410.776C249.852 410.776 250.676 410.984 251.396 411.4C252.132 411.816 252.708 412.392 253.124 413.128C253.556 413.864 253.772 414.696 253.772 415.624V424H251.516V416.344C251.516 415.624 251.388 415.016 251.132 414.52C250.876 414.024 250.508 413.64 250.028 413.368C249.564 413.08 249.028 412.936 248.42 412.936C247.812 412.936 247.268 413.08 246.788 413.368C246.324 413.64 245.956 414.032 245.684 414.544C245.412 415.04 245.276 415.64 245.276 416.344V424H243.044ZM263.11 424.288C261.862 424.288 260.734 424 259.726 423.424C258.718 422.832 257.918 422.024 257.326 421C256.734 419.976 256.438 418.816 256.438 417.52C256.438 416.224 256.726 415.072 257.302 414.064C257.894 413.056 258.694 412.256 259.702 411.664C260.71 411.072 261.846 410.776 263.11 410.776C264.358 410.776 265.486 411.072 266.494 411.664C267.502 412.24 268.294 413.032 268.87 414.04C269.462 415.048 269.758 416.208 269.758 417.52C269.758 418.832 269.454 420 268.846 421.024C268.238 422.032 267.43 422.832 266.422 423.424C265.43 424 264.326 424.288 263.11 424.288ZM263.11 422.128C263.91 422.128 264.63 421.928 265.27 421.528C265.926 421.128 266.438 420.576 266.806 419.872C267.19 419.168 267.382 418.384 267.382 417.52C267.382 416.64 267.19 415.864 266.806 415.192C266.438 414.504 265.926 413.96 265.27 413.56C264.63 413.144 263.91 412.936 263.11 412.936C262.294 412.936 261.558 413.144 260.902 413.56C260.262 413.96 259.75 414.504 259.366 415.192C258.982 415.864 258.79 416.64 258.79 417.52C258.79 418.384 258.982 419.168 259.366 419.872C259.75 420.576 260.262 421.128 260.902 421.528C261.558 421.928 262.294 422.128 263.11 422.128ZM275.411 424L270.971 411.064H273.443L276.971 421.888L276.107 421.864L279.563 411.064H281.675L285.131 421.864L284.267 421.888L287.819 411.064H290.267L285.827 424H283.691L280.283 413.2H280.955L277.547 424H275.411ZM300.204 424.288C299.356 424.288 298.604 424.136 297.948 423.832C297.308 423.512 296.804 423.08 296.436 422.536C296.068 421.976 295.884 421.336 295.884 420.616C295.884 419.928 296.028 419.312 296.316 418.768C296.62 418.208 297.084 417.736 297.708 417.352C298.348 416.968 299.148 416.696 300.108 416.536L304.908 415.744V417.616L300.612 418.336C299.78 418.48 299.172 418.744 298.788 419.128C298.42 419.512 298.236 419.984 298.236 420.544C298.236 421.072 298.444 421.512 298.86 421.864C299.292 422.216 299.828 422.392 300.468 422.392C301.284 422.392 301.988 422.224 302.58 421.888C303.188 421.536 303.66 421.064 303.996 420.472C304.348 419.88 304.524 419.224 304.524 418.504V415.216C304.524 414.512 304.26 413.944 303.732 413.512C303.22 413.064 302.54 412.84 301.692 412.84C300.956 412.84 300.3 413.032 299.724 413.416C299.164 413.784 298.748 414.28 298.476 414.904L296.532 413.896C296.772 413.304 297.156 412.776 297.684 412.312C298.212 411.832 298.828 411.456 299.532 411.184C300.236 410.912 300.972 410.776 301.74 410.776C302.732 410.776 303.604 410.968 304.356 411.352C305.108 411.72 305.692 412.24 306.108 412.912C306.54 413.568 306.756 414.336 306.756 415.216V424H304.572V421.552L304.98 421.696C304.708 422.208 304.34 422.656 303.876 423.04C303.412 423.424 302.868 423.728 302.244 423.952C301.62 424.176 300.94 424.288 300.204 424.288ZM315.238 424.144C313.974 424.144 312.998 423.784 312.31 423.064C311.638 422.344 311.302 421.328 311.302 420.016V413.2H308.95V411.064H309.43C310.006 411.064 310.462 410.888 310.798 410.536C311.134 410.184 311.302 409.72 311.302 409.144V408.088H313.534V411.064H316.438V413.2H313.534V419.944C313.534 420.376 313.598 420.752 313.726 421.072C313.87 421.392 314.102 421.648 314.422 421.84C314.742 422.016 315.166 422.104 315.694 422.104C315.806 422.104 315.942 422.096 316.102 422.08C316.278 422.064 316.438 422.048 316.582 422.032V424C316.374 424.048 316.142 424.08 315.886 424.096C315.63 424.128 315.414 424.144 315.238 424.144ZM328.902 424.144C327.638 424.144 326.662 423.784 325.974 423.064C325.302 422.344 324.966 421.328 324.966 420.016V413.2H322.614V411.064H323.094C323.67 411.064 324.126 410.888 324.462 410.536C324.798 410.184 324.966 409.72 324.966 409.144V408.088H327.198V411.064H330.102V413.2H327.198V419.944C327.198 420.376 327.262 420.752 327.39 421.072C327.534 421.392 327.766 421.648 328.086 421.84C328.406 422.016 328.83 422.104 329.358 422.104C329.47 422.104 329.606 422.096 329.766 422.08C329.942 422.064 330.102 422.048 330.246 422.032V424C330.038 424.048 329.806 424.08 329.55 424.096C329.294 424.128 329.078 424.144 328.902 424.144ZM333.162 424V405.832H335.394V413.584L334.986 413.368C335.306 412.552 335.818 411.92 336.522 411.472C337.242 411.008 338.082 410.776 339.042 410.776C339.97 410.776 340.794 410.984 341.514 411.4C342.25 411.816 342.826 412.392 343.242 413.128C343.674 413.864 343.89 414.696 343.89 415.624V424H341.634V416.344C341.634 415.624 341.498 415.016 341.226 414.52C340.97 414.024 340.61 413.64 340.146 413.368C339.682 413.08 339.146 412.936 338.538 412.936C337.946 412.936 337.41 413.08 336.93 413.368C336.45 413.64 336.074 414.032 335.802 414.544C335.53 415.04 335.394 415.64 335.394 416.344V424H333.162ZM353.035 424.288C351.787 424.288 350.675 423.992 349.699 423.4C348.723 422.808 347.955 422 347.395 420.976C346.835 419.936 346.555 418.776 346.555 417.496C346.555 416.2 346.827 415.048 347.371 414.04C347.931 413.032 348.683 412.24 349.627 411.664C350.587 411.072 351.659 410.776 352.843 410.776C353.803 410.776 354.651 410.952 355.387 411.304C356.139 411.64 356.771 412.104 357.283 412.696C357.811 413.272 358.211 413.936 358.483 414.688C358.771 415.424 358.915 416.192 358.915 416.992C358.915 417.168 358.899 417.368 358.867 417.592C358.851 417.8 358.827 418 358.795 418.192H348.187V416.272H357.499L356.443 417.136C356.587 416.304 356.507 415.56 356.203 414.904C355.899 414.248 355.451 413.728 354.859 413.344C354.267 412.96 353.595 412.768 352.843 412.768C352.091 412.768 351.403 412.96 350.779 413.344C350.155 413.728 349.667 414.28 349.315 415C348.979 415.704 348.843 416.544 348.907 417.52C348.843 418.464 348.987 419.296 349.339 420.016C349.707 420.72 350.219 421.272 350.875 421.672C351.547 422.056 352.275 422.248 353.059 422.248C353.923 422.248 354.651 422.048 355.243 421.648C355.835 421.248 356.315 420.736 356.683 420.112L358.555 421.072C358.299 421.664 357.899 422.208 357.355 422.704C356.827 423.184 356.195 423.568 355.459 423.856C354.739 424.144 353.931 424.288 353.035 424.288ZM63.8107 461.288C62.7707 461.288 61.8187 461.056 60.9547 460.592C60.1067 460.128 59.4507 459.472 58.9867 458.624L59.2987 458.24V461H57.1147V442.832H59.3467V450.848L59.0107 450.296C59.4907 449.528 60.1467 448.92 60.9787 448.472C61.8107 448.008 62.7627 447.776 63.8347 447.776C65.0507 447.776 66.1387 448.072 67.0987 448.664C68.0747 449.256 68.8427 450.064 69.4027 451.088C69.9627 452.096 70.2427 453.248 70.2427 454.544C70.2427 455.808 69.9627 456.952 69.4027 457.976C68.8427 459 68.0747 459.808 67.0987 460.4C66.1387 460.992 65.0427 461.288 63.8107 461.288ZM63.6427 459.128C64.4587 459.128 65.1867 458.928 65.8267 458.528C66.4667 458.128 66.9627 457.584 67.3147 456.896C67.6827 456.192 67.8667 455.408 67.8667 454.544C67.8667 453.648 67.6827 452.864 67.3147 452.192C66.9627 451.504 66.4667 450.96 65.8267 450.56C65.1867 450.144 64.4587 449.936 63.6427 449.936C62.8267 449.936 62.0907 450.136 61.4347 450.536C60.7947 450.936 60.2827 451.488 59.8987 452.192C59.5307 452.88 59.3467 453.664 59.3467 454.544C59.3467 455.408 59.5307 456.192 59.8987 456.896C60.2827 457.584 60.7947 458.128 61.4347 458.528C62.0907 458.928 62.8267 459.128 63.6427 459.128ZM79.1214 461.288C77.8734 461.288 76.7614 460.992 75.7854 460.4C74.8094 459.808 74.0414 459 73.4814 457.976C72.9214 456.936 72.6414 455.776 72.6414 454.496C72.6414 453.2 72.9134 452.048 73.4574 451.04C74.0174 450.032 74.7694 449.24 75.7134 448.664C76.6734 448.072 77.7454 447.776 78.9294 447.776C79.8894 447.776 80.7374 447.952 81.4734 448.304C82.2254 448.64 82.8574 449.104 83.3694 449.696C83.8974 450.272 84.2974 450.936 84.5694 451.688C84.8574 452.424 85.0014 453.192 85.0014 453.992C85.0014 454.168 84.9854 454.368 84.9534 454.592C84.9374 454.8 84.9134 455 84.8814 455.192H74.2734V453.272H83.5854L82.5294 454.136C82.6734 453.304 82.5934 452.56 82.2894 451.904C81.9854 451.248 81.5374 450.728 80.9454 450.344C80.3534 449.96 79.6814 449.768 78.9294 449.768C78.1774 449.768 77.4894 449.96 76.8654 450.344C76.2414 450.728 75.7534 451.28 75.4014 452C75.0654 452.704 74.9294 453.544 74.9934 454.52C74.9294 455.464 75.0734 456.296 75.4254 457.016C75.7934 457.72 76.3054 458.272 76.9614 458.672C77.6334 459.056 78.3614 459.248 79.1454 459.248C80.0094 459.248 80.7374 459.048 81.3294 458.648C81.9214 458.248 82.4014 457.736 82.7694 457.112L84.6414 458.072C84.3854 458.664 83.9854 459.208 83.4414 459.704C82.9134 460.184 82.2814 460.568 81.5454 460.856C80.8254 461.144 80.0174 461.288 79.1214 461.288ZM94.0796 466.28C93.1676 466.28 92.3196 466.136 91.5356 465.848C90.7676 465.56 90.1036 465.16 89.5436 464.648C88.9996 464.152 88.5836 463.568 88.2956 462.896L90.3836 461.936C90.6076 462.544 91.0316 463.056 91.6556 463.472C92.2956 463.904 93.0956 464.12 94.0556 464.12C94.7916 464.12 95.4556 463.976 96.0476 463.688C96.6556 463.416 97.1356 463 97.4876 462.44C97.8396 461.896 98.0156 461.232 98.0156 460.448V457.544L98.4236 457.976C97.9756 458.856 97.3276 459.528 96.4796 459.992C95.6476 460.456 94.7276 460.688 93.7196 460.688C92.5036 460.688 91.4156 460.408 90.4556 459.848C89.4956 459.272 88.7436 458.496 88.1996 457.52C87.6556 456.528 87.3836 455.432 87.3836 454.232C87.3836 453.016 87.6556 451.92 88.1996 450.944C88.7436 449.968 89.4876 449.2 90.4316 448.64C91.3916 448.064 92.4796 447.776 93.6956 447.776C94.7036 447.776 95.6156 448.008 96.4316 448.472C97.2636 448.92 97.9276 449.544 98.4236 450.344L98.0876 450.944V448.064H100.272V460.448C100.272 461.568 100.008 462.568 99.4796 463.448C98.9516 464.328 98.2156 465.016 97.2716 465.512C96.3436 466.024 95.2796 466.28 94.0796 466.28ZM93.9116 458.528C94.6796 458.528 95.3676 458.336 95.9756 457.952C96.5996 457.568 97.0956 457.056 97.4636 456.416C97.8316 455.76 98.0156 455.032 98.0156 454.232C98.0156 453.448 97.8316 452.728 97.4636 452.072C97.0956 451.416 96.5996 450.896 95.9756 450.512C95.3676 450.128 94.6796 449.936 93.9116 449.936C93.1276 449.936 92.4156 450.128 91.7756 450.512C91.1356 450.896 90.6316 451.416 90.2636 452.072C89.9116 452.712 89.7356 453.432 89.7356 454.232C89.7356 455.032 89.9116 455.76 90.2636 456.416C90.6316 457.056 91.1276 457.568 91.7516 457.952C92.3916 458.336 93.1116 458.528 93.9116 458.528ZM103.732 461V448.064H105.964V461H103.732ZM103.732 446V443.12H105.964V446H103.732ZM109.427 461V448.064H111.611V450.584L111.251 450.368C111.571 449.552 112.083 448.92 112.787 448.472C113.507 448.008 114.347 447.776 115.307 447.776C116.235 447.776 117.059 447.984 117.779 448.4C118.515 448.816 119.091 449.392 119.507 450.128C119.939 450.864 120.155 451.696 120.155 452.624V461H117.899V453.344C117.899 452.624 117.771 452.016 117.515 451.52C117.259 451.024 116.891 450.64 116.411 450.368C115.947 450.08 115.411 449.936 114.803 449.936C114.195 449.936 113.651 450.08 113.171 450.368C112.707 450.64 112.339 451.032 112.067 451.544C111.795 452.04 111.659 452.64 111.659 453.344V461H109.427ZM123.349 461V448.064H125.533V450.584L125.173 450.368C125.493 449.552 126.005 448.92 126.709 448.472C127.429 448.008 128.269 447.776 129.229 447.776C130.157 447.776 130.981 447.984 131.701 448.4C132.437 448.816 133.013 449.392 133.429 450.128C133.861 450.864 134.077 451.696 134.077 452.624V461H131.821V453.344C131.821 452.624 131.693 452.016 131.437 451.52C131.181 451.024 130.813 450.64 130.333 450.368C129.869 450.08 129.333 449.936 128.725 449.936C128.117 449.936 127.573 450.08 127.093 450.368C126.629 450.64 126.261 451.032 125.989 451.544C125.717 452.04 125.581 452.64 125.581 453.344V461H123.349ZM137.271 461V448.064H139.503V461H137.271ZM137.271 446V443.12H139.503V446H137.271ZM142.966 461V448.064H145.15V450.584L144.79 450.368C145.11 449.552 145.622 448.92 146.326 448.472C147.046 448.008 147.886 447.776 148.846 447.776C149.774 447.776 150.598 447.984 151.318 448.4C152.054 448.816 152.63 449.392 153.046 450.128C153.478 450.864 153.694 451.696 153.694 452.624V461H151.438V453.344C151.438 452.624 151.31 452.016 151.054 451.52C150.798 451.024 150.43 450.64 149.95 450.368C149.486 450.08 148.95 449.936 148.342 449.936C147.734 449.936 147.19 450.08 146.71 450.368C146.246 450.64 145.878 451.032 145.606 451.544C145.334 452.04 145.198 452.64 145.198 453.344V461H142.966ZM163.056 466.28C162.144 466.28 161.296 466.136 160.512 465.848C159.744 465.56 159.08 465.16 158.52 464.648C157.976 464.152 157.56 463.568 157.272 462.896L159.36 461.936C159.584 462.544 160.008 463.056 160.632 463.472C161.272 463.904 162.072 464.12 163.032 464.12C163.768 464.12 164.432 463.976 165.024 463.688C165.632 463.416 166.112 463 166.464 462.44C166.816 461.896 166.992 461.232 166.992 460.448V457.544L167.4 457.976C166.952 458.856 166.304 459.528 165.456 459.992C164.624 460.456 163.704 460.688 162.696 460.688C161.48 460.688 160.392 460.408 159.432 459.848C158.472 459.272 157.72 458.496 157.176 457.52C156.632 456.528 156.36 455.432 156.36 454.232C156.36 453.016 156.632 451.92 157.176 450.944C157.72 449.968 158.464 449.2 159.408 448.64C160.368 448.064 161.456 447.776 162.672 447.776C163.68 447.776 164.592 448.008 165.408 448.472C166.24 448.92 166.904 449.544 167.4 450.344L167.064 450.944V448.064H169.248V460.448C169.248 461.568 168.984 462.568 168.456 463.448C167.928 464.328 167.192 465.016 166.248 465.512C165.32 466.024 164.256 466.28 163.056 466.28ZM162.888 458.528C163.656 458.528 164.344 458.336 164.952 457.952C165.576 457.568 166.072 457.056 166.44 456.416C166.808 455.76 166.992 455.032 166.992 454.232C166.992 453.448 166.808 452.728 166.44 452.072C166.072 451.416 165.576 450.896 164.952 450.512C164.344 450.128 163.656 449.936 162.888 449.936C162.104 449.936 161.392 450.128 160.752 450.512C160.112 450.896 159.608 451.416 159.24 452.072C158.888 452.712 158.712 453.432 158.712 454.232C158.712 455.032 158.888 455.76 159.24 456.416C159.608 457.056 160.104 457.568 160.728 457.952C161.368 458.336 162.088 458.528 162.888 458.528ZM183.001 461.288C181.753 461.288 180.625 461 179.617 460.424C178.609 459.832 177.809 459.024 177.217 458C176.625 456.976 176.329 455.816 176.329 454.52C176.329 453.224 176.617 452.072 177.193 451.064C177.785 450.056 178.585 449.256 179.593 448.664C180.601 448.072 181.737 447.776 183.001 447.776C184.249 447.776 185.377 448.072 186.385 448.664C187.393 449.24 188.185 450.032 188.761 451.04C189.353 452.048 189.649 453.208 189.649 454.52C189.649 455.832 189.345 457 188.737 458.024C188.129 459.032 187.321 459.832 186.313 460.424C185.321 461 184.217 461.288 183.001 461.288ZM183.001 459.128C183.801 459.128 184.521 458.928 185.161 458.528C185.817 458.128 186.329 457.576 186.697 456.872C187.081 456.168 187.273 455.384 187.273 454.52C187.273 453.64 187.081 452.864 186.697 452.192C186.329 451.504 185.817 450.96 185.161 450.56C184.521 450.144 183.801 449.936 183.001 449.936C182.185 449.936 181.449 450.144 180.793 450.56C180.153 450.96 179.641 451.504 179.257 452.192C178.873 452.864 178.681 453.64 178.681 454.52C178.681 455.384 178.873 456.168 179.257 456.872C179.641 457.576 180.153 458.128 180.793 458.528C181.449 458.928 182.185 459.128 183.001 459.128ZM193.53 461V450.2H191.058V448.064H193.53V447.152C193.53 446.224 193.73 445.44 194.13 444.8C194.546 444.16 195.09 443.672 195.762 443.336C196.45 443 197.21 442.832 198.042 442.832C198.218 442.832 198.41 442.848 198.618 442.88C198.842 442.896 199.026 442.92 199.17 442.952V444.944C199.042 444.912 198.89 444.896 198.714 444.896C198.538 444.88 198.402 444.872 198.306 444.872C197.57 444.872 196.962 445.048 196.482 445.4C196.018 445.752 195.786 446.336 195.786 447.152V448.064H198.858V450.2H195.786V461H193.53ZM206.545 466.28C206.257 466.28 205.969 466.256 205.681 466.208C205.393 466.176 205.121 466.104 204.865 465.992V464C205.041 464.016 205.257 464.048 205.513 464.096C205.785 464.144 206.049 464.168 206.305 464.168C207.057 464.168 207.625 464 208.009 463.664C208.409 463.328 208.785 462.76 209.137 461.96L209.953 460.016L209.905 461.96L204.385 448.064H206.809L211.105 459.104H210.385L214.657 448.064H217.129L211.297 462.536C211.025 463.224 210.673 463.856 210.241 464.432C209.825 465.008 209.313 465.456 208.705 465.776C208.097 466.112 207.377 466.28 206.545 466.28ZM225.024 461.288C223.776 461.288 222.648 461 221.64 460.424C220.632 459.832 219.832 459.024 219.24 458C218.648 456.976 218.352 455.816 218.352 454.52C218.352 453.224 218.64 452.072 219.216 451.064C219.808 450.056 220.608 449.256 221.616 448.664C222.624 448.072 223.76 447.776 225.024 447.776C226.272 447.776 227.4 448.072 228.408 448.664C229.416 449.24 230.208 450.032 230.784 451.04C231.376 452.048 231.672 453.208 231.672 454.52C231.672 455.832 231.368 457 230.76 458.024C230.152 459.032 229.344 459.832 228.336 460.424C227.344 461 226.24 461.288 225.024 461.288ZM225.024 459.128C225.824 459.128 226.544 458.928 227.184 458.528C227.84 458.128 228.352 457.576 228.72 456.872C229.104 456.168 229.296 455.384 229.296 454.52C229.296 453.64 229.104 452.864 228.72 452.192C228.352 451.504 227.84 450.96 227.184 450.56C226.544 450.144 225.824 449.936 225.024 449.936C224.208 449.936 223.472 450.144 222.816 450.56C222.176 450.96 221.664 451.504 221.28 452.192C220.896 452.864 220.704 453.64 220.704 454.52C220.704 455.384 220.896 456.168 221.28 456.872C221.664 457.576 222.176 458.128 222.816 458.528C223.472 458.928 224.208 459.128 225.024 459.128ZM239.167 461.288C238.239 461.288 237.399 461.072 236.647 460.64C235.911 460.208 235.335 459.608 234.919 458.84C234.519 458.056 234.319 457.16 234.319 456.152V448.064H236.551V455.912C236.551 456.552 236.679 457.112 236.935 457.592C237.207 458.072 237.575 458.448 238.039 458.72C238.519 458.992 239.063 459.128 239.671 459.128C240.279 459.128 240.815 458.992 241.279 458.72C241.759 458.448 242.127 458.056 242.383 457.544C242.655 457.032 242.791 456.424 242.791 455.72V448.064H245.047V461H242.863V458.48L243.223 458.696C242.919 459.512 242.399 460.152 241.663 460.616C240.943 461.064 240.111 461.288 239.167 461.288ZM248.505 461V448.064H250.689V450.44L250.449 450.104C250.753 449.368 251.217 448.824 251.841 448.472C252.465 448.104 253.225 447.92 254.121 447.92H254.913V450.032H253.785C252.873 450.032 252.137 450.32 251.577 450.896C251.017 451.456 250.737 452.256 250.737 453.296V461H248.505ZM258.836 466.28C258.692 466.28 258.516 466.272 258.308 466.256C258.1 466.24 257.932 466.216 257.804 466.184V464.168C258.124 464.216 258.444 464.24 258.764 464.24C259.42 464.24 259.964 464.056 260.396 463.688C260.828 463.32 261.044 462.76 261.044 462.008V448.064H263.276V462.008C263.276 462.936 263.084 463.712 262.7 464.336C262.316 464.976 261.788 465.456 261.116 465.776C260.444 466.112 259.684 466.28 258.836 466.28ZM261.044 446V443.12H263.276V446H261.044ZM272.884 461.288C271.636 461.288 270.508 461 269.5 460.424C268.492 459.832 267.692 459.024 267.1 458C266.508 456.976 266.212 455.816 266.212 454.52C266.212 453.224 266.5 452.072 267.076 451.064C267.668 450.056 268.468 449.256 269.476 448.664C270.484 448.072 271.62 447.776 272.884 447.776C274.132 447.776 275.26 448.072 276.268 448.664C277.276 449.24 278.068 450.032 278.644 451.04C279.236 452.048 279.532 453.208 279.532 454.52C279.532 455.832 279.228 457 278.62 458.024C278.012 459.032 277.204 459.832 276.196 460.424C275.204 461 274.1 461.288 272.884 461.288ZM272.884 459.128C273.684 459.128 274.404 458.928 275.044 458.528C275.7 458.128 276.212 457.576 276.58 456.872C276.964 456.168 277.156 455.384 277.156 454.52C277.156 453.64 276.964 452.864 276.58 452.192C276.212 451.504 275.7 450.96 275.044 450.56C274.404 450.144 273.684 449.936 272.884 449.936C272.068 449.936 271.332 450.144 270.676 450.56C270.036 450.96 269.524 451.504 269.14 452.192C268.756 452.864 268.564 453.64 268.564 454.52C268.564 455.384 268.756 456.168 269.14 456.872C269.524 457.576 270.036 458.128 270.676 458.528C271.332 458.928 272.068 459.128 272.884 459.128ZM287.027 461.288C286.099 461.288 285.259 461.072 284.507 460.64C283.771 460.208 283.195 459.608 282.779 458.84C282.379 458.056 282.179 457.16 282.179 456.152V448.064H284.411V455.912C284.411 456.552 284.539 457.112 284.795 457.592C285.067 458.072 285.435 458.448 285.899 458.72C286.379 458.992 286.923 459.128 287.531 459.128C288.139 459.128 288.675 458.992 289.139 458.72C289.619 458.448 289.987 458.056 290.243 457.544C290.515 457.032 290.651 456.424 290.651 455.72V448.064H292.907V461H290.723V458.48L291.083 458.696C290.779 459.512 290.259 460.152 289.523 460.616C288.803 461.064 287.971 461.288 287.027 461.288ZM296.365 461V448.064H298.549V450.44L298.309 450.104C298.613 449.368 299.077 448.824 299.701 448.472C300.325 448.104 301.085 447.92 301.981 447.92H302.773V450.032H301.645C300.733 450.032 299.997 450.32 299.437 450.896C298.877 451.456 298.597 452.256 298.597 453.296V461H296.365ZM304.755 461V448.064H306.939V450.584L306.579 450.368C306.899 449.552 307.411 448.92 308.115 448.472C308.835 448.008 309.675 447.776 310.635 447.776C311.563 447.776 312.387 447.984 313.107 448.4C313.843 448.816 314.419 449.392 314.835 450.128C315.267 450.864 315.483 451.696 315.483 452.624V461H313.227V453.344C313.227 452.624 313.099 452.016 312.843 451.52C312.587 451.024 312.219 450.64 311.739 450.368C311.275 450.08 310.739 449.936 310.131 449.936C309.523 449.936 308.979 450.08 308.499 450.368C308.035 450.64 307.667 451.032 307.395 451.544C307.123 452.04 306.987 452.64 306.987 453.344V461H304.755ZM324.629 461.288C323.381 461.288 322.269 460.992 321.293 460.4C320.317 459.808 319.549 459 318.989 457.976C318.429 456.936 318.149 455.776 318.149 454.496C318.149 453.2 318.421 452.048 318.965 451.04C319.525 450.032 320.277 449.24 321.221 448.664C322.181 448.072 323.253 447.776 324.437 447.776C325.397 447.776 326.245 447.952 326.981 448.304C327.733 448.64 328.365 449.104 328.877 449.696C329.405 450.272 329.805 450.936 330.077 451.688C330.365 452.424 330.509 453.192 330.509 453.992C330.509 454.168 330.493 454.368 330.461 454.592C330.445 454.8 330.421 455 330.389 455.192H319.781V453.272H329.093L328.037 454.136C328.181 453.304 328.101 452.56 327.797 451.904C327.493 451.248 327.045 450.728 326.453 450.344C325.861 449.96 325.189 449.768 324.437 449.768C323.685 449.768 322.997 449.96 322.373 450.344C321.749 450.728 321.261 451.28 320.909 452C320.573 452.704 320.437 453.544 320.501 454.52C320.437 455.464 320.581 456.296 320.933 457.016C321.301 457.72 321.813 458.272 322.469 458.672C323.141 459.056 323.869 459.248 324.653 459.248C325.517 459.248 326.245 459.048 326.837 458.648C327.429 458.248 327.909 457.736 328.277 457.112L330.149 458.072C329.893 458.664 329.493 459.208 328.949 459.704C328.421 460.184 327.789 460.568 327.053 460.856C326.333 461.144 325.525 461.288 324.629 461.288ZM334.115 466.28C333.827 466.28 333.539 466.256 333.251 466.208C332.963 466.176 332.691 466.104 332.435 465.992V464C332.611 464.016 332.827 464.048 333.083 464.096C333.355 464.144 333.619 464.168 333.875 464.168C334.627 464.168 335.195 464 335.579 463.664C335.979 463.328 336.355 462.76 336.707 461.96L337.523 460.016L337.475 461.96L331.955 448.064H334.379L338.675 459.104H337.955L342.227 448.064H344.699L338.867 462.536C338.595 463.224 338.243 463.856 337.811 464.432C337.395 465.008 336.883 465.456 336.275 465.776C335.667 466.112 334.947 466.28 334.115 466.28ZM346.636 461V458.12H348.964V461H346.636Z" fill="white"/>
<path d="M38.136 546.288C37 546.288 35.96 546.08 35.016 545.664C34.072 545.232 33.272 544.648 32.616 543.912C31.96 543.176 31.488 542.352 31.2 541.44L33.24 540.6C33.672 541.752 34.312 542.64 35.16 543.264C36.024 543.872 37.032 544.176 38.184 544.176C38.888 544.176 39.504 544.064 40.032 543.84C40.56 543.616 40.968 543.304 41.256 542.904C41.56 542.488 41.712 542.008 41.712 541.464C41.712 540.712 41.496 540.12 41.064 539.688C40.648 539.24 40.032 538.904 39.216 538.68L35.928 537.672C34.632 537.272 33.64 536.64 32.952 535.776C32.264 534.912 31.92 533.92 31.92 532.8C31.92 531.824 32.152 530.968 32.616 530.232C33.096 529.48 33.752 528.896 34.584 528.48C35.432 528.048 36.392 527.832 37.464 527.832C38.536 527.832 39.504 528.024 40.368 528.408C41.248 528.792 41.992 529.312 42.6 529.968C43.208 530.608 43.656 531.344 43.944 532.176L41.928 533.016C41.544 532.008 40.968 531.248 40.2 530.736C39.432 530.208 38.528 529.944 37.488 529.944C36.848 529.944 36.28 530.056 35.784 530.28C35.304 530.488 34.928 530.8 34.656 531.216C34.4 531.616 34.272 532.096 34.272 532.656C34.272 533.312 34.48 533.896 34.896 534.408C35.312 534.92 35.944 535.312 36.792 535.584L39.792 536.472C41.2 536.904 42.264 537.52 42.984 538.32C43.704 539.12 44.064 540.112 44.064 541.296C44.064 542.272 43.808 543.136 43.296 543.888C42.8 544.64 42.104 545.232 41.208 545.664C40.328 546.08 39.304 546.288 38.136 546.288ZM52.4996 546.144C51.2356 546.144 50.2596 545.784 49.5716 545.064C48.8996 544.344 48.5636 543.328 48.5636 542.016V535.2H46.2116V533.064H46.6916C47.2676 533.064 47.7236 532.888 48.0596 532.536C48.3956 532.184 48.5636 531.72 48.5636 531.144V530.088H50.7956V533.064H53.6996V535.2H50.7956V541.944C50.7956 542.376 50.8596 542.752 50.9876 543.072C51.1316 543.392 51.3636 543.648 51.6836 543.84C52.0036 544.016 52.4276 544.104 52.9556 544.104C53.0676 544.104 53.2036 544.096 53.3636 544.08C53.5396 544.064 53.6996 544.048 53.8436 544.032V546C53.6356 546.048 53.4036 546.08 53.1476 546.096C52.8916 546.128 52.6756 546.144 52.4996 546.144ZM60.3872 546.288C59.5392 546.288 58.7872 546.136 58.1312 545.832C57.4912 545.512 56.9872 545.08 56.6192 544.536C56.2512 543.976 56.0672 543.336 56.0672 542.616C56.0672 541.928 56.2112 541.312 56.4992 540.768C56.8032 540.208 57.2672 539.736 57.8912 539.352C58.5312 538.968 59.3312 538.696 60.2912 538.536L65.0912 537.744V539.616L60.7952 540.336C59.9632 540.48 59.3552 540.744 58.9712 541.128C58.6032 541.512 58.4192 541.984 58.4192 542.544C58.4192 543.072 58.6272 543.512 59.0432 543.864C59.4752 544.216 60.0112 544.392 60.6512 544.392C61.4672 544.392 62.1712 544.224 62.7632 543.888C63.3712 543.536 63.8432 543.064 64.1792 542.472C64.5312 541.88 64.7072 541.224 64.7072 540.504V537.216C64.7072 536.512 64.4432 535.944 63.9152 535.512C63.4032 535.064 62.7232 534.84 61.8752 534.84C61.1392 534.84 60.4832 535.032 59.9072 535.416C59.3472 535.784 58.9312 536.28 58.6592 536.904L56.7152 535.896C56.9552 535.304 57.3392 534.776 57.8672 534.312C58.3952 533.832 59.0112 533.456 59.7152 533.184C60.4192 532.912 61.1552 532.776 61.9232 532.776C62.9152 532.776 63.7872 532.968 64.5392 533.352C65.2912 533.72 65.8752 534.24 66.2912 534.912C66.7232 535.568 66.9392 536.336 66.9392 537.216V546H64.7552V543.552L65.1632 543.696C64.8912 544.208 64.5232 544.656 64.0592 545.04C63.5952 545.424 63.0512 545.728 62.4272 545.952C61.8032 546.176 61.1232 546.288 60.3872 546.288ZM75.4215 546.144C74.1575 546.144 73.1815 545.784 72.4935 545.064C71.8215 544.344 71.4855 543.328 71.4855 542.016V535.2H69.1335V533.064H69.6135C70.1895 533.064 70.6455 532.888 70.9815 532.536C71.3175 532.184 71.4855 531.72 71.4855 531.144V530.088H73.7175V533.064H76.6215V535.2H73.7175V541.944C73.7175 542.376 73.7815 542.752 73.9095 543.072C74.0535 543.392 74.2855 543.648 74.6055 543.84C74.9255 544.016 75.3495 544.104 75.8775 544.104C75.9895 544.104 76.1255 544.096 76.2855 544.08C76.4615 544.064 76.6215 544.048 76.7655 544.032V546C76.5575 546.048 76.3255 546.08 76.0695 546.096C75.8135 546.128 75.5975 546.144 75.4215 546.144ZM84.2651 546.288C83.3371 546.288 82.4971 546.072 81.7451 545.64C81.0091 545.208 80.4331 544.608 80.0171 543.84C79.6171 543.056 79.4171 542.16 79.4171 541.152V533.064H81.6491V540.912C81.6491 541.552 81.7771 542.112 82.0331 542.592C82.3051 543.072 82.6731 543.448 83.1371 543.72C83.6171 543.992 84.1611 544.128 84.7691 544.128C85.3771 544.128 85.9131 543.992 86.3771 543.72C86.8571 543.448 87.2251 543.056 87.4811 542.544C87.7531 542.032 87.8891 541.424 87.8891 540.72V533.064H90.1451V546H87.9611V543.48L88.3211 543.696C88.0171 544.512 87.4971 545.152 86.7611 545.616C86.0411 546.064 85.2091 546.288 84.2651 546.288ZM98.235 546.288C96.939 546.288 95.811 545.968 94.851 545.328C93.891 544.688 93.211 543.824 92.811 542.736L94.587 541.872C94.955 542.64 95.459 543.248 96.099 543.696C96.739 544.144 97.451 544.368 98.235 544.368C98.939 544.368 99.523 544.2 99.987 543.864C100.451 543.528 100.683 543.088 100.683 542.544C100.683 542.16 100.571 541.856 100.347 541.632C100.139 541.392 99.883 541.208 99.579 541.08C99.275 540.936 98.995 540.832 98.739 540.768L96.795 540.216C95.627 539.88 94.771 539.4 94.227 538.776C93.699 538.152 93.435 537.424 93.435 536.592C93.435 535.824 93.627 535.16 94.011 534.6C94.411 534.024 94.947 533.576 95.619 533.256C96.307 532.936 97.075 532.776 97.923 532.776C99.059 532.776 100.075 533.064 100.971 533.64C101.883 534.216 102.531 535.024 102.915 536.064L101.091 536.904C100.803 536.232 100.371 535.704 99.795 535.32C99.219 534.92 98.571 534.72 97.851 534.72C97.195 534.72 96.675 534.888 96.291 535.224C95.907 535.544 95.715 535.952 95.715 536.448C95.715 536.816 95.811 537.12 96.003 537.36C96.195 537.584 96.427 537.76 96.699 537.888C96.971 538 97.235 538.096 97.491 538.176L99.603 538.8C100.659 539.104 101.475 539.576 102.051 540.216C102.643 540.856 102.939 541.624 102.939 542.52C102.939 543.24 102.739 543.888 102.339 544.464C101.939 545.04 101.387 545.488 100.683 545.808C99.979 546.128 99.163 546.288 98.235 546.288Z" fill="white"/>
<path d="M204.992 546V528.12H216.32V530.28H207.344V536.064H215.48V538.224H207.344V546H204.992ZM225.464 546.288C224.168 546.288 223.016 546.016 222.008 545.472C221.016 544.928 220.24 544.184 219.68 543.24C219.136 542.28 218.864 541.192 218.864 539.976V528.12H221.24V539.928C221.24 540.744 221.416 541.472 221.768 542.112C222.136 542.736 222.632 543.224 223.256 543.576C223.896 543.928 224.632 544.104 225.464 544.104C226.296 544.104 227.024 543.928 227.648 543.576C228.288 543.224 228.784 542.736 229.136 542.112C229.504 541.472 229.688 540.744 229.688 539.928V528.12H232.064V539.976C232.064 541.192 231.784 542.28 231.224 543.24C230.68 544.184 229.912 544.928 228.92 545.472C227.928 546.016 226.776 546.288 225.464 546.288ZM235.93 546V528.12H237.898L248.17 542.568L247.282 542.664V528.12H249.658V546H247.69L237.465 531.456L238.282 531.36V546H235.93ZM261.88 546.288C260.616 546.288 259.448 546.064 258.376 545.616C257.32 545.152 256.392 544.504 255.592 543.672C254.808 542.84 254.2 541.864 253.768 540.744C253.336 539.624 253.12 538.4 253.12 537.072C253.12 535.728 253.336 534.496 253.768 533.376C254.2 532.256 254.808 531.28 255.592 530.448C256.376 529.616 257.304 528.976 258.376 528.528C259.448 528.064 260.616 527.832 261.88 527.832C263.112 527.832 264.216 528.048 265.192 528.48C266.184 528.912 267.016 529.472 267.688 530.16C268.376 530.848 268.864 531.584 269.152 532.368L266.992 533.352C266.576 532.36 265.928 531.56 265.048 530.952C264.168 530.328 263.112 530.016 261.88 530.016C260.632 530.016 259.52 530.312 258.544 530.904C257.584 531.496 256.832 532.32 256.288 533.376C255.744 534.432 255.472 535.664 255.472 537.072C255.472 538.464 255.744 539.688 256.288 540.744C256.832 541.8 257.584 542.624 258.544 543.216C259.52 543.808 260.632 544.104 261.88 544.104C263.112 544.104 264.168 543.8 265.048 543.192C265.928 542.568 266.576 541.76 266.992 540.768L269.152 541.752C268.864 542.536 268.376 543.272 267.688 543.96C267.016 544.648 266.184 545.208 265.192 545.64C264.216 546.072 263.112 546.288 261.88 546.288ZM275.471 546V530.28H270.623V528.12H282.623V530.28H277.847V546H275.471ZM284.89 546V528.12H287.242V546H284.89ZM299.763 546.288C298.499 546.288 297.315 546.064 296.211 545.616C295.107 545.152 294.139 544.504 293.307 543.672C292.491 542.84 291.851 541.864 291.387 540.744C290.923 539.608 290.691 538.376 290.691 537.048C290.691 535.704 290.923 534.472 291.387 533.352C291.851 532.232 292.491 531.256 293.307 530.424C294.139 529.592 295.099 528.952 296.187 528.504C297.291 528.056 298.483 527.832 299.763 527.832C301.043 527.832 302.227 528.064 303.315 528.528C304.419 528.976 305.379 529.616 306.195 530.448C307.027 531.264 307.675 532.232 308.139 533.352C308.619 534.472 308.859 535.704 308.859 537.048C308.859 538.376 308.619 539.608 308.139 540.744C307.675 541.864 307.027 542.84 306.195 543.672C305.379 544.504 304.419 545.152 303.315 545.616C302.227 546.064 301.043 546.288 299.763 546.288ZM299.763 544.104C300.755 544.104 301.659 543.928 302.475 543.576C303.291 543.208 303.995 542.704 304.587 542.064C305.195 541.408 305.659 540.656 305.979 539.808C306.315 538.944 306.483 538.024 306.483 537.048C306.483 536.072 306.315 535.16 305.979 534.312C305.659 533.464 305.195 532.72 304.587 532.08C303.995 531.424 303.291 530.92 302.475 530.568C301.659 530.2 300.755 530.016 299.763 530.016C298.787 530.016 297.891 530.2 297.075 530.568C296.259 530.92 295.547 531.424 294.939 532.08C294.347 532.72 293.883 533.464 293.547 534.312C293.211 535.16 293.043 536.072 293.043 537.048C293.043 538.024 293.211 538.944 293.547 539.808C293.883 540.656 294.347 541.408 294.939 542.064C295.547 542.704 296.259 543.208 297.075 543.576C297.891 543.928 298.787 544.104 299.763 544.104ZM312.289 546V528.12H314.257L324.529 542.568L323.641 542.664V528.12H326.017V546H324.049L313.825 531.456L314.641 531.36V546H312.289ZM330.008 546V528.12H332.36V546H330.008ZM336.336 546V528.12H338.304L348.576 542.568L347.688 542.664V528.12H350.064V546H348.096L337.872 531.456L338.688 531.36V546H336.336ZM362.311 546.288C361.047 546.288 359.879 546.064 358.807 545.616C357.735 545.152 356.807 544.504 356.023 543.672C355.239 542.84 354.623 541.864 354.175 540.744C353.743 539.624 353.527 538.4 353.527 537.072C353.527 535.728 353.743 534.496 354.175 533.376C354.607 532.256 355.215 531.28 355.999 530.448C356.783 529.616 357.711 528.976 358.783 528.528C359.855 528.064 361.023 527.832 362.287 527.832C363.519 527.832 364.623 528.048 365.599 528.48C366.591 528.912 367.423 529.472 368.095 530.16C368.783 530.848 369.271 531.584 369.559 532.368L367.447 533.4C367.031 532.36 366.383 531.536 365.503 530.928C364.622 530.32 363.551 530.016 362.287 530.016C361.039 530.016 359.927 530.312 358.951 530.904C357.991 531.496 357.239 532.32 356.695 533.376C356.151 534.432 355.879 535.664 355.879 537.072C355.879 538.464 356.151 539.688 356.695 540.744C357.255 541.8 358.015 542.624 358.975 543.216C359.951 543.808 361.063 544.104 362.311 544.104C363.399 544.104 364.383 543.872 365.263 543.408C366.143 542.944 366.839 542.304 367.351 541.488C367.863 540.672 368.119 539.728 368.119 538.656V537.552L369.199 538.56H362.287V536.52H370.495V538.104C370.495 539.352 370.279 540.48 369.847 541.488C369.415 542.496 368.823 543.36 368.071 544.08C367.319 544.784 366.447 545.328 365.455 545.712C364.463 546.096 363.415 546.288 362.311 546.288Z" fill="#00FF85"/>
<path d="M203 550.2H371.671V551.16H203V550.2Z" fill="#00FF85"/>
<path d="M94.512 315.84L105.136 289.44H109.712L99.088 315.84H94.512Z" fill="#F43F5E"/>
<path d="M119.94 312L113.54 288.16H118.212L123.236 308.48H122.02L127.268 288.16H131.78L136.996 308.48H135.78L140.804 288.16H145.476L139.076 312H134.084L128.804 292.224H130.212L124.932 312H119.94ZM147.883 312L156.107 288.16H161.739L169.963 312H165.227L163.531 306.88H154.315L152.587 312H147.883ZM155.563 303.04H162.283L158.315 291.168H159.531L155.563 303.04ZM173.665 312L181.473 300L173.729 288.16H178.721L185.057 297.856H182.753L189.057 288.16H194.049L186.337 300L194.113 312H189.121L182.753 302.176H185.057L178.657 312H173.665ZM206.141 312L197.821 288.16H202.557L209.085 307.904H208.157L214.685 288.16H219.421L211.133 312H206.141ZM225.085 312V288.16H229.437V312H225.085ZM237.023 312V288.16H240.415L253.535 305.824L251.775 306.176V288.16H256.127V312H252.703L239.775 294.208L241.375 293.856V312H237.023ZM275.038 312.384C273.331 312.384 271.752 312.075 270.302 311.456C268.851 310.837 267.582 309.973 266.494 308.864C265.406 307.755 264.552 306.453 263.934 304.96C263.336 303.467 263.038 301.835 263.038 300.064C263.038 298.293 263.326 296.661 263.902 295.168C264.499 293.653 265.331 292.352 266.398 291.264C267.486 290.155 268.755 289.301 270.206 288.704C271.656 288.085 273.235 287.776 274.942 287.776C276.648 287.776 278.174 288.064 279.517 288.64C280.883 289.216 282.035 289.984 282.974 290.944C283.912 291.883 284.584 292.917 284.99 294.048L281.118 295.904C280.67 294.667 279.912 293.664 278.846 292.896C277.779 292.128 276.478 291.744 274.942 291.744C273.448 291.744 272.126 292.096 270.974 292.8C269.843 293.504 268.958 294.475 268.318 295.712C267.699 296.949 267.39 298.4 267.39 300.064C267.39 301.728 267.71 303.189 268.35 304.448C269.011 305.685 269.918 306.656 271.07 307.36C272.222 308.064 273.544 308.416 275.038 308.416C276.254 308.416 277.374 308.181 278.398 307.712C279.422 307.221 280.243 306.539 280.862 305.664C281.48 304.768 281.79 303.712 281.79 302.496V300.672L283.774 302.4H274.942V298.72H286.142V301.12C286.142 302.955 285.832 304.576 285.214 305.984C284.595 307.392 283.752 308.576 282.686 309.536C281.64 310.475 280.456 311.189 279.134 311.68C277.811 312.149 276.446 312.384 275.038 312.384Z" fill="#F2F2F2"/>
<g clip-path="url(#clip0_284_44)">
<path d="M175.019 154.02V205.794C161.2 212.61 145.58 216.272 129.648 216.432V177.857H135.391C135.34 177.727 135.301 177.593 135.274 177.457C135.223 177.318 135.184 177.177 135.157 177.033C144.599 175.832 153.386 172.176 160.338 166.556C167.291 160.937 172.074 153.624 174.046 145.599C174.189 148.44 174.565 151.247 175.019 154.02Z" fill="black" stroke="white" stroke-miterlimit="10"/>
<path d="M208.346 177.858C200.149 189.431 188.686 199.04 175.019 205.794V154.021C176.274 161.991 178.481 169.83 181.604 177.412C181.604 177.546 181.707 177.68 181.772 177.813L208.346 177.858Z" fill="black" stroke="white" stroke-miterlimit="10"/>
<path d="M251.72 78.6766C244.845 84.0793 238.958 90.3432 234.259 97.2564H221.685V137.201C221.692 137.253 221.692 137.305 221.685 137.357H175.018V121.495C176.293 113.368 178.557 105.378 181.772 97.6574C181.772 97.5237 181.876 97.3901 181.941 97.2564C184.649 90.7951 188.015 84.5517 192 78.5986C181.068 69.8502 167.844 63.4925 153.448 60.0634L155.12 57.5571H234.078C240.836 64.024 246.752 71.1058 251.72 78.6766V78.6766Z" fill="black" stroke="white" stroke-miterlimit="10"/>
<path d="M268.352 121.094V153.619C267.078 161.746 264.814 169.736 261.598 177.457H181.604C178.481 169.874 176.274 162.036 175.019 154.065V137.802H221.685C221.679 137.735 221.679 137.668 221.685 137.602V97.6572H261.767C264.893 105.254 267.1 113.108 268.352 121.094Z" fill="black" stroke="white" stroke-miterlimit="10"/>
<path d="M268.352 68.2056V97.256H234.259C242.494 85.1921 254.244 75.1798 268.352 68.2056V68.2056Z" fill="black" stroke="white" stroke-miterlimit="10"/>
<path d="M268.352 57.5567V68.2056C262.375 71.1579 256.798 74.6694 251.72 78.6762C246.755 71.0899 240.839 63.993 234.078 57.5122L268.352 57.5567Z" fill="black" stroke="white" stroke-miterlimit="10"/>
<path d="M234.557 74.6997C226.222 74.6997 226.209 85.8387 234.557 85.8387C242.906 85.8387 242.893 74.6997 234.557 74.6997Z" fill="white"/>
<path d="M235.491 76.1367C231.317 76.1367 231.304 81.7062 235.491 81.7062C239.678 81.7062 239.665 76.1367 235.491 76.1367Z" fill="black"/>
<path d="M230.824 82.7866C230.046 82.7866 228.724 82.9983 228.348 83.6889C227.972 84.3795 228.659 84.7025 229.385 84.7025C230.111 84.7025 231.485 84.4909 231.861 83.8114C232.237 83.1319 231.563 82.7866 230.824 82.7866Z" fill="black"/>
<path d="M226.041 80.158V79.7124C226.054 79.5864 226.054 79.4597 226.041 79.3337C225.789 79.2783 225.542 79.2076 225.302 79.1221C225.295 79.2037 225.295 79.2855 225.302 79.3671C225.302 79.5565 225.302 79.7458 225.302 79.9463C225.302 80.6035 225.302 81.2608 225.302 81.9068C225.302 82.5529 225.302 83.2212 225.302 83.8784V84.3128C225.302 84.4465 225.302 84.569 225.302 84.6915C225.542 84.7771 225.789 84.8478 226.041 84.9032C226.048 84.8216 226.048 84.7397 226.041 84.6581C226.041 84.4688 226.041 84.2794 226.041 84.09C226.041 83.4328 226.041 82.7757 226.041 82.1185C226.041 81.4613 226.041 80.8263 226.041 80.158Z" fill="white"/>
<path d="M230.656 84.8363C230.656 84.6915 230.656 84.7249 230.578 84.6024C230.558 84.5414 230.518 84.487 230.461 84.4464L230.306 84.3016C230.228 84.1925 230.141 84.0883 230.046 83.9897C229.843 83.8266 229.622 83.6811 229.385 83.5553C229.367 83.4719 229.341 83.39 229.307 83.3102C229.277 83.2199 229.224 83.1363 229.152 83.0652L229.009 82.976L228.867 82.8869L228.672 82.8201C228.482 82.7574 228.28 82.7271 228.076 82.731H227.713C227.726 82.6684 227.726 82.6043 227.713 82.5416C227.622 82.1963 227.519 81.851 227.389 81.5057C227.373 81.4483 227.343 81.3946 227.3 81.3484C227.258 81.3022 227.204 81.2646 227.143 81.2384C227.143 81.2384 227.078 81.2384 227.039 81.2384C227.097 80.2105 226.97 79.1811 226.663 78.1863C226.52 77.6962 225.794 77.5736 225.302 77.5736C225.211 77.5197 225.11 77.4784 225.004 77.4511C224.547 77.3674 224.074 77.3783 223.623 77.4829C223.172 77.5875 222.757 77.7828 222.411 78.0526C222.204 78.2531 221.919 78.5873 222.061 78.8658C222.661 79.9691 223.097 81.133 223.357 82.33C223.394 82.436 223.459 82.5333 223.547 82.6144C223.635 82.6955 223.743 82.7582 223.863 82.7978C223.928 83.0206 224.006 83.2323 224.057 83.4439C223.905 83.5615 223.778 83.7009 223.681 83.856L223.578 84.1568C223.551 84.3661 223.615 84.5766 223.759 84.7471C224.062 85.059 224.347 85.3821 224.615 85.7163C224.725 85.8554 224.884 85.9608 225.069 86.017C225.254 86.1123 225.462 86.1695 225.678 86.1841H226.17C226.429 86.1746 226.684 86.1255 226.922 86.0393L227.091 85.9613L227.22 86.0393C227.355 86.1037 227.499 86.1524 227.648 86.1841C227.769 86.1951 227.89 86.1951 228.011 86.1841C228.011 86.7076 228.011 87.22 228.011 87.7324V88.1668C228.011 88.2893 228.011 88.423 228.011 88.5455C228.011 88.6681 228.322 88.6569 228.491 88.7126H228.672H228.763H228.919V88.5901L228.983 88.6569C229.061 88.746 229.113 88.8463 229.191 88.9354C229.197 88.9022 229.197 88.8683 229.191 88.8351V88.8351C229.269 88.9243 229.333 89.0134 229.424 89.1025C229.437 89.1242 229.456 89.1433 229.478 89.1587C229.5 89.174 229.526 89.1852 229.554 89.1916C229.617 89.2095 229.685 89.2095 229.748 89.1916C229.755 89.11 229.755 89.0281 229.748 88.9465C229.748 88.7572 229.748 88.5678 229.748 88.3784C229.748 87.7212 229.748 87.0641 229.748 86.4069V85.6383C229.907 85.5672 230.059 85.4853 230.202 85.3932L230.435 85.1593C230.492 85.0793 230.535 84.9931 230.565 84.9031C230.571 84.8662 230.571 84.8286 230.565 84.7917L230.656 84.8363Z" fill="black"/>
</g>
<defs>
<clipPath id="clip0_284_44">
<rect width="140" height="160" fill="white" transform="translate(129 57)"/>
</clipPath>
</defs>
</svg>
