<svg width="191" height="20" viewBox="0 0 191 20" fill="none" xmlns="http://www.w3.org/2000/svg">
<path d="M9.72656 19.0938C9.53906 19.0312 9.15234 19 8.56641 19H2.64844C1.98438 19 1.57031 18.8047 1.40625 18.4141C1.34375 18.2734 1.3125 18.125 1.3125 17.9688C1.3125 17.6406 1.37109 17.4102 1.48828 17.2773C1.76172 17.3555 2.12891 17.3945 2.58984 17.3945C3.05078 17.3945 3.37891 17.3477 3.57422 17.2539C3.77734 17.1602 3.9375 17.0273 4.05469 16.8555C4.25781 16.5586 4.35938 16.082 4.35938 15.4258L4.37109 5.39453C4.21484 4.51953 3.73438 4.08203 2.92969 4.08203C2.70312 4.08203 2.46875 4.10156 2.22656 4.14062C2.22656 4.14062 1.99609 4.18359 1.53516 4.26953C1.38672 4.30078 1.26562 4.17578 1.17188 3.89453C0.984375 3.37891 0.953125 3.07422 1.07812 2.98047C3.10938 2.37891 4.74219 1.71094 5.97656 0.976562C6.00781 0.945312 6.06641 0.929688 6.15234 0.929688C6.23828 0.929688 6.33594 0.960938 6.44531 1.02344C6.5625 1.08594 6.66797 1.16406 6.76172 1.25781C6.98047 1.47656 7.08984 1.66406 7.08984 1.82031V16.0117C7.08984 16.457 7.14062 16.75 7.24219 16.8906C7.40625 17.1016 7.62891 17.2344 7.91016 17.2891C8.19141 17.3359 8.44531 17.3867 8.67188 17.4414C8.90625 17.4883 9.11719 17.5547 9.30469 17.6406C9.70312 17.8203 9.90234 18.0898 9.90234 18.4492C9.90234 18.7148 9.84375 18.9297 9.72656 19.0938ZM23.7891 10.8906C22.625 11.9688 21.0938 12.5078 19.1953 12.5078C17.4297 12.5078 16.0195 12.0352 14.9648 11.0898C13.8789 10.1211 13.3359 8.80469 13.3359 7.14062C13.3359 5.35938 13.9531 3.88281 15.1875 2.71094C16.4453 1.52344 18.1016 0.929688 20.1562 0.929688C21.9922 0.929688 23.5 1.57812 24.6797 2.875C26.0234 4.35938 26.6719 6.58203 26.625 9.54297C26.5781 12.0273 26.1094 14.0664 25.2188 15.6602C24.5 16.957 23.5273 17.9102 22.3008 18.5195C21.3633 18.9883 20.4414 19.2227 19.5352 19.2227C18.6289 19.2227 17.8633 19.1602 17.2383 19.0352C16.6133 18.918 16.0859 18.7383 15.6562 18.4961C14.7578 17.9961 14.3086 17.293 14.3086 16.3867C14.3086 15.8945 14.4531 15.4922 14.7422 15.1797C15.0391 14.8594 15.4023 14.6992 15.832 14.6992C16.2617 14.6992 16.5508 14.7422 16.6992 14.8281C16.6992 16.0469 17.1484 16.8359 18.0469 17.1953C18.3594 17.3203 18.6641 17.3828 18.9609 17.3828C19.2656 17.3828 19.5938 17.3672 19.9453 17.3359C20.2969 17.2969 20.707 17.1758 21.1758 16.9727C21.6445 16.7695 22.0625 16.4297 22.4297 15.9531C23.25 14.9062 23.7031 13.2188 23.7891 10.8906ZM19.6406 10.5039C20.1719 10.5039 20.6445 10.4688 21.0586 10.3984C21.4805 10.3203 21.8555 10.2188 22.1836 10.0938C22.707 9.88281 23.2461 9.55859 23.8008 9.12109C23.6914 5.76172 22.8906 3.77344 21.3984 3.15625C20.9375 2.96875 20.4297 2.875 19.875 2.875C19.3281 2.875 18.8125 2.94922 18.3281 3.09766C17.8516 3.24609 17.4336 3.47266 17.0742 3.77734C16.3086 4.42578 15.9258 5.36719 15.9258 6.60156C15.9258 7.73438 16.2812 8.67188 16.9922 9.41406C17.6875 10.1406 18.5703 10.5039 19.6406 10.5039ZM33.9961 8.17188C35.1289 7.78906 36.2578 7.59766 37.3828 7.59766C38.5156 7.59766 39.4609 7.72266 40.2188 7.97266C40.9766 8.21484 41.6172 8.5625 42.1406 9.01562C43.2344 9.96094 43.7812 11.2578 43.7812 12.9062C43.7812 14.7188 43.0781 16.2266 41.6719 17.4297C40.2656 18.625 38.4883 19.2227 36.3398 19.2227C34.6523 19.2227 33.2656 18.8945 32.1797 18.2383C31.0938 17.582 30.5508 16.7422 30.5508 15.7188C30.5508 14.8906 30.8125 14.2812 31.3359 13.8906C31.6797 13.6328 32.0039 13.5312 32.3086 13.5859C32.6133 13.6328 32.7969 13.6875 32.8594 13.75C32.8906 15.2891 33.543 16.3555 34.8164 16.9492C35.3164 17.1836 35.8828 17.3008 36.5156 17.3008C37.1562 17.3008 37.7227 17.2227 38.2148 17.0664C38.7148 16.9102 39.1602 16.6719 39.5508 16.3516C40.4336 15.6406 40.875 14.6992 40.875 13.5273C40.875 12.2852 40.4609 11.2812 39.6328 10.5156C38.8516 9.80469 37.8828 9.44922 36.7266 9.44922C35.3984 9.44922 34.1719 9.74219 33.0469 10.3281L32.5195 10.6094C32.293 10.5547 32.1016 10.4531 31.9453 10.3047C31.6562 10.0234 31.5312 9.75 31.5703 9.48438L32.2734 2.13672C32.2734 1.87109 32.3828 1.64844 32.6016 1.46875C32.9922 1.125 33.4258 0.972656 33.9023 1.01172C34.9805 1.09766 35.8516 1.14062 36.5156 1.14062C37.1797 1.14062 37.7227 1.13281 38.1445 1.11719C38.5664 1.10156 39.0039 1.07813 39.457 1.04688L40.875 0.953125C41.3672 0.914063 41.9023 0.871094 42.4805 0.824219C42.6914 1.03516 42.7969 1.38672 42.7969 1.87891C42.7969 2.56641 42.6211 3.03125 42.2695 3.27344C41.9336 3.49219 41.4023 3.60156 40.6758 3.60156C39.9492 3.60156 39.332 3.57812 38.8242 3.53125C38.3242 3.48438 37.8164 3.42969 37.3008 3.36719C36.793 3.29688 36.2969 3.22266 35.8125 3.14453L34.5117 2.93359L33.9961 8.17188ZM47.543 0.941406C48.9414 1.07422 50.9961 1.14062 53.707 1.14062C56.418 1.14062 58.1523 1.08203 58.9102 0.964844C59.3633 1.25391 59.6328 1.61719 59.7188 2.05469C59.7422 2.20313 59.7266 2.35156 59.6719 2.5C58.0312 4.5625 56.6055 7.17188 55.3945 10.3281C54.1602 13.5469 53.4727 16.4375 53.332 19C53.1289 19.0469 52.9023 19.0703 52.6523 19.0703C52.1602 19.0703 51.7656 19.0469 51.4688 19C51.1797 18.9453 50.9492 18.8633 50.7773 18.7539C50.6055 18.6367 50.5234 18.5117 50.5312 18.3789C50.6172 15.1914 51.8828 11.4453 54.3281 7.14062C55.25 5.52344 56.1289 4.21875 56.9648 3.22656C54.8477 3.67188 52.6992 3.89453 50.5195 3.89453C48.8477 3.89453 47.8828 3.71875 47.625 3.36719C47.4062 3.04688 47.2969 2.62109 47.2969 2.08984C47.2969 1.55078 47.3789 1.16797 47.543 0.941406ZM62.8008 17.2773C62.8008 16.7148 62.9844 16.25 63.3516 15.8828C63.7266 15.5078 64.1875 15.3203 64.7344 15.3203C65.625 15.3203 66.2383 15.7109 66.5742 16.4922C66.6758 16.7344 66.7266 16.9961 66.7266 17.2773C66.7266 17.8242 66.5391 18.2891 66.1641 18.6719C65.7891 19.0391 65.3125 19.2227 64.7344 19.2227C64.1875 19.2227 63.7266 19.0391 63.3516 18.6719C62.9844 18.2969 62.8008 17.832 62.8008 17.2773ZM79.2188 19.0938C79.0312 19.0312 78.6445 19 78.0586 19H72.1406C71.4766 19 71.0625 18.8047 70.8984 18.4141C70.8359 18.2734 70.8047 18.125 70.8047 17.9688C70.8047 17.6406 70.8633 17.4102 70.9805 17.2773C71.2539 17.3555 71.6211 17.3945 72.082 17.3945C72.543 17.3945 72.8711 17.3477 73.0664 17.2539C73.2695 17.1602 73.4297 17.0273 73.5469 16.8555C73.75 16.5586 73.8516 16.082 73.8516 15.4258L73.8633 5.39453C73.707 4.51953 73.2266 4.08203 72.4219 4.08203C72.1953 4.08203 71.9609 4.10156 71.7188 4.14062C71.7188 4.14062 71.4883 4.18359 71.0273 4.26953C70.8789 4.30078 70.7578 4.17578 70.6641 3.89453C70.4766 3.37891 70.4453 3.07422 70.5703 2.98047C72.6016 2.37891 74.2344 1.71094 75.4688 0.976562C75.5 0.945312 75.5586 0.929688 75.6445 0.929688C75.7305 0.929688 75.8281 0.960938 75.9375 1.02344C76.0547 1.08594 76.1602 1.16406 76.2539 1.25781C76.4727 1.47656 76.582 1.66406 76.582 1.82031V16.0117C76.582 16.457 76.6328 16.75 76.7344 16.8906C76.8984 17.1016 77.1211 17.2344 77.4023 17.2891C77.6836 17.3359 77.9375 17.3867 78.1641 17.4414C78.3984 17.4883 78.6094 17.5547 78.7969 17.6406C79.1953 17.8203 79.3945 18.0898 79.3945 18.4492C79.3945 18.7148 79.3359 18.9297 79.2188 19.0938ZM93.2812 10.8906C92.1172 11.9688 90.5859 12.5078 88.6875 12.5078C86.9219 12.5078 85.5117 12.0352 84.457 11.0898C83.3711 10.1211 82.8281 8.80469 82.8281 7.14062C82.8281 5.35938 83.4453 3.88281 84.6797 2.71094C85.9375 1.52344 87.5938 0.929688 89.6484 0.929688C91.4844 0.929688 92.9922 1.57812 94.1719 2.875C95.5156 4.35938 96.1641 6.58203 96.1172 9.54297C96.0703 12.0273 95.6016 14.0664 94.7109 15.6602C93.9922 16.957 93.0195 17.9102 91.793 18.5195C90.8555 18.9883 89.9336 19.2227 89.0273 19.2227C88.1211 19.2227 87.3555 19.1602 86.7305 19.0352C86.1055 18.918 85.5781 18.7383 85.1484 18.4961C84.25 17.9961 83.8008 17.293 83.8008 16.3867C83.8008 15.8945 83.9453 15.4922 84.2344 15.1797C84.5312 14.8594 84.8945 14.6992 85.3242 14.6992C85.7539 14.6992 86.043 14.7422 86.1914 14.8281C86.1914 16.0469 86.6406 16.8359 87.5391 17.1953C87.8516 17.3203 88.1562 17.3828 88.4531 17.3828C88.7578 17.3828 89.0859 17.3672 89.4375 17.3359C89.7891 17.2969 90.1992 17.1758 90.668 16.9727C91.1367 16.7695 91.5547 16.4297 91.9219 15.9531C92.7422 14.9062 93.1953 13.2188 93.2812 10.8906ZM89.1328 10.5039C89.6641 10.5039 90.1367 10.4688 90.5508 10.3984C90.9727 10.3203 91.3477 10.2188 91.6758 10.0938C92.1992 9.88281 92.7383 9.55859 93.293 9.12109C93.1836 5.76172 92.3828 3.77344 90.8906 3.15625C90.4297 2.96875 89.9219 2.875 89.3672 2.875C88.8203 2.875 88.3047 2.94922 87.8203 3.09766C87.3438 3.24609 86.9258 3.47266 86.5664 3.77734C85.8008 4.42578 85.418 5.36719 85.418 6.60156C85.418 7.73438 85.7734 8.67188 86.4844 9.41406C87.1797 10.1406 88.0625 10.5039 89.1328 10.5039ZM133.922 2.53516C133.625 2.45703 133.367 2.41797 133.148 2.41797C132.938 2.41797 132.754 2.49609 132.598 2.65234C132.449 2.80078 132.305 2.99219 132.164 3.22656C131.945 3.61719 131.73 4.17188 131.52 4.89062L130.102 9.41406L127.57 17.0312C127.336 17.7188 126.93 18.2695 126.352 18.6836C125.836 19.043 125.363 19.2227 124.934 19.2227C124.605 19.2227 124.371 19.1992 124.23 19.1523L120.48 9.46094L120.117 8.28906C118.047 13.6328 116.922 16.5195 116.742 16.9492C116.57 17.3711 116.375 17.7188 116.156 17.9922C115.938 18.2656 115.703 18.4922 115.453 18.6719C114.953 19.0391 114.488 19.2227 114.059 19.2227C113.676 19.2227 113.441 19.1992 113.355 19.1523L108.586 4.1875C108.523 4.01562 108.465 3.83594 108.41 3.64844C108.355 3.45312 108.293 3.27344 108.223 3.10938C108.059 2.71875 107.883 2.5 107.695 2.45312C107.508 2.39844 107.344 2.35547 107.203 2.32422C107.062 2.28516 106.938 2.23828 106.828 2.18359C106.586 2.06641 106.465 1.90625 106.465 1.70312C106.465 1.35938 106.523 1.10547 106.641 0.941406C106.828 1.00391 107.215 1.03516 107.801 1.03516H112.699C113.59 1.03516 114.035 1.33594 114.035 1.9375C114.035 2.19531 113.973 2.39453 113.848 2.53516C113.566 2.45703 113.242 2.41797 112.875 2.41797C111.93 2.41797 111.457 2.80078 111.457 3.56641C111.457 3.81641 111.496 4.08203 111.574 4.36328L115.02 16.2695C115.637 14.707 116.105 13.4883 116.426 12.6133L119.297 4.41016C119.398 4.08203 119.648 3.82031 120.047 3.625C120.391 3.44531 120.793 3.36328 121.254 3.37891L125.801 16.2695C126.785 13.207 127.41 11.207 127.676 10.2695L128.941 5.75781C129.27 4.52344 129.434 3.76953 129.434 3.49609C129.434 3.22266 129.344 3.00391 129.164 2.83984C128.992 2.67578 128.781 2.57031 128.531 2.52344C128.289 2.46875 128.074 2.42187 127.887 2.38281C127.707 2.33594 127.555 2.28125 127.43 2.21875C127.18 2.09375 127.055 1.88281 127.055 1.58594C127.055 1.32031 127.113 1.10547 127.23 0.941406C127.41 1.00391 127.797 1.03516 128.391 1.03516H132.773C133.664 1.03516 134.109 1.33594 134.109 1.9375C134.109 2.19531 134.047 2.39453 133.922 2.53516ZM143.074 17.5117C141.934 18.6523 140.555 19.2227 138.938 19.2227C137.688 19.2227 136.688 18.8633 135.938 18.1445C135.18 17.418 134.801 16.4766 134.801 15.3203C134.801 13.8828 135.441 12.8047 136.723 12.0859C137.879 11.4297 139.508 11.1016 141.609 11.1016H143.074C143.082 10.8047 143.086 10.5156 143.086 10.2344V9.35547C143.086 8.30859 142.934 7.57031 142.629 7.14062C142.285 6.65625 141.699 6.41406 140.871 6.41406C138.973 6.41406 137.996 7.09375 137.941 8.45312C137.934 8.66406 137.938 8.83984 137.953 8.98047C137.797 9.10547 137.531 9.16797 137.156 9.16797C136.789 9.16797 136.52 9.125 136.348 9.03906C136.184 8.95312 136.039 8.83594 135.914 8.6875C135.648 8.38281 135.516 7.99609 135.516 7.52734C135.516 7.05078 135.652 6.63672 135.926 6.28516C136.207 5.92578 136.586 5.63281 137.062 5.40625C137.992 4.94531 139.09 4.71484 140.355 4.71484C141.621 4.71484 142.57 4.83984 143.203 5.08984C143.844 5.33203 144.352 5.65625 144.727 6.0625C145.391 6.78125 145.723 7.74609 145.723 8.95703L145.605 14.582C145.605 15.6055 145.652 16.2539 145.746 16.5273C145.848 16.8008 145.965 16.9844 146.098 17.0781C146.238 17.1719 146.406 17.2188 146.602 17.2188C146.805 17.2188 146.969 17.1875 147.094 17.125L147.422 16.9727C147.531 16.9336 147.625 16.9805 147.703 17.1133C147.789 17.2383 147.832 17.3516 147.832 17.4531C147.832 17.5469 147.789 17.6719 147.703 17.8281C147.625 17.9844 147.473 18.1523 147.246 18.332C147.027 18.5039 146.777 18.6562 146.496 18.7891C144.941 19.5234 143.883 19.3516 143.32 18.2734C143.203 18.0625 143.121 17.8086 143.074 17.5117ZM143.039 15.9766C143.039 14.8516 143.047 13.7344 143.062 12.625C141.438 12.6875 140.332 12.793 139.746 12.9414C139.168 13.082 138.75 13.2188 138.492 13.3516C138.234 13.4844 138.031 13.6406 137.883 13.8203C137.641 14.1172 137.52 14.5664 137.52 15.168C137.52 15.7617 137.73 16.2383 138.152 16.5977C138.574 16.9492 139.18 17.125 139.969 17.125C141.086 17.125 142.109 16.7422 143.039 15.9766ZM149.473 17.8984C149.473 17.6094 149.605 17.25 149.871 16.8203C150.137 16.3828 150.492 15.9023 150.938 15.3789C151.391 14.8477 151.922 14.2773 152.531 13.668L154.453 11.7109L152.051 8.19531C151.473 7.32812 150.934 6.89453 150.434 6.89453C150.223 6.89453 150.039 6.92969 149.883 7C149.734 7.0625 149.613 7.09375 149.52 7.09375C149.434 7.09375 149.363 7.07422 149.309 7.03516C149.254 6.99609 149.207 6.94531 149.168 6.88281C149.012 6.64844 149.031 6.38672 149.227 6.09766C149.43 5.80859 149.648 5.57031 149.883 5.38281C150.453 4.9375 151.086 4.71484 151.781 4.71484C152.242 4.71484 152.582 4.78125 152.801 4.91406C153.191 5.14062 153.535 5.52344 153.832 6.0625L156.316 10.6914C157.355 9.62891 158.141 8.64062 158.672 7.72656C158.852 7.375 158.941 7.07812 158.941 6.83594C158.941 6.42188 158.543 6.16797 157.746 6.07422C157.676 5.95703 157.641 5.83203 157.641 5.69922C157.641 5.56641 157.715 5.4375 157.863 5.3125C158.02 5.17969 158.211 5.07031 158.438 4.98438C158.891 4.80469 159.398 4.71484 159.961 4.71484C160.523 4.71484 160.969 4.84375 161.297 5.10156C161.633 5.35156 161.801 5.63672 161.801 5.95703C161.801 6.26953 161.73 6.58203 161.59 6.89453C161.449 7.20703 161.258 7.53906 161.016 7.89062C160.773 8.24219 160.496 8.60547 160.184 8.98047C159.871 9.35547 159.543 9.72656 159.199 10.0938C158.27 11.0547 157.594 11.7227 157.172 12.0977L159.668 15.6953C159.98 16.1328 160.262 16.4883 160.512 16.7617C160.77 17.0273 161.023 17.1602 161.273 17.1602C161.523 17.1602 161.727 17.1289 161.883 17.0664C162.227 16.9258 162.445 16.9219 162.539 17.0547C162.703 17.2969 162.699 17.5664 162.527 17.8633C162.355 18.1523 162.164 18.3906 161.953 18.5781C161.453 19.0078 160.91 19.2227 160.324 19.2227C159.16 19.2227 158.332 18.7266 157.84 17.7344L155.285 13.1406C153.918 14.6016 153.055 15.7969 152.695 16.7266C152.625 16.8906 152.59 17.0625 152.59 17.2422C152.59 17.4141 152.703 17.5625 152.93 17.6875C153.164 17.8047 153.449 17.8828 153.785 17.9219C153.863 18 153.902 18.1172 153.902 18.2734C153.902 18.4297 153.832 18.5664 153.691 18.6836C153.551 18.8008 153.371 18.8984 153.152 18.9766C152.449 19.2266 151.695 19.2891 150.891 19.1641C149.945 19.0156 149.473 18.5938 149.473 17.8984ZM190.242 2.53516C189.945 2.45703 189.688 2.41797 189.469 2.41797C189.258 2.41797 189.074 2.49609 188.918 2.65234C188.77 2.80078 188.625 2.99219 188.484 3.22656C188.266 3.61719 188.051 4.17188 187.84 4.89062L186.422 9.41406L183.891 17.0312C183.656 17.7188 183.25 18.2695 182.672 18.6836C182.156 19.043 181.684 19.2227 181.254 19.2227C180.926 19.2227 180.691 19.1992 180.551 19.1523L176.801 9.46094L176.438 8.28906C174.367 13.6328 173.242 16.5195 173.062 16.9492C172.891 17.3711 172.695 17.7188 172.477 17.9922C172.258 18.2656 172.023 18.4922 171.773 18.6719C171.273 19.0391 170.809 19.2227 170.379 19.2227C169.996 19.2227 169.762 19.1992 169.676 19.1523L164.906 4.1875C164.844 4.01562 164.785 3.83594 164.73 3.64844C164.676 3.45312 164.613 3.27344 164.543 3.10938C164.379 2.71875 164.203 2.5 164.016 2.45312C163.828 2.39844 163.664 2.35547 163.523 2.32422C163.383 2.28516 163.258 2.23828 163.148 2.18359C162.906 2.06641 162.785 1.90625 162.785 1.70312C162.785 1.35938 162.844 1.10547 162.961 0.941406C163.148 1.00391 163.535 1.03516 164.121 1.03516H169.02C169.91 1.03516 170.355 1.33594 170.355 1.9375C170.355 2.19531 170.293 2.39453 170.168 2.53516C169.887 2.45703 169.562 2.41797 169.195 2.41797C168.25 2.41797 167.777 2.80078 167.777 3.56641C167.777 3.81641 167.816 4.08203 167.895 4.36328L171.34 16.2695C171.957 14.707 172.426 13.4883 172.746 12.6133L175.617 4.41016C175.719 4.08203 175.969 3.82031 176.367 3.625C176.711 3.44531 177.113 3.36328 177.574 3.37891L182.121 16.2695C183.105 13.207 183.73 11.207 183.996 10.2695L185.262 5.75781C185.59 4.52344 185.754 3.76953 185.754 3.49609C185.754 3.22266 185.664 3.00391 185.484 2.83984C185.312 2.67578 185.102 2.57031 184.852 2.52344C184.609 2.46875 184.395 2.42187 184.207 2.38281C184.027 2.33594 183.875 2.28125 183.75 2.21875C183.5 2.09375 183.375 1.88281 183.375 1.58594C183.375 1.32031 183.434 1.10547 183.551 0.941406C183.73 1.00391 184.117 1.03516 184.711 1.03516H189.094C189.984 1.03516 190.43 1.33594 190.43 1.9375C190.43 2.19531 190.367 2.39453 190.242 2.53516Z" fill="white"/>
</svg>
