<svg width="285" height="88" viewBox="0 0 285 88" fill="none" xmlns="http://www.w3.org/2000/svg">
<g filter="url(#filter0_d_337_57)">
<path d="M121 55C121 41.1929 132.193 30 146 30H256C269.807 30 281 41.1929 281 55C281 68.8071 269.807 80 256 80H146C132.193 80 121 68.8071 121 55Z" fill="#FE5151"/>
<path d="M157.28 65L152.264 47.12H154.736L158.936 62.864H158.36L162.728 47.12H165.2L169.544 62.864H168.944L173.168 47.12H175.64L170.624 65H168.008L163.64 49.328H164.264L159.896 65H157.28ZM177.634 65V52.064H179.866V65H177.634ZM177.634 50V47.12H179.866V50H177.634ZM188.586 65.144C187.322 65.144 186.346 64.784 185.658 64.064C184.986 63.344 184.65 62.328 184.65 61.016V54.2H182.298V52.064H182.778C183.354 52.064 183.81 51.888 184.146 51.536C184.482 51.184 184.65 50.72 184.65 50.144V49.088H186.882V52.064H189.786V54.2H186.882V60.944C186.882 61.376 186.946 61.752 187.074 62.072C187.218 62.392 187.45 62.648 187.77 62.84C188.09 63.016 188.514 63.104 189.042 63.104C189.154 63.104 189.29 63.096 189.45 63.08C189.626 63.064 189.786 63.048 189.93 63.032V65C189.722 65.048 189.49 65.08 189.234 65.096C188.978 65.128 188.762 65.144 188.586 65.144ZM192.845 65V46.832H195.077V54.584L194.669 54.368C194.989 53.552 195.501 52.92 196.205 52.472C196.925 52.008 197.765 51.776 198.725 51.776C199.653 51.776 200.477 51.984 201.197 52.4C201.933 52.816 202.509 53.392 202.925 54.128C203.357 54.864 203.573 55.696 203.573 56.624V65H201.317V57.344C201.317 56.624 201.181 56.016 200.909 55.52C200.653 55.024 200.293 54.64 199.829 54.368C199.365 54.08 198.829 53.936 198.221 53.936C197.629 53.936 197.093 54.08 196.613 54.368C196.133 54.64 195.757 55.032 195.485 55.544C195.213 56.04 195.077 56.64 195.077 57.344V65H192.845ZM212.647 65.288C211.431 65.288 210.335 64.992 209.359 64.4C208.399 63.808 207.639 63 207.079 61.976C206.519 60.952 206.239 59.808 206.239 58.544C206.239 57.248 206.519 56.096 207.079 55.088C207.639 54.064 208.399 53.256 209.359 52.664C210.335 52.072 211.431 51.776 212.647 51.776C213.719 51.776 214.671 52.008 215.503 52.472C216.335 52.92 216.991 53.528 217.471 54.296L217.111 54.848V46.832H219.367V65H217.183V62.24L217.471 62.624C217.023 63.472 216.367 64.128 215.503 64.592C214.655 65.056 213.703 65.288 212.647 65.288ZM212.839 63.128C213.655 63.128 214.383 62.928 215.023 62.528C215.663 62.128 216.167 61.584 216.535 60.896C216.919 60.192 217.111 59.408 217.111 58.544C217.111 57.664 216.919 56.88 216.535 56.192C216.167 55.488 215.663 54.936 215.023 54.536C214.383 54.136 213.655 53.936 212.839 53.936C212.039 53.936 211.311 54.144 210.655 54.56C210.015 54.96 209.511 55.504 209.143 56.192C208.775 56.864 208.591 57.648 208.591 58.544C208.591 59.408 208.775 60.192 209.143 60.896C209.511 61.584 210.015 62.128 210.655 62.528C211.295 62.928 212.023 63.128 212.839 63.128ZM222.822 65V52.064H225.006V54.44L224.766 54.104C225.07 53.368 225.534 52.824 226.158 52.472C226.782 52.104 227.542 51.92 228.438 51.92H229.23V54.032H228.102C227.19 54.032 226.454 54.32 225.894 54.896C225.334 55.456 225.054 56.256 225.054 57.296V65H222.822ZM235.004 65.288C234.156 65.288 233.404 65.136 232.748 64.832C232.108 64.512 231.604 64.08 231.236 63.536C230.868 62.976 230.684 62.336 230.684 61.616C230.684 60.928 230.828 60.312 231.116 59.768C231.42 59.208 231.884 58.736 232.508 58.352C233.148 57.968 233.948 57.696 234.908 57.536L239.708 56.744V58.616L235.412 59.336C234.58 59.48 233.972 59.744 233.588 60.128C233.22 60.512 233.036 60.984 233.036 61.544C233.036 62.072 233.244 62.512 233.66 62.864C234.092 63.216 234.628 63.392 235.268 63.392C236.084 63.392 236.788 63.224 237.38 62.888C237.988 62.536 238.46 62.064 238.796 61.472C239.148 60.88 239.324 60.224 239.324 59.504V56.216C239.324 55.512 239.06 54.944 238.532 54.512C238.02 54.064 237.34 53.84 236.492 53.84C235.756 53.84 235.1 54.032 234.524 54.416C233.964 54.784 233.548 55.28 233.276 55.904L231.332 54.896C231.572 54.304 231.956 53.776 232.484 53.312C233.012 52.832 233.628 52.456 234.332 52.184C235.036 51.912 235.772 51.776 236.54 51.776C237.532 51.776 238.404 51.968 239.156 52.352C239.908 52.72 240.492 53.24 240.908 53.912C241.34 54.568 241.556 55.336 241.556 56.216V65H239.372V62.552L239.78 62.696C239.508 63.208 239.14 63.656 238.676 64.04C238.212 64.424 237.668 64.728 237.044 64.952C236.42 65.176 235.74 65.288 235.004 65.288ZM247.993 65L243.553 52.064H246.025L249.553 62.888L248.689 62.864L252.145 52.064H254.257L257.713 62.864L256.849 62.888L260.401 52.064H262.849L258.409 65H256.273L252.865 54.2H253.537L250.129 65H247.993Z" fill="white"/>
<path d="M4 25C4 11.1929 15.1929 0 29 0H139C152.807 0 164 11.1929 164 25C164 38.8071 152.807 50 139 50H98.4633H29C15.1929 50 4 38.8071 4 25Z" fill="#A6F78A"/>
<path d="M32.992 35V17.12H38.848C40.656 17.12 42.232 17.488 43.576 18.224C44.92 18.96 45.96 20 46.696 21.344C47.432 22.672 47.8 24.24 47.8 26.048C47.8 27.84 47.432 29.408 46.696 30.752C45.96 32.096 44.92 33.144 43.576 33.896C42.232 34.632 40.656 35 38.848 35H32.992ZM35.344 32.84H38.872C40.2 32.84 41.344 32.56 42.304 32C43.28 31.44 44.032 30.656 44.56 29.648C45.088 28.624 45.352 27.424 45.352 26.048C45.352 24.656 45.08 23.456 44.536 22.448C44.008 21.44 43.256 20.664 42.28 20.12C41.32 19.56 40.184 19.28 38.872 19.28H35.344V32.84ZM56.4691 35.288C55.2211 35.288 54.1091 34.992 53.1331 34.4C52.1571 33.808 51.3891 33 50.8291 31.976C50.2691 30.936 49.9891 29.776 49.9891 28.496C49.9891 27.2 50.2611 26.048 50.8051 25.04C51.3651 24.032 52.1171 23.24 53.0611 22.664C54.0211 22.072 55.0931 21.776 56.2771 21.776C57.2371 21.776 58.0851 21.952 58.8211 22.304C59.5731 22.64 60.2051 23.104 60.7171 23.696C61.2451 24.272 61.6451 24.936 61.9171 25.688C62.2051 26.424 62.3491 27.192 62.3491 27.992C62.3491 28.168 62.3331 28.368 62.3011 28.592C62.2851 28.8 62.2611 29 62.2291 29.192H51.6211V27.272H60.9331L59.8771 28.136C60.0211 27.304 59.9411 26.56 59.6371 25.904C59.3331 25.248 58.8851 24.728 58.2931 24.344C57.7011 23.96 57.0291 23.768 56.2771 23.768C55.5251 23.768 54.8371 23.96 54.2131 24.344C53.5891 24.728 53.1011 25.28 52.7491 26C52.4131 26.704 52.2771 27.544 52.3411 28.52C52.2771 29.464 52.4211 30.296 52.7731 31.016C53.1411 31.72 53.6531 32.272 54.3091 32.672C54.9811 33.056 55.7091 33.248 56.4931 33.248C57.3571 33.248 58.0851 33.048 58.6771 32.648C59.2691 32.248 59.7491 31.736 60.1171 31.112L61.9891 32.072C61.7331 32.664 61.3331 33.208 60.7891 33.704C60.2611 34.184 59.6291 34.568 58.8931 34.856C58.1731 35.144 57.3651 35.288 56.4691 35.288ZM65.2593 39.8V22.064H67.4433V24.848L67.1553 24.296C67.6353 23.528 68.2913 22.92 69.1233 22.472C69.9553 22.008 70.9073 21.776 71.9793 21.776C73.1953 21.776 74.2833 22.072 75.2433 22.664C76.2193 23.256 76.9873 24.064 77.5473 25.088C78.1073 26.096 78.3873 27.248 78.3873 28.544C78.3873 29.808 78.1073 30.952 77.5473 31.976C76.9873 33 76.2193 33.808 75.2433 34.4C74.2833 34.992 73.1873 35.288 71.9553 35.288C70.9153 35.288 69.9633 35.056 69.0993 34.592C68.2513 34.128 67.5953 33.472 67.1313 32.624L67.4913 32.24V39.8H65.2593ZM71.7873 33.128C72.6033 33.128 73.3313 32.928 73.9713 32.528C74.6113 32.128 75.1073 31.584 75.4593 30.896C75.8273 30.192 76.0113 29.408 76.0113 28.544C76.0113 27.648 75.8273 26.864 75.4593 26.192C75.1073 25.504 74.6113 24.96 73.9713 24.56C73.3313 24.144 72.6033 23.936 71.7873 23.936C70.9713 23.936 70.2353 24.136 69.5793 24.536C68.9393 24.936 68.4273 25.488 68.0433 26.192C67.6753 26.88 67.4913 27.664 67.4913 28.544C67.4913 29.408 67.6753 30.192 68.0433 30.896C68.4273 31.584 68.9393 32.128 69.5793 32.528C70.2353 32.928 70.9713 33.128 71.7873 33.128ZM87.4579 35.288C86.2099 35.288 85.0819 35 84.0739 34.424C83.0659 33.832 82.2659 33.024 81.6739 32C81.0819 30.976 80.7859 29.816 80.7859 28.52C80.7859 27.224 81.0739 26.072 81.6499 25.064C82.2419 24.056 83.0419 23.256 84.0499 22.664C85.0579 22.072 86.1939 21.776 87.4579 21.776C88.7059 21.776 89.8339 22.072 90.8419 22.664C91.8499 23.24 92.6419 24.032 93.2179 25.04C93.8099 26.048 94.1059 27.208 94.1059 28.52C94.1059 29.832 93.8019 31 93.1939 32.024C92.5859 33.032 91.7779 33.832 90.7699 34.424C89.7779 35 88.6739 35.288 87.4579 35.288ZM87.4579 33.128C88.2579 33.128 88.9779 32.928 89.6179 32.528C90.2739 32.128 90.7859 31.576 91.1539 30.872C91.5379 30.168 91.7299 29.384 91.7299 28.52C91.7299 27.64 91.5379 26.864 91.1539 26.192C90.7859 25.504 90.2739 24.96 89.6179 24.56C88.9779 24.144 88.2579 23.936 87.4579 23.936C86.6419 23.936 85.9059 24.144 85.2499 24.56C84.6099 24.96 84.0979 25.504 83.7139 26.192C83.3299 26.864 83.1379 27.64 83.1379 28.52C83.1379 29.384 83.3299 30.168 83.7139 30.872C84.0979 31.576 84.6099 32.128 85.2499 32.528C85.9059 32.928 86.6419 33.128 87.4579 33.128ZM101.649 35.288C100.353 35.288 99.2251 34.968 98.2651 34.328C97.3051 33.688 96.6251 32.824 96.2251 31.736L98.0011 30.872C98.3691 31.64 98.8731 32.248 99.5131 32.696C100.153 33.144 100.865 33.368 101.649 33.368C102.353 33.368 102.937 33.2 103.401 32.864C103.865 32.528 104.097 32.088 104.097 31.544C104.097 31.16 103.985 30.856 103.761 30.632C103.553 30.392 103.297 30.208 102.993 30.08C102.689 29.936 102.409 29.832 102.153 29.768L100.209 29.216C99.0411 28.88 98.1851 28.4 97.6411 27.776C97.1131 27.152 96.8491 26.424 96.8491 25.592C96.8491 24.824 97.0411 24.16 97.4251 23.6C97.8251 23.024 98.3611 22.576 99.0331 22.256C99.7211 21.936 100.489 21.776 101.337 21.776C102.473 21.776 103.489 22.064 104.385 22.64C105.297 23.216 105.945 24.024 106.329 25.064L104.505 25.904C104.217 25.232 103.785 24.704 103.209 24.32C102.633 23.92 101.985 23.72 101.265 23.72C100.609 23.72 100.089 23.888 99.7051 24.224C99.3211 24.544 99.1291 24.952 99.1291 25.448C99.1291 25.816 99.2251 26.12 99.4171 26.36C99.6091 26.584 99.8411 26.76 100.113 26.888C100.385 27 100.649 27.096 100.905 27.176L103.017 27.8C104.073 28.104 104.889 28.576 105.465 29.216C106.057 29.856 106.353 30.624 106.353 31.52C106.353 32.24 106.153 32.888 105.753 33.464C105.353 34.04 104.801 34.488 104.097 34.808C103.393 35.128 102.577 35.288 101.649 35.288ZM109.275 35V22.064H111.507V35H109.275ZM109.275 20V17.12H111.507V20H109.275ZM120.226 35.144C118.962 35.144 117.986 34.784 117.298 34.064C116.626 33.344 116.29 32.328 116.29 31.016V24.2H113.938V22.064H114.418C114.994 22.064 115.45 21.888 115.786 21.536C116.122 21.184 116.29 20.72 116.29 20.144V19.088H118.522V22.064H121.426V24.2H118.522V30.944C118.522 31.376 118.586 31.752 118.714 32.072C118.858 32.392 119.09 32.648 119.41 32.84C119.73 33.016 120.154 33.104 120.682 33.104C120.794 33.104 120.93 33.096 121.09 33.08C121.266 33.064 121.426 33.048 121.57 33.032V35C121.362 35.048 121.13 35.08 120.874 35.096C120.618 35.128 120.402 35.144 120.226 35.144Z" fill="black"/>
<path d="M139.696 46.288C138.688 46.288 137.792 46.104 137.008 45.736C136.224 45.352 135.608 44.816 135.16 44.128C134.728 43.424 134.512 42.616 134.512 41.704C134.512 40.92 134.656 40.232 134.944 39.64C135.232 39.032 135.584 38.512 136 38.08C136.432 37.648 136.864 37.288 137.296 37C137.744 36.696 138.112 36.456 138.4 36.28L139.768 35.488C140.232 35.216 140.68 34.92 141.112 34.6C141.544 34.28 141.904 33.912 142.192 33.496C142.48 33.064 142.624 32.584 142.624 32.056C142.624 31.432 142.416 30.912 142 30.496C141.584 30.08 141.064 29.872 140.44 29.872C139.816 29.872 139.296 30.08 138.88 30.496C138.464 30.912 138.256 31.44 138.256 32.08C138.256 32.512 138.36 32.936 138.568 33.352C138.776 33.768 139.032 34.168 139.336 34.552C139.64 34.92 139.944 35.264 140.248 35.584L149.968 46H147.016L138.496 37.024C138.112 36.624 137.728 36.184 137.344 35.704C136.96 35.224 136.632 34.696 136.36 34.12C136.104 33.528 135.976 32.88 135.976 32.176C135.976 31.312 136.176 30.56 136.576 29.92C136.992 29.264 137.536 28.752 138.208 28.384C138.88 28.016 139.624 27.832 140.44 27.832C141.24 27.832 141.968 28.016 142.624 28.384C143.296 28.736 143.832 29.232 144.232 29.872C144.632 30.512 144.832 31.248 144.832 32.08C144.832 32.928 144.632 33.672 144.232 34.312C143.832 34.936 143.352 35.472 142.792 35.92C142.232 36.352 141.704 36.712 141.208 37L139.864 37.816C139.464 38.072 139.04 38.376 138.592 38.728C138.144 39.064 137.76 39.472 137.44 39.952C137.12 40.416 136.96 40.984 136.96 41.656C136.96 42.456 137.216 43.08 137.728 43.528C138.256 43.976 138.936 44.2 139.768 44.2C140.296 44.2 140.768 44.112 141.184 43.936C141.6 43.76 141.968 43.528 142.288 43.24C142.624 42.952 142.92 42.64 143.176 42.304C143.432 41.952 143.672 41.608 143.896 41.272L146.656 37.168H149.224L145.984 42.112C145.744 42.512 145.44 42.952 145.072 43.432C144.704 43.912 144.272 44.368 143.776 44.8C143.28 45.232 142.696 45.592 142.024 45.88C141.368 46.152 140.592 46.288 139.696 46.288Z" fill="url(#paint0_linear_337_57)"/>
</g>
<defs>
<filter id="filter0_d_337_57" x="0" y="0" width="285" height="88" filterUnits="userSpaceOnUse" color-interpolation-filters="sRGB">
<feFlood flood-opacity="0" result="BackgroundImageFix"/>
<feColorMatrix in="SourceAlpha" type="matrix" values="0 0 0 0 0 0 0 0 0 0 0 0 0 0 0 0 0 0 127 0" result="hardAlpha"/>
<feOffset dy="4"/>
<feGaussianBlur stdDeviation="2"/>
<feComposite in2="hardAlpha" operator="out"/>
<feColorMatrix type="matrix" values="0 0 0 0 0 0 0 0 0 0 0 0 0 0 0 0 0 0 0.25 0"/>
<feBlend mode="normal" in2="BackgroundImageFix" result="effect1_dropShadow_337_57"/>
<feBlend mode="normal" in="SourceGraphic" in2="effect1_dropShadow_337_57" result="shape"/>
</filter>
<linearGradient id="paint0_linear_337_57" x1="142.5" y1="24" x2="142.5" y2="48" gradientUnits="userSpaceOnUse">
<stop/>
<stop offset="1" stop-color="#FE5151"/>
</linearGradient>
</defs>
</svg>
