<svg width="94" height="19" viewBox="0 0 94 19" fill="none" xmlns="http://www.w3.org/2000/svg">
<path d="M12.457 14.9629C12.457 16.4277 12.2617 17.4401 11.8711 18H1.2168C0.702474 18 0.347656 17.8698 0.152344 17.6094C0.0872396 17.5182 0.0546875 17.4173 0.0546875 17.3066C0.0546875 17.0592 0.106771 16.8704 0.210938 16.7402C0.432292 16.8053 0.722005 16.8379 1.08008 16.8379C1.88086 16.8379 2.28125 16.3464 2.28125 15.3633V5.33398C2.28125 4.88477 2.09245 4.58203 1.71484 4.42578C1.60417 4.3737 1.46745 4.32487 1.30469 4.2793L0.816406 4.15234C0.503906 4.07422 0.308594 3.97982 0.230469 3.86914C0.158854 3.75195 0.123047 3.63477 0.123047 3.51758C0.123047 3.27018 0.17513 3.08138 0.279297 2.95117C0.429036 3.00326 0.751302 3.0293 1.24609 3.0293H5.50391C5.84245 3.0293 6.11263 3.08464 6.31445 3.19531C6.51628 3.29948 6.61719 3.49479 6.61719 3.78125C6.61719 4.0026 6.56836 4.16862 6.4707 4.2793C6.22331 4.21419 5.98568 4.18164 5.75781 4.18164C5.53646 4.18164 5.36068 4.20768 5.23047 4.25977C5.10677 4.30534 4.99609 4.38672 4.89844 4.50391C4.70312 4.7513 4.59896 5.1582 4.58594 5.72461V15.5977C4.59896 16.0534 4.73242 16.3594 4.98633 16.5156C5.20117 16.6523 5.59505 16.7207 6.16797 16.7207L6.90039 16.7109L7.74023 16.7012C9.15951 16.7012 10.0872 16.3854 10.5234 15.7539C10.7383 15.4414 10.8815 15.0508 10.9531 14.582C11.0312 14.1068 11.0996 13.5566 11.1582 12.9316C11.2624 12.8665 11.4023 12.834 11.5781 12.834C11.9102 12.834 12.1348 12.873 12.252 12.9512C12.3887 13.485 12.457 14.1556 12.457 14.9629ZM21.1582 16.7598C20.2077 17.7103 19.0586 18.1855 17.7109 18.1855C16.6693 18.1855 15.8359 17.8861 15.2109 17.2871C14.5794 16.6816 14.2637 15.8971 14.2637 14.9336C14.2637 13.7357 14.7975 12.8372 15.8652 12.2383C16.8288 11.6914 18.1862 11.418 19.9375 11.418H21.1582C21.1647 11.1706 21.168 10.9297 21.168 10.6953V9.96289C21.168 9.09049 21.041 8.47526 20.7871 8.11719C20.5007 7.71354 20.0124 7.51172 19.3223 7.51172C17.7402 7.51172 16.9264 8.07812 16.8809 9.21094C16.8743 9.38672 16.8776 9.5332 16.8906 9.65039C16.7604 9.75456 16.5391 9.80664 16.2266 9.80664C15.9206 9.80664 15.696 9.77083 15.5527 9.69922C15.416 9.6276 15.2956 9.52995 15.1914 9.40625C14.9701 9.15234 14.8594 8.83008 14.8594 8.43945C14.8594 8.04232 14.9733 7.69727 15.2012 7.4043C15.4355 7.10482 15.7513 6.86068 16.1484 6.67188C16.9232 6.28776 17.8379 6.0957 18.8926 6.0957C19.9473 6.0957 20.7383 6.19987 21.2656 6.4082C21.7995 6.61003 22.2227 6.88021 22.5352 7.21875C23.0885 7.81771 23.3652 8.62174 23.3652 9.63086L23.2676 14.3184C23.2676 15.1712 23.3066 15.7116 23.3848 15.9395C23.4694 16.1673 23.5671 16.3203 23.6777 16.3984C23.7949 16.4766 23.9349 16.5156 24.0977 16.5156C24.2669 16.5156 24.4036 16.4896 24.5078 16.4375L24.7812 16.3105C24.8724 16.278 24.9505 16.3171 25.0156 16.4277C25.0872 16.5319 25.123 16.6263 25.123 16.7109C25.123 16.7891 25.0872 16.8932 25.0156 17.0234C24.9505 17.1536 24.8236 17.2936 24.6348 17.4434C24.4525 17.5866 24.2441 17.7135 24.0098 17.8242C22.7142 18.4362 21.832 18.293 21.3633 17.3945C21.2656 17.2188 21.1973 17.0072 21.1582 16.7598ZM21.1289 15.4805C21.1289 14.543 21.1354 13.612 21.1484 12.6875C19.7943 12.7396 18.873 12.8275 18.3848 12.9512C17.903 13.0684 17.5547 13.1823 17.3398 13.293C17.125 13.4036 16.9557 13.5339 16.832 13.6836C16.6302 13.931 16.5293 14.3053 16.5293 14.8066C16.5293 15.3014 16.7051 15.6986 17.0566 15.998C17.4082 16.291 17.9128 16.4375 18.5703 16.4375C19.5013 16.4375 20.3542 16.1185 21.1289 15.4805ZM31.6953 18.0488C31.5651 18.0163 31.3568 18 31.0703 18H27.9551C27.3301 18 26.9297 17.8893 26.7539 17.668C26.6823 17.5833 26.6465 17.4857 26.6465 17.375C26.6465 17.1016 26.6986 16.8997 26.8027 16.7695C26.959 16.8216 27.1348 16.8477 27.3301 16.8477C27.5319 16.8477 27.6816 16.7663 27.7793 16.6035C27.8835 16.4408 27.9323 16.138 27.9258 15.6953V9.30859C27.9258 8.69661 27.8118 8.31576 27.584 8.16602C27.4928 8.10742 27.3724 8.07812 27.2227 8.07812C27.0729 8.07812 26.9525 8.10091 26.8613 8.14648C26.7767 8.19206 26.7051 8.22461 26.6465 8.24414C26.5944 8.26367 26.5488 8.26367 26.5098 8.24414C26.4707 8.2181 26.4316 8.18229 26.3926 8.13672C26.2949 8.03255 26.2461 7.92513 26.2461 7.81445C26.2461 7.69727 26.2852 7.57682 26.3633 7.45312C26.4479 7.32292 26.5814 7.17643 26.7637 7.01367C26.946 6.8444 27.1543 6.69141 27.3887 6.55469C27.916 6.2487 28.4434 6.0957 28.9707 6.0957C29.5762 6.0957 29.9342 6.49609 30.0449 7.29688C30.0775 7.53125 30.097 7.77214 30.1035 8.01953C31.0736 7.20573 32.1283 6.6263 33.2676 6.28125C33.6777 6.15755 34.0911 6.0957 34.5078 6.0957C34.931 6.0957 35.3314 6.15104 35.709 6.26172C36.0931 6.3724 36.4251 6.55143 36.7051 6.79883C37.2975 7.31966 37.5938 8.13346 37.5938 9.24023V15.8613C37.6133 16.3691 37.8021 16.6816 38.1602 16.7988C38.2578 16.8314 38.3783 16.8607 38.5215 16.8867C38.6647 16.9128 38.7917 16.9453 38.9023 16.9844C39.0195 17.0169 39.1107 17.056 39.1758 17.1016C39.2865 17.1862 39.3418 17.3229 39.3418 17.5117C39.3418 17.7396 39.2897 17.9186 39.1855 18.0488C39.0553 18.0163 38.847 18 38.5605 18H35.4453C34.8203 18 34.4199 17.8893 34.2441 17.668C34.1725 17.5833 34.1367 17.4857 34.1367 17.375C34.1367 17.1016 34.1888 16.8997 34.293 16.7695C34.4492 16.8216 34.5924 16.8477 34.7227 16.8477C34.8594 16.8477 34.9733 16.8314 35.0645 16.7988C35.1556 16.7598 35.2272 16.6979 35.2793 16.6133C35.3704 16.457 35.416 16.151 35.416 15.6953V9.93359C35.416 8.82682 35.0872 8.20833 34.4297 8.07812C34.2279 8.03906 33.974 8.01953 33.668 8.01953C33.3685 8.01953 33.0365 8.0651 32.6719 8.15625C32.3073 8.2474 31.9655 8.36458 31.6465 8.50781C31.0345 8.78125 30.5202 9.1263 30.1035 9.54297V15.8613C30.123 16.3691 30.3086 16.6816 30.6602 16.7988C30.7643 16.8314 30.8848 16.8607 31.0215 16.8867C31.1647 16.9128 31.2949 16.9453 31.4121 16.9844C31.5293 17.0169 31.6204 17.056 31.6855 17.1016C31.7962 17.1862 31.8516 17.3229 31.8516 17.5117C31.8516 17.7396 31.7995 17.9186 31.6953 18.0488ZM48.7363 16.7793C47.7272 17.7233 46.6172 18.1953 45.4062 18.1953C44.0716 18.1953 42.9844 17.7396 42.1445 16.8281C41.2331 15.8255 40.7773 14.4421 40.7773 12.6777C40.7773 10.6921 41.4089 9.07747 42.6719 7.83398C43.8503 6.67513 45.2435 6.0957 46.8516 6.0957C47.4961 6.0957 48.1146 6.20312 48.707 6.41797V3.5957C48.707 3.13997 48.6615 2.85026 48.5703 2.72656C48.4206 2.51823 48.1764 2.41406 47.8379 2.41406C47.6947 2.41406 47.5514 2.43034 47.4082 2.46289C47.2715 2.48893 47.1738 2.48893 47.1152 2.46289C47.0632 2.43034 47.0208 2.38802 46.9883 2.33594C46.8581 2.12109 47.0208 1.84766 47.4766 1.51562C48.1927 0.988281 48.8991 0.724609 49.5957 0.724609C50.3314 0.724609 50.7513 1.125 50.8555 1.92578C50.8815 2.16667 50.8945 2.42057 50.8945 2.6875V14.0254C50.8945 15.028 50.9336 15.653 51.0117 15.9004C51.0898 16.1478 51.181 16.3105 51.2852 16.3887C51.3958 16.4603 51.5326 16.4961 51.6953 16.4961C51.8581 16.4961 51.9915 16.4701 52.0957 16.418L52.3887 16.291C52.4733 16.2715 52.5482 16.3105 52.6133 16.4082C52.75 16.61 52.7695 16.7923 52.6719 16.9551C52.5742 17.1178 52.4277 17.2741 52.2324 17.4238C52.0371 17.5736 51.819 17.7038 51.5781 17.8145C50.5234 18.2897 49.7357 18.2995 49.2148 17.8438C48.9609 17.6224 48.8014 17.2676 48.7363 16.7793ZM48.707 8.40039C48.069 7.91211 47.3268 7.66797 46.4805 7.66797C45.4648 7.66797 44.6413 8.04232 44.0098 8.79102C43.3327 9.5918 42.9941 10.6823 42.9941 12.0625C42.9941 14.2565 43.6191 15.6107 44.8691 16.125C45.2598 16.2812 45.6374 16.3594 46.002 16.3594C46.373 16.3594 46.6823 16.3301 46.9297 16.2715C47.1771 16.2129 47.4082 16.1348 47.623 16.0371C48.0527 15.8418 48.4141 15.6042 48.707 15.3242V8.40039ZM63.0137 18C62.0176 18 61.5195 17.7721 61.5195 17.3164C61.5195 17.0755 61.5684 16.8932 61.666 16.7695C61.8223 16.8216 61.9688 16.8477 62.1055 16.8477C62.6719 16.8477 62.9648 16.5059 62.9844 15.8223V3.5957C62.9844 3.13997 62.9388 2.85026 62.8477 2.72656C62.6979 2.51823 62.457 2.41406 62.125 2.41406C61.9753 2.41406 61.8288 2.43034 61.6855 2.46289C61.5488 2.48893 61.4512 2.48893 61.3926 2.46289C61.3405 2.43034 61.2982 2.38802 61.2656 2.33594C61.1354 2.12109 61.2982 1.84766 61.7539 1.51562C62.4701 0.988281 63.1764 0.724609 63.873 0.724609C64.6152 0.724609 65.0319 1.125 65.123 1.92578C65.1491 2.16667 65.1621 2.42057 65.1621 2.6875V15.8613C65.1816 16.3691 65.3672 16.6816 65.7188 16.7988C65.8229 16.8314 65.9434 16.8607 66.0801 16.8867C66.2233 16.9128 66.3535 16.9453 66.4707 16.9844C66.5879 17.0169 66.679 17.056 66.7441 17.1016C66.8548 17.1862 66.9102 17.3229 66.9102 17.5117C66.9102 17.7396 66.8581 17.9186 66.7539 18.0488C66.6237 18.0163 66.4154 18 66.1289 18H63.0137ZM70.5723 4.2793C70.3509 4.2793 70.1458 4.24674 69.957 4.18164C69.7747 4.11003 69.6152 4.00911 69.4785 3.87891C69.1921 3.60547 69.0488 3.23763 69.0488 2.77539C69.0488 2.33268 69.2181 1.95833 69.5566 1.65234C69.8822 1.34635 70.2728 1.19336 70.7285 1.19336C71.1842 1.19336 71.5488 1.33008 71.8223 1.60352C72.0957 1.87695 72.2324 2.24805 72.2324 2.7168C72.2324 3.15951 72.0697 3.53385 71.7441 3.83984C71.4251 4.13281 71.0345 4.2793 70.5723 4.2793ZM69.9766 18C68.974 18 68.4727 17.7721 68.4727 17.3164C68.4727 17.082 68.5247 16.8997 68.6289 16.7695C68.7852 16.8216 68.9284 16.8477 69.0586 16.8477C69.6641 16.8477 69.9603 16.4635 69.9473 15.6953V9.15234C69.9473 8.69661 69.8822 8.38086 69.752 8.20508C69.6283 8.02279 69.4036 7.93164 69.0781 7.93164C68.8372 7.93164 68.6191 7.96094 68.4238 8.01953C68.3066 8.03255 68.222 7.94141 68.1699 7.74609C68.1243 7.57031 68.1504 7.41732 68.248 7.28711C68.3457 7.15039 68.4954 7.01042 68.6973 6.86719C68.9056 6.71745 69.1335 6.58724 69.3809 6.47656C69.9147 6.22266 70.3607 6.0957 70.7188 6.0957C71.0768 6.0957 71.3405 6.14779 71.5098 6.25195C71.6855 6.35612 71.819 6.49609 71.9102 6.67188C72.0534 6.95833 72.125 7.42057 72.125 8.05859V15.8613C72.1445 16.3757 72.3301 16.6882 72.6816 16.7988C72.7793 16.8314 72.8997 16.8607 73.043 16.8867C73.1862 16.9128 73.3132 16.9453 73.4238 16.9844C73.541 17.0169 73.6322 17.056 73.6973 17.1016C73.8079 17.1862 73.8633 17.3229 73.8633 17.5117C73.8633 17.7461 73.8145 17.9251 73.7168 18.0488C73.5801 18.0163 73.3717 18 73.0918 18H69.9766ZM82.0078 9.5625C82.0078 8.5599 81.5911 7.89583 80.7578 7.57031C80.4909 7.46615 80.2012 7.41406 79.8887 7.41406C79.5827 7.41406 79.2962 7.4401 79.0293 7.49219C78.7689 7.54427 78.5378 7.62565 78.3359 7.73633C77.8802 7.98372 77.6523 8.33854 77.6523 8.80078C77.6523 9.24349 77.8411 9.6276 78.2188 9.95312C78.6354 10.2982 79.4102 10.7246 80.543 11.2324C81.6758 11.7337 82.5482 12.2839 83.1602 12.8828C83.7786 13.4753 84.0879 14.1589 84.0879 14.9336C84.0879 15.806 83.7298 16.5417 83.0137 17.1406C82.1738 17.8372 81.0117 18.1855 79.5273 18.1855C77.7109 18.1855 76.4544 17.7982 75.7578 17.0234C75.5169 16.75 75.3965 16.4017 75.3965 15.9785C75.3965 14.9564 75.6471 14.3607 76.1484 14.1914C76.2721 14.1523 76.3893 14.1328 76.5 14.1328C76.806 14.1328 76.972 14.2272 76.998 14.416C77.1413 16.0436 78.0527 16.8574 79.7324 16.8574C80.7415 16.8574 81.4154 16.5742 81.7539 16.0078C81.8646 15.8255 81.9199 15.6042 81.9199 15.3438C81.9199 15.0833 81.8353 14.8457 81.666 14.6309C81.5033 14.416 81.2754 14.2174 80.9824 14.0352C80.6895 13.8464 80.3411 13.6641 79.9375 13.4883L78.6387 12.9023C76.6465 11.9909 75.6504 10.7799 75.6504 9.26953C75.6504 8.29297 76.0833 7.51172 76.9492 6.92578C77.7695 6.3724 78.8275 6.0957 80.123 6.0957C81.8809 6.0957 82.9746 6.47656 83.4043 7.23828C83.515 7.43359 83.5703 7.64844 83.5703 7.88281C83.5703 8.11719 83.5573 8.32878 83.5312 8.51758C83.5052 8.69987 83.4727 8.86589 83.4336 9.01562C83.3685 9.30208 83.2936 9.50391 83.209 9.62109C83.0397 9.74479 82.7956 9.80664 82.4766 9.80664C82.1641 9.80664 82.0078 9.72526 82.0078 9.5625ZM89.5469 11.3398L89.5371 13.9082C89.5371 14.9824 89.5924 15.6302 89.7031 15.8516C89.8138 16.0664 89.944 16.1966 90.0938 16.2422C90.2435 16.2812 90.4355 16.3008 90.6699 16.3008C90.9043 16.3008 91.1159 16.2845 91.3047 16.252C91.5 16.2129 91.6823 16.1641 91.8516 16.1055C92.0208 16.0469 92.1836 15.9818 92.3398 15.9102L92.8184 15.7051C92.929 15.666 93.0527 15.7799 93.1895 16.0469C93.2285 16.1185 93.248 16.2031 93.248 16.3008C93.248 16.3919 93.209 16.5124 93.1309 16.6621C93.0527 16.8118 92.8997 16.9844 92.6719 17.1797C92.4505 17.3685 92.1901 17.5378 91.8906 17.6875C91.2396 18.0195 90.6536 18.1855 90.1328 18.1855C89.6185 18.1855 89.1986 18.1562 88.873 18.0977C88.5475 18.0391 88.2708 17.9219 88.043 17.7461C87.5742 17.3815 87.3398 16.7142 87.3398 15.7441V8.05859H86.373C86.1712 8.05859 86.0247 7.99349 85.9336 7.86328C85.7773 7.66146 85.6992 7.49219 85.6992 7.35547C85.6992 7.1276 85.7546 7.00065 85.8652 6.97461C86.9004 6.79883 87.6328 6.0306 88.0625 4.66992C88.1862 4.25977 88.2839 3.77474 88.3555 3.21484C88.668 3.16276 88.9023 3.13672 89.0586 3.13672C89.2214 3.13672 89.3613 3.2181 89.4785 3.38086C89.5957 3.54362 89.651 3.73242 89.6445 3.94727C89.6445 4.16211 89.6413 4.36393 89.6348 4.55273C89.6283 4.74154 89.6217 4.94661 89.6152 5.16797L89.5762 6.53516H92.9551C93.0397 6.6849 93.082 6.8444 93.082 7.01367V7.31641C93.082 7.58984 92.9355 7.81445 92.6426 7.99023C92.3496 8.15951 92.0241 8.24414 91.666 8.24414C91.3145 8.24414 91.0605 8.24089 90.9043 8.23438C90.7546 8.22135 90.6081 8.20833 90.4648 8.19531L90.0352 8.13672C89.8854 8.1237 89.7259 8.11068 89.5566 8.09766V8.20508L89.5469 11.3398Z" fill="black"/>
</svg>
