<svg width="196" height="24" viewBox="0 0 196 24" fill="none" xmlns="http://www.w3.org/2000/svg">
<path d="M13.4004 14.9629C13.4004 16.4277 13.2051 17.4401 12.8145 18H2.16016C1.64583 18 1.29102 17.8698 1.0957 17.6094C1.0306 17.5182 0.998047 17.4173 0.998047 17.3066C0.998047 17.0592 1.05013 16.8704 1.1543 16.7402C1.37565 16.8053 1.66536 16.8379 2.02344 16.8379C2.82422 16.8379 3.22461 16.3464 3.22461 15.3633V5.33398C3.22461 4.88477 3.03581 4.58203 2.6582 4.42578C2.54753 4.3737 2.41081 4.32487 2.24805 4.2793L1.75977 4.15234C1.44727 4.07422 1.25195 3.97982 1.17383 3.86914C1.10221 3.75195 1.06641 3.63477 1.06641 3.51758C1.06641 3.27018 1.11849 3.08138 1.22266 2.95117C1.3724 3.00326 1.69466 3.0293 2.18945 3.0293H6.44727C6.78581 3.0293 7.05599 3.08464 7.25781 3.19531C7.45964 3.29948 7.56055 3.49479 7.56055 3.78125C7.56055 4.0026 7.51172 4.16862 7.41406 4.2793C7.16667 4.21419 6.92904 4.18164 6.70117 4.18164C6.47982 4.18164 6.30404 4.20768 6.17383 4.25977C6.05013 4.30534 5.93945 4.38672 5.8418 4.50391C5.64648 4.7513 5.54232 5.1582 5.5293 5.72461V15.5977C5.54232 16.0534 5.67578 16.3594 5.92969 16.5156C6.14453 16.6523 6.53841 16.7207 7.11133 16.7207L7.84375 16.7109L8.68359 16.7012C10.1029 16.7012 11.0306 16.3854 11.4668 15.7539C11.6816 15.4414 11.8249 15.0508 11.8965 14.582C11.9746 14.1068 12.043 13.5566 12.1016 12.9316C12.2057 12.8665 12.3457 12.834 12.5215 12.834C12.8535 12.834 13.0781 12.873 13.1953 12.9512C13.332 13.485 13.4004 14.1556 13.4004 14.9629ZM22.1016 16.7598C21.151 17.7103 20.002 18.1855 18.6543 18.1855C17.6126 18.1855 16.7793 17.8861 16.1543 17.2871C15.5228 16.6816 15.207 15.8971 15.207 14.9336C15.207 13.7357 15.7409 12.8372 16.8086 12.2383C17.7721 11.6914 19.1296 11.418 20.8809 11.418H22.1016C22.1081 11.1706 22.1113 10.9297 22.1113 10.6953V9.96289C22.1113 9.09049 21.9844 8.47526 21.7305 8.11719C21.444 7.71354 20.9557 7.51172 20.2656 7.51172C18.6836 7.51172 17.8698 8.07812 17.8242 9.21094C17.8177 9.38672 17.821 9.5332 17.834 9.65039C17.7038 9.75456 17.4824 9.80664 17.1699 9.80664C16.8639 9.80664 16.6393 9.77083 16.4961 9.69922C16.3594 9.6276 16.2389 9.52995 16.1348 9.40625C15.9134 9.15234 15.8027 8.83008 15.8027 8.43945C15.8027 8.04232 15.9167 7.69727 16.1445 7.4043C16.3789 7.10482 16.6947 6.86068 17.0918 6.67188C17.8665 6.28776 18.7812 6.0957 19.8359 6.0957C20.8906 6.0957 21.6816 6.19987 22.209 6.4082C22.7428 6.61003 23.166 6.88021 23.4785 7.21875C24.0319 7.81771 24.3086 8.62174 24.3086 9.63086L24.2109 14.3184C24.2109 15.1712 24.25 15.7116 24.3281 15.9395C24.4128 16.1673 24.5104 16.3203 24.6211 16.3984C24.7383 16.4766 24.8783 16.5156 25.041 16.5156C25.2103 16.5156 25.347 16.4896 25.4512 16.4375L25.7246 16.3105C25.8158 16.278 25.8939 16.3171 25.959 16.4277C26.0306 16.5319 26.0664 16.6263 26.0664 16.7109C26.0664 16.7891 26.0306 16.8932 25.959 17.0234C25.8939 17.1536 25.7669 17.2936 25.5781 17.4434C25.3958 17.5866 25.1875 17.7135 24.9531 17.8242C23.6576 18.4362 22.7754 18.293 22.3066 17.3945C22.209 17.2188 22.1406 17.0072 22.1016 16.7598ZM22.0723 15.4805C22.0723 14.543 22.0788 13.612 22.0918 12.6875C20.7376 12.7396 19.8164 12.8275 19.3281 12.9512C18.8464 13.0684 18.498 13.1823 18.2832 13.293C18.0684 13.4036 17.8991 13.5339 17.7754 13.6836C17.5736 13.931 17.4727 14.3053 17.4727 14.8066C17.4727 15.3014 17.6484 15.6986 18 15.998C18.3516 16.291 18.8561 16.4375 19.5137 16.4375C20.4447 16.4375 21.2975 16.1185 22.0723 15.4805ZM32.6387 18.0488C32.5085 18.0163 32.3001 18 32.0137 18H28.8984C28.2734 18 27.873 17.8893 27.6973 17.668C27.6257 17.5833 27.5898 17.4857 27.5898 17.375C27.5898 17.1016 27.6419 16.8997 27.7461 16.7695C27.9023 16.8216 28.0781 16.8477 28.2734 16.8477C28.4753 16.8477 28.625 16.7663 28.7227 16.6035C28.8268 16.4408 28.8757 16.138 28.8691 15.6953V9.30859C28.8691 8.69661 28.7552 8.31576 28.5273 8.16602C28.4362 8.10742 28.3158 8.07812 28.166 8.07812C28.0163 8.07812 27.8958 8.10091 27.8047 8.14648C27.7201 8.19206 27.6484 8.22461 27.5898 8.24414C27.5378 8.26367 27.4922 8.26367 27.4531 8.24414C27.4141 8.2181 27.375 8.18229 27.3359 8.13672C27.2383 8.03255 27.1895 7.92513 27.1895 7.81445C27.1895 7.69727 27.2285 7.57682 27.3066 7.45312C27.3913 7.32292 27.5247 7.17643 27.707 7.01367C27.8893 6.8444 28.0977 6.69141 28.332 6.55469C28.8594 6.2487 29.3867 6.0957 29.9141 6.0957C30.5195 6.0957 30.8776 6.49609 30.9883 7.29688C31.0208 7.53125 31.0404 7.77214 31.0469 8.01953C32.0169 7.20573 33.0716 6.6263 34.2109 6.28125C34.6211 6.15755 35.0345 6.0957 35.4512 6.0957C35.8743 6.0957 36.2747 6.15104 36.6523 6.26172C37.0365 6.3724 37.3685 6.55143 37.6484 6.79883C38.2409 7.31966 38.5371 8.13346 38.5371 9.24023V15.8613C38.5566 16.3691 38.7454 16.6816 39.1035 16.7988C39.2012 16.8314 39.3216 16.8607 39.4648 16.8867C39.6081 16.9128 39.735 16.9453 39.8457 16.9844C39.9629 17.0169 40.054 17.056 40.1191 17.1016C40.2298 17.1862 40.2852 17.3229 40.2852 17.5117C40.2852 17.7396 40.2331 17.9186 40.1289 18.0488C39.9987 18.0163 39.7904 18 39.5039 18H36.3887C35.7637 18 35.3633 17.8893 35.1875 17.668C35.1159 17.5833 35.0801 17.4857 35.0801 17.375C35.0801 17.1016 35.1322 16.8997 35.2363 16.7695C35.3926 16.8216 35.5358 16.8477 35.666 16.8477C35.8027 16.8477 35.9167 16.8314 36.0078 16.7988C36.099 16.7598 36.1706 16.6979 36.2227 16.6133C36.3138 16.457 36.3594 16.151 36.3594 15.6953V9.93359C36.3594 8.82682 36.0306 8.20833 35.373 8.07812C35.1712 8.03906 34.9173 8.01953 34.6113 8.01953C34.3118 8.01953 33.9798 8.0651 33.6152 8.15625C33.2507 8.2474 32.9089 8.36458 32.5898 8.50781C31.9779 8.78125 31.4635 9.1263 31.0469 9.54297V15.8613C31.0664 16.3691 31.252 16.6816 31.6035 16.7988C31.7077 16.8314 31.8281 16.8607 31.9648 16.8867C32.1081 16.9128 32.2383 16.9453 32.3555 16.9844C32.4727 17.0169 32.5638 17.056 32.6289 17.1016C32.7396 17.1862 32.7949 17.3229 32.7949 17.5117C32.7949 17.7396 32.7428 17.9186 32.6387 18.0488ZM45.5195 14.1035C45.2721 14.3509 45.1484 14.5918 45.1484 14.8262C45.1484 15.0605 45.2168 15.2396 45.3535 15.3633C45.4902 15.4805 45.6693 15.5716 45.8906 15.6367C46.2292 15.7279 46.6035 15.7734 47.0137 15.7734H47.8535C49.9759 15.7734 51.3724 16.2812 52.043 17.2969C52.2904 17.6745 52.4141 18.1335 52.4141 18.6738C52.4141 19.2207 52.3229 19.6992 52.1406 20.1094C51.9583 20.5195 51.7142 20.8809 51.4082 21.1934C51.1022 21.5124 50.7474 21.7858 50.3438 22.0137C49.9401 22.2415 49.5137 22.4271 49.0645 22.5703C48.1855 22.8633 47.3652 23.0098 46.6035 23.0098C45.8418 23.0098 45.1745 22.9479 44.6016 22.8242C44.0352 22.707 43.5306 22.5215 43.0879 22.2676C42.1309 21.7142 41.6523 20.9199 41.6523 19.8848C41.6523 19.0059 42.0918 18.2181 42.9707 17.5215C43.2376 17.3132 43.5208 17.1276 43.8203 16.9648C43.4688 16.6719 43.293 16.278 43.293 15.7832C43.293 15.0085 43.6771 14.3574 44.4453 13.8301C43.319 13.4004 42.5801 12.6322 42.2285 11.5254C42.1178 11.1608 42.0625 10.7539 42.0625 10.3047C42.0625 9.85547 42.1309 9.43229 42.2676 9.03516C42.4108 8.63802 42.6029 8.2832 42.8438 7.9707C43.0911 7.6582 43.3776 7.38477 43.7031 7.15039C44.0286 6.91602 44.377 6.7207 44.748 6.56445C45.4772 6.25195 46.2422 6.0957 47.043 6.0957C48.3646 6.0957 49.4193 6.42773 50.207 7.0918C50.2917 6.76628 50.334 6.43099 50.334 6.08594C50.334 5.74089 50.2591 5.46094 50.1094 5.24609C50.3633 4.94661 50.7409 4.79688 51.2422 4.79688C51.5286 4.79688 51.7565 4.875 51.9258 5.03125C52.2513 5.3112 52.4141 5.59115 52.4141 5.87109C52.4141 6.14453 52.3717 6.38542 52.2871 6.59375C52.2025 6.79557 52.0918 6.98763 51.9551 7.16992C51.7142 7.50846 51.4017 7.81445 51.0176 8.08789C51.278 8.57617 51.4082 9.14258 51.4082 9.78711C51.4082 10.4251 51.265 11.0208 50.9785 11.5742C50.6986 12.1211 50.321 12.5866 49.8457 12.9707C48.8691 13.7585 47.6647 14.1523 46.2324 14.1523C46.0371 14.1523 45.7995 14.1361 45.5195 14.1035ZM45.041 12.0234C45.2754 12.2513 45.5423 12.4206 45.8418 12.5312C46.1413 12.6419 46.4603 12.6973 46.7988 12.6973C47.1439 12.6973 47.4661 12.6484 47.7656 12.5508C48.0716 12.4531 48.3353 12.3099 48.5566 12.1211C49.0319 11.7174 49.2695 11.1445 49.2695 10.4023C49.2695 9.58203 49.0579 8.89844 48.6348 8.35156C48.153 7.74609 47.4759 7.44336 46.6035 7.44336C45.5033 7.44336 44.7904 7.89258 44.4648 8.79102C44.3542 9.09701 44.2988 9.47461 44.2988 9.92383C44.2988 10.373 44.3639 10.7767 44.4941 11.1348C44.6309 11.4928 44.8132 11.7891 45.041 12.0234ZM45.0508 17.541C44.1979 18.1204 43.7715 18.778 43.7715 19.5137C43.7715 20.1517 44.1426 20.6367 44.8848 20.9688C45.4772 21.2422 46.2064 21.3789 47.0723 21.3789C47.86 21.3789 48.5892 21.2487 49.2598 20.9883C50.1387 20.6432 50.5781 20.0801 50.5781 19.2988C50.5781 18.2507 49.7285 17.7266 48.0293 17.7266L47.1602 17.7363C46.2747 17.7363 45.5716 17.6712 45.0508 17.541ZM54.7969 9.30859C54.7969 8.9375 54.7676 8.64128 54.709 8.41992C54.6569 8.19206 54.5462 8.07812 54.377 8.07812C54.2533 8.07812 54.1556 8.09115 54.084 8.11719L53.8496 8.21484C53.804 8.22786 53.7487 8.20182 53.6836 8.13672C53.5599 8 53.498 7.8763 53.498 7.76562C53.498 7.64844 53.5339 7.52799 53.6055 7.4043C53.6836 7.27409 53.7975 7.1276 53.9473 6.96484C54.1035 6.80208 54.2793 6.65885 54.4746 6.53516C54.9173 6.24219 55.3177 6.0957 55.6758 6.0957C56.0339 6.0957 56.2878 6.15755 56.4375 6.28125C56.5872 6.40495 56.7012 6.56771 56.7793 6.76953C56.9095 7.09505 56.9746 7.58659 56.9746 8.24414V14.3574C56.9746 15.4577 57.3066 16.0729 57.9707 16.2031C58.1725 16.2422 58.4102 16.2617 58.6836 16.2617C58.9635 16.2617 59.2598 16.2259 59.5723 16.1543C59.8913 16.0827 60.194 15.9883 60.4805 15.8711C61.0339 15.6432 61.5221 15.3535 61.9453 15.002V9.30859C61.9453 8.6901 61.8346 8.30924 61.6133 8.16602C61.5221 8.10742 61.4017 8.07812 61.252 8.07812C61.1022 8.07812 60.9818 8.10091 60.8906 8.14648C60.806 8.19206 60.7344 8.22461 60.6758 8.24414C60.6237 8.26367 60.5781 8.26367 60.5391 8.24414C60.5 8.2181 60.4577 8.18229 60.4121 8.13672C60.3145 8.02604 60.2656 7.91536 60.2656 7.80469C60.2656 7.69401 60.3047 7.57682 60.3828 7.45312C60.4674 7.32292 60.6009 7.17643 60.7832 7.01367C60.9655 6.8444 61.1738 6.69141 61.4082 6.55469C61.9355 6.2487 62.4629 6.0957 62.9902 6.0957C63.6283 6.0957 63.9928 6.54818 64.084 7.45312C64.11 7.70703 64.123 7.9707 64.123 8.24414V14.0254C64.123 15.028 64.1621 15.653 64.2402 15.9004C64.3184 16.1478 64.4128 16.3105 64.5234 16.3887C64.6341 16.4603 64.7708 16.4961 64.9336 16.4961C65.0964 16.4961 65.2298 16.4701 65.334 16.418L65.627 16.291C65.7116 16.2715 65.7865 16.3105 65.8516 16.4082C65.9883 16.61 66.0078 16.7923 65.9102 16.9551C65.8125 17.1178 65.6595 17.2741 65.4512 17.4238C65.2493 17.5736 65.0215 17.7038 64.7676 17.8145C63.6413 18.3092 62.8405 18.2995 62.3652 17.7852C62.1178 17.5182 61.9779 17.0951 61.9453 16.5156C60.9883 17.2513 60.0085 17.7591 59.0059 18.0391C58.6413 18.1367 58.2572 18.1855 57.8535 18.1855C57.4564 18.1855 57.0658 18.1302 56.6816 18.0195C56.304 17.9089 55.9753 17.7298 55.6953 17.4824C55.0964 16.9551 54.7969 16.1413 54.7969 15.041V9.30859ZM74.25 16.7598C73.2995 17.7103 72.1504 18.1855 70.8027 18.1855C69.7611 18.1855 68.9277 17.8861 68.3027 17.2871C67.6712 16.6816 67.3555 15.8971 67.3555 14.9336C67.3555 13.7357 67.8893 12.8372 68.957 12.2383C69.9206 11.6914 71.278 11.418 73.0293 11.418H74.25C74.2565 11.1706 74.2598 10.9297 74.2598 10.6953V9.96289C74.2598 9.09049 74.1328 8.47526 73.8789 8.11719C73.5924 7.71354 73.1042 7.51172 72.4141 7.51172C70.832 7.51172 70.0182 8.07812 69.9727 9.21094C69.9661 9.38672 69.9694 9.5332 69.9824 9.65039C69.8522 9.75456 69.6309 9.80664 69.3184 9.80664C69.0124 9.80664 68.7878 9.77083 68.6445 9.69922C68.5078 9.6276 68.3874 9.52995 68.2832 9.40625C68.0618 9.15234 67.9512 8.83008 67.9512 8.43945C67.9512 8.04232 68.0651 7.69727 68.293 7.4043C68.5273 7.10482 68.8431 6.86068 69.2402 6.67188C70.015 6.28776 70.9297 6.0957 71.9844 6.0957C73.0391 6.0957 73.8301 6.19987 74.3574 6.4082C74.8913 6.61003 75.3145 6.88021 75.627 7.21875C76.1803 7.81771 76.457 8.62174 76.457 9.63086L76.3594 14.3184C76.3594 15.1712 76.3984 15.7116 76.4766 15.9395C76.5612 16.1673 76.6589 16.3203 76.7695 16.3984C76.8867 16.4766 77.0267 16.5156 77.1895 16.5156C77.3587 16.5156 77.4954 16.4896 77.5996 16.4375L77.873 16.3105C77.9642 16.278 78.0423 16.3171 78.1074 16.4277C78.179 16.5319 78.2148 16.6263 78.2148 16.7109C78.2148 16.7891 78.179 16.8932 78.1074 17.0234C78.0423 17.1536 77.9154 17.2936 77.7266 17.4434C77.5443 17.5866 77.3359 17.7135 77.1016 17.8242C75.806 18.4362 74.9238 18.293 74.4551 17.3945C74.3574 17.2188 74.2891 17.0072 74.25 16.7598ZM74.2207 15.4805C74.2207 14.543 74.2272 13.612 74.2402 12.6875C72.8861 12.7396 71.9648 12.8275 71.4766 12.9512C70.9948 13.0684 70.6465 13.1823 70.4316 13.293C70.2168 13.4036 70.0475 13.5339 69.9238 13.6836C69.722 13.931 69.6211 14.3053 69.6211 14.8066C69.6211 15.3014 69.7969 15.6986 70.1484 15.998C70.5 16.291 71.0046 16.4375 71.6621 16.4375C72.5931 16.4375 73.446 16.1185 74.2207 15.4805ZM83.293 14.1035C83.0456 14.3509 82.9219 14.5918 82.9219 14.8262C82.9219 15.0605 82.9902 15.2396 83.127 15.3633C83.2637 15.4805 83.4427 15.5716 83.6641 15.6367C84.0026 15.7279 84.377 15.7734 84.7871 15.7734H85.627C87.7493 15.7734 89.1458 16.2812 89.8164 17.2969C90.0638 17.6745 90.1875 18.1335 90.1875 18.6738C90.1875 19.2207 90.0964 19.6992 89.9141 20.1094C89.7318 20.5195 89.4876 20.8809 89.1816 21.1934C88.8757 21.5124 88.5208 21.7858 88.1172 22.0137C87.7135 22.2415 87.2871 22.4271 86.8379 22.5703C85.959 22.8633 85.1387 23.0098 84.377 23.0098C83.6152 23.0098 82.9479 22.9479 82.375 22.8242C81.8086 22.707 81.304 22.5215 80.8613 22.2676C79.9043 21.7142 79.4258 20.9199 79.4258 19.8848C79.4258 19.0059 79.8652 18.2181 80.7441 17.5215C81.0111 17.3132 81.2943 17.1276 81.5938 16.9648C81.2422 16.6719 81.0664 16.278 81.0664 15.7832C81.0664 15.0085 81.4505 14.3574 82.2188 13.8301C81.0924 13.4004 80.3535 12.6322 80.002 11.5254C79.8913 11.1608 79.8359 10.7539 79.8359 10.3047C79.8359 9.85547 79.9043 9.43229 80.041 9.03516C80.1842 8.63802 80.3763 8.2832 80.6172 7.9707C80.8646 7.6582 81.151 7.38477 81.4766 7.15039C81.8021 6.91602 82.1504 6.7207 82.5215 6.56445C83.2507 6.25195 84.0156 6.0957 84.8164 6.0957C86.138 6.0957 87.1927 6.42773 87.9805 7.0918C88.0651 6.76628 88.1074 6.43099 88.1074 6.08594C88.1074 5.74089 88.0326 5.46094 87.8828 5.24609C88.1367 4.94661 88.5143 4.79688 89.0156 4.79688C89.3021 4.79688 89.5299 4.875 89.6992 5.03125C90.0247 5.3112 90.1875 5.59115 90.1875 5.87109C90.1875 6.14453 90.1452 6.38542 90.0605 6.59375C89.9759 6.79557 89.8652 6.98763 89.7285 7.16992C89.4876 7.50846 89.1751 7.81445 88.791 8.08789C89.0514 8.57617 89.1816 9.14258 89.1816 9.78711C89.1816 10.4251 89.0384 11.0208 88.752 11.5742C88.472 12.1211 88.0944 12.5866 87.6191 12.9707C86.6426 13.7585 85.4382 14.1523 84.0059 14.1523C83.8105 14.1523 83.5729 14.1361 83.293 14.1035ZM82.8145 12.0234C83.0488 12.2513 83.3158 12.4206 83.6152 12.5312C83.9147 12.6419 84.2337 12.6973 84.5723 12.6973C84.9173 12.6973 85.2396 12.6484 85.5391 12.5508C85.8451 12.4531 86.1087 12.3099 86.3301 12.1211C86.8053 11.7174 87.043 11.1445 87.043 10.4023C87.043 9.58203 86.8314 8.89844 86.4082 8.35156C85.9264 7.74609 85.2493 7.44336 84.377 7.44336C83.2767 7.44336 82.5638 7.89258 82.2383 8.79102C82.1276 9.09701 82.0723 9.47461 82.0723 9.92383C82.0723 10.373 82.1374 10.7767 82.2676 11.1348C82.4043 11.4928 82.5866 11.7891 82.8145 12.0234ZM82.8242 17.541C81.9714 18.1204 81.5449 18.778 81.5449 19.5137C81.5449 20.1517 81.916 20.6367 82.6582 20.9688C83.2507 21.2422 83.9798 21.3789 84.8457 21.3789C85.6335 21.3789 86.3626 21.2487 87.0332 20.9883C87.9121 20.6432 88.3516 20.0801 88.3516 19.2988C88.3516 18.2507 87.502 17.7266 85.8027 17.7266L84.9336 17.7363C84.0482 17.7363 83.3451 17.6712 82.8242 17.541ZM91.7402 12.7461C91.7402 11.9583 91.8216 11.2585 91.9844 10.6465C92.1471 10.0345 92.3652 9.48763 92.6387 9.00586C92.9186 8.51758 93.2441 8.09115 93.6152 7.72656C93.9928 7.36198 94.3965 7.05924 94.8262 6.81836C95.6725 6.33659 96.5059 6.0957 97.3262 6.0957C98.1465 6.0957 98.804 6.24219 99.2988 6.53516C99.7936 6.82161 100.197 7.20573 100.51 7.6875C101.089 8.60547 101.379 9.82617 101.379 11.3496C101.379 11.916 101.141 12.2057 100.666 12.2188L93.8496 12.3652C93.8887 13.778 94.2533 14.8229 94.9434 15.5C95.5293 16.0729 96.2878 16.3594 97.2188 16.3594C98.6055 16.3594 99.7318 16.0697 100.598 15.4902C100.656 15.4902 100.728 15.5391 100.812 15.6367C100.975 15.832 101.057 16.0013 101.057 16.1445C101.057 16.457 100.666 16.8574 99.8848 17.3457C98.9863 17.9056 97.9382 18.1855 96.7402 18.1855C95.1777 18.1855 93.9505 17.6875 93.0586 16.6914C92.1797 15.7148 91.7402 14.3997 91.7402 12.7461ZM93.9082 11.1055C95.7832 11.0143 97.4987 10.8939 99.0547 10.7441C99.1263 8.67383 98.4102 7.63867 96.9062 7.63867C96.0664 7.63867 95.3796 7.96419 94.8457 8.61523C94.3574 9.21419 94.0449 10.0443 93.9082 11.1055ZM104.113 16.5645C104.113 16.0957 104.266 15.7083 104.572 15.4023C104.885 15.0898 105.269 14.9336 105.725 14.9336C106.467 14.9336 106.978 15.2591 107.258 15.9102C107.342 16.112 107.385 16.3301 107.385 16.5645C107.385 17.0202 107.229 17.4076 106.916 17.7266C106.604 18.0326 106.206 18.1855 105.725 18.1855C105.269 18.1855 104.885 18.0326 104.572 17.7266C104.266 17.4141 104.113 17.0267 104.113 16.5645ZM104.113 8.27344C104.113 7.80469 104.266 7.41732 104.572 7.11133C104.885 6.79883 105.269 6.64258 105.725 6.64258C106.467 6.64258 106.978 6.9681 107.258 7.61914C107.342 7.82096 107.385 8.03906 107.385 8.27344C107.385 8.72917 107.229 9.11654 106.916 9.43555C106.604 9.74154 106.206 9.89453 105.725 9.89453C105.269 9.89453 104.885 9.74154 104.572 9.43555C104.266 9.12305 104.113 8.73568 104.113 8.27344ZM127.824 13.6543C128 13.5046 128.186 13.4297 128.381 13.4297C128.68 13.4297 128.853 13.472 128.898 13.5566C129.152 14.0645 129.279 14.9043 129.279 16.0762C129.279 16.89 129.188 17.4792 129.006 17.8438C128.947 17.9479 128.885 18 128.82 18H118.039C117.264 18 116.877 17.7689 116.877 17.3066C116.877 17.0592 116.929 16.8704 117.033 16.7402C117.255 16.8053 117.469 16.8379 117.678 16.8379C117.886 16.8379 118.065 16.8216 118.215 16.7891C118.365 16.7565 118.505 16.6882 118.635 16.584C118.947 16.3431 119.104 15.9362 119.104 15.3633V5.4707C119.104 4.9043 118.876 4.54297 118.42 4.38672C118.29 4.34115 118.153 4.30208 118.01 4.26953C117.873 4.23047 117.74 4.19466 117.609 4.16211C117.486 4.12305 117.375 4.08073 117.277 4.03516C117.056 3.91797 116.945 3.75846 116.945 3.55664C116.945 3.28971 116.997 3.09766 117.102 2.98047C117.219 3.01302 117.336 3.0293 117.453 3.0293H127.443C128.042 3.0293 128.417 3.08464 128.566 3.19531C128.84 3.39062 128.977 3.82031 128.977 4.48438C128.977 5.1224 128.921 5.64323 128.811 6.04688C128.706 6.45052 128.632 6.69141 128.586 6.76953C128.521 6.88672 128.394 6.94531 128.205 6.94531C127.932 6.94531 127.743 6.91276 127.639 6.84766C127.541 6.77604 127.489 6.72396 127.482 6.69141C127.398 5.76042 127.251 5.16797 127.043 4.91406C126.835 4.65365 126.587 4.47786 126.301 4.38672C126.021 4.28906 125.653 4.24023 125.197 4.24023H123.02C122.329 4.24023 121.906 4.30859 121.75 4.44531C121.6 4.58203 121.506 4.74154 121.467 4.92383C121.428 5.09961 121.408 5.32747 121.408 5.60742V9.76758L121.984 9.77734C123.423 9.77734 124.758 9.65039 125.988 9.39648C126.079 9.44206 126.161 9.57227 126.232 9.78711C126.304 9.99544 126.34 10.2038 126.34 10.4121C126.34 10.7637 126.281 11.0697 126.164 11.3301C125.734 11.3691 125.24 11.3887 124.68 11.3887C124.12 11.3887 123.029 11.2975 121.408 11.1152V15.5195C121.408 16.0078 121.538 16.3366 121.799 16.5059C122.02 16.6491 122.417 16.7207 122.99 16.7207L124.465 16.6816C125.891 16.6296 126.818 16.431 127.248 16.0859C127.489 15.8906 127.648 15.6335 127.727 15.3145C127.805 14.9954 127.844 14.6764 127.844 14.3574C127.844 14.0319 127.837 13.7975 127.824 13.6543ZM136.428 18.0488C136.298 18.0163 136.089 18 135.803 18H132.688C132.062 18 131.662 17.8893 131.486 17.668C131.415 17.5833 131.379 17.4857 131.379 17.375C131.379 17.1016 131.431 16.8997 131.535 16.7695C131.691 16.8216 131.867 16.8477 132.062 16.8477C132.264 16.8477 132.414 16.7663 132.512 16.6035C132.616 16.4408 132.665 16.138 132.658 15.6953V9.30859C132.658 8.69661 132.544 8.31576 132.316 8.16602C132.225 8.10742 132.105 8.07812 131.955 8.07812C131.805 8.07812 131.685 8.10091 131.594 8.14648C131.509 8.19206 131.438 8.22461 131.379 8.24414C131.327 8.26367 131.281 8.26367 131.242 8.24414C131.203 8.2181 131.164 8.18229 131.125 8.13672C131.027 8.03255 130.979 7.92513 130.979 7.81445C130.979 7.69727 131.018 7.57682 131.096 7.45312C131.18 7.32292 131.314 7.17643 131.496 7.01367C131.678 6.8444 131.887 6.69141 132.121 6.55469C132.648 6.2487 133.176 6.0957 133.703 6.0957C134.309 6.0957 134.667 6.49609 134.777 7.29688C134.81 7.53125 134.829 7.77214 134.836 8.01953C135.806 7.20573 136.861 6.6263 138 6.28125C138.41 6.15755 138.824 6.0957 139.24 6.0957C139.663 6.0957 140.064 6.15104 140.441 6.26172C140.826 6.3724 141.158 6.55143 141.438 6.79883C142.03 7.31966 142.326 8.13346 142.326 9.24023V15.8613C142.346 16.3691 142.535 16.6816 142.893 16.7988C142.99 16.8314 143.111 16.8607 143.254 16.8867C143.397 16.9128 143.524 16.9453 143.635 16.9844C143.752 17.0169 143.843 17.056 143.908 17.1016C144.019 17.1862 144.074 17.3229 144.074 17.5117C144.074 17.7396 144.022 17.9186 143.918 18.0488C143.788 18.0163 143.579 18 143.293 18H140.178C139.553 18 139.152 17.8893 138.977 17.668C138.905 17.5833 138.869 17.4857 138.869 17.375C138.869 17.1016 138.921 16.8997 139.025 16.7695C139.182 16.8216 139.325 16.8477 139.455 16.8477C139.592 16.8477 139.706 16.8314 139.797 16.7988C139.888 16.7598 139.96 16.6979 140.012 16.6133C140.103 16.457 140.148 16.151 140.148 15.6953V9.93359C140.148 8.82682 139.82 8.20833 139.162 8.07812C138.96 8.03906 138.706 8.01953 138.4 8.01953C138.101 8.01953 137.769 8.0651 137.404 8.15625C137.04 8.2474 136.698 8.36458 136.379 8.50781C135.767 8.78125 135.253 9.1263 134.836 9.54297V15.8613C134.855 16.3691 135.041 16.6816 135.393 16.7988C135.497 16.8314 135.617 16.8607 135.754 16.8867C135.897 16.9128 136.027 16.9453 136.145 16.9844C136.262 17.0169 136.353 17.056 136.418 17.1016C136.529 17.1862 136.584 17.3229 136.584 17.5117C136.584 17.7396 136.532 17.9186 136.428 18.0488ZM149.309 14.1035C149.061 14.3509 148.938 14.5918 148.938 14.8262C148.938 15.0605 149.006 15.2396 149.143 15.3633C149.279 15.4805 149.458 15.5716 149.68 15.6367C150.018 15.7279 150.393 15.7734 150.803 15.7734H151.643C153.765 15.7734 155.161 16.2812 155.832 17.2969C156.079 17.6745 156.203 18.1335 156.203 18.6738C156.203 19.2207 156.112 19.6992 155.93 20.1094C155.747 20.5195 155.503 20.8809 155.197 21.1934C154.891 21.5124 154.536 21.7858 154.133 22.0137C153.729 22.2415 153.303 22.4271 152.854 22.5703C151.975 22.8633 151.154 23.0098 150.393 23.0098C149.631 23.0098 148.964 22.9479 148.391 22.8242C147.824 22.707 147.32 22.5215 146.877 22.2676C145.92 21.7142 145.441 20.9199 145.441 19.8848C145.441 19.0059 145.881 18.2181 146.76 17.5215C147.027 17.3132 147.31 17.1276 147.609 16.9648C147.258 16.6719 147.082 16.278 147.082 15.7832C147.082 15.0085 147.466 14.3574 148.234 13.8301C147.108 13.4004 146.369 12.6322 146.018 11.5254C145.907 11.1608 145.852 10.7539 145.852 10.3047C145.852 9.85547 145.92 9.43229 146.057 9.03516C146.2 8.63802 146.392 8.2832 146.633 7.9707C146.88 7.6582 147.167 7.38477 147.492 7.15039C147.818 6.91602 148.166 6.7207 148.537 6.56445C149.266 6.25195 150.031 6.0957 150.832 6.0957C152.154 6.0957 153.208 6.42773 153.996 7.0918C154.081 6.76628 154.123 6.43099 154.123 6.08594C154.123 5.74089 154.048 5.46094 153.898 5.24609C154.152 4.94661 154.53 4.79688 155.031 4.79688C155.318 4.79688 155.546 4.875 155.715 5.03125C156.04 5.3112 156.203 5.59115 156.203 5.87109C156.203 6.14453 156.161 6.38542 156.076 6.59375C155.992 6.79557 155.881 6.98763 155.744 7.16992C155.503 7.50846 155.191 7.81445 154.807 8.08789C155.067 8.57617 155.197 9.14258 155.197 9.78711C155.197 10.4251 155.054 11.0208 154.768 11.5742C154.488 12.1211 154.11 12.5866 153.635 12.9707C152.658 13.7585 151.454 14.1523 150.021 14.1523C149.826 14.1523 149.589 14.1361 149.309 14.1035ZM148.83 12.0234C149.064 12.2513 149.331 12.4206 149.631 12.5312C149.93 12.6419 150.249 12.6973 150.588 12.6973C150.933 12.6973 151.255 12.6484 151.555 12.5508C151.861 12.4531 152.124 12.3099 152.346 12.1211C152.821 11.7174 153.059 11.1445 153.059 10.4023C153.059 9.58203 152.847 8.89844 152.424 8.35156C151.942 7.74609 151.265 7.44336 150.393 7.44336C149.292 7.44336 148.579 7.89258 148.254 8.79102C148.143 9.09701 148.088 9.47461 148.088 9.92383C148.088 10.373 148.153 10.7767 148.283 11.1348C148.42 11.4928 148.602 11.7891 148.83 12.0234ZM148.84 17.541C147.987 18.1204 147.561 18.778 147.561 19.5137C147.561 20.1517 147.932 20.6367 148.674 20.9688C149.266 21.2422 149.995 21.3789 150.861 21.3789C151.649 21.3789 152.378 21.2487 153.049 20.9883C153.928 20.6432 154.367 20.0801 154.367 19.2988C154.367 18.2507 153.518 17.7266 151.818 17.7266L150.949 17.7363C150.064 17.7363 149.361 17.6712 148.84 17.541ZM159.465 18C158.469 18 157.971 17.7721 157.971 17.3164C157.971 17.0755 158.02 16.8932 158.117 16.7695C158.273 16.8216 158.42 16.8477 158.557 16.8477C159.123 16.8477 159.416 16.5059 159.436 15.8223V3.5957C159.436 3.13997 159.39 2.85026 159.299 2.72656C159.149 2.51823 158.908 2.41406 158.576 2.41406C158.426 2.41406 158.28 2.43034 158.137 2.46289C158 2.48893 157.902 2.48893 157.844 2.46289C157.792 2.43034 157.749 2.38802 157.717 2.33594C157.587 2.12109 157.749 1.84766 158.205 1.51562C158.921 0.988281 159.628 0.724609 160.324 0.724609C161.066 0.724609 161.483 1.125 161.574 1.92578C161.6 2.16667 161.613 2.42057 161.613 2.6875V15.8613C161.633 16.3691 161.818 16.6816 162.17 16.7988C162.274 16.8314 162.395 16.8607 162.531 16.8867C162.674 16.9128 162.805 16.9453 162.922 16.9844C163.039 17.0169 163.13 17.056 163.195 17.1016C163.306 17.1862 163.361 17.3229 163.361 17.5117C163.361 17.7396 163.309 17.9186 163.205 18.0488C163.075 18.0163 162.867 18 162.58 18H159.465ZM167.023 4.2793C166.802 4.2793 166.597 4.24674 166.408 4.18164C166.226 4.11003 166.066 4.00911 165.93 3.87891C165.643 3.60547 165.5 3.23763 165.5 2.77539C165.5 2.33268 165.669 1.95833 166.008 1.65234C166.333 1.34635 166.724 1.19336 167.18 1.19336C167.635 1.19336 168 1.33008 168.273 1.60352C168.547 1.87695 168.684 2.24805 168.684 2.7168C168.684 3.15951 168.521 3.53385 168.195 3.83984C167.876 4.13281 167.486 4.2793 167.023 4.2793ZM166.428 18C165.425 18 164.924 17.7721 164.924 17.3164C164.924 17.082 164.976 16.8997 165.08 16.7695C165.236 16.8216 165.38 16.8477 165.51 16.8477C166.115 16.8477 166.411 16.4635 166.398 15.6953V9.15234C166.398 8.69661 166.333 8.38086 166.203 8.20508C166.079 8.02279 165.855 7.93164 165.529 7.93164C165.288 7.93164 165.07 7.96094 164.875 8.01953C164.758 8.03255 164.673 7.94141 164.621 7.74609C164.576 7.57031 164.602 7.41732 164.699 7.28711C164.797 7.15039 164.947 7.01042 165.148 6.86719C165.357 6.71745 165.585 6.58724 165.832 6.47656C166.366 6.22266 166.812 6.0957 167.17 6.0957C167.528 6.0957 167.792 6.14779 167.961 6.25195C168.137 6.35612 168.27 6.49609 168.361 6.67188C168.505 6.95833 168.576 7.42057 168.576 8.05859V15.8613C168.596 16.3757 168.781 16.6882 169.133 16.7988C169.23 16.8314 169.351 16.8607 169.494 16.8867C169.637 16.9128 169.764 16.9453 169.875 16.9844C169.992 17.0169 170.083 17.056 170.148 17.1016C170.259 17.1862 170.314 17.3229 170.314 17.5117C170.314 17.7461 170.266 17.9251 170.168 18.0488C170.031 18.0163 169.823 18 169.543 18H166.428ZM178.459 9.5625C178.459 8.5599 178.042 7.89583 177.209 7.57031C176.942 7.46615 176.652 7.41406 176.34 7.41406C176.034 7.41406 175.747 7.4401 175.48 7.49219C175.22 7.54427 174.989 7.62565 174.787 7.73633C174.331 7.98372 174.104 8.33854 174.104 8.80078C174.104 9.24349 174.292 9.6276 174.67 9.95312C175.087 10.2982 175.861 10.7246 176.994 11.2324C178.127 11.7337 178.999 12.2839 179.611 12.8828C180.23 13.4753 180.539 14.1589 180.539 14.9336C180.539 15.806 180.181 16.5417 179.465 17.1406C178.625 17.8372 177.463 18.1855 175.979 18.1855C174.162 18.1855 172.906 17.7982 172.209 17.0234C171.968 16.75 171.848 16.4017 171.848 15.9785C171.848 14.9564 172.098 14.3607 172.6 14.1914C172.723 14.1523 172.84 14.1328 172.951 14.1328C173.257 14.1328 173.423 14.2272 173.449 14.416C173.592 16.0436 174.504 16.8574 176.184 16.8574C177.193 16.8574 177.867 16.5742 178.205 16.0078C178.316 15.8255 178.371 15.6042 178.371 15.3438C178.371 15.0833 178.286 14.8457 178.117 14.6309C177.954 14.416 177.727 14.2174 177.434 14.0352C177.141 13.8464 176.792 13.6641 176.389 13.4883L175.09 12.9023C173.098 11.9909 172.102 10.7799 172.102 9.26953C172.102 8.29297 172.535 7.51172 173.4 6.92578C174.221 6.3724 175.279 6.0957 176.574 6.0957C178.332 6.0957 179.426 6.47656 179.855 7.23828C179.966 7.43359 180.021 7.64844 180.021 7.88281C180.021 8.11719 180.008 8.32878 179.982 8.51758C179.956 8.69987 179.924 8.86589 179.885 9.01562C179.82 9.30208 179.745 9.50391 179.66 9.62109C179.491 9.74479 179.247 9.80664 178.928 9.80664C178.615 9.80664 178.459 9.72526 178.459 9.5625ZM187.941 18.0488C187.811 18.0163 187.603 18 187.316 18H184.201C183.576 18 183.176 17.8893 183 17.668C182.928 17.5833 182.893 17.4857 182.893 17.375C182.893 17.1016 182.945 16.8997 183.049 16.7695C183.205 16.8216 183.384 16.8477 183.586 16.8477C183.788 16.8477 183.938 16.7663 184.035 16.6035C184.133 16.4408 184.178 16.138 184.172 15.6953V3.5957C184.172 3.14648 184.126 2.85677 184.035 2.72656C183.898 2.51823 183.658 2.41406 183.312 2.41406H183.117C183.059 2.41406 182.99 2.42383 182.912 2.44336C182.84 2.45638 182.779 2.44987 182.727 2.42383C182.674 2.39128 182.629 2.34896 182.59 2.29688C182.453 2.09505 182.609 1.82161 183.059 1.47656C183.716 0.97526 184.387 0.724609 185.07 0.724609C185.812 0.724609 186.229 1.125 186.32 1.92578C186.346 2.16667 186.359 2.42057 186.359 2.6875V8.00977C187.342 7.18294 188.394 6.60677 189.514 6.28125C189.924 6.15755 190.337 6.0957 190.754 6.0957C191.177 6.0957 191.577 6.15104 191.955 6.26172C192.339 6.3724 192.668 6.55143 192.941 6.79883C193.54 7.33268 193.84 8.14648 193.84 9.24023V15.793C193.84 16.3333 194.022 16.6654 194.387 16.7891C194.491 16.8281 194.615 16.8607 194.758 16.8867C194.901 16.9128 195.028 16.9453 195.139 16.9844C195.256 17.0169 195.347 17.056 195.412 17.1016C195.523 17.1862 195.578 17.3229 195.578 17.5117C195.578 17.7461 195.529 17.9251 195.432 18.0488C195.295 18.0163 195.087 18 194.807 18H191.691C191.066 18 190.666 17.8893 190.49 17.668C190.419 17.5833 190.383 17.4857 190.383 17.375C190.383 17.0951 190.432 16.8932 190.529 16.7695C190.692 16.8216 190.868 16.8477 191.057 16.8477C191.245 16.8477 191.389 16.7793 191.486 16.6426C191.59 16.5059 191.649 16.2552 191.662 15.8906V9.93359C191.662 8.82682 191.333 8.20833 190.676 8.07812C190.474 8.03906 190.22 8.01953 189.914 8.01953C189.615 8.01953 189.283 8.0651 188.918 8.15625C188.56 8.2474 188.221 8.36458 187.902 8.50781C187.271 8.79427 186.757 9.13607 186.359 9.5332V15.793C186.359 16.3333 186.542 16.6654 186.906 16.7891C187.01 16.8281 187.134 16.8607 187.277 16.8867C187.421 16.9128 187.548 16.9453 187.658 16.9844C187.775 17.0169 187.867 17.056 187.932 17.1016C188.042 17.1862 188.098 17.3229 188.098 17.5117C188.098 17.7396 188.046 17.9186 187.941 18.0488Z" fill="black"/>
</svg>
