<svg width="118" height="20" viewBox="0 0 118 20" fill="none" xmlns="http://www.w3.org/2000/svg">
<path d="M0.992 19V1.12H2.96L13.232 15.568L12.344 15.664V1.12H14.72V19H12.752L2.528 4.456L3.344 4.36V19H0.992ZM18.4468 19V6.064H20.6788V19H18.4468ZM18.4468 4V1.12H20.6788V4H18.4468ZM30.1421 19.288C28.8781 19.288 27.7501 18.992 26.7581 18.4C25.7821 17.808 25.0141 17 24.4541 15.976C23.8941 14.952 23.6141 13.8 23.6141 12.52C23.6141 11.224 23.8941 10.072 24.4541 9.064C25.0141 8.056 25.7821 7.256 26.7581 6.664C27.7501 6.072 28.8781 5.776 30.1421 5.776C30.9901 5.776 31.7821 5.928 32.5181 6.232C33.2541 6.536 33.9021 6.944 34.4621 7.456C35.0221 7.968 35.4301 8.568 35.6861 9.256L33.6941 10.216C33.3901 9.544 32.9261 9 32.3021 8.584C31.6781 8.152 30.9581 7.936 30.1421 7.936C29.3581 7.936 28.6461 8.136 28.0061 8.536C27.3821 8.936 26.8861 9.48 26.5181 10.168C26.1501 10.856 25.9661 11.648 25.9661 12.544C25.9661 13.408 26.1501 14.192 26.5181 14.896C26.8861 15.584 27.3821 16.128 28.0061 16.528C28.6461 16.928 29.3581 17.128 30.1421 17.128C30.9581 17.128 31.6781 16.92 32.3021 16.504C32.9261 16.072 33.3901 15.504 33.6941 14.8L35.6861 15.808C35.4301 16.48 35.0221 17.08 34.4621 17.608C33.9021 18.12 33.2541 18.528 32.5181 18.832C31.7821 19.136 30.9901 19.288 30.1421 19.288ZM38.603 19V0.831999H40.835V13.288L39.923 13.072L46.787 6.064H49.643L44.675 11.272L49.979 19H47.339L42.491 11.992L43.883 11.92L40.115 15.856L40.835 14.224V19H38.603ZM52.2498 19V1.12H54.2178L64.4898 15.568L63.6018 15.664V1.12H65.9778V19H64.0098L53.7858 4.456L54.6018 4.36V19H52.2498ZM73.4966 19.288C72.6486 19.288 71.8966 19.136 71.2406 18.832C70.6006 18.512 70.0966 18.08 69.7286 17.536C69.3606 16.976 69.1766 16.336 69.1766 15.616C69.1766 14.928 69.3206 14.312 69.6086 13.768C69.9126 13.208 70.3766 12.736 71.0006 12.352C71.6406 11.968 72.4406 11.696 73.4006 11.536L78.2006 10.744V12.616L73.9046 13.336C73.0726 13.48 72.4646 13.744 72.0806 14.128C71.7126 14.512 71.5286 14.984 71.5286 15.544C71.5286 16.072 71.7366 16.512 72.1526 16.864C72.5846 17.216 73.1206 17.392 73.7606 17.392C74.5766 17.392 75.2806 17.224 75.8726 16.888C76.4806 16.536 76.9526 16.064 77.2886 15.472C77.6406 14.88 77.8166 14.224 77.8166 13.504V10.216C77.8166 9.512 77.5526 8.944 77.0246 8.512C76.5126 8.064 75.8326 7.84 74.9846 7.84C74.2486 7.84 73.5926 8.032 73.0166 8.416C72.4566 8.784 72.0406 9.28 71.7686 9.904L69.8246 8.896C70.0646 8.304 70.4486 7.776 70.9766 7.312C71.5046 6.832 72.1206 6.456 72.8246 6.184C73.5286 5.912 74.2646 5.776 75.0326 5.776C76.0246 5.776 76.8966 5.968 77.6486 6.352C78.4006 6.72 78.9846 7.24 79.4006 7.912C79.8326 8.568 80.0486 9.336 80.0486 10.216V19H77.8646V16.552L78.2726 16.696C78.0006 17.208 77.6326 17.656 77.1686 18.04C76.7046 18.424 76.1606 18.728 75.5366 18.952C74.9126 19.176 74.2326 19.288 73.4966 19.288ZM83.5093 19V6.064H85.6933V8.704L85.3813 8.296C85.7013 7.48 86.2133 6.856 86.9173 6.424C87.6213 5.992 88.4133 5.776 89.2933 5.776C90.3013 5.776 91.2053 6.056 92.0053 6.616C92.8213 7.176 93.3813 7.912 93.6853 8.824L93.0613 8.848C93.3973 7.84 93.9653 7.08 94.7653 6.568C95.5653 6.04 96.4533 5.776 97.4293 5.776C98.3253 5.776 99.1333 5.984 99.8533 6.4C100.589 6.816 101.173 7.392 101.605 8.128C102.037 8.864 102.253 9.696 102.253 10.624V19H99.9973V11.344C99.9973 10.624 99.8693 10.016 99.6133 9.52C99.3573 9.024 99.0053 8.64 98.5573 8.368C98.1253 8.08 97.6133 7.936 97.0213 7.936C96.4453 7.936 95.9253 8.08 95.4613 8.368C95.0133 8.64 94.6533 9.032 94.3813 9.544C94.1253 10.04 93.9973 10.64 93.9973 11.344V19H91.7413V11.344C91.7413 10.624 91.6133 10.016 91.3573 9.52C91.1013 9.024 90.7493 8.64 90.3013 8.368C89.8693 8.08 89.3573 7.936 88.7653 7.936C88.1893 7.936 87.6693 8.08 87.2053 8.368C86.7573 8.64 86.3973 9.032 86.1253 9.544C85.8693 10.04 85.7413 10.64 85.7413 11.344V19H83.5093ZM111.375 19.288C110.127 19.288 109.015 18.992 108.039 18.4C107.063 17.808 106.295 17 105.735 15.976C105.175 14.936 104.895 13.776 104.895 12.496C104.895 11.2 105.167 10.048 105.711 9.04C106.271 8.032 107.023 7.24 107.967 6.664C108.927 6.072 109.999 5.776 111.183 5.776C112.143 5.776 112.991 5.952 113.727 6.304C114.479 6.64 115.111 7.104 115.623 7.696C116.151 8.272 116.551 8.936 116.823 9.688C117.111 10.424 117.255 11.192 117.255 11.992C117.255 12.168 117.239 12.368 117.207 12.592C117.191 12.8 117.167 13 117.135 13.192H106.527V11.272H115.839L114.783 12.136C114.927 11.304 114.847 10.56 114.543 9.904C114.239 9.248 113.791 8.728 113.199 8.344C112.607 7.96 111.935 7.768 111.183 7.768C110.431 7.768 109.743 7.96 109.119 8.344C108.495 8.728 108.007 9.28 107.655 10C107.319 10.704 107.183 11.544 107.247 12.52C107.183 13.464 107.327 14.296 107.679 15.016C108.047 15.72 108.559 16.272 109.215 16.672C109.887 17.056 110.615 17.248 111.399 17.248C112.263 17.248 112.991 17.048 113.583 16.648C114.175 16.248 114.655 15.736 115.023 15.112L116.895 16.072C116.639 16.664 116.239 17.208 115.695 17.704C115.167 18.184 114.535 18.568 113.799 18.856C113.079 19.144 112.271 19.288 111.375 19.288Z" fill="black"/>
</svg>
