<svg width="85" height="23" viewBox="0 0 85 23" fill="none" xmlns="http://www.w3.org/2000/svg">
<path d="M8.71094 6.15039C8.71094 4.65951 8.18034 3.72526 7.11914 3.34766C6.75456 3.21745 6.32812 3.15234 5.83984 3.15234C5.35156 3.15234 4.93164 3.20768 4.58008 3.31836C4.22852 3.42904 3.93555 3.57878 3.70117 3.76758C3.22591 4.15169 2.98828 4.65951 2.98828 5.29102C2.98828 6.24805 3.69141 7.0651 5.09766 7.74219L6.31836 8.31836C6.91081 8.5918 7.48047 8.87174 8.02734 9.1582C8.58073 9.43815 9.06901 9.76042 9.49219 10.125C10.4232 10.9193 10.8887 11.9023 10.8887 13.0742C10.8887 14.3307 10.3418 15.3431 9.24805 16.1113C8.22591 16.8275 6.94336 17.1855 5.40039 17.1855C4.17643 17.1855 3.0957 16.9935 2.1582 16.6094C1.4681 16.3359 0.976562 15.9486 0.683594 15.4473C0.533854 15.1934 0.458984 14.8841 0.458984 14.5195C0.458984 13.7904 0.641276 13.11 1.00586 12.4785C1.12956 12.3288 1.29883 12.2539 1.51367 12.2539C1.93034 12.2539 2.17122 12.3776 2.23633 12.625C2.32096 13.7513 2.66602 14.5716 3.27148 15.0859C3.88346 15.6003 4.73633 15.8574 5.83008 15.8574C7.08659 15.8574 7.92969 15.4473 8.35938 14.627C8.50911 14.3405 8.58398 14.0052 8.58398 13.6211C8.58398 13.2305 8.47982 12.8822 8.27148 12.5762C8.06315 12.2702 7.78646 11.987 7.44141 11.7266C6.91406 11.3359 6.21419 10.9583 5.3418 10.5938C4.47591 10.2292 3.79883 9.91016 3.31055 9.63672C2.82878 9.36328 2.40234 9.04427 2.03125 8.67969C1.22396 7.88542 0.820312 6.9056 0.820312 5.74023C0.820312 4.54883 1.33138 3.59505 2.35352 2.87891C3.33659 2.1888 4.60612 1.84375 6.16211 1.84375C8.13477 1.84375 9.42383 2.25065 10.0293 3.06445C10.2507 3.35742 10.3613 3.74154 10.3613 4.2168C10.3613 4.69206 10.3158 5.10547 10.2246 5.45703C10.14 5.80859 10.0553 6.03646 9.9707 6.14062C9.82747 6.31641 9.58008 6.4043 9.22852 6.4043C8.88346 6.4043 8.71094 6.31966 8.71094 6.15039ZM13.1934 11.7461C13.1934 10.9583 13.2747 10.2585 13.4375 9.64648C13.6003 9.03451 13.8184 8.48763 14.0918 8.00586C14.3717 7.51758 14.6973 7.09115 15.0684 6.72656C15.446 6.36198 15.8496 6.05924 16.2793 5.81836C17.1257 5.33659 17.959 5.0957 18.7793 5.0957C19.5996 5.0957 20.2572 5.24219 20.752 5.53516C21.2467 5.82161 21.6504 6.20573 21.9629 6.6875C22.5423 7.60547 22.832 8.82617 22.832 10.3496C22.832 10.916 22.5944 11.2057 22.1191 11.2188L15.3027 11.3652C15.3418 12.778 15.7064 13.8229 16.3965 14.5C16.9824 15.0729 17.7409 15.3594 18.6719 15.3594C20.0586 15.3594 21.1849 15.0697 22.0508 14.4902C22.1094 14.4902 22.181 14.5391 22.2656 14.6367C22.4284 14.832 22.5098 15.0013 22.5098 15.1445C22.5098 15.457 22.1191 15.8574 21.3379 16.3457C20.4395 16.9056 19.3913 17.1855 18.1934 17.1855C16.6309 17.1855 15.4036 16.6875 14.5117 15.6914C13.6328 14.7148 13.1934 13.3997 13.1934 11.7461ZM15.3613 10.1055C17.2363 10.0143 18.9518 9.89388 20.5078 9.74414C20.5794 7.67383 19.8633 6.63867 18.3594 6.63867C17.5195 6.63867 16.8327 6.96419 16.2988 7.61523C15.8105 8.21419 15.498 9.04427 15.3613 10.1055ZM28.3691 10.3398L28.3594 12.9082C28.3594 13.9824 28.4147 14.6302 28.5254 14.8516C28.6361 15.0664 28.7663 15.1966 28.916 15.2422C29.0658 15.2812 29.2578 15.3008 29.4922 15.3008C29.7266 15.3008 29.9382 15.2845 30.127 15.252C30.3223 15.2129 30.5046 15.1641 30.6738 15.1055C30.8431 15.0469 31.0059 14.9818 31.1621 14.9102L31.6406 14.7051C31.7513 14.666 31.875 14.7799 32.0117 15.0469C32.0508 15.1185 32.0703 15.2031 32.0703 15.3008C32.0703 15.3919 32.0312 15.5124 31.9531 15.6621C31.875 15.8118 31.722 15.9844 31.4941 16.1797C31.2728 16.3685 31.0124 16.5378 30.7129 16.6875C30.0618 17.0195 29.4759 17.1855 28.9551 17.1855C28.4408 17.1855 28.0208 17.1562 27.6953 17.0977C27.3698 17.0391 27.0931 16.9219 26.8652 16.7461C26.3965 16.3815 26.1621 15.7142 26.1621 14.7441V7.05859H25.1953C24.9935 7.05859 24.847 6.99349 24.7559 6.86328C24.5996 6.66146 24.5215 6.49219 24.5215 6.35547C24.5215 6.1276 24.5768 6.00065 24.6875 5.97461C25.7227 5.79883 26.4551 5.0306 26.8848 3.66992C27.0085 3.25977 27.1061 2.77474 27.1777 2.21484C27.4902 2.16276 27.7246 2.13672 27.8809 2.13672C28.0436 2.13672 28.1836 2.2181 28.3008 2.38086C28.418 2.54362 28.4733 2.73242 28.4668 2.94727C28.4668 3.16211 28.4635 3.36393 28.457 3.55273C28.4505 3.74154 28.444 3.94661 28.4375 4.16797L28.3984 5.53516H31.7773C31.862 5.6849 31.9043 5.8444 31.9043 6.01367V6.31641C31.9043 6.58984 31.7578 6.81445 31.4648 6.99023C31.1719 7.15951 30.8464 7.24414 30.4883 7.24414C30.1367 7.24414 29.8828 7.24089 29.7266 7.23438C29.5768 7.22135 29.4303 7.20833 29.2871 7.19531L28.8574 7.13672C28.7077 7.1237 28.5482 7.11068 28.3789 7.09766V7.20508L28.3691 10.3398ZM37.041 10.3398L37.0312 12.9082C37.0312 13.9824 37.0866 14.6302 37.1973 14.8516C37.3079 15.0664 37.4382 15.1966 37.5879 15.2422C37.7376 15.2812 37.9297 15.3008 38.1641 15.3008C38.3984 15.3008 38.61 15.2845 38.7988 15.252C38.9941 15.2129 39.1764 15.1641 39.3457 15.1055C39.515 15.0469 39.6777 14.9818 39.834 14.9102L40.3125 14.7051C40.4232 14.666 40.5469 14.7799 40.6836 15.0469C40.7227 15.1185 40.7422 15.2031 40.7422 15.3008C40.7422 15.3919 40.7031 15.5124 40.625 15.6621C40.5469 15.8118 40.3939 15.9844 40.166 16.1797C39.9447 16.3685 39.6842 16.5378 39.3848 16.6875C38.7337 17.0195 38.1478 17.1855 37.627 17.1855C37.1126 17.1855 36.6927 17.1562 36.3672 17.0977C36.0417 17.0391 35.765 16.9219 35.5371 16.7461C35.0684 16.3815 34.834 15.7142 34.834 14.7441V7.05859H33.8672C33.6654 7.05859 33.5189 6.99349 33.4277 6.86328C33.2715 6.66146 33.1934 6.49219 33.1934 6.35547C33.1934 6.1276 33.2487 6.00065 33.3594 5.97461C34.3945 5.79883 35.127 5.0306 35.5566 3.66992C35.6803 3.25977 35.778 2.77474 35.8496 2.21484C36.1621 2.16276 36.3965 2.13672 36.5527 2.13672C36.7155 2.13672 36.8555 2.2181 36.9727 2.38086C37.0898 2.54362 37.1452 2.73242 37.1387 2.94727C37.1387 3.16211 37.1354 3.36393 37.1289 3.55273C37.1224 3.74154 37.1159 3.94661 37.1094 4.16797L37.0703 5.53516H40.4492C40.5339 5.6849 40.5762 5.8444 40.5762 6.01367V6.31641C40.5762 6.58984 40.4297 6.81445 40.1367 6.99023C39.8438 7.15951 39.5182 7.24414 39.1602 7.24414C38.8086 7.24414 38.5547 7.24089 38.3984 7.23438C38.2487 7.22135 38.1022 7.20833 37.959 7.19531L37.5293 7.13672C37.3796 7.1237 37.2201 7.11068 37.0508 7.09766V7.20508L37.041 10.3398ZM44.6289 3.2793C44.4076 3.2793 44.2025 3.24674 44.0137 3.18164C43.8314 3.11003 43.6719 3.00911 43.5352 2.87891C43.2487 2.60547 43.1055 2.23763 43.1055 1.77539C43.1055 1.33268 43.2747 0.958333 43.6133 0.652344C43.9388 0.346354 44.3294 0.193359 44.7852 0.193359C45.2409 0.193359 45.6055 0.330078 45.8789 0.603516C46.1523 0.876953 46.2891 1.24805 46.2891 1.7168C46.2891 2.15951 46.1263 2.53385 45.8008 2.83984C45.4818 3.13281 45.0911 3.2793 44.6289 3.2793ZM44.0332 17C43.0306 17 42.5293 16.7721 42.5293 16.3164C42.5293 16.082 42.5814 15.8997 42.6855 15.7695C42.8418 15.8216 42.985 15.8477 43.1152 15.8477C43.7207 15.8477 44.0169 15.4635 44.0039 14.6953V8.15234C44.0039 7.69661 43.9388 7.38086 43.8086 7.20508C43.6849 7.02279 43.4603 6.93164 43.1348 6.93164C42.8939 6.93164 42.6758 6.96094 42.4805 7.01953C42.3633 7.03255 42.2786 6.94141 42.2266 6.74609C42.181 6.57031 42.207 6.41732 42.3047 6.28711C42.4023 6.15039 42.5521 6.01042 42.7539 5.86719C42.9622 5.71745 43.1901 5.58724 43.4375 5.47656C43.9714 5.22266 44.4173 5.0957 44.7754 5.0957C45.1335 5.0957 45.3971 5.14779 45.5664 5.25195C45.7422 5.35612 45.8757 5.49609 45.9668 5.67188C46.11 5.95833 46.1816 6.42057 46.1816 7.05859V14.8613C46.2012 15.3757 46.3867 15.6882 46.7383 15.7988C46.8359 15.8314 46.9564 15.8607 47.0996 15.8867C47.2428 15.9128 47.3698 15.9453 47.4805 15.9844C47.5977 16.0169 47.6888 16.056 47.7539 16.1016C47.8646 16.1862 47.9199 16.3229 47.9199 16.5117C47.9199 16.7461 47.8711 16.9251 47.7734 17.0488C47.6367 17.0163 47.4284 17 47.1484 17H44.0332ZM54.6191 17.0488C54.4889 17.0163 54.2806 17 53.9941 17H50.8789C50.2539 17 49.8535 16.8893 49.6777 16.668C49.6061 16.5833 49.5703 16.4857 49.5703 16.375C49.5703 16.1016 49.6224 15.8997 49.7266 15.7695C49.8828 15.8216 50.0586 15.8477 50.2539 15.8477C50.4557 15.8477 50.6055 15.7663 50.7031 15.6035C50.8073 15.4408 50.8561 15.138 50.8496 14.6953V8.30859C50.8496 7.69661 50.7357 7.31576 50.5078 7.16602C50.4167 7.10742 50.2962 7.07812 50.1465 7.07812C49.9967 7.07812 49.8763 7.10091 49.7852 7.14648C49.7005 7.19206 49.6289 7.22461 49.5703 7.24414C49.5182 7.26367 49.4727 7.26367 49.4336 7.24414C49.3945 7.2181 49.3555 7.18229 49.3164 7.13672C49.2188 7.03255 49.1699 6.92513 49.1699 6.81445C49.1699 6.69727 49.209 6.57682 49.2871 6.45312C49.3717 6.32292 49.5052 6.17643 49.6875 6.01367C49.8698 5.8444 50.0781 5.69141 50.3125 5.55469C50.8398 5.2487 51.3672 5.0957 51.8945 5.0957C52.5 5.0957 52.8581 5.49609 52.9688 6.29688C53.0013 6.53125 53.0208 6.77214 53.0273 7.01953C53.9974 6.20573 55.0521 5.6263 56.1914 5.28125C56.6016 5.15755 57.015 5.0957 57.4316 5.0957C57.8548 5.0957 58.2552 5.15104 58.6328 5.26172C59.0169 5.3724 59.349 5.55143 59.6289 5.79883C60.2214 6.31966 60.5176 7.13346 60.5176 8.24023V14.8613C60.5371 15.3691 60.7259 15.6816 61.084 15.7988C61.1816 15.8314 61.3021 15.8607 61.4453 15.8867C61.5885 15.9128 61.7155 15.9453 61.8262 15.9844C61.9434 16.0169 62.0345 16.056 62.0996 16.1016C62.2103 16.1862 62.2656 16.3229 62.2656 16.5117C62.2656 16.7396 62.2135 16.9186 62.1094 17.0488C61.9792 17.0163 61.7708 17 61.4844 17H58.3691C57.7441 17 57.3438 16.8893 57.168 16.668C57.0964 16.5833 57.0605 16.4857 57.0605 16.375C57.0605 16.1016 57.1126 15.8997 57.2168 15.7695C57.373 15.8216 57.5163 15.8477 57.6465 15.8477C57.7832 15.8477 57.8971 15.8314 57.9883 15.7988C58.0794 15.7598 58.151 15.6979 58.2031 15.6133C58.2943 15.457 58.3398 15.151 58.3398 14.6953V8.93359C58.3398 7.82682 58.0111 7.20833 57.3535 7.07812C57.1517 7.03906 56.8978 7.01953 56.5918 7.01953C56.2923 7.01953 55.9603 7.0651 55.5957 7.15625C55.2311 7.2474 54.8893 7.36458 54.5703 7.50781C53.9583 7.78125 53.444 8.1263 53.0273 8.54297V14.8613C53.0469 15.3691 53.2324 15.6816 53.584 15.7988C53.6882 15.8314 53.8086 15.8607 53.9453 15.8867C54.0885 15.9128 54.2188 15.9453 54.3359 15.9844C54.4531 16.0169 54.5443 16.056 54.6094 16.1016C54.7201 16.1862 54.7754 16.3229 54.7754 16.5117C54.7754 16.7396 54.7233 16.9186 54.6191 17.0488ZM67.5 13.1035C67.2526 13.3509 67.1289 13.5918 67.1289 13.8262C67.1289 14.0605 67.1973 14.2396 67.334 14.3633C67.4707 14.4805 67.6497 14.5716 67.8711 14.6367C68.2096 14.7279 68.584 14.7734 68.9941 14.7734H69.834C71.9564 14.7734 73.3529 15.2812 74.0234 16.2969C74.2708 16.6745 74.3945 17.1335 74.3945 17.6738C74.3945 18.2207 74.3034 18.6992 74.1211 19.1094C73.9388 19.5195 73.6947 19.8809 73.3887 20.1934C73.0827 20.5124 72.7279 20.7858 72.3242 21.0137C71.9206 21.2415 71.4941 21.4271 71.0449 21.5703C70.166 21.8633 69.3457 22.0098 68.584 22.0098C67.8223 22.0098 67.1549 21.9479 66.582 21.8242C66.0156 21.707 65.5111 21.5215 65.0684 21.2676C64.1113 20.7142 63.6328 19.9199 63.6328 18.8848C63.6328 18.0059 64.0723 17.2181 64.9512 16.5215C65.2181 16.3132 65.5013 16.1276 65.8008 15.9648C65.4492 15.6719 65.2734 15.278 65.2734 14.7832C65.2734 14.0085 65.6576 13.3574 66.4258 12.8301C65.2995 12.4004 64.5605 11.6322 64.209 10.5254C64.0983 10.1608 64.043 9.75391 64.043 9.30469C64.043 8.85547 64.1113 8.43229 64.248 8.03516C64.3913 7.63802 64.5833 7.2832 64.8242 6.9707C65.0716 6.6582 65.3581 6.38477 65.6836 6.15039C66.0091 5.91602 66.3574 5.7207 66.7285 5.56445C67.4577 5.25195 68.2227 5.0957 69.0234 5.0957C70.3451 5.0957 71.3997 5.42773 72.1875 6.0918C72.2721 5.76628 72.3145 5.43099 72.3145 5.08594C72.3145 4.74089 72.2396 4.46094 72.0898 4.24609C72.3438 3.94661 72.7214 3.79688 73.2227 3.79688C73.5091 3.79688 73.737 3.875 73.9062 4.03125C74.2318 4.3112 74.3945 4.59115 74.3945 4.87109C74.3945 5.14453 74.3522 5.38542 74.2676 5.59375C74.1829 5.79557 74.0723 5.98763 73.9355 6.16992C73.6947 6.50846 73.3822 6.81445 72.998 7.08789C73.2585 7.57617 73.3887 8.14258 73.3887 8.78711C73.3887 9.42513 73.2454 10.0208 72.959 10.5742C72.679 11.1211 72.3014 11.5866 71.8262 11.9707C70.8496 12.7585 69.6452 13.1523 68.2129 13.1523C68.0176 13.1523 67.7799 13.1361 67.5 13.1035ZM67.0215 11.0234C67.2559 11.2513 67.5228 11.4206 67.8223 11.5312C68.1217 11.6419 68.4408 11.6973 68.7793 11.6973C69.1243 11.6973 69.4466 11.6484 69.7461 11.5508C70.0521 11.4531 70.3158 11.3099 70.5371 11.1211C71.0124 10.7174 71.25 10.1445 71.25 9.40234C71.25 8.58203 71.0384 7.89844 70.6152 7.35156C70.1335 6.74609 69.4564 6.44336 68.584 6.44336C67.4837 6.44336 66.7708 6.89258 66.4453 7.79102C66.3346 8.09701 66.2793 8.47461 66.2793 8.92383C66.2793 9.37305 66.3444 9.77669 66.4746 10.1348C66.6113 10.4928 66.7936 10.7891 67.0215 11.0234ZM67.0312 16.541C66.1784 17.1204 65.752 17.778 65.752 18.5137C65.752 19.1517 66.123 19.6367 66.8652 19.9688C67.4577 20.2422 68.1868 20.3789 69.0527 20.3789C69.8405 20.3789 70.5697 20.2487 71.2402 19.9883C72.1191 19.6432 72.5586 19.0801 72.5586 18.2988C72.5586 17.2507 71.709 16.7266 70.0098 16.7266L69.1406 16.7363C68.2552 16.7363 67.5521 16.6712 67.0312 16.541ZM82.6465 8.5625C82.6465 7.5599 82.2298 6.89583 81.3965 6.57031C81.1296 6.46615 80.8398 6.41406 80.5273 6.41406C80.2214 6.41406 79.9349 6.4401 79.668 6.49219C79.4076 6.54427 79.1764 6.62565 78.9746 6.73633C78.5189 6.98372 78.291 7.33854 78.291 7.80078C78.291 8.24349 78.4798 8.6276 78.8574 8.95312C79.2741 9.29818 80.0488 9.72461 81.1816 10.2324C82.3145 10.7337 83.1868 11.2839 83.7988 11.8828C84.4173 12.4753 84.7266 13.1589 84.7266 13.9336C84.7266 14.806 84.3685 15.5417 83.6523 16.1406C82.8125 16.8372 81.6504 17.1855 80.166 17.1855C78.3496 17.1855 77.0931 16.7982 76.3965 16.0234C76.1556 15.75 76.0352 15.4017 76.0352 14.9785C76.0352 13.9564 76.2858 13.3607 76.7871 13.1914C76.9108 13.1523 77.028 13.1328 77.1387 13.1328C77.4447 13.1328 77.6107 13.2272 77.6367 13.416C77.7799 15.0436 78.6914 15.8574 80.3711 15.8574C81.3802 15.8574 82.054 15.5742 82.3926 15.0078C82.5033 14.8255 82.5586 14.6042 82.5586 14.3438C82.5586 14.0833 82.474 13.8457 82.3047 13.6309C82.1419 13.416 81.9141 13.2174 81.6211 13.0352C81.3281 12.8464 80.9798 12.6641 80.5762 12.4883L79.2773 11.9023C77.2852 10.9909 76.2891 9.77995 76.2891 8.26953C76.2891 7.29297 76.722 6.51172 77.5879 5.92578C78.4082 5.3724 79.4661 5.0957 80.7617 5.0957C82.5195 5.0957 83.6133 5.47656 84.043 6.23828C84.1536 6.43359 84.209 6.64844 84.209 6.88281C84.209 7.11719 84.196 7.32878 84.1699 7.51758C84.1439 7.69987 84.1113 7.86589 84.0723 8.01562C84.0072 8.30208 83.9323 8.50391 83.8477 8.62109C83.6784 8.74479 83.4342 8.80664 83.1152 8.80664C82.8027 8.80664 82.6465 8.72526 82.6465 8.5625Z" fill="black"/>
</svg>
