<svg width="1749" height="849" viewBox="0 0 1749 849" fill="none" xmlns="http://www.w3.org/2000/svg">
<path d="M1674.51 828.297L1640.32 847.928L1606.22 828.136L1606.32 788.714L1640.5 769.083L1674.6 788.875L1674.51 828.297Z" fill="#EAEAEA" stroke="white"/>
<path d="M1640.4 769.215L1606.21 788.846L1572.12 769.054L1572.21 729.631L1606.4 710.001L1640.49 729.792L1640.4 769.215Z" fill="#EAEAEA" stroke="white"/>
<path d="M1674.4 710.215L1640.21 729.846L1606.12 710.054L1606.21 670.631L1640.4 651.001L1674.49 670.792L1674.4 710.215Z" fill="#EAEAEA" stroke="white"/>
<path d="M1640.4 651.215L1606.21 670.846L1572.12 651.054L1572.21 611.631L1606.4 592.001L1640.49 611.792L1640.4 651.215Z" fill="#EAEAEA" stroke="white"/>
<path d="M1674.4 592.215L1640.21 611.846L1606.12 592.054L1606.21 552.631L1640.4 533.001L1674.49 552.792L1674.4 592.215Z" fill="#EAEAEA" stroke="white"/>
<path d="M1640.29 533.133L1606.11 552.763L1572.01 532.972L1572.11 493.549L1606.29 473.918L1640.39 493.71L1640.29 533.133Z" fill="#EAEAEA" stroke="white"/>
<path d="M1674.4 474.215L1640.21 493.846L1606.12 474.054L1606.21 434.631L1640.4 415.001L1674.49 434.792L1674.4 474.215Z" fill="#EAEAEA" stroke="white"/>
<path d="M1640.29 415.133L1606.11 434.763L1572.01 414.972L1572.11 375.549L1606.29 355.918L1640.39 375.71L1640.29 415.133Z" fill="#EAEAEA" stroke="white"/>
<path d="M1674.29 356.133L1640.11 375.763L1606.01 355.972L1606.11 316.549L1640.29 296.918L1674.39 316.71L1674.29 356.133Z" fill="#EAEAEA" stroke="white"/>
<path d="M1640.29 297.133L1606.11 316.763L1572.01 296.972L1572.11 257.549L1606.29 237.918L1640.39 257.71L1640.29 297.133Z" fill="#FE5151" stroke="white"/>
<path d="M1674.29 238.133L1640.11 257.763L1606.01 237.972L1606.11 198.549L1640.29 178.918L1674.39 198.71L1674.29 238.133Z" fill="#EAEAEA" stroke="white"/>
<path d="M1742.4 828.215L1708.21 847.846L1674.12 828.054L1674.21 788.631L1708.4 769.001L1742.49 788.792L1742.4 828.215Z" fill="#EAEAEA" stroke="white"/>
<path d="M1708.29 769.133L1674.11 788.763L1640.01 768.972L1640.11 729.549L1674.29 709.918L1708.39 729.71L1708.29 769.133Z" fill="#EAEAEA" stroke="white"/>
<path d="M1742.29 710.133L1708.11 729.763L1674.01 709.972L1674.11 670.549L1708.29 650.918L1742.39 670.71L1742.29 710.133Z" fill="#EAEAEA" stroke="white"/>
<path d="M1708.29 651.133L1674.11 670.763L1640.01 650.972L1640.11 611.549L1674.29 591.918L1708.39 611.71L1708.29 651.133Z" fill="#FE5151" stroke="white"/>
<path d="M1742.29 592.133L1708.11 611.763L1674.01 591.972L1674.11 552.549L1708.29 532.918L1742.39 552.71L1742.29 592.133Z" fill="#EAEAEA" stroke="white"/>
<path d="M1708.19 533.05L1674 552.681L1639.91 532.889L1640 493.467L1674.19 473.836L1708.28 493.628L1708.19 533.05Z" fill="#FE5151" stroke="white"/>
<path d="M1742.29 474.133L1708.11 493.763L1674.01 473.972L1674.11 434.549L1708.29 414.918L1742.39 434.71L1742.29 474.133Z" fill="#EAEAEA" stroke="white"/>
<path d="M1708.19 415.05L1674 434.681L1639.91 414.889L1640 375.467L1674.19 355.836L1708.28 375.628L1708.19 415.05Z" fill="#EAEAEA" stroke="white"/>
<path d="M1742.19 356.05L1708 375.681L1673.91 355.889L1674 316.467L1708.19 296.836L1742.28 316.628L1742.19 356.05Z" fill="#EAEAEA" stroke="white"/>
<path d="M1708.19 297.05L1674 316.681L1639.91 296.889L1640 257.467L1674.19 237.836L1708.28 257.628L1708.19 297.05Z" fill="#EAEAEA" stroke="white"/>
<path d="M1742.19 238.05L1708 257.681L1673.91 237.889L1674 198.467L1708.19 178.836L1742.28 198.628L1742.19 238.05Z" fill="#FE5151" stroke="white"/>
<path d="M1606.4 828.215L1572.21 847.846L1538.12 828.054L1538.21 788.631L1572.4 769.001L1606.49 788.792L1606.4 828.215Z" fill="#EAEAEA" stroke="white"/>
<path d="M1572.29 769.133L1538.11 788.763L1504.01 768.972L1504.11 729.549L1538.29 709.918L1572.39 729.71L1572.29 769.133Z" fill="#EAEAEA" stroke="white"/>
<path d="M1606.29 710.133L1572.11 729.763L1538.01 709.972L1538.11 670.549L1572.29 650.918L1606.39 670.71L1606.29 710.133Z" fill="#EAEAEA" stroke="white"/>
<path d="M1572.29 651.133L1538.11 670.763L1504.01 650.972L1504.11 611.549L1538.29 591.918L1572.39 611.71L1572.29 651.133Z" fill="#EAEAEA" stroke="white"/>
<path d="M1606.29 592.133L1572.11 611.763L1538.01 591.972L1538.11 552.549L1572.29 532.918L1606.39 552.71L1606.29 592.133Z" fill="#EAEAEA" stroke="white"/>
<path d="M1572.19 533.05L1538 552.681L1503.91 532.889L1504 493.467L1538.19 473.836L1572.28 493.628L1572.19 533.05Z" fill="#EAEAEA" stroke="white"/>
<path d="M1606.29 474.133L1572.11 493.763L1538.01 473.972L1538.11 434.549L1572.29 414.918L1606.39 434.71L1606.29 474.133Z" fill="#EAEAEA" stroke="white"/>
<path d="M1572.19 415.05L1538 434.681L1503.91 414.889L1504 375.467L1538.19 355.836L1572.28 375.628L1572.19 415.05Z" fill="#EAEAEA" stroke="white"/>
<path d="M1606.19 356.05L1572 375.681L1537.91 355.889L1538 316.467L1572.19 296.836L1606.28 316.628L1606.19 356.05Z" fill="#EAEAEA" stroke="white"/>
<path d="M1572.19 297.05L1538 316.681L1503.91 296.889L1504 257.467L1538.19 237.836L1572.28 257.628L1572.19 297.05Z" fill="#EAEAEA" stroke="white"/>
<path d="M1606.19 238.05L1572 257.681L1537.91 237.889L1538 198.467L1572.19 178.836L1606.28 198.628L1606.19 238.05Z" fill="#EAEAEA" stroke="white"/>
<path d="M1538.4 828.215L1504.21 847.846L1470.12 828.054L1470.21 788.631L1504.4 769.001L1538.49 788.792L1538.4 828.215Z" fill="#EAEAEA" stroke="white"/>
<path d="M1504.29 769.133L1470.11 788.763L1436.01 768.972L1436.11 729.549L1470.29 709.918L1504.39 729.71L1504.29 769.133Z" fill="#EAEAEA" stroke="white"/>
<path d="M1538.29 710.133L1504.11 729.763L1470.01 709.972L1470.11 670.549L1504.29 650.918L1538.39 670.71L1538.29 710.133Z" fill="#EAEAEA" stroke="white"/>
<path d="M1504.29 651.133L1470.11 670.763L1436.01 650.972L1436.11 611.549L1470.29 591.918L1504.39 611.71L1504.29 651.133Z" fill="#EAEAEA" stroke="white"/>
<path d="M1538.29 592.133L1504.11 611.763L1470.01 591.972L1470.11 552.549L1504.29 532.918L1538.39 552.71L1538.29 592.133Z" fill="#EAEAEA" stroke="white"/>
<path d="M1504.19 533.05L1470 552.681L1435.91 532.889L1436 493.467L1470.19 473.836L1504.28 493.628L1504.19 533.05Z" fill="#EAEAEA" stroke="white"/>
<path d="M1538.29 474.133L1504.11 493.763L1470.01 473.972L1470.11 434.549L1504.29 414.918L1538.39 434.71L1538.29 474.133Z" fill="#EAEAEA" stroke="white"/>
<path d="M1504.19 415.05L1470 434.681L1435.91 414.889L1436 375.467L1470.19 355.836L1504.28 375.628L1504.19 415.05Z" fill="#EAEAEA" stroke="white"/>
<path d="M1538.19 356.05L1504 375.681L1469.91 355.889L1470 316.467L1504.19 296.836L1538.28 316.628L1538.19 356.05Z" fill="#EAEAEA" stroke="white"/>
<path d="M1504.19 297.05L1470 316.681L1435.91 296.889L1436 257.467L1470.19 237.836L1504.28 257.628L1504.19 297.05Z" fill="#FE5151" stroke="white"/>
<path d="M1538.19 238.05L1504 257.681L1469.91 237.889L1470 198.467L1504.19 178.836L1538.28 198.628L1538.19 238.05Z" fill="#EAEAEA" stroke="white"/>
<path d="M1470.29 828.133L1436.11 847.763L1402.01 827.972L1402.11 788.549L1436.29 768.918L1470.39 788.71L1470.29 828.133Z" fill="#EAEAEA" stroke="white"/>
<path d="M1436.19 769.05L1402 788.681L1367.91 768.889L1368 729.467L1402.19 709.836L1436.28 729.628L1436.19 769.05Z" fill="#EAEAEA" stroke="white"/>
<path d="M1470.19 710.05L1436 729.681L1401.91 709.889L1402 670.467L1436.19 650.836L1470.28 670.628L1470.19 710.05Z" fill="#FE5151" stroke="white"/>
<path d="M1436.19 651.05L1402 670.681L1367.91 650.889L1368 611.467L1402.19 591.836L1436.28 611.628L1436.19 651.05Z" fill="#EAEAEA" stroke="white"/>
<path d="M1470.19 592.05L1436 611.681L1401.91 591.889L1402 552.467L1436.19 532.836L1470.28 552.628L1470.19 592.05Z" fill="#FE5151" stroke="white"/>
<path d="M1436.08 532.968L1401.9 552.599L1367.8 532.807L1367.89 493.385L1402.08 473.754L1436.18 493.546L1436.08 532.968Z" fill="#EAEAEA" stroke="white"/>
<path d="M1470.19 474.05L1436 493.681L1401.91 473.889L1402 434.467L1436.19 414.836L1470.28 434.628L1470.19 474.05Z" fill="#EAEAEA" stroke="white"/>
<path d="M1436.08 414.968L1401.9 434.599L1367.8 414.807L1367.89 375.385L1402.08 355.754L1436.18 375.546L1436.08 414.968Z" fill="#EAEAEA" stroke="white"/>
<path d="M1470.08 355.968L1435.9 375.599L1401.8 355.807L1401.89 316.385L1436.08 296.754L1470.18 316.546L1470.08 355.968Z" fill="#EAEAEA" stroke="white"/>
<path d="M1436.08 296.968L1401.9 316.599L1367.8 296.807L1367.89 257.385L1402.08 237.754L1436.18 257.546L1436.08 296.968Z" fill="#EAEAEA" stroke="white"/>
<path d="M1470.08 237.968L1435.9 257.599L1401.8 237.807L1401.89 198.385L1436.08 178.754L1470.18 198.546L1470.08 237.968Z" fill="#EAEAEA" stroke="white"/>
<path d="M1402.4 828.215L1368.21 847.846L1334.12 828.054L1334.21 788.631L1368.4 769.001L1402.49 788.792L1402.4 828.215Z" fill="#EAEAEA" stroke="white"/>
<path d="M1368.29 769.133L1334.11 788.763L1300.01 768.972L1300.11 729.549L1334.29 709.918L1368.39 729.71L1368.29 769.133Z" fill="#EAEAEA" stroke="white"/>
<path d="M1402.29 710.133L1368.11 729.763L1334.01 709.972L1334.11 670.549L1368.29 650.918L1402.39 670.71L1402.29 710.133Z" fill="#EAEAEA" stroke="white"/>
<path d="M1368.29 651.133L1334.11 670.763L1300.01 650.972L1300.11 611.549L1334.29 591.918L1368.39 611.71L1368.29 651.133Z" fill="#EAEAEA" stroke="white"/>
<path d="M1402.29 592.133L1368.11 611.763L1334.01 591.972L1334.11 552.549L1368.29 532.918L1402.39 552.71L1402.29 592.133Z" fill="#EAEAEA" stroke="white"/>
<path d="M1368.19 533.05L1334 552.681L1299.91 532.889L1300 493.467L1334.19 473.836L1368.28 493.628L1368.19 533.05Z" fill="#EAEAEA" stroke="white"/>
<path d="M1402.29 474.133L1368.11 493.763L1334.01 473.972L1334.11 434.549L1368.29 414.918L1402.39 434.71L1402.29 474.133Z" fill="#EAEAEA" stroke="white"/>
<path d="M1368.19 415.05L1334 434.681L1299.91 414.889L1300 375.467L1334.19 355.836L1368.28 375.628L1368.19 415.05Z" fill="#FE5151" stroke="white"/>
<path d="M1402.19 356.05L1368 375.681L1333.91 355.889L1334 316.467L1368.19 296.836L1402.28 316.628L1402.19 356.05Z" fill="#EAEAEA" stroke="white"/>
<path d="M1368.19 297.05L1334 316.681L1299.91 296.889L1300 257.467L1334.19 237.836L1368.28 257.628L1368.19 297.05Z" fill="#EAEAEA" stroke="white"/>
<path d="M1402.19 238.05L1368 257.681L1333.91 237.889L1334 198.467L1368.19 178.836L1402.28 198.628L1402.19 238.05Z" fill="#EAEAEA" stroke="white"/>
<path d="M1334.29 828.133L1300.11 847.763L1266.01 827.972L1266.11 788.549L1300.29 768.918L1334.39 788.71L1334.29 828.133Z" fill="#EAEAEA" stroke="white"/>
<path d="M1300.19 769.05L1266 788.681L1231.91 768.889L1232 729.467L1266.19 709.836L1300.28 729.628L1300.19 769.05Z" fill="#EAEAEA" stroke="white"/>
<path d="M1334.19 710.05L1300 729.681L1265.91 709.889L1266 670.467L1300.19 650.836L1334.28 670.628L1334.19 710.05Z" fill="#EAEAEA" stroke="white"/>
<path d="M1300.19 651.05L1266 670.681L1231.91 650.889L1232 611.467L1266.19 591.836L1300.28 611.628L1300.19 651.05Z" fill="#EAEAEA" stroke="white"/>
<path d="M1334.19 592.05L1300 611.681L1265.91 591.889L1266 552.467L1300.19 532.836L1334.28 552.628L1334.19 592.05Z" fill="#EAEAEA" stroke="white"/>
<path d="M1300.08 532.968L1265.9 552.599L1231.8 532.807L1231.89 493.385L1266.08 473.754L1300.18 493.546L1300.08 532.968Z" fill="#EAEAEA" stroke="white"/>
<path d="M1334.19 474.05L1300 493.681L1265.91 473.889L1266 434.467L1300.19 414.836L1334.28 434.628L1334.19 474.05Z" fill="#EAEAEA" stroke="white"/>
<path d="M1300.08 414.968L1265.9 434.599L1231.8 414.807L1231.89 375.385L1266.08 355.754L1300.18 375.546L1300.08 414.968Z" fill="#EAEAEA" stroke="white"/>
<path d="M1334.08 355.968L1299.9 375.599L1265.8 355.807L1265.89 316.385L1300.08 296.754L1334.18 316.546L1334.08 355.968Z" fill="#EAEAEA" stroke="white"/>
<path d="M1300.08 296.968L1265.9 316.599L1231.8 296.807L1231.89 257.385L1266.08 237.754L1300.18 257.546L1300.08 296.968Z" fill="#EAEAEA" stroke="white"/>
<path d="M1334.08 237.968L1299.9 257.599L1265.8 237.807L1265.89 198.385L1300.08 178.754L1334.18 198.546L1334.08 237.968Z" fill="#EAEAEA" stroke="white"/>
<path d="M1266.29 828.133L1232.11 847.763L1198.01 827.972L1198.11 788.549L1232.29 768.918L1266.39 788.71L1266.29 828.133Z" fill="#EAEAEA" stroke="white"/>
<path d="M1232.19 769.05L1198 788.681L1163.91 768.889L1164 729.467L1198.19 709.836L1232.28 729.628L1232.19 769.05Z" fill="#EAEAEA" stroke="white"/>
<path d="M1266.19 710.05L1232 729.681L1197.91 709.889L1198 670.467L1232.19 650.836L1266.28 670.628L1266.19 710.05Z" fill="#FE5151" stroke="white"/>
<path d="M1232.19 651.05L1198 670.681L1163.91 650.889L1164 611.467L1198.19 591.836L1232.28 611.628L1232.19 651.05Z" fill="#EAEAEA" stroke="white"/>
<path d="M1266.19 592.05L1232 611.681L1197.91 591.889L1198 552.467L1232.19 532.836L1266.28 552.628L1266.19 592.05Z" fill="#EAEAEA" stroke="white"/>
<path d="M1232.08 532.968L1197.9 552.599L1163.8 532.807L1163.89 493.385L1198.08 473.754L1232.18 493.546L1232.08 532.968Z" fill="#EAEAEA" stroke="white"/>
<path d="M1266.19 474.05L1232 493.681L1197.91 473.889L1198 434.467L1232.19 414.836L1266.28 434.628L1266.19 474.05Z" fill="#EAEAEA" stroke="white"/>
<path d="M1232.08 414.968L1197.9 434.599L1163.8 414.807L1163.89 375.385L1198.08 355.754L1232.18 375.546L1232.08 414.968Z" fill="#EAEAEA" stroke="white"/>
<path d="M1266.08 355.968L1231.9 375.599L1197.8 355.807L1197.89 316.385L1232.08 296.754L1266.18 316.546L1266.08 355.968Z" fill="#EAEAEA" stroke="white"/>
<path d="M1232.08 296.968L1197.9 316.599L1163.8 296.807L1163.89 257.385L1198.08 237.754L1232.18 257.546L1232.08 296.968Z" fill="#EAEAEA" stroke="white"/>
<path d="M1266.08 237.968L1231.9 257.599L1197.8 237.807L1197.89 198.385L1232.08 178.754L1266.18 198.546L1266.08 237.968Z" fill="#EAEAEA" stroke="white"/>
<path d="M1198.19 828.05L1164 847.681L1129.91 827.889L1130 788.467L1164.19 768.836L1198.28 788.628L1198.19 828.05Z" fill="#EAEAEA" stroke="white"/>
<path d="M1164.08 768.968L1129.9 788.599L1095.8 768.807L1095.89 729.385L1130.08 709.754L1164.18 729.546L1164.08 768.968Z" fill="#EAEAEA" stroke="white"/>
<path d="M1198.08 709.968L1163.9 729.599L1129.8 709.807L1129.89 670.385L1164.08 650.754L1198.18 670.546L1198.08 709.968Z" fill="#EAEAEA" stroke="white"/>
<path d="M1164.08 650.968L1129.9 670.599L1095.8 650.807L1095.89 611.385L1130.08 591.754L1164.18 611.546L1164.08 650.968Z" fill="#EAEAEA" stroke="white"/>
<path d="M1198.08 591.968L1163.9 611.599L1129.8 591.807L1129.89 552.385L1164.08 532.754L1198.18 552.546L1198.08 591.968Z" fill="#FE5151" stroke="white"/>
<path d="M1163.98 532.886L1129.79 552.517L1095.7 532.725L1095.79 493.302L1129.98 473.672L1164.07 493.463L1163.98 532.886Z" fill="#EAEAEA" stroke="white"/>
<path d="M1198.08 473.968L1163.9 493.599L1129.8 473.807L1129.89 434.385L1164.08 414.754L1198.18 434.546L1198.08 473.968Z" fill="#EAEAEA" stroke="white"/>
<path d="M1163.98 414.886L1129.79 434.517L1095.7 414.725L1095.79 375.302L1129.98 355.672L1164.07 375.463L1163.98 414.886Z" fill="#EAEAEA" stroke="white"/>
<path d="M1197.98 355.886L1163.79 375.517L1129.7 355.725L1129.79 316.302L1163.98 296.672L1198.07 316.463L1197.98 355.886Z" fill="#FE5151" stroke="white"/>
<path d="M1163.98 296.886L1129.79 316.517L1095.7 296.725L1095.79 257.302L1129.98 237.672L1164.07 257.463L1163.98 296.886Z" fill="#EAEAEA" stroke="white"/>
<path d="M1197.98 237.886L1163.79 257.517L1129.7 237.725L1129.79 198.302L1163.98 178.672L1198.07 198.463L1197.98 237.886Z" fill="#EAEAEA" stroke="white"/>
<path d="M1130.4 828.215L1096.21 847.846L1062.12 828.054L1062.21 788.631L1096.4 769.001L1130.49 788.792L1130.4 828.215Z" fill="#EAEAEA" stroke="white"/>
<path d="M1096.29 769.133L1062.11 788.763L1028.01 768.972L1028.11 729.549L1062.29 709.918L1096.39 729.71L1096.29 769.133Z" fill="#EAEAEA" stroke="white"/>
<path d="M1130.29 710.133L1096.11 729.763L1062.01 709.972L1062.11 670.549L1096.29 650.918L1130.39 670.71L1130.29 710.133Z" fill="#EAEAEA" stroke="white"/>
<path d="M1096.29 651.133L1062.11 670.763L1028.01 650.972L1028.11 611.549L1062.29 591.918L1096.39 611.71L1096.29 651.133Z" fill="#EAEAEA" stroke="white"/>
<path d="M1130.29 592.133L1096.11 611.763L1062.01 591.972L1062.11 552.549L1096.29 532.918L1130.39 552.71L1130.29 592.133Z" fill="#EAEAEA" stroke="white"/>
<path d="M1096.19 533.05L1062 552.681L1027.91 532.889L1028 493.467L1062.19 473.836L1096.28 493.628L1096.19 533.05Z" fill="#EAEAEA" stroke="white"/>
<path d="M1130.29 474.133L1096.11 493.763L1062.01 473.972L1062.11 434.549L1096.29 414.918L1130.39 434.71L1130.29 474.133Z" fill="#EAEAEA" stroke="white"/>
<path d="M1096.19 415.05L1062 434.681L1027.91 414.889L1028 375.467L1062.19 355.836L1096.28 375.628L1096.19 415.05Z" fill="#EAEAEA" stroke="white"/>
<path d="M1130.19 356.05L1096 375.681L1061.91 355.889L1062 316.467L1096.19 296.836L1130.28 316.628L1130.19 356.05Z" fill="#EAEAEA" stroke="white"/>
<path d="M1096.19 297.05L1062 316.681L1027.91 296.889L1028 257.467L1062.19 237.836L1096.28 257.628L1096.19 297.05Z" fill="#EAEAEA" stroke="white"/>
<path d="M1130.19 238.05L1096 257.681L1061.91 237.889L1062 198.467L1096.19 178.836L1130.28 198.628L1130.19 238.05Z" fill="#EAEAEA" stroke="white"/>
<path d="M1062.29 828.133L1028.11 847.763L994.012 827.972L994.105 788.549L1028.29 768.918L1062.39 788.71L1062.29 828.133Z" fill="#EAEAEA" stroke="white"/>
<path d="M1028.19 769.05L994.001 788.681L959.907 768.889L960 729.467L994.187 709.836L1028.28 729.628L1028.19 769.05Z" fill="#EAEAEA" stroke="white"/>
<path d="M1062.19 710.05L1028 729.681L993.907 709.889L994 670.467L1028.19 650.836L1062.28 670.628L1062.19 710.05Z" fill="#FE5151" stroke="white"/>
<path d="M1028.19 651.05L994.001 670.681L959.907 650.889L960 611.467L994.187 591.836L1028.28 611.628L1028.19 651.05Z" fill="#EAEAEA" stroke="white"/>
<path d="M1062.19 592.05L1028 611.681L993.907 591.889L994 552.467L1028.19 532.836L1062.28 552.628L1062.19 592.05Z" fill="#EAEAEA" stroke="white"/>
<path d="M1028.08 532.968L993.896 552.599L959.802 532.807L959.894 493.385L994.082 473.754L1028.18 493.546L1028.08 532.968Z" fill="#EAEAEA" stroke="white"/>
<path d="M1062.19 474.05L1028 493.681L993.907 473.889L994 434.467L1028.19 414.836L1062.28 434.628L1062.19 474.05Z" fill="#EAEAEA" stroke="white"/>
<path d="M1028.08 414.968L993.896 434.599L959.802 414.807L959.894 375.385L994.082 355.754L1028.18 375.546L1028.08 414.968Z" fill="#FE5151" stroke="white"/>
<path d="M1062.08 355.968L1027.9 375.599L993.802 355.807L993.894 316.385L1028.08 296.754L1062.18 316.546L1062.08 355.968Z" fill="#EAEAEA" stroke="white"/>
<path d="M1028.08 296.968L993.896 316.599L959.802 296.807L959.894 257.385L994.082 237.754L1028.18 257.546L1028.08 296.968Z" fill="#EAEAEA" stroke="white"/>
<path d="M1062.08 237.968L1027.9 257.599L993.802 237.807L993.894 198.385L1028.08 178.754L1062.18 198.546L1062.08 237.968Z" fill="#FE5151" stroke="white"/>
<path d="M994.294 828.133L960.107 847.763L926.012 827.972L926.105 788.549L960.293 768.918L994.387 788.71L994.294 828.133Z" fill="#EAEAEA" stroke="white"/>
<path d="M960.189 769.05L926.001 788.681L891.907 768.889L892 729.467L926.187 709.836L960.282 729.628L960.189 769.05Z" fill="#EAEAEA" stroke="white"/>
<path d="M994.189 710.05L960.001 729.681L925.907 709.889L926 670.467L960.187 650.836L994.282 670.628L994.189 710.05Z" fill="#EAEAEA" stroke="white"/>
<path d="M960.189 651.05L926.001 670.681L891.907 650.889L892 611.467L926.187 591.836L960.282 611.628L960.189 651.05Z" fill="#EAEAEA" stroke="white"/>
<path d="M994.189 592.05L960.001 611.681L925.907 591.889L926 552.467L960.187 532.836L994.282 552.628L994.189 592.05Z" fill="#EAEAEA" stroke="white"/>
<path d="M960.083 532.968L925.896 552.599L891.802 532.807L891.894 493.385L926.082 473.754L960.176 493.546L960.083 532.968Z" fill="#EAEAEA" stroke="white"/>
<path d="M994.189 474.05L960.001 493.681L925.907 473.889L926 434.467L960.187 414.836L994.282 434.628L994.189 474.05Z" fill="#FE5151" stroke="white"/>
<path d="M960.083 414.968L925.896 434.599L891.802 414.807L891.894 375.385L926.082 355.754L960.176 375.546L960.083 414.968Z" fill="#EAEAEA" stroke="white"/>
<path d="M994.083 355.968L959.896 375.599L925.802 355.807L925.894 316.385L960.082 296.754L994.176 316.546L994.083 355.968Z" fill="#EAEAEA" stroke="white"/>
<path d="M960.083 296.968L925.896 316.599L891.802 296.807L891.894 257.385L926.082 237.754L960.176 257.546L960.083 296.968Z" fill="#EAEAEA" stroke="white"/>
<path d="M994.083 237.968L959.896 257.599L925.802 237.807L925.894 198.385L960.082 178.754L994.176 198.546L994.083 237.968Z" fill="#EAEAEA" stroke="white"/>
<path d="M926.189 828.05L892.001 847.681L857.907 827.889L858 788.467L892.187 768.836L926.282 788.628L926.189 828.05Z" fill="#EAEAEA" stroke="white"/>
<path d="M892.083 768.968L857.896 788.599L823.802 768.807L823.894 729.385L858.082 709.754L892.176 729.546L892.083 768.968Z" fill="#EAEAEA" stroke="white"/>
<path d="M926.083 709.968L891.896 729.599L857.802 709.807L857.894 670.385L892.082 650.754L926.176 670.546L926.083 709.968Z" fill="#EAEAEA" stroke="white"/>
<path d="M892.083 650.968L857.896 670.599L823.802 650.807L823.894 611.385L858.082 591.754L892.176 611.546L892.083 650.968Z" fill="#EAEAEA" stroke="white"/>
<path d="M926.083 591.968L891.896 611.599L857.802 591.807L857.894 552.385L892.082 532.754L926.176 552.546L926.083 591.968Z" fill="#EAEAEA" stroke="white"/>
<path d="M891.978 532.886L857.791 552.517L823.696 532.725L823.789 493.302L857.976 473.672L892.071 493.463L891.978 532.886Z" fill="#EAEAEA" stroke="white"/>
<path d="M926.083 473.968L891.896 493.599L857.802 473.807L857.894 434.385L892.082 414.754L926.176 434.546L926.083 473.968Z" fill="#EAEAEA" stroke="white"/>
<path d="M891.978 414.886L857.791 434.517L823.696 414.725L823.789 375.302L857.976 355.672L892.071 375.463L891.978 414.886Z" fill="#EAEAEA" stroke="white"/>
<path d="M925.978 355.886L891.791 375.517L857.696 355.725L857.789 316.302L891.976 296.672L926.071 316.463L925.978 355.886Z" fill="#EAEAEA" stroke="white"/>
<path d="M891.978 296.886L857.791 316.517L823.696 296.725L823.789 257.302L857.976 237.672L892.071 257.463L891.978 296.886Z" fill="#EAEAEA" stroke="white"/>
<path d="M925.978 237.886L891.791 257.517L857.696 237.725L857.789 198.302L891.976 178.672L926.071 198.463L925.978 237.886Z" fill="#FE5151" stroke="white"/>
<path d="M858.294 828.133L824.107 847.763L790.012 827.972L790.105 788.549L824.293 768.918L858.387 788.71L858.294 828.133Z" fill="#EAEAEA" stroke="white"/>
<path d="M824.189 769.05L790.001 788.681L755.907 768.889L756 729.467L790.187 709.836L824.282 729.628L824.189 769.05Z" fill="#EAEAEA" stroke="white"/>
<path d="M858.189 710.05L824.001 729.681L789.907 709.889L790 670.467L824.187 650.836L858.282 670.628L858.189 710.05Z" fill="#EAEAEA" stroke="white"/>
<path d="M824.189 651.05L790.001 670.681L755.907 650.889L756 611.467L790.187 591.836L824.282 611.628L824.189 651.05Z" fill="#EAEAEA" stroke="white"/>
<path d="M858.189 592.05L824.001 611.681L789.907 591.889L790 552.467L824.187 532.836L858.282 552.628L858.189 592.05Z" fill="#FE5151" stroke="white"/>
<path d="M824.083 532.968L789.896 552.599L755.802 532.807L755.894 493.385L790.082 473.754L824.176 493.546L824.083 532.968Z" fill="#EAEAEA" stroke="white"/>
<path d="M858.189 474.05L824.001 493.681L789.907 473.889L790 434.467L824.187 414.836L858.282 434.628L858.189 474.05Z" fill="#EAEAEA" stroke="white"/>
<path d="M824.083 414.968L789.896 434.599L755.802 414.807L755.894 375.385L790.082 355.754L824.176 375.546L824.083 414.968Z" fill="#EAEAEA" stroke="white"/>
<path d="M858.083 355.968L823.896 375.599L789.802 355.807L789.894 316.385L824.082 296.754L858.176 316.546L858.083 355.968Z" fill="#EAEAEA" stroke="white"/>
<path d="M824.083 296.968L789.896 316.599L755.802 296.807L755.894 257.385L790.082 237.754L824.176 257.546L824.083 296.968Z" fill="#EAEAEA" stroke="white"/>
<path d="M858.083 237.968L823.896 257.599L789.802 237.807L789.894 198.385L824.082 178.754L858.176 198.546L858.083 237.968Z" fill="#EAEAEA" stroke="white"/>
<path d="M790.189 828.05L756.001 847.681L721.907 827.889L722 788.467L756.187 768.836L790.282 788.628L790.189 828.05Z" fill="#EAEAEA" stroke="white"/>
<path d="M756.083 768.968L721.896 788.599L687.802 768.807L687.894 729.385L722.082 709.754L756.176 729.546L756.083 768.968Z" fill="#EAEAEA" stroke="white"/>
<path d="M790.083 709.968L755.896 729.599L721.802 709.807L721.894 670.385L756.082 650.754L790.176 670.546L790.083 709.968Z" fill="#EAEAEA" stroke="white"/>
<path d="M756.083 650.968L721.896 670.599L687.802 650.807L687.894 611.385L722.082 591.754L756.176 611.546L756.083 650.968Z" fill="#EAEAEA" stroke="white"/>
<path d="M790.083 591.968L755.896 611.599L721.802 591.807L721.894 552.385L756.082 532.754L790.176 552.546L790.083 591.968Z" fill="#EAEAEA" stroke="white"/>
<path d="M755.978 532.886L721.791 552.517L687.696 532.725L687.789 493.302L721.976 473.672L756.071 493.463L755.978 532.886Z" fill="#EAEAEA" stroke="white"/>
<path d="M790.083 473.968L755.896 493.599L721.802 473.807L721.894 434.385L756.082 414.754L790.176 434.546L790.083 473.968Z" fill="#EAEAEA" stroke="white"/>
<path d="M755.978 414.886L721.791 434.517L687.696 414.725L687.789 375.302L721.976 355.672L756.071 375.463L755.978 414.886Z" fill="#EAEAEA" stroke="white"/>
<path d="M789.978 355.886L755.791 375.517L721.696 355.725L721.789 316.302L755.976 296.672L790.071 316.463L789.978 355.886Z" fill="#EAEAEA" stroke="white"/>
<path d="M755.978 296.886L721.791 316.517L687.696 296.725L687.789 257.302L721.976 237.672L756.071 257.463L755.978 296.886Z" fill="#EAEAEA" stroke="white"/>
<path d="M789.978 237.886L755.791 257.517L721.696 237.725L721.789 198.302L755.976 178.672L790.071 198.463L789.978 237.886Z" fill="#EAEAEA" stroke="white"/>
<path d="M722.188 828.05L688.001 847.681L653.907 827.889L653.999 788.467L688.187 768.836L722.281 788.628L722.188 828.05Z" fill="#EAEAEA" stroke="white"/>
<path d="M688.083 768.968L653.896 788.599L619.801 768.807L619.894 729.385L654.081 709.754L688.176 729.546L688.083 768.968Z" fill="#EAEAEA" stroke="white"/>
<path d="M722.083 709.968L687.896 729.599L653.801 709.807L653.894 670.385L688.081 650.754L722.176 670.546L722.083 709.968Z" fill="#EAEAEA" stroke="white"/>
<path d="M688.083 650.968L653.896 670.599L619.801 650.807L619.894 611.385L654.081 591.754L688.176 611.546L688.083 650.968Z" fill="#FE5151" stroke="white"/>
<path d="M722.083 591.968L687.896 611.599L653.801 591.807L653.894 552.385L688.081 532.754L722.176 552.546L722.083 591.968Z" fill="#EAEAEA" stroke="white"/>
<path d="M687.977 532.886L653.79 552.517L619.696 532.725L619.788 493.302L653.976 473.672L688.07 493.463L687.977 532.886Z" fill="#EAEAEA" stroke="white"/>
<path d="M722.083 473.968L687.896 493.599L653.801 473.807L653.894 434.385L688.081 414.754L722.176 434.546L722.083 473.968Z" fill="#EAEAEA" stroke="white"/>
<path d="M687.977 414.886L653.79 434.517L619.696 414.725L619.788 375.302L653.976 355.672L688.07 375.463L687.977 414.886Z" fill="#EAEAEA" stroke="white"/>
<path d="M721.977 355.886L687.79 375.517L653.696 355.725L653.788 316.302L687.976 296.672L722.07 316.463L721.977 355.886Z" fill="#FE5151" stroke="white"/>
<path d="M687.977 296.886L653.79 316.517L619.696 296.725L619.788 257.302L653.976 237.672L688.07 257.463L687.977 296.886Z" fill="#EAEAEA" stroke="white"/>
<path d="M721.977 237.886L687.79 257.517L653.696 237.725L653.788 198.302L687.976 178.672L722.07 198.463L721.977 237.886Z" fill="#EAEAEA" stroke="white"/>
<path d="M654.082 827.968L619.895 847.599L585.801 827.807L585.893 788.385L620.081 768.754L654.175 788.546L654.082 827.968Z" fill="#EAEAEA" stroke="white"/>
<path d="M619.977 768.886L585.79 788.517L551.695 768.725L551.788 729.302L585.975 709.672L620.07 729.463L619.977 768.886Z" fill="#EAEAEA" stroke="white"/>
<path d="M653.977 709.886L619.79 729.517L585.695 709.725L585.788 670.302L619.975 650.672L654.07 670.463L653.977 709.886Z" fill="#EAEAEA" stroke="white"/>
<path d="M619.977 650.886L585.79 670.517L551.695 650.725L551.788 611.302L585.975 591.672L620.07 611.463L619.977 650.886Z" fill="#EAEAEA" stroke="white"/>
<path d="M653.977 591.886L619.79 611.517L585.695 591.725L585.788 552.302L619.975 532.672L654.07 552.463L653.977 591.886Z" fill="#EAEAEA" stroke="white"/>
<path d="M619.871 532.804L585.684 552.434L551.59 532.643L551.683 493.22L585.87 473.589L619.964 493.381L619.871 532.804Z" fill="#EAEAEA" stroke="white"/>
<path d="M653.977 473.886L619.79 493.517L585.695 473.725L585.788 434.302L619.975 414.672L654.07 434.463L653.977 473.886Z" fill="#EAEAEA" stroke="white"/>
<path d="M619.871 414.804L585.684 434.434L551.59 414.643L551.683 375.22L585.87 355.589L619.964 375.381L619.871 414.804Z" fill="#EAEAEA" stroke="white"/>
<path d="M653.871 355.804L619.684 375.434L585.59 355.643L585.683 316.22L619.87 296.589L653.964 316.381L653.871 355.804Z" fill="#EAEAEA" stroke="white"/>
<path d="M619.871 296.804L585.684 316.434L551.59 296.643L551.683 257.22L585.87 237.589L619.964 257.381L619.871 296.804Z" fill="#EAEAEA" stroke="white"/>
<path d="M653.871 237.804L619.684 257.434L585.59 237.643L585.683 198.22L619.87 178.589L653.964 198.381L653.871 237.804Z" fill="#EAEAEA" stroke="white"/>
<path d="M585.399 828.133L551.211 847.763L517.117 827.972L517.21 788.549L551.397 768.918L585.492 788.71L585.399 828.133Z" fill="#EAEAEA" stroke="white"/>
<path d="M551.293 769.05L517.106 788.681L483.011 768.889L483.104 729.467L517.292 709.836L551.386 729.628L551.293 769.05Z" fill="#EAEAEA" stroke="white"/>
<path d="M585.293 710.05L551.106 729.681L517.011 709.889L517.104 670.467L551.292 650.836L585.386 670.628L585.293 710.05Z" fill="#EAEAEA" stroke="white"/>
<path d="M551.293 651.05L517.106 670.681L483.011 650.889L483.104 611.467L517.292 591.836L551.386 611.628L551.293 651.05Z" fill="#EAEAEA" stroke="white"/>
<path d="M585.293 592.05L551.106 611.681L517.011 591.889L517.104 552.467L551.292 532.836L585.386 552.628L585.293 592.05Z" fill="#EAEAEA" stroke="white"/>
<path d="M551.188 532.968L517 552.599L482.906 532.807L482.999 493.385L517.186 473.754L551.281 493.546L551.188 532.968Z" fill="#EAEAEA" stroke="white"/>
<path d="M585.293 474.05L551.106 493.681L517.011 473.889L517.104 434.467L551.292 414.836L585.386 434.628L585.293 474.05Z" fill="#EAEAEA" stroke="white"/>
<path d="M551.188 414.968L517 434.599L482.906 414.807L482.999 375.385L517.186 355.754L551.281 375.546L551.188 414.968Z" fill="#EAEAEA" stroke="white"/>
<path d="M585.188 355.968L551 375.599L516.906 355.807L516.999 316.385L551.186 296.754L585.281 316.546L585.188 355.968Z" fill="#EAEAEA" stroke="white"/>
<path d="M551.188 296.968L517 316.599L482.906 296.807L482.999 257.385L517.186 237.754L551.281 257.546L551.188 296.968Z" fill="#EAEAEA" stroke="white"/>
<path d="M585.188 237.968L551 257.599L516.906 237.807L516.999 198.385L551.186 178.754L585.281 198.546L585.188 237.968Z" fill="#FE5151" stroke="white"/>
<path d="M517.504 828.215L483.317 847.846L449.222 828.054L449.315 788.631L483.503 769.001L517.597 788.792L517.504 828.215Z" fill="#EAEAEA" stroke="white"/>
<path d="M483.399 769.133L449.211 788.763L415.117 768.972L415.21 729.549L449.397 709.918L483.492 729.71L483.399 769.133Z" fill="#EAEAEA" stroke="white"/>
<path d="M517.399 710.133L483.211 729.763L449.117 709.972L449.21 670.549L483.397 650.918L517.492 670.71L517.399 710.133Z" fill="#EAEAEA" stroke="white"/>
<path d="M483.399 651.133L449.211 670.763L415.117 650.972L415.21 611.549L449.397 591.918L483.492 611.71L483.399 651.133Z" fill="#EAEAEA" stroke="white"/>
<path d="M517.399 592.133L483.211 611.763L449.117 591.972L449.21 552.549L483.397 532.918L517.492 552.71L517.399 592.133Z" fill="#EAEAEA" stroke="white"/>
<path d="M483.293 533.05L449.106 552.681L415.011 532.889L415.104 493.467L449.292 473.836L483.386 493.628L483.293 533.05Z" fill="#EAEAEA" stroke="white"/>
<path d="M517.399 474.133L483.211 493.763L449.117 473.972L449.21 434.549L483.397 414.918L517.492 434.71L517.399 474.133Z" fill="#FE5151" stroke="white"/>
<path d="M483.293 415.05L449.106 434.681L415.011 414.889L415.104 375.467L449.292 355.836L483.386 375.628L483.293 415.05Z" fill="#EAEAEA" stroke="white"/>
<path d="M517.293 356.05L483.106 375.681L449.011 355.889L449.104 316.467L483.292 296.836L517.386 316.628L517.293 356.05Z" fill="#EAEAEA" stroke="white"/>
<path d="M483.293 297.05L449.106 316.681L415.011 296.889L415.104 257.467L449.292 237.836L483.386 257.628L483.293 297.05Z" fill="#EAEAEA" stroke="white"/>
<path d="M517.293 238.05L483.106 257.681L449.011 237.889L449.104 198.467L483.292 178.836L517.386 198.628L517.293 238.05Z" fill="#EAEAEA" stroke="white"/>
<path d="M449.399 828.133L415.211 847.763L381.117 827.972L381.21 788.549L415.397 768.918L449.492 788.71L449.399 828.133Z" fill="#EAEAEA" stroke="white"/>
<path d="M415.293 769.05L381.106 788.681L347.011 768.889L347.104 729.467L381.292 709.836L415.386 729.628L415.293 769.05Z" fill="#FE5151" stroke="white"/>
<path d="M449.293 710.05L415.106 729.681L381.011 709.889L381.104 670.467L415.292 650.836L449.386 670.628L449.293 710.05Z" fill="#EAEAEA" stroke="white"/>
<path d="M415.293 651.05L381.106 670.681L347.011 650.889L347.104 611.467L381.292 591.836L415.386 611.628L415.293 651.05Z" fill="#FE5151" stroke="white"/>
<path d="M449.293 592.05L415.106 611.681L381.011 591.889L381.104 552.467L415.292 532.836L449.386 552.628L449.293 592.05Z" fill="#EAEAEA" stroke="white"/>
<path d="M415.188 532.968L381 552.599L346.906 532.807L346.999 493.385L381.186 473.754L415.281 493.546L415.188 532.968Z" fill="#EAEAEA" stroke="white"/>
<path d="M449.293 474.05L415.106 493.681L381.011 473.889L381.104 434.467L415.292 414.836L449.386 434.628L449.293 474.05Z" fill="#EAEAEA" stroke="white"/>
<path d="M415.188 414.968L381 434.599L346.906 414.807L346.999 375.385L381.186 355.754L415.281 375.546L415.188 414.968Z" fill="#EAEAEA" stroke="white"/>
<path d="M449.188 355.968L415 375.599L380.906 355.807L380.999 316.385L415.186 296.754L449.281 316.546L449.188 355.968Z" fill="#EAEAEA" stroke="white"/>
<path d="M415.188 296.968L381 316.599L346.906 296.807L346.999 257.385L381.186 237.754L415.281 257.546L415.188 296.968Z" fill="#FE5151" stroke="white"/>
<path d="M449.188 237.968L415 257.599L380.906 237.807L380.999 198.385L415.186 178.754L449.281 198.546L449.188 237.968Z" fill="#EAEAEA" stroke="white"/>
<path d="M381.399 828.133L347.211 847.763L313.117 827.972L313.21 788.549L347.397 768.918L381.492 788.71L381.399 828.133Z" fill="#EAEAEA" stroke="white"/>
<path d="M347.293 769.05L313.106 788.681L279.011 768.889L279.104 729.467L313.292 709.836L347.386 729.628L347.293 769.05Z" fill="#EAEAEA" stroke="white"/>
<path d="M381.293 710.05L347.106 729.681L313.011 709.889L313.104 670.467L347.292 650.836L381.386 670.628L381.293 710.05Z" fill="#FE5151" stroke="white"/>
<path d="M347.293 651.05L313.106 670.681L279.011 650.889L279.104 611.467L313.292 591.836L347.386 611.628L347.293 651.05Z" fill="#FE5151" stroke="white"/>
<path d="M381.293 592.05L347.106 611.681L313.011 591.889L313.104 552.467L347.292 532.836L381.386 552.628L381.293 592.05Z" fill="#EAEAEA" stroke="white"/>
<path d="M347.188 532.968L313 552.599L278.906 532.807L278.999 493.385L313.186 473.754L347.281 493.546L347.188 532.968Z" fill="#EAEAEA" stroke="white"/>
<path d="M381.293 474.05L347.106 493.681L313.011 473.889L313.104 434.467L347.292 414.836L381.386 434.628L381.293 474.05Z" fill="#EAEAEA" stroke="white"/>
<path d="M347.188 414.968L313 434.599L278.906 414.807L278.999 375.385L313.186 355.754L347.281 375.546L347.188 414.968Z" fill="#EAEAEA" stroke="white"/>
<path d="M381.188 355.968L347 375.599L312.906 355.807L312.999 316.385L347.186 296.754L381.281 316.546L381.188 355.968Z" fill="#EAEAEA" stroke="white"/>
<path d="M347.188 296.968L313 316.599L278.906 296.807L278.999 257.385L313.186 237.754L347.281 257.546L347.188 296.968Z" fill="#EAEAEA" stroke="white"/>
<path d="M381.188 237.968L347 257.599L312.906 237.807L312.999 198.385L347.186 178.754L381.281 198.546L381.188 237.968Z" fill="#EAEAEA" stroke="white"/>
<path d="M312.4 827.133L278.212 846.763L244.118 826.972L244.211 787.549L278.398 767.918L312.493 787.71L312.4 827.133Z" fill="#EAEAEA" stroke="white"/>
<path d="M278.294 768.05L244.107 787.681L210.012 767.889L210.105 728.467L244.293 708.836L278.387 728.628L278.294 768.05Z" fill="#EAEAEA" stroke="white"/>
<path d="M312.294 709.05L278.107 728.681L244.012 708.889L244.105 669.467L278.293 649.836L312.387 669.628L312.294 709.05Z" fill="#EAEAEA" stroke="white"/>
<path d="M278.294 650.05L244.107 669.681L210.012 649.889L210.105 610.467L244.293 590.836L278.387 610.628L278.294 650.05Z" fill="#EAEAEA" stroke="white"/>
<path d="M312.294 591.05L278.107 610.681L244.012 590.889L244.105 551.467L278.293 531.836L312.387 551.628L312.294 591.05Z" fill="#EAEAEA" stroke="white"/>
<path d="M278.189 531.968L244.001 551.599L209.907 531.807L210 492.385L244.187 472.754L278.282 492.546L278.189 531.968Z" fill="#EAEAEA" stroke="white"/>
<path d="M312.294 473.05L278.107 492.681L244.012 472.889L244.105 433.467L278.293 413.836L312.387 433.628L312.294 473.05Z" fill="#EAEAEA" stroke="white"/>
<path d="M278.189 413.968L244.001 433.599L209.907 413.807L210 374.385L244.187 354.754L278.282 374.546L278.189 413.968Z" fill="#EAEAEA" stroke="white"/>
<path d="M312.189 354.968L278.001 374.599L243.907 354.807L244 315.385L278.187 295.754L312.282 315.546L312.189 354.968Z" fill="#EAEAEA" stroke="white"/>
<path d="M278.189 295.968L244.001 315.599L209.907 295.807L210 256.385L244.187 236.754L278.282 256.546L278.189 295.968Z" fill="#EAEAEA" stroke="white"/>
<path d="M312.189 236.968L278.001 256.599L243.907 236.807L244 197.385L278.187 177.754L312.282 197.546L312.189 236.968Z" fill="#EAEAEA" stroke="white"/>
<path d="M244.505 827.215L210.318 846.846L176.223 827.054L176.316 787.631L210.504 768.001L244.598 787.792L244.505 827.215Z" fill="#EAEAEA" stroke="white"/>
<path d="M210.4 768.133L176.212 787.763L142.118 767.972L142.211 728.549L176.398 708.918L210.493 728.71L210.4 768.133Z" fill="#EAEAEA" stroke="white"/>
<path d="M244.4 709.133L210.212 728.763L176.118 708.972L176.211 669.549L210.398 649.918L244.493 669.71L244.4 709.133Z" fill="#EAEAEA" stroke="white"/>
<path d="M210.4 650.133L176.212 669.763L142.118 649.972L142.211 610.549L176.398 590.918L210.493 610.71L210.4 650.133Z" fill="#EAEAEA" stroke="white"/>
<path d="M244.4 591.133L210.212 610.763L176.118 590.972L176.211 551.549L210.398 531.918L244.493 551.71L244.4 591.133Z" fill="#FE5151" stroke="white"/>
<path d="M210.294 532.05L176.107 551.681L142.012 531.889L142.105 492.467L176.293 472.836L210.387 492.628L210.294 532.05Z" fill="#EAEAEA" stroke="white"/>
<path d="M244.4 473.133L210.212 492.763L176.118 472.972L176.211 433.549L210.398 413.918L244.493 433.71L244.4 473.133Z" fill="#EAEAEA" stroke="white"/>
<path d="M210.294 414.05L176.107 433.681L142.012 413.889L142.105 374.467L176.293 354.836L210.387 374.628L210.294 414.05Z" fill="#EAEAEA" stroke="white"/>
<path d="M244.294 355.05L210.107 374.681L176.012 354.889L176.105 315.467L210.293 295.836L244.387 315.628L244.294 355.05Z" fill="#FE5151" stroke="white"/>
<path d="M210.294 296.05L176.107 315.681L142.012 295.889L142.105 256.467L176.293 236.836L210.387 256.628L210.294 296.05Z" fill="#EAEAEA" stroke="white"/>
<path d="M244.294 237.05L210.107 256.681L176.012 236.889L176.105 197.467L210.293 177.836L244.387 197.628L244.294 237.05Z" fill="#EAEAEA" stroke="white"/>
<path d="M176.4 827.133L142.212 846.763L108.118 826.972L108.211 787.549L142.398 767.918L176.493 787.71L176.4 827.133Z" fill="#EAEAEA" stroke="white"/>
<path d="M142.294 768.05L108.107 787.681L74.0125 767.889L74.1054 728.467L108.293 708.836L142.387 728.628L142.294 768.05Z" fill="#EAEAEA" stroke="white"/>
<path d="M176.294 709.05L142.107 728.681L108.012 708.889L108.105 669.467L142.293 649.836L176.387 669.628L176.294 709.05Z" fill="#EAEAEA" stroke="white"/>
<path d="M142.294 650.05L108.107 669.681L74.0125 649.889L74.1054 610.467L108.293 590.836L142.387 610.628L142.294 650.05Z" fill="#EAEAEA" stroke="white"/>
<path d="M176.294 591.05L142.107 610.681L108.012 590.889L108.105 551.467L142.293 531.836L176.387 551.628L176.294 591.05Z" fill="#EAEAEA" stroke="white"/>
<path d="M142.189 531.968L108.001 551.599L73.907 531.807L73.9999 492.385L108.187 472.754L142.282 492.546L142.189 531.968Z" fill="#EAEAEA" stroke="white"/>
<path d="M176.294 473.05L142.107 492.681L108.012 472.889L108.105 433.467L142.293 413.836L176.387 433.628L176.294 473.05Z" fill="#EAEAEA" stroke="white"/>
<path d="M142.189 413.968L108.001 433.599L73.907 413.807L73.9999 374.385L108.187 354.754L142.282 374.546L142.189 413.968Z" fill="#EAEAEA" stroke="white"/>
<path d="M176.189 354.968L142.001 374.599L107.907 354.807L108 315.385L142.187 295.754L176.282 315.546L176.189 354.968Z" fill="#EAEAEA" stroke="white"/>
<path d="M142.189 295.968L108.001 315.599L73.907 295.807L73.9999 256.385L108.187 236.754L142.282 256.546L142.189 295.968Z" fill="#EAEAEA" stroke="white"/>
<path d="M176.189 236.968L142.001 256.599L107.907 236.807L108 197.385L142.187 177.754L176.282 197.546L176.189 236.968Z" fill="#EAEAEA" stroke="white"/>
<path d="M108.4 827.133L74.2124 846.763L40.1179 826.972L40.2109 787.549L74.3982 767.918L108.493 787.71L108.4 827.133Z" fill="#EAEAEA" stroke="white"/>
<path d="M74.2943 768.05L40.1069 787.681L6.01247 767.889L6.10539 728.467L40.2928 708.836L74.3872 728.628L74.2943 768.05Z" fill="#EAEAEA" stroke="white"/>
<path d="M108.294 709.05L74.1069 728.681L40.0125 708.889L40.1054 669.467L74.2928 649.836L108.387 669.628L108.294 709.05Z" fill="#FE5151" stroke="white"/>
<path d="M74.2943 650.05L40.1069 669.681L6.01247 649.889L6.10539 610.467L40.2928 590.836L74.3872 610.628L74.2943 650.05Z" fill="#EAEAEA" stroke="white"/>
<path d="M108.294 591.05L74.1069 610.681L40.0125 590.889L40.1054 551.467L74.2928 531.836L108.387 551.628L108.294 591.05Z" fill="#EAEAEA" stroke="white"/>
<path d="M74.1889 531.968L40.0015 551.599L5.90701 531.807L5.99992 492.385L40.1873 472.754L74.2818 492.546L74.1889 531.968Z" fill="#EAEAEA" stroke="white"/>
<path d="M108.294 473.05L74.1069 492.681L40.0125 472.889L40.1054 433.467L74.2928 413.836L108.387 433.628L108.294 473.05Z" fill="#EAEAEA" stroke="white"/>
<path d="M74.1889 413.968L40.0015 433.599L5.90701 413.807L5.99992 374.385L40.1873 354.754L74.2818 374.546L74.1889 413.968Z" fill="#EAEAEA" stroke="white"/>
<path d="M108.189 354.968L74.0015 374.599L39.907 354.807L39.9999 315.385L74.1873 295.754L108.282 315.546L108.189 354.968Z" fill="#EAEAEA" stroke="white"/>
<path d="M74.1889 295.968L40.0015 315.599L5.90701 295.807L5.99992 256.385L40.1873 236.754L74.2818 256.546L74.1889 295.968Z" fill="#EAEAEA" stroke="white"/>
<path d="M108.189 236.968L74.0015 256.599L39.907 236.807L39.9999 197.385L74.1873 177.754L108.282 197.546L108.189 236.968Z" fill="#EAEAEA" stroke="white"/>
<path d="M1640.51 178.215L1606.32 197.846L1572.22 178.054L1572.32 138.631L1606.5 119.001L1640.6 138.792L1640.51 178.215Z" fill="#EAEAEA" stroke="white"/>
<path d="M1674.51 119.215L1640.32 138.846L1606.22 119.054L1606.32 79.6314L1640.5 60.0006L1674.6 79.7924L1674.51 119.215Z" fill="#FE5151" stroke="white"/>
<path d="M1640.51 60.2149L1606.32 79.8457L1572.22 60.054L1572.32 20.6314L1606.5 1.00063L1640.6 20.7924L1640.51 60.2149Z" fill="#EAEAEA" stroke="white"/>
<path d="M1708.4 178.133L1674.21 197.763L1640.12 177.972L1640.21 138.549L1674.4 118.918L1708.49 138.71L1708.4 178.133Z" fill="#EAEAEA" stroke="white"/>
<path d="M1742.4 119.133L1708.21 138.763L1674.12 118.972L1674.21 79.5492L1708.4 59.9184L1742.49 79.7101L1742.4 119.133Z" fill="#EAEAEA" stroke="white"/>
<path d="M1708.4 60.1326L1674.21 79.7634L1640.12 59.9717L1640.21 20.5492L1674.4 0.918357L1708.49 20.7101L1708.4 60.1326Z" fill="#EAEAEA" stroke="white"/>
<path d="M1572.4 178.133L1538.21 197.763L1504.12 177.972L1504.21 138.549L1538.4 118.918L1572.49 138.71L1572.4 178.133Z" fill="#EAEAEA" stroke="white"/>
<path d="M1606.4 119.133L1572.21 138.763L1538.12 118.972L1538.21 79.5492L1572.4 59.9184L1606.49 79.7101L1606.4 119.133Z" fill="#EAEAEA" stroke="white"/>
<path d="M1572.4 60.1326L1538.21 79.7634L1504.12 59.9717L1504.21 20.5492L1538.4 0.918357L1572.49 20.7101L1572.4 60.1326Z" fill="#EAEAEA" stroke="white"/>
<path d="M1504.4 178.133L1470.21 197.763L1436.12 177.972L1436.21 138.549L1470.4 118.918L1504.49 138.71L1504.4 178.133Z" fill="#EAEAEA" stroke="white"/>
<path d="M1538.4 119.133L1504.21 138.763L1470.12 118.972L1470.21 79.5492L1504.4 59.9184L1538.49 79.7101L1538.4 119.133Z" fill="#EAEAEA" stroke="white"/>
<path d="M1504.4 60.1326L1470.21 79.7634L1436.12 59.9717L1436.21 20.5492L1470.4 0.918357L1504.49 20.7101L1504.4 60.1326Z" fill="#FE5151" stroke="white"/>
<path d="M1436.29 178.05L1402.11 197.681L1368.01 177.889L1368.11 138.467L1402.29 118.836L1436.39 138.628L1436.29 178.05Z" fill="#EAEAEA" stroke="white"/>
<path d="M1470.29 119.05L1436.11 138.681L1402.01 118.889L1402.11 79.4669L1436.29 59.8361L1470.39 79.6278L1470.29 119.05Z" fill="#EAEAEA" stroke="white"/>
<path d="M1436.29 60.0504L1402.11 79.6812L1368.01 59.8894L1368.11 20.4669L1402.29 0.836082L1436.39 20.6278L1436.29 60.0504Z" fill="#EAEAEA" stroke="white"/>
<path d="M1368.4 178.133L1334.21 197.763L1300.12 177.972L1300.21 138.549L1334.4 118.918L1368.49 138.71L1368.4 178.133Z" fill="#EAEAEA" stroke="white"/>
<path d="M1402.4 119.133L1368.21 138.763L1334.12 118.972L1334.21 79.5492L1368.4 59.9184L1402.49 79.7101L1402.4 119.133Z" fill="#EAEAEA" stroke="white"/>
<path d="M1368.4 60.1326L1334.21 79.7634L1300.12 59.9717L1300.21 20.5492L1334.4 0.918357L1368.49 20.7101L1368.4 60.1326Z" fill="#EAEAEA" stroke="white"/>
<path d="M1300.29 178.05L1266.11 197.681L1232.01 177.889L1232.11 138.467L1266.29 118.836L1300.39 138.628L1300.29 178.05Z" fill="#EAEAEA" stroke="white"/>
<path d="M1334.29 119.05L1300.11 138.681L1266.01 118.889L1266.11 79.4669L1300.29 59.8361L1334.39 79.6278L1334.29 119.05Z" fill="#EAEAEA" stroke="white"/>
<path d="M1300.29 60.0504L1266.11 79.6812L1232.01 59.8894L1232.11 20.4669L1266.29 0.836082L1300.39 20.6278L1300.29 60.0504Z" fill="#EAEAEA" stroke="white"/>
<path d="M1232.29 178.05L1198.11 197.681L1164.01 177.889L1164.11 138.467L1198.29 118.836L1232.39 138.628L1232.29 178.05Z" fill="#EAEAEA" stroke="white"/>
<path d="M1266.29 119.05L1232.11 138.681L1198.01 118.889L1198.11 79.4669L1232.29 59.8361L1266.39 79.6278L1266.29 119.05Z" fill="#EAEAEA" stroke="white"/>
<path d="M1232.29 60.0504L1198.11 79.6812L1164.01 59.8894L1164.11 20.4669L1198.29 0.836082L1232.39 20.6278L1232.29 60.0504Z" fill="#EAEAEA" stroke="white"/>
<path d="M1164.19 177.968L1130 197.599L1095.91 177.807L1096 138.385L1130.19 118.754L1164.28 138.546L1164.19 177.968Z" fill="#EAEAEA" stroke="white"/>
<path d="M1198.19 118.968L1164 138.599L1129.91 118.807L1130 79.3846L1164.19 59.7538L1198.28 79.5455L1198.19 118.968Z" fill="#EAEAEA" stroke="white"/>
<path d="M1164.19 59.9681L1130 79.5989L1095.91 59.8071L1096 20.3846L1130.19 0.753807L1164.28 20.5455L1164.19 59.9681Z" fill="#EAEAEA" stroke="white"/>
<path d="M1096.4 178.133L1062.21 197.763L1028.12 177.972L1028.21 138.549L1062.4 118.918L1096.49 138.71L1096.4 178.133Z" fill="#EAEAEA" stroke="white"/>
<path d="M1130.4 119.133L1096.21 138.763L1062.12 118.972L1062.21 79.5492L1096.4 59.9184L1130.49 79.7101L1130.4 119.133Z" fill="#FE5151" stroke="white"/>
<path d="M1096.4 60.1326L1062.21 79.7634L1028.12 59.9717L1028.21 20.5492L1062.4 0.918357L1096.49 20.7101L1096.4 60.1326Z" fill="#EAEAEA" stroke="white"/>
<path d="M1028.29 178.05L994.107 197.681L960.012 177.889L960.105 138.467L994.293 118.836L1028.39 138.628L1028.29 178.05Z" fill="#EAEAEA" stroke="white"/>
<path d="M1062.29 119.05L1028.11 138.681L994.012 118.889L994.105 79.4669L1028.29 59.8361L1062.39 79.6278L1062.29 119.05Z" fill="#EAEAEA" stroke="white"/>
<path d="M1028.29 60.0504L994.107 79.6812L960.012 59.8894L960.105 20.4669L994.293 0.836082L1028.39 20.6278L1028.29 60.0504Z" fill="#EAEAEA" stroke="white"/>
<path d="M960.294 178.05L926.107 197.681L892.012 177.889L892.105 138.467L926.293 118.836L960.387 138.628L960.294 178.05Z" fill="#EAEAEA" stroke="white"/>
<path d="M994.294 119.05L960.107 138.681L926.012 118.889L926.105 79.4669L960.293 59.8361L994.387 79.6278L994.294 119.05Z" fill="#EAEAEA" stroke="white"/>
<path d="M960.294 60.0504L926.107 79.6812L892.012 59.8894L892.105 20.4669L926.293 0.836082L960.387 20.6278L960.294 60.0504Z" fill="#EAEAEA" stroke="white"/>
<path d="M892.189 177.968L858.001 197.599L823.907 177.807L824 138.385L858.187 118.754L892.282 138.546L892.189 177.968Z" fill="#EAEAEA" stroke="white"/>
<path d="M926.189 118.968L892.001 138.599L857.907 118.807L858 79.3846L892.187 59.7538L926.282 79.5455L926.189 118.968Z" fill="#EAEAEA" stroke="white"/>
<path d="M892.189 59.9681L858.001 79.5989L823.907 59.8071L824 20.3846L858.187 0.753807L892.282 20.5455L892.189 59.9681Z" fill="#EAEAEA" stroke="white"/>
<path d="M824.294 178.05L790.107 197.681L756.012 177.889L756.105 138.467L790.293 118.836L824.387 138.628L824.294 178.05Z" fill="#EAEAEA" stroke="white"/>
<path d="M858.294 119.05L824.107 138.681L790.012 118.889L790.105 79.4669L824.293 59.8361L858.387 79.6278L858.294 119.05Z" fill="#EAEAEA" stroke="white"/>
<path d="M824.294 60.0504L790.107 79.6812L756.012 59.8894L756.105 20.4669L790.293 0.836082L824.387 20.6278L824.294 60.0504Z" fill="#EAEAEA" stroke="white"/>
<path d="M756.189 177.968L722.001 197.599L687.907 177.807L688 138.385L722.187 118.754L756.282 138.546L756.189 177.968Z" fill="#EAEAEA" stroke="white"/>
<path d="M790.189 118.968L756.001 138.599L721.907 118.807L722 79.3846L756.187 59.7538L790.282 79.5455L790.189 118.968Z" fill="#FE5151" stroke="white"/>
<path d="M756.189 59.9681L722.001 79.5989L687.907 59.8071L688 20.3846L722.187 0.753807L756.282 20.5455L756.189 59.9681Z" fill="#EAEAEA" stroke="white"/>
<path d="M688.188 177.968L654.001 197.599L619.907 177.807L619.999 138.385L654.187 118.754L688.281 138.546L688.188 177.968Z" fill="#EAEAEA" stroke="white"/>
<path d="M722.188 118.968L688.001 138.599L653.907 118.807L653.999 79.3846L688.187 59.7538L722.281 79.5455L722.188 118.968Z" fill="#EAEAEA" stroke="white"/>
<path d="M688.188 59.9681L654.001 79.5989L619.907 59.8071L619.999 20.3846L654.187 0.753807L688.281 20.5455L688.188 59.9681Z" fill="#EAEAEA" stroke="white"/>
<path d="M620.082 177.886L585.895 197.517L551.801 177.725L551.893 138.302L586.081 118.672L620.175 138.463L620.082 177.886Z" fill="#EAEAEA" stroke="white"/>
<path d="M654.082 118.886L619.895 138.517L585.801 118.725L585.893 79.3023L620.081 59.6715L654.175 79.4633L654.082 118.886Z" fill="#EAEAEA" stroke="white"/>
<path d="M620.082 59.8858L585.895 79.5166L551.801 59.7249L551.893 20.3023L586.081 0.671531L620.175 20.4633L620.082 59.8858Z" fill="#FE5151" stroke="white"/>
<path d="M551.399 178.05L517.211 197.681L483.117 177.889L483.21 138.467L517.397 118.836L551.492 138.628L551.399 178.05Z" fill="#EAEAEA" stroke="white"/>
<path d="M585.399 119.05L551.211 138.681L517.117 118.889L517.21 79.4669L551.397 59.8361L585.492 79.6278L585.399 119.05Z" fill="#EAEAEA" stroke="white"/>
<path d="M551.399 60.0504L517.211 79.6812L483.117 59.8894L483.21 20.4669L517.397 0.836082L551.492 20.6278L551.399 60.0504Z" fill="#EAEAEA" stroke="white"/>
<path d="M483.504 178.133L449.317 197.763L415.222 177.972L415.315 138.549L449.503 118.918L483.597 138.71L483.504 178.133Z" fill="#FE5151" stroke="white"/>
<path d="M517.504 119.133L483.317 138.763L449.222 118.972L449.315 79.5492L483.503 59.9184L517.597 79.7101L517.504 119.133Z" fill="#EAEAEA" stroke="white"/>
<path d="M483.504 60.1326L449.317 79.7634L415.222 59.9717L415.315 20.5492L449.503 0.918357L483.597 20.7101L483.504 60.1326Z" fill="#EAEAEA" stroke="white"/>
<path d="M415.399 178.05L381.211 197.681L347.117 177.889L347.21 138.467L381.397 118.836L415.492 138.628L415.399 178.05Z" fill="#EAEAEA" stroke="white"/>
<path d="M449.399 119.05L415.211 138.681L381.117 118.889L381.21 79.4669L415.397 59.8361L449.492 79.6278L449.399 119.05Z" fill="#EAEAEA" stroke="white"/>
<path d="M415.399 60.0504L381.211 79.6812L347.117 59.8894L347.21 20.4669L381.397 0.836082L415.492 20.6278L415.399 60.0504Z" fill="#EAEAEA" stroke="white"/>
<path d="M347.399 178.05L313.211 197.681L279.117 177.889L279.21 138.467L313.397 118.836L347.492 138.628L347.399 178.05Z" fill="#EAEAEA" stroke="white"/>
<path d="M381.399 119.05L347.211 138.681L313.117 118.889L313.21 79.4669L347.397 59.8361L381.492 79.6278L381.399 119.05Z" fill="#EAEAEA" stroke="white"/>
<path d="M347.399 60.0504L313.211 79.6812L279.117 59.8894L279.21 20.4669L313.397 0.836082L347.492 20.6278L347.399 60.0504Z" fill="#EAEAEA" stroke="white"/>
<path d="M278.4 178.133L244.212 197.763L210.118 177.972L210.211 138.549L244.398 118.918L278.493 138.71L278.4 178.133Z" fill="#EAEAEA" stroke="white"/>
<path d="M278.4 60.1326L244.212 79.7634L210.118 59.9717L210.211 20.5492L244.398 0.918357L278.493 20.7101L278.4 60.1326Z" fill="#EAEAEA" stroke="white"/>
<path d="M210.505 178.215L176.318 197.846L142.223 178.054L142.316 138.631L176.504 119.001L210.598 138.792L210.505 178.215Z" fill="#FE5151" stroke="white"/>
<path d="M244.505 119.215L210.318 138.846L176.223 119.054L176.316 79.6314L210.504 60.0006L244.598 79.7924L244.505 119.215Z" fill="#EAEAEA" stroke="white"/>
<path d="M210.505 60.2149L176.318 79.8457L142.223 60.054L142.316 20.6314L176.504 1.00063L210.598 20.7924L210.505 60.2149Z" fill="#EAEAEA" stroke="white"/>
<path d="M142.4 178.133L108.212 197.763L74.1179 177.972L74.2109 138.549L108.398 118.918L142.493 138.71L142.4 178.133Z" fill="#EAEAEA" stroke="white"/>
<path d="M176.4 119.133L142.212 138.763L108.118 118.972L108.211 79.5492L142.398 59.9184L176.493 79.7101L176.4 119.133Z" fill="#EAEAEA" stroke="white"/>
<path d="M142.4 60.1326L108.212 79.7634L74.1179 59.9717L74.2109 20.5492L108.398 0.918357L142.493 20.7101L142.4 60.1326Z" fill="#EAEAEA" stroke="white"/>
<path d="M74.3998 178.133L40.2124 197.763L6.11794 177.972L6.21086 138.549L40.3982 118.918L74.4927 138.71L74.3998 178.133Z" fill="#EAEAEA" stroke="white"/>
<path d="M108.4 119.133L74.2124 138.763L40.1179 118.972L40.2109 79.5492L74.3982 59.9184L108.493 79.7101L108.4 119.133Z" fill="#EAEAEA" stroke="white"/>
<path d="M74.3998 60.1326L40.2124 79.7634L6.11794 59.9717L6.21086 20.5492L40.3982 0.918357L74.4927 20.7101L74.3998 60.1326Z" fill="#EAEAEA" stroke="white"/>
<path d="M313.4 119.215L279.212 138.846L245.118 119.054L245.211 79.6317L279.398 60.0009L313.493 79.7926L313.4 119.215Z" fill="#EAEAEA" stroke="white"/>
</svg>
